%
M48
M72
T01C0.02400
T02C0.04000
T03C0.04400
T04C0.04700
T05C0.11024
%
T01
X116000Y78500
X116000Y98500
T02
X114900Y173200
X97100Y173200
X97100Y198800
X114900Y198800
X18500Y153500
X18500Y143500
X18500Y133500
X18500Y123500
X18500Y113500
X18500Y103500
X18500Y93500
X18500Y83500
X278500Y83500
X278500Y73500
X278500Y63500
X278500Y53500
X278500Y43500
X278500Y33500
X278500Y123500
X278500Y133500
X278500Y143500
X278500Y153500
X278500Y163500
X278500Y173500
T03
X163500Y173500
X163500Y163500
X163500Y153500
X163500Y143500
X163500Y133500
X163500Y123500
X163500Y113500
X163500Y103500
X163500Y93500
X163500Y83500
X163500Y73500
X163500Y63500
X163500Y53500
X163500Y43500
X133500Y43500
X133500Y53500
X133500Y63500
X133500Y73500
X133500Y83500
X133500Y93500
X133500Y103500
X133500Y113500
X133500Y123500
X133500Y133500
X133500Y143500
X133500Y153500
X133500Y163500
X133500Y173500
T04
X26000Y226157
X26000Y245843
T05
X16000Y16000
X283500Y283500
X286000Y16000
X16000Y286000
M30
