G75*
%MOIN*%
%OFA0B0*%
%FSLAX25Y25*%
%IPPOS*%
%LPD*%
%AMOC8*
5,1,8,0,0,1.08239X$1,22.5*
%
%ADD10C,0.00000*%
%ADD11C,0.00600*%
%ADD12R,0.09843X0.16929*%
%ADD13R,0.07087X0.06299*%
%ADD14R,0.06299X0.07087*%
%ADD15R,0.21260X0.24409*%
%ADD16R,0.03937X0.06299*%
%ADD17R,0.07098X0.06299*%
%ADD18C,0.04400*%
%ADD19R,0.07874X0.06299*%
%ADD20R,0.06299X0.07098*%
%ADD21C,0.06000*%
%ADD22R,0.06600X0.06600*%
%ADD23C,0.06600*%
%ADD24C,0.07050*%
%ADD25C,0.05000*%
%ADD26C,0.01600*%
%ADD27C,0.02400*%
D10*
X0001000Y0001000D02*
X0001000Y0301000D01*
X0301000Y0301000D01*
X0301000Y0001000D01*
X0001000Y0001000D01*
X0010488Y0016000D02*
X0010490Y0016148D01*
X0010496Y0016296D01*
X0010506Y0016444D01*
X0010520Y0016591D01*
X0010538Y0016738D01*
X0010559Y0016884D01*
X0010585Y0017030D01*
X0010615Y0017175D01*
X0010648Y0017319D01*
X0010686Y0017462D01*
X0010727Y0017604D01*
X0010772Y0017745D01*
X0010820Y0017885D01*
X0010873Y0018024D01*
X0010929Y0018161D01*
X0010989Y0018296D01*
X0011052Y0018430D01*
X0011119Y0018562D01*
X0011190Y0018692D01*
X0011264Y0018820D01*
X0011341Y0018946D01*
X0011422Y0019070D01*
X0011506Y0019192D01*
X0011593Y0019311D01*
X0011684Y0019428D01*
X0011778Y0019543D01*
X0011874Y0019655D01*
X0011974Y0019765D01*
X0012076Y0019871D01*
X0012182Y0019975D01*
X0012290Y0020076D01*
X0012401Y0020174D01*
X0012514Y0020270D01*
X0012630Y0020362D01*
X0012748Y0020451D01*
X0012869Y0020536D01*
X0012992Y0020619D01*
X0013117Y0020698D01*
X0013244Y0020774D01*
X0013373Y0020846D01*
X0013504Y0020915D01*
X0013637Y0020980D01*
X0013772Y0021041D01*
X0013908Y0021099D01*
X0014045Y0021154D01*
X0014184Y0021204D01*
X0014325Y0021251D01*
X0014466Y0021294D01*
X0014609Y0021334D01*
X0014753Y0021369D01*
X0014897Y0021401D01*
X0015043Y0021428D01*
X0015189Y0021452D01*
X0015336Y0021472D01*
X0015483Y0021488D01*
X0015630Y0021500D01*
X0015778Y0021508D01*
X0015926Y0021512D01*
X0016074Y0021512D01*
X0016222Y0021508D01*
X0016370Y0021500D01*
X0016517Y0021488D01*
X0016664Y0021472D01*
X0016811Y0021452D01*
X0016957Y0021428D01*
X0017103Y0021401D01*
X0017247Y0021369D01*
X0017391Y0021334D01*
X0017534Y0021294D01*
X0017675Y0021251D01*
X0017816Y0021204D01*
X0017955Y0021154D01*
X0018092Y0021099D01*
X0018228Y0021041D01*
X0018363Y0020980D01*
X0018496Y0020915D01*
X0018627Y0020846D01*
X0018756Y0020774D01*
X0018883Y0020698D01*
X0019008Y0020619D01*
X0019131Y0020536D01*
X0019252Y0020451D01*
X0019370Y0020362D01*
X0019486Y0020270D01*
X0019599Y0020174D01*
X0019710Y0020076D01*
X0019818Y0019975D01*
X0019924Y0019871D01*
X0020026Y0019765D01*
X0020126Y0019655D01*
X0020222Y0019543D01*
X0020316Y0019428D01*
X0020407Y0019311D01*
X0020494Y0019192D01*
X0020578Y0019070D01*
X0020659Y0018946D01*
X0020736Y0018820D01*
X0020810Y0018692D01*
X0020881Y0018562D01*
X0020948Y0018430D01*
X0021011Y0018296D01*
X0021071Y0018161D01*
X0021127Y0018024D01*
X0021180Y0017885D01*
X0021228Y0017745D01*
X0021273Y0017604D01*
X0021314Y0017462D01*
X0021352Y0017319D01*
X0021385Y0017175D01*
X0021415Y0017030D01*
X0021441Y0016884D01*
X0021462Y0016738D01*
X0021480Y0016591D01*
X0021494Y0016444D01*
X0021504Y0016296D01*
X0021510Y0016148D01*
X0021512Y0016000D01*
X0021510Y0015852D01*
X0021504Y0015704D01*
X0021494Y0015556D01*
X0021480Y0015409D01*
X0021462Y0015262D01*
X0021441Y0015116D01*
X0021415Y0014970D01*
X0021385Y0014825D01*
X0021352Y0014681D01*
X0021314Y0014538D01*
X0021273Y0014396D01*
X0021228Y0014255D01*
X0021180Y0014115D01*
X0021127Y0013976D01*
X0021071Y0013839D01*
X0021011Y0013704D01*
X0020948Y0013570D01*
X0020881Y0013438D01*
X0020810Y0013308D01*
X0020736Y0013180D01*
X0020659Y0013054D01*
X0020578Y0012930D01*
X0020494Y0012808D01*
X0020407Y0012689D01*
X0020316Y0012572D01*
X0020222Y0012457D01*
X0020126Y0012345D01*
X0020026Y0012235D01*
X0019924Y0012129D01*
X0019818Y0012025D01*
X0019710Y0011924D01*
X0019599Y0011826D01*
X0019486Y0011730D01*
X0019370Y0011638D01*
X0019252Y0011549D01*
X0019131Y0011464D01*
X0019008Y0011381D01*
X0018883Y0011302D01*
X0018756Y0011226D01*
X0018627Y0011154D01*
X0018496Y0011085D01*
X0018363Y0011020D01*
X0018228Y0010959D01*
X0018092Y0010901D01*
X0017955Y0010846D01*
X0017816Y0010796D01*
X0017675Y0010749D01*
X0017534Y0010706D01*
X0017391Y0010666D01*
X0017247Y0010631D01*
X0017103Y0010599D01*
X0016957Y0010572D01*
X0016811Y0010548D01*
X0016664Y0010528D01*
X0016517Y0010512D01*
X0016370Y0010500D01*
X0016222Y0010492D01*
X0016074Y0010488D01*
X0015926Y0010488D01*
X0015778Y0010492D01*
X0015630Y0010500D01*
X0015483Y0010512D01*
X0015336Y0010528D01*
X0015189Y0010548D01*
X0015043Y0010572D01*
X0014897Y0010599D01*
X0014753Y0010631D01*
X0014609Y0010666D01*
X0014466Y0010706D01*
X0014325Y0010749D01*
X0014184Y0010796D01*
X0014045Y0010846D01*
X0013908Y0010901D01*
X0013772Y0010959D01*
X0013637Y0011020D01*
X0013504Y0011085D01*
X0013373Y0011154D01*
X0013244Y0011226D01*
X0013117Y0011302D01*
X0012992Y0011381D01*
X0012869Y0011464D01*
X0012748Y0011549D01*
X0012630Y0011638D01*
X0012514Y0011730D01*
X0012401Y0011826D01*
X0012290Y0011924D01*
X0012182Y0012025D01*
X0012076Y0012129D01*
X0011974Y0012235D01*
X0011874Y0012345D01*
X0011778Y0012457D01*
X0011684Y0012572D01*
X0011593Y0012689D01*
X0011506Y0012808D01*
X0011422Y0012930D01*
X0011341Y0013054D01*
X0011264Y0013180D01*
X0011190Y0013308D01*
X0011119Y0013438D01*
X0011052Y0013570D01*
X0010989Y0013704D01*
X0010929Y0013839D01*
X0010873Y0013976D01*
X0010820Y0014115D01*
X0010772Y0014255D01*
X0010727Y0014396D01*
X0010686Y0014538D01*
X0010648Y0014681D01*
X0010615Y0014825D01*
X0010585Y0014970D01*
X0010559Y0015116D01*
X0010538Y0015262D01*
X0010520Y0015409D01*
X0010506Y0015556D01*
X0010496Y0015704D01*
X0010490Y0015852D01*
X0010488Y0016000D01*
X0010488Y0286000D02*
X0010490Y0286148D01*
X0010496Y0286296D01*
X0010506Y0286444D01*
X0010520Y0286591D01*
X0010538Y0286738D01*
X0010559Y0286884D01*
X0010585Y0287030D01*
X0010615Y0287175D01*
X0010648Y0287319D01*
X0010686Y0287462D01*
X0010727Y0287604D01*
X0010772Y0287745D01*
X0010820Y0287885D01*
X0010873Y0288024D01*
X0010929Y0288161D01*
X0010989Y0288296D01*
X0011052Y0288430D01*
X0011119Y0288562D01*
X0011190Y0288692D01*
X0011264Y0288820D01*
X0011341Y0288946D01*
X0011422Y0289070D01*
X0011506Y0289192D01*
X0011593Y0289311D01*
X0011684Y0289428D01*
X0011778Y0289543D01*
X0011874Y0289655D01*
X0011974Y0289765D01*
X0012076Y0289871D01*
X0012182Y0289975D01*
X0012290Y0290076D01*
X0012401Y0290174D01*
X0012514Y0290270D01*
X0012630Y0290362D01*
X0012748Y0290451D01*
X0012869Y0290536D01*
X0012992Y0290619D01*
X0013117Y0290698D01*
X0013244Y0290774D01*
X0013373Y0290846D01*
X0013504Y0290915D01*
X0013637Y0290980D01*
X0013772Y0291041D01*
X0013908Y0291099D01*
X0014045Y0291154D01*
X0014184Y0291204D01*
X0014325Y0291251D01*
X0014466Y0291294D01*
X0014609Y0291334D01*
X0014753Y0291369D01*
X0014897Y0291401D01*
X0015043Y0291428D01*
X0015189Y0291452D01*
X0015336Y0291472D01*
X0015483Y0291488D01*
X0015630Y0291500D01*
X0015778Y0291508D01*
X0015926Y0291512D01*
X0016074Y0291512D01*
X0016222Y0291508D01*
X0016370Y0291500D01*
X0016517Y0291488D01*
X0016664Y0291472D01*
X0016811Y0291452D01*
X0016957Y0291428D01*
X0017103Y0291401D01*
X0017247Y0291369D01*
X0017391Y0291334D01*
X0017534Y0291294D01*
X0017675Y0291251D01*
X0017816Y0291204D01*
X0017955Y0291154D01*
X0018092Y0291099D01*
X0018228Y0291041D01*
X0018363Y0290980D01*
X0018496Y0290915D01*
X0018627Y0290846D01*
X0018756Y0290774D01*
X0018883Y0290698D01*
X0019008Y0290619D01*
X0019131Y0290536D01*
X0019252Y0290451D01*
X0019370Y0290362D01*
X0019486Y0290270D01*
X0019599Y0290174D01*
X0019710Y0290076D01*
X0019818Y0289975D01*
X0019924Y0289871D01*
X0020026Y0289765D01*
X0020126Y0289655D01*
X0020222Y0289543D01*
X0020316Y0289428D01*
X0020407Y0289311D01*
X0020494Y0289192D01*
X0020578Y0289070D01*
X0020659Y0288946D01*
X0020736Y0288820D01*
X0020810Y0288692D01*
X0020881Y0288562D01*
X0020948Y0288430D01*
X0021011Y0288296D01*
X0021071Y0288161D01*
X0021127Y0288024D01*
X0021180Y0287885D01*
X0021228Y0287745D01*
X0021273Y0287604D01*
X0021314Y0287462D01*
X0021352Y0287319D01*
X0021385Y0287175D01*
X0021415Y0287030D01*
X0021441Y0286884D01*
X0021462Y0286738D01*
X0021480Y0286591D01*
X0021494Y0286444D01*
X0021504Y0286296D01*
X0021510Y0286148D01*
X0021512Y0286000D01*
X0021510Y0285852D01*
X0021504Y0285704D01*
X0021494Y0285556D01*
X0021480Y0285409D01*
X0021462Y0285262D01*
X0021441Y0285116D01*
X0021415Y0284970D01*
X0021385Y0284825D01*
X0021352Y0284681D01*
X0021314Y0284538D01*
X0021273Y0284396D01*
X0021228Y0284255D01*
X0021180Y0284115D01*
X0021127Y0283976D01*
X0021071Y0283839D01*
X0021011Y0283704D01*
X0020948Y0283570D01*
X0020881Y0283438D01*
X0020810Y0283308D01*
X0020736Y0283180D01*
X0020659Y0283054D01*
X0020578Y0282930D01*
X0020494Y0282808D01*
X0020407Y0282689D01*
X0020316Y0282572D01*
X0020222Y0282457D01*
X0020126Y0282345D01*
X0020026Y0282235D01*
X0019924Y0282129D01*
X0019818Y0282025D01*
X0019710Y0281924D01*
X0019599Y0281826D01*
X0019486Y0281730D01*
X0019370Y0281638D01*
X0019252Y0281549D01*
X0019131Y0281464D01*
X0019008Y0281381D01*
X0018883Y0281302D01*
X0018756Y0281226D01*
X0018627Y0281154D01*
X0018496Y0281085D01*
X0018363Y0281020D01*
X0018228Y0280959D01*
X0018092Y0280901D01*
X0017955Y0280846D01*
X0017816Y0280796D01*
X0017675Y0280749D01*
X0017534Y0280706D01*
X0017391Y0280666D01*
X0017247Y0280631D01*
X0017103Y0280599D01*
X0016957Y0280572D01*
X0016811Y0280548D01*
X0016664Y0280528D01*
X0016517Y0280512D01*
X0016370Y0280500D01*
X0016222Y0280492D01*
X0016074Y0280488D01*
X0015926Y0280488D01*
X0015778Y0280492D01*
X0015630Y0280500D01*
X0015483Y0280512D01*
X0015336Y0280528D01*
X0015189Y0280548D01*
X0015043Y0280572D01*
X0014897Y0280599D01*
X0014753Y0280631D01*
X0014609Y0280666D01*
X0014466Y0280706D01*
X0014325Y0280749D01*
X0014184Y0280796D01*
X0014045Y0280846D01*
X0013908Y0280901D01*
X0013772Y0280959D01*
X0013637Y0281020D01*
X0013504Y0281085D01*
X0013373Y0281154D01*
X0013244Y0281226D01*
X0013117Y0281302D01*
X0012992Y0281381D01*
X0012869Y0281464D01*
X0012748Y0281549D01*
X0012630Y0281638D01*
X0012514Y0281730D01*
X0012401Y0281826D01*
X0012290Y0281924D01*
X0012182Y0282025D01*
X0012076Y0282129D01*
X0011974Y0282235D01*
X0011874Y0282345D01*
X0011778Y0282457D01*
X0011684Y0282572D01*
X0011593Y0282689D01*
X0011506Y0282808D01*
X0011422Y0282930D01*
X0011341Y0283054D01*
X0011264Y0283180D01*
X0011190Y0283308D01*
X0011119Y0283438D01*
X0011052Y0283570D01*
X0010989Y0283704D01*
X0010929Y0283839D01*
X0010873Y0283976D01*
X0010820Y0284115D01*
X0010772Y0284255D01*
X0010727Y0284396D01*
X0010686Y0284538D01*
X0010648Y0284681D01*
X0010615Y0284825D01*
X0010585Y0284970D01*
X0010559Y0285116D01*
X0010538Y0285262D01*
X0010520Y0285409D01*
X0010506Y0285556D01*
X0010496Y0285704D01*
X0010490Y0285852D01*
X0010488Y0286000D01*
X0277988Y0283500D02*
X0277990Y0283648D01*
X0277996Y0283796D01*
X0278006Y0283944D01*
X0278020Y0284091D01*
X0278038Y0284238D01*
X0278059Y0284384D01*
X0278085Y0284530D01*
X0278115Y0284675D01*
X0278148Y0284819D01*
X0278186Y0284962D01*
X0278227Y0285104D01*
X0278272Y0285245D01*
X0278320Y0285385D01*
X0278373Y0285524D01*
X0278429Y0285661D01*
X0278489Y0285796D01*
X0278552Y0285930D01*
X0278619Y0286062D01*
X0278690Y0286192D01*
X0278764Y0286320D01*
X0278841Y0286446D01*
X0278922Y0286570D01*
X0279006Y0286692D01*
X0279093Y0286811D01*
X0279184Y0286928D01*
X0279278Y0287043D01*
X0279374Y0287155D01*
X0279474Y0287265D01*
X0279576Y0287371D01*
X0279682Y0287475D01*
X0279790Y0287576D01*
X0279901Y0287674D01*
X0280014Y0287770D01*
X0280130Y0287862D01*
X0280248Y0287951D01*
X0280369Y0288036D01*
X0280492Y0288119D01*
X0280617Y0288198D01*
X0280744Y0288274D01*
X0280873Y0288346D01*
X0281004Y0288415D01*
X0281137Y0288480D01*
X0281272Y0288541D01*
X0281408Y0288599D01*
X0281545Y0288654D01*
X0281684Y0288704D01*
X0281825Y0288751D01*
X0281966Y0288794D01*
X0282109Y0288834D01*
X0282253Y0288869D01*
X0282397Y0288901D01*
X0282543Y0288928D01*
X0282689Y0288952D01*
X0282836Y0288972D01*
X0282983Y0288988D01*
X0283130Y0289000D01*
X0283278Y0289008D01*
X0283426Y0289012D01*
X0283574Y0289012D01*
X0283722Y0289008D01*
X0283870Y0289000D01*
X0284017Y0288988D01*
X0284164Y0288972D01*
X0284311Y0288952D01*
X0284457Y0288928D01*
X0284603Y0288901D01*
X0284747Y0288869D01*
X0284891Y0288834D01*
X0285034Y0288794D01*
X0285175Y0288751D01*
X0285316Y0288704D01*
X0285455Y0288654D01*
X0285592Y0288599D01*
X0285728Y0288541D01*
X0285863Y0288480D01*
X0285996Y0288415D01*
X0286127Y0288346D01*
X0286256Y0288274D01*
X0286383Y0288198D01*
X0286508Y0288119D01*
X0286631Y0288036D01*
X0286752Y0287951D01*
X0286870Y0287862D01*
X0286986Y0287770D01*
X0287099Y0287674D01*
X0287210Y0287576D01*
X0287318Y0287475D01*
X0287424Y0287371D01*
X0287526Y0287265D01*
X0287626Y0287155D01*
X0287722Y0287043D01*
X0287816Y0286928D01*
X0287907Y0286811D01*
X0287994Y0286692D01*
X0288078Y0286570D01*
X0288159Y0286446D01*
X0288236Y0286320D01*
X0288310Y0286192D01*
X0288381Y0286062D01*
X0288448Y0285930D01*
X0288511Y0285796D01*
X0288571Y0285661D01*
X0288627Y0285524D01*
X0288680Y0285385D01*
X0288728Y0285245D01*
X0288773Y0285104D01*
X0288814Y0284962D01*
X0288852Y0284819D01*
X0288885Y0284675D01*
X0288915Y0284530D01*
X0288941Y0284384D01*
X0288962Y0284238D01*
X0288980Y0284091D01*
X0288994Y0283944D01*
X0289004Y0283796D01*
X0289010Y0283648D01*
X0289012Y0283500D01*
X0289010Y0283352D01*
X0289004Y0283204D01*
X0288994Y0283056D01*
X0288980Y0282909D01*
X0288962Y0282762D01*
X0288941Y0282616D01*
X0288915Y0282470D01*
X0288885Y0282325D01*
X0288852Y0282181D01*
X0288814Y0282038D01*
X0288773Y0281896D01*
X0288728Y0281755D01*
X0288680Y0281615D01*
X0288627Y0281476D01*
X0288571Y0281339D01*
X0288511Y0281204D01*
X0288448Y0281070D01*
X0288381Y0280938D01*
X0288310Y0280808D01*
X0288236Y0280680D01*
X0288159Y0280554D01*
X0288078Y0280430D01*
X0287994Y0280308D01*
X0287907Y0280189D01*
X0287816Y0280072D01*
X0287722Y0279957D01*
X0287626Y0279845D01*
X0287526Y0279735D01*
X0287424Y0279629D01*
X0287318Y0279525D01*
X0287210Y0279424D01*
X0287099Y0279326D01*
X0286986Y0279230D01*
X0286870Y0279138D01*
X0286752Y0279049D01*
X0286631Y0278964D01*
X0286508Y0278881D01*
X0286383Y0278802D01*
X0286256Y0278726D01*
X0286127Y0278654D01*
X0285996Y0278585D01*
X0285863Y0278520D01*
X0285728Y0278459D01*
X0285592Y0278401D01*
X0285455Y0278346D01*
X0285316Y0278296D01*
X0285175Y0278249D01*
X0285034Y0278206D01*
X0284891Y0278166D01*
X0284747Y0278131D01*
X0284603Y0278099D01*
X0284457Y0278072D01*
X0284311Y0278048D01*
X0284164Y0278028D01*
X0284017Y0278012D01*
X0283870Y0278000D01*
X0283722Y0277992D01*
X0283574Y0277988D01*
X0283426Y0277988D01*
X0283278Y0277992D01*
X0283130Y0278000D01*
X0282983Y0278012D01*
X0282836Y0278028D01*
X0282689Y0278048D01*
X0282543Y0278072D01*
X0282397Y0278099D01*
X0282253Y0278131D01*
X0282109Y0278166D01*
X0281966Y0278206D01*
X0281825Y0278249D01*
X0281684Y0278296D01*
X0281545Y0278346D01*
X0281408Y0278401D01*
X0281272Y0278459D01*
X0281137Y0278520D01*
X0281004Y0278585D01*
X0280873Y0278654D01*
X0280744Y0278726D01*
X0280617Y0278802D01*
X0280492Y0278881D01*
X0280369Y0278964D01*
X0280248Y0279049D01*
X0280130Y0279138D01*
X0280014Y0279230D01*
X0279901Y0279326D01*
X0279790Y0279424D01*
X0279682Y0279525D01*
X0279576Y0279629D01*
X0279474Y0279735D01*
X0279374Y0279845D01*
X0279278Y0279957D01*
X0279184Y0280072D01*
X0279093Y0280189D01*
X0279006Y0280308D01*
X0278922Y0280430D01*
X0278841Y0280554D01*
X0278764Y0280680D01*
X0278690Y0280808D01*
X0278619Y0280938D01*
X0278552Y0281070D01*
X0278489Y0281204D01*
X0278429Y0281339D01*
X0278373Y0281476D01*
X0278320Y0281615D01*
X0278272Y0281755D01*
X0278227Y0281896D01*
X0278186Y0282038D01*
X0278148Y0282181D01*
X0278115Y0282325D01*
X0278085Y0282470D01*
X0278059Y0282616D01*
X0278038Y0282762D01*
X0278020Y0282909D01*
X0278006Y0283056D01*
X0277996Y0283204D01*
X0277990Y0283352D01*
X0277988Y0283500D01*
X0280488Y0016000D02*
X0280490Y0016148D01*
X0280496Y0016296D01*
X0280506Y0016444D01*
X0280520Y0016591D01*
X0280538Y0016738D01*
X0280559Y0016884D01*
X0280585Y0017030D01*
X0280615Y0017175D01*
X0280648Y0017319D01*
X0280686Y0017462D01*
X0280727Y0017604D01*
X0280772Y0017745D01*
X0280820Y0017885D01*
X0280873Y0018024D01*
X0280929Y0018161D01*
X0280989Y0018296D01*
X0281052Y0018430D01*
X0281119Y0018562D01*
X0281190Y0018692D01*
X0281264Y0018820D01*
X0281341Y0018946D01*
X0281422Y0019070D01*
X0281506Y0019192D01*
X0281593Y0019311D01*
X0281684Y0019428D01*
X0281778Y0019543D01*
X0281874Y0019655D01*
X0281974Y0019765D01*
X0282076Y0019871D01*
X0282182Y0019975D01*
X0282290Y0020076D01*
X0282401Y0020174D01*
X0282514Y0020270D01*
X0282630Y0020362D01*
X0282748Y0020451D01*
X0282869Y0020536D01*
X0282992Y0020619D01*
X0283117Y0020698D01*
X0283244Y0020774D01*
X0283373Y0020846D01*
X0283504Y0020915D01*
X0283637Y0020980D01*
X0283772Y0021041D01*
X0283908Y0021099D01*
X0284045Y0021154D01*
X0284184Y0021204D01*
X0284325Y0021251D01*
X0284466Y0021294D01*
X0284609Y0021334D01*
X0284753Y0021369D01*
X0284897Y0021401D01*
X0285043Y0021428D01*
X0285189Y0021452D01*
X0285336Y0021472D01*
X0285483Y0021488D01*
X0285630Y0021500D01*
X0285778Y0021508D01*
X0285926Y0021512D01*
X0286074Y0021512D01*
X0286222Y0021508D01*
X0286370Y0021500D01*
X0286517Y0021488D01*
X0286664Y0021472D01*
X0286811Y0021452D01*
X0286957Y0021428D01*
X0287103Y0021401D01*
X0287247Y0021369D01*
X0287391Y0021334D01*
X0287534Y0021294D01*
X0287675Y0021251D01*
X0287816Y0021204D01*
X0287955Y0021154D01*
X0288092Y0021099D01*
X0288228Y0021041D01*
X0288363Y0020980D01*
X0288496Y0020915D01*
X0288627Y0020846D01*
X0288756Y0020774D01*
X0288883Y0020698D01*
X0289008Y0020619D01*
X0289131Y0020536D01*
X0289252Y0020451D01*
X0289370Y0020362D01*
X0289486Y0020270D01*
X0289599Y0020174D01*
X0289710Y0020076D01*
X0289818Y0019975D01*
X0289924Y0019871D01*
X0290026Y0019765D01*
X0290126Y0019655D01*
X0290222Y0019543D01*
X0290316Y0019428D01*
X0290407Y0019311D01*
X0290494Y0019192D01*
X0290578Y0019070D01*
X0290659Y0018946D01*
X0290736Y0018820D01*
X0290810Y0018692D01*
X0290881Y0018562D01*
X0290948Y0018430D01*
X0291011Y0018296D01*
X0291071Y0018161D01*
X0291127Y0018024D01*
X0291180Y0017885D01*
X0291228Y0017745D01*
X0291273Y0017604D01*
X0291314Y0017462D01*
X0291352Y0017319D01*
X0291385Y0017175D01*
X0291415Y0017030D01*
X0291441Y0016884D01*
X0291462Y0016738D01*
X0291480Y0016591D01*
X0291494Y0016444D01*
X0291504Y0016296D01*
X0291510Y0016148D01*
X0291512Y0016000D01*
X0291510Y0015852D01*
X0291504Y0015704D01*
X0291494Y0015556D01*
X0291480Y0015409D01*
X0291462Y0015262D01*
X0291441Y0015116D01*
X0291415Y0014970D01*
X0291385Y0014825D01*
X0291352Y0014681D01*
X0291314Y0014538D01*
X0291273Y0014396D01*
X0291228Y0014255D01*
X0291180Y0014115D01*
X0291127Y0013976D01*
X0291071Y0013839D01*
X0291011Y0013704D01*
X0290948Y0013570D01*
X0290881Y0013438D01*
X0290810Y0013308D01*
X0290736Y0013180D01*
X0290659Y0013054D01*
X0290578Y0012930D01*
X0290494Y0012808D01*
X0290407Y0012689D01*
X0290316Y0012572D01*
X0290222Y0012457D01*
X0290126Y0012345D01*
X0290026Y0012235D01*
X0289924Y0012129D01*
X0289818Y0012025D01*
X0289710Y0011924D01*
X0289599Y0011826D01*
X0289486Y0011730D01*
X0289370Y0011638D01*
X0289252Y0011549D01*
X0289131Y0011464D01*
X0289008Y0011381D01*
X0288883Y0011302D01*
X0288756Y0011226D01*
X0288627Y0011154D01*
X0288496Y0011085D01*
X0288363Y0011020D01*
X0288228Y0010959D01*
X0288092Y0010901D01*
X0287955Y0010846D01*
X0287816Y0010796D01*
X0287675Y0010749D01*
X0287534Y0010706D01*
X0287391Y0010666D01*
X0287247Y0010631D01*
X0287103Y0010599D01*
X0286957Y0010572D01*
X0286811Y0010548D01*
X0286664Y0010528D01*
X0286517Y0010512D01*
X0286370Y0010500D01*
X0286222Y0010492D01*
X0286074Y0010488D01*
X0285926Y0010488D01*
X0285778Y0010492D01*
X0285630Y0010500D01*
X0285483Y0010512D01*
X0285336Y0010528D01*
X0285189Y0010548D01*
X0285043Y0010572D01*
X0284897Y0010599D01*
X0284753Y0010631D01*
X0284609Y0010666D01*
X0284466Y0010706D01*
X0284325Y0010749D01*
X0284184Y0010796D01*
X0284045Y0010846D01*
X0283908Y0010901D01*
X0283772Y0010959D01*
X0283637Y0011020D01*
X0283504Y0011085D01*
X0283373Y0011154D01*
X0283244Y0011226D01*
X0283117Y0011302D01*
X0282992Y0011381D01*
X0282869Y0011464D01*
X0282748Y0011549D01*
X0282630Y0011638D01*
X0282514Y0011730D01*
X0282401Y0011826D01*
X0282290Y0011924D01*
X0282182Y0012025D01*
X0282076Y0012129D01*
X0281974Y0012235D01*
X0281874Y0012345D01*
X0281778Y0012457D01*
X0281684Y0012572D01*
X0281593Y0012689D01*
X0281506Y0012808D01*
X0281422Y0012930D01*
X0281341Y0013054D01*
X0281264Y0013180D01*
X0281190Y0013308D01*
X0281119Y0013438D01*
X0281052Y0013570D01*
X0280989Y0013704D01*
X0280929Y0013839D01*
X0280873Y0013976D01*
X0280820Y0014115D01*
X0280772Y0014255D01*
X0280727Y0014396D01*
X0280686Y0014538D01*
X0280648Y0014681D01*
X0280615Y0014825D01*
X0280585Y0014970D01*
X0280559Y0015116D01*
X0280538Y0015262D01*
X0280520Y0015409D01*
X0280506Y0015556D01*
X0280496Y0015704D01*
X0280490Y0015852D01*
X0280488Y0016000D01*
D11*
X0059907Y0179868D02*
X0058839Y0178800D01*
X0055636Y0178800D01*
X0055636Y0176665D02*
X0055636Y0183070D01*
X0058839Y0183070D01*
X0059907Y0182003D01*
X0059907Y0179868D01*
X0053461Y0179868D02*
X0052394Y0178800D01*
X0050259Y0178800D01*
X0049191Y0179868D01*
X0049191Y0180935D01*
X0050259Y0182003D01*
X0052394Y0182003D01*
X0053461Y0180935D01*
X0053461Y0179868D01*
X0052394Y0182003D02*
X0053461Y0183070D01*
X0053461Y0184138D01*
X0052394Y0185205D01*
X0050259Y0185205D01*
X0049191Y0184138D01*
X0049191Y0183070D01*
X0050259Y0182003D01*
X0047016Y0183070D02*
X0047016Y0184138D01*
X0045948Y0185205D01*
X0043813Y0185205D01*
X0042745Y0184138D01*
X0040570Y0184138D02*
X0039503Y0185205D01*
X0037368Y0185205D01*
X0036300Y0184138D01*
X0038435Y0182003D02*
X0039503Y0182003D01*
X0040570Y0180935D01*
X0040570Y0179868D01*
X0039503Y0178800D01*
X0037368Y0178800D01*
X0036300Y0179868D01*
X0039503Y0182003D02*
X0040570Y0183070D01*
X0040570Y0184138D01*
X0042745Y0178800D02*
X0047016Y0183070D01*
X0047016Y0178800D02*
X0042745Y0178800D01*
D12*
X0118500Y0234661D03*
X0118500Y0267339D03*
X0208500Y0267339D03*
X0208500Y0234661D03*
D13*
X0241000Y0235488D03*
X0241000Y0246512D03*
D14*
X0101512Y0108500D03*
X0101512Y0098500D03*
X0090488Y0098500D03*
X0090488Y0108500D03*
X0090488Y0078500D03*
X0101512Y0078500D03*
X0175488Y0093500D03*
X0186512Y0093500D03*
X0186512Y0103500D03*
X0175488Y0103500D03*
D15*
X0163500Y0263343D03*
D16*
X0154524Y0234602D03*
X0172476Y0234602D03*
D17*
X0268500Y0235402D03*
X0268500Y0246598D03*
D18*
X0118200Y0098500D02*
X0113800Y0098500D01*
X0113800Y0078500D02*
X0118200Y0078500D01*
D19*
X0253500Y0235488D03*
X0253500Y0246512D03*
D20*
X0139098Y0198500D03*
X0127902Y0198500D03*
D21*
X0114900Y0195800D02*
X0114900Y0201800D01*
X0097100Y0201800D02*
X0097100Y0195800D01*
X0097100Y0176200D02*
X0097100Y0170200D01*
X0114900Y0170200D02*
X0114900Y0176200D01*
X0021500Y0153500D02*
X0015500Y0153500D01*
X0015500Y0143500D02*
X0021500Y0143500D01*
X0021500Y0133500D02*
X0015500Y0133500D01*
X0015500Y0123500D02*
X0021500Y0123500D01*
X0021500Y0113500D02*
X0015500Y0113500D01*
X0015500Y0103500D02*
X0021500Y0103500D01*
X0021500Y0093500D02*
X0015500Y0093500D01*
X0015500Y0083500D02*
X0021500Y0083500D01*
X0275500Y0083500D02*
X0281500Y0083500D01*
X0281500Y0073500D02*
X0275500Y0073500D01*
X0275500Y0063500D02*
X0281500Y0063500D01*
X0281500Y0053500D02*
X0275500Y0053500D01*
X0275500Y0043500D02*
X0281500Y0043500D01*
X0281500Y0033500D02*
X0275500Y0033500D01*
X0275500Y0123500D02*
X0281500Y0123500D01*
X0281500Y0133500D02*
X0275500Y0133500D01*
X0275500Y0143500D02*
X0281500Y0143500D01*
X0281500Y0153500D02*
X0275500Y0153500D01*
X0275500Y0163500D02*
X0281500Y0163500D01*
X0281500Y0173500D02*
X0275500Y0173500D01*
D22*
X0133500Y0173500D03*
D23*
X0133500Y0163500D03*
X0133500Y0153500D03*
X0133500Y0143500D03*
X0133500Y0133500D03*
X0133500Y0123500D03*
X0133500Y0113500D03*
X0133500Y0103500D03*
X0133500Y0093500D03*
X0133500Y0083500D03*
X0133500Y0073500D03*
X0133500Y0063500D03*
X0133500Y0053500D03*
X0133500Y0043500D03*
X0163500Y0043500D03*
X0163500Y0053500D03*
X0163500Y0063500D03*
X0163500Y0073500D03*
X0163500Y0083500D03*
X0163500Y0093500D03*
X0163500Y0103500D03*
X0163500Y0113500D03*
X0163500Y0123500D03*
X0163500Y0133500D03*
X0163500Y0143500D03*
X0163500Y0153500D03*
X0163500Y0163500D03*
X0163500Y0173500D03*
D24*
X0029525Y0226157D02*
X0022475Y0226157D01*
X0022475Y0245843D02*
X0029525Y0245843D01*
D25*
X0026000Y0245843D02*
X0046157Y0245843D01*
X0073500Y0218500D01*
X0118500Y0218500D01*
X0118500Y0234661D01*
X0118500Y0218500D02*
X0147024Y0218500D01*
X0154524Y0226000D01*
X0154524Y0234602D01*
X0172476Y0234602D02*
X0172476Y0219524D01*
X0174750Y0217250D01*
X0156000Y0198500D01*
X0148500Y0198500D01*
X0148500Y0103500D01*
X0163500Y0103500D01*
X0166000Y0103500D01*
X0163500Y0101000D01*
X0163500Y0093500D01*
X0175488Y0093500D01*
X0175488Y0103500D02*
X0166000Y0103500D01*
X0148500Y0103500D02*
X0143500Y0103500D01*
X0133500Y0113500D01*
X0111000Y0113500D01*
X0106000Y0108500D01*
X0139098Y0198500D02*
X0148500Y0198500D01*
X0174750Y0217250D02*
X0178500Y0213500D01*
X0208500Y0213500D01*
X0208500Y0234661D01*
X0208441Y0234602D01*
X0208500Y0213500D02*
X0246000Y0213500D01*
X0253500Y0221000D01*
X0253500Y0235488D01*
X0241000Y0235488D01*
X0253500Y0246512D02*
X0268413Y0246512D01*
X0268500Y0246598D01*
D26*
X0264155Y0239449D02*
X0272845Y0239449D01*
X0274315Y0240058D01*
X0275440Y0241183D01*
X0276049Y0242653D01*
X0276049Y0250544D01*
X0275440Y0252014D01*
X0274315Y0253139D01*
X0272845Y0253748D01*
X0264155Y0253748D01*
X0262685Y0253139D01*
X0262558Y0253012D01*
X0259743Y0253012D01*
X0259703Y0253052D01*
X0258233Y0253661D01*
X0248767Y0253661D01*
X0247297Y0253052D01*
X0246172Y0251927D01*
X0245563Y0250457D01*
X0245563Y0242567D01*
X0245574Y0242541D01*
X0245339Y0242638D01*
X0236661Y0242638D01*
X0235191Y0242029D01*
X0234066Y0240904D01*
X0233457Y0239433D01*
X0233457Y0231543D01*
X0234066Y0230073D01*
X0235191Y0228948D01*
X0236661Y0228339D01*
X0245339Y0228339D01*
X0246809Y0228948D01*
X0246850Y0228988D01*
X0247000Y0228988D01*
X0247000Y0223692D01*
X0243308Y0220000D01*
X0215000Y0220000D01*
X0215000Y0222521D01*
X0215687Y0222806D01*
X0216812Y0223931D01*
X0217421Y0225401D01*
X0217421Y0243922D01*
X0216812Y0245392D01*
X0215687Y0246517D01*
X0214217Y0247126D01*
X0202783Y0247126D01*
X0201313Y0246517D01*
X0200188Y0245392D01*
X0199579Y0243922D01*
X0199579Y0225401D01*
X0200188Y0223931D01*
X0201313Y0222806D01*
X0202000Y0222521D01*
X0202000Y0220000D01*
X0181192Y0220000D01*
X0178976Y0222216D01*
X0178976Y0235895D01*
X0178445Y0237178D01*
X0178445Y0238548D01*
X0177836Y0240018D01*
X0176711Y0241143D01*
X0175241Y0241752D01*
X0169712Y0241752D01*
X0168242Y0241143D01*
X0167117Y0240018D01*
X0166508Y0238548D01*
X0166508Y0237178D01*
X0165976Y0235895D01*
X0165976Y0218231D01*
X0166141Y0217833D01*
X0153308Y0205000D01*
X0144954Y0205000D01*
X0144514Y0205440D01*
X0143044Y0206049D01*
X0135153Y0206049D01*
X0133683Y0205440D01*
X0133500Y0205257D01*
X0133317Y0205440D01*
X0131847Y0206049D01*
X0123956Y0206049D01*
X0122486Y0205440D01*
X0121413Y0204367D01*
X0120834Y0205765D01*
X0118865Y0207734D01*
X0116292Y0208800D01*
X0113508Y0208800D01*
X0110935Y0207734D01*
X0108966Y0205765D01*
X0107900Y0203192D01*
X0107900Y0194408D01*
X0108966Y0191835D01*
X0110800Y0190001D01*
X0110800Y0181999D01*
X0108966Y0180165D01*
X0107900Y0177592D01*
X0107900Y0168808D01*
X0108966Y0166235D01*
X0110935Y0164266D01*
X0113508Y0163200D01*
X0116292Y0163200D01*
X0118865Y0164266D01*
X0120834Y0166235D01*
X0121690Y0168300D01*
X0126657Y0168300D01*
X0126809Y0167934D01*
X0127252Y0167491D01*
X0126200Y0164952D01*
X0126200Y0162048D01*
X0127311Y0159365D01*
X0128176Y0158500D01*
X0127311Y0157635D01*
X0126200Y0154952D01*
X0126200Y0152048D01*
X0127311Y0149365D01*
X0128176Y0148500D01*
X0127311Y0147635D01*
X0126200Y0144952D01*
X0126200Y0142048D01*
X0127311Y0139365D01*
X0128176Y0138500D01*
X0127311Y0137635D01*
X0126200Y0134952D01*
X0126200Y0132048D01*
X0127311Y0129365D01*
X0128176Y0128500D01*
X0127311Y0127635D01*
X0126200Y0124952D01*
X0126200Y0122048D01*
X0127048Y0120000D01*
X0109707Y0120000D01*
X0107318Y0119010D01*
X0105490Y0117182D01*
X0104351Y0116043D01*
X0097567Y0116043D01*
X0096096Y0115434D01*
X0094971Y0114309D01*
X0094362Y0112839D01*
X0094362Y0104161D01*
X0094636Y0103500D01*
X0094362Y0102839D01*
X0094362Y0094161D01*
X0094971Y0092691D01*
X0096096Y0091566D01*
X0097567Y0090957D01*
X0105457Y0090957D01*
X0106927Y0091566D01*
X0108052Y0092691D01*
X0108305Y0093300D01*
X0110232Y0093300D01*
X0110288Y0093244D01*
X0112190Y0092456D01*
X0114092Y0090554D01*
X0115554Y0089092D01*
X0116983Y0088500D01*
X0115554Y0087908D01*
X0114092Y0086446D01*
X0112190Y0084544D01*
X0110288Y0083756D01*
X0110232Y0083700D01*
X0108305Y0083700D01*
X0108052Y0084309D01*
X0106927Y0085434D01*
X0105457Y0086043D01*
X0097567Y0086043D01*
X0096096Y0085434D01*
X0094971Y0084309D01*
X0094362Y0082839D01*
X0094362Y0074161D01*
X0094971Y0072691D01*
X0096096Y0071566D01*
X0097567Y0070957D01*
X0105457Y0070957D01*
X0106927Y0071566D01*
X0108052Y0072691D01*
X0108305Y0073300D01*
X0110232Y0073300D01*
X0110288Y0073244D01*
X0112567Y0072300D01*
X0119433Y0072300D01*
X0121712Y0073244D01*
X0123456Y0074988D01*
X0124400Y0077267D01*
X0124400Y0078300D01*
X0127976Y0078300D01*
X0127311Y0077635D01*
X0126200Y0074952D01*
X0126200Y0072048D01*
X0127311Y0069365D01*
X0128176Y0068500D01*
X0127311Y0067635D01*
X0126200Y0064952D01*
X0126200Y0062048D01*
X0127311Y0059365D01*
X0128176Y0058500D01*
X0127311Y0057635D01*
X0126200Y0054952D01*
X0126200Y0052048D01*
X0127311Y0049365D01*
X0128176Y0048500D01*
X0127311Y0047635D01*
X0126200Y0044952D01*
X0126200Y0042048D01*
X0127311Y0039365D01*
X0129365Y0037311D01*
X0132048Y0036200D01*
X0134952Y0036200D01*
X0137635Y0037311D01*
X0139689Y0039365D01*
X0140800Y0042048D01*
X0140800Y0044952D01*
X0139689Y0047635D01*
X0138824Y0048500D01*
X0139689Y0049365D01*
X0140800Y0052048D01*
X0140800Y0054952D01*
X0139689Y0057635D01*
X0138824Y0058500D01*
X0139689Y0059365D01*
X0140800Y0062048D01*
X0140800Y0064952D01*
X0139689Y0067635D01*
X0138824Y0068500D01*
X0139689Y0069365D01*
X0140800Y0072048D01*
X0140800Y0074952D01*
X0139689Y0077635D01*
X0138824Y0078500D01*
X0139689Y0079365D01*
X0140800Y0082048D01*
X0140800Y0084952D01*
X0139689Y0087635D01*
X0138824Y0088500D01*
X0139689Y0089365D01*
X0140800Y0092048D01*
X0140800Y0094952D01*
X0139689Y0097635D01*
X0137635Y0099689D01*
X0134952Y0100800D01*
X0132048Y0100800D01*
X0129365Y0099689D01*
X0128376Y0098700D01*
X0124400Y0098700D01*
X0124400Y0099733D01*
X0123456Y0102012D01*
X0121712Y0103756D01*
X0119433Y0104700D01*
X0112567Y0104700D01*
X0110562Y0103870D01*
X0113692Y0107000D01*
X0130117Y0107000D01*
X0131296Y0106511D01*
X0137990Y0099818D01*
X0139818Y0097990D01*
X0142207Y0097000D01*
X0157000Y0097000D01*
X0157000Y0096883D01*
X0156200Y0094952D01*
X0156200Y0092048D01*
X0157311Y0089365D01*
X0158176Y0088500D01*
X0157311Y0087635D01*
X0156200Y0084952D01*
X0156200Y0082048D01*
X0157311Y0079365D01*
X0158176Y0078500D01*
X0157311Y0077635D01*
X0156200Y0074952D01*
X0156200Y0072048D01*
X0157311Y0069365D01*
X0158176Y0068500D01*
X0157311Y0067635D01*
X0156200Y0064952D01*
X0156200Y0062048D01*
X0157311Y0059365D01*
X0158176Y0058500D01*
X0157311Y0057635D01*
X0156200Y0054952D01*
X0156200Y0052048D01*
X0157311Y0049365D01*
X0158176Y0048500D01*
X0157311Y0047635D01*
X0156200Y0044952D01*
X0156200Y0042048D01*
X0157311Y0039365D01*
X0159365Y0037311D01*
X0162048Y0036200D01*
X0164952Y0036200D01*
X0167635Y0037311D01*
X0169689Y0039365D01*
X0170800Y0042048D01*
X0170800Y0044952D01*
X0169689Y0047635D01*
X0168824Y0048500D01*
X0169689Y0049365D01*
X0170800Y0052048D01*
X0170800Y0054952D01*
X0169689Y0057635D01*
X0168824Y0058500D01*
X0169689Y0059365D01*
X0170800Y0062048D01*
X0170800Y0064952D01*
X0169689Y0067635D01*
X0168824Y0068500D01*
X0169689Y0069365D01*
X0170800Y0072048D01*
X0170800Y0074952D01*
X0169689Y0077635D01*
X0168824Y0078500D01*
X0169689Y0079365D01*
X0170800Y0082048D01*
X0170800Y0084952D01*
X0170144Y0086536D01*
X0171543Y0085957D01*
X0179433Y0085957D01*
X0180904Y0086566D01*
X0182029Y0087691D01*
X0182638Y0089161D01*
X0182638Y0097839D01*
X0182364Y0098500D01*
X0182638Y0099161D01*
X0182638Y0107839D01*
X0182029Y0109309D01*
X0180904Y0110434D01*
X0179433Y0111043D01*
X0171543Y0111043D01*
X0170073Y0110434D01*
X0169638Y0110000D01*
X0166883Y0110000D01*
X0164952Y0110800D01*
X0162048Y0110800D01*
X0160117Y0110000D01*
X0155000Y0110000D01*
X0155000Y0192000D01*
X0157293Y0192000D01*
X0159682Y0192990D01*
X0161510Y0194818D01*
X0174750Y0208058D01*
X0174818Y0207990D01*
X0177207Y0207000D01*
X0247293Y0207000D01*
X0249682Y0207990D01*
X0257182Y0215490D01*
X0259010Y0217318D01*
X0260000Y0219707D01*
X0260000Y0229245D01*
X0260828Y0230073D01*
X0261437Y0231543D01*
X0261437Y0239433D01*
X0261197Y0240012D01*
X0262796Y0240012D01*
X0264155Y0239449D01*
X0261437Y0239178D02*
X0296200Y0239178D01*
X0296200Y0237580D02*
X0261437Y0237580D01*
X0261437Y0235981D02*
X0296200Y0235981D01*
X0296200Y0234383D02*
X0261437Y0234383D01*
X0261437Y0232784D02*
X0296200Y0232784D01*
X0296200Y0231186D02*
X0261289Y0231186D01*
X0260342Y0229587D02*
X0296200Y0229587D01*
X0296200Y0227989D02*
X0260000Y0227989D01*
X0260000Y0226390D02*
X0296200Y0226390D01*
X0296200Y0224792D02*
X0260000Y0224792D01*
X0260000Y0223193D02*
X0296200Y0223193D01*
X0296200Y0221595D02*
X0260000Y0221595D01*
X0260000Y0219996D02*
X0296200Y0219996D01*
X0296200Y0218398D02*
X0259458Y0218398D01*
X0258491Y0216799D02*
X0296200Y0216799D01*
X0296200Y0215201D02*
X0256893Y0215201D01*
X0255294Y0213602D02*
X0296200Y0213602D01*
X0296200Y0212003D02*
X0253696Y0212003D01*
X0252097Y0210405D02*
X0296200Y0210405D01*
X0296200Y0208806D02*
X0250499Y0208806D01*
X0247795Y0207208D02*
X0296200Y0207208D01*
X0296200Y0205609D02*
X0172302Y0205609D01*
X0170703Y0204011D02*
X0296200Y0204011D01*
X0296200Y0202412D02*
X0169105Y0202412D01*
X0167506Y0200814D02*
X0296200Y0200814D01*
X0296200Y0199215D02*
X0165908Y0199215D01*
X0164309Y0197617D02*
X0296200Y0197617D01*
X0296200Y0196018D02*
X0162711Y0196018D01*
X0161510Y0194818D02*
X0161510Y0194818D01*
X0161112Y0194420D02*
X0296200Y0194420D01*
X0296200Y0192821D02*
X0159276Y0192821D01*
X0155000Y0191223D02*
X0296200Y0191223D01*
X0296200Y0189624D02*
X0155000Y0189624D01*
X0155000Y0188026D02*
X0296200Y0188026D01*
X0296200Y0186427D02*
X0155000Y0186427D01*
X0155000Y0184829D02*
X0296200Y0184829D01*
X0296200Y0183230D02*
X0155000Y0183230D01*
X0155000Y0181632D02*
X0296200Y0181632D01*
X0296200Y0180033D02*
X0284019Y0180033D01*
X0282892Y0180500D02*
X0285465Y0179434D01*
X0287434Y0177465D01*
X0288500Y0174892D01*
X0288500Y0172108D01*
X0287434Y0169535D01*
X0286399Y0168500D01*
X0287434Y0167465D01*
X0288500Y0164892D01*
X0288500Y0162108D01*
X0287434Y0159535D01*
X0286399Y0158500D01*
X0287434Y0157465D01*
X0288500Y0154892D01*
X0288500Y0152108D01*
X0287434Y0149535D01*
X0286399Y0148500D01*
X0287434Y0147465D01*
X0288500Y0144892D01*
X0288500Y0142108D01*
X0287434Y0139535D01*
X0286399Y0138500D01*
X0287434Y0137465D01*
X0288500Y0134892D01*
X0288500Y0132108D01*
X0287434Y0129535D01*
X0286399Y0128500D01*
X0287434Y0127465D01*
X0288500Y0124892D01*
X0288500Y0122108D01*
X0287434Y0119535D01*
X0285465Y0117566D01*
X0282892Y0116500D01*
X0274108Y0116500D01*
X0271535Y0117566D01*
X0269566Y0119535D01*
X0268500Y0122108D01*
X0268500Y0124892D01*
X0269566Y0127465D01*
X0270601Y0128500D01*
X0269566Y0129535D01*
X0268500Y0132108D01*
X0268500Y0134892D01*
X0269566Y0137465D01*
X0270601Y0138500D01*
X0269566Y0139535D01*
X0268500Y0142108D01*
X0268500Y0144892D01*
X0269566Y0147465D01*
X0270601Y0148500D01*
X0269566Y0149535D01*
X0268500Y0152108D01*
X0268500Y0154892D01*
X0269566Y0157465D01*
X0270601Y0158500D01*
X0269566Y0159535D01*
X0268500Y0162108D01*
X0268500Y0164892D01*
X0269566Y0167465D01*
X0270601Y0168500D01*
X0269566Y0169535D01*
X0268500Y0172108D01*
X0268500Y0174892D01*
X0269566Y0177465D01*
X0271535Y0179434D01*
X0274108Y0180500D01*
X0282892Y0180500D01*
X0286465Y0178435D02*
X0296200Y0178435D01*
X0296200Y0176836D02*
X0287695Y0176836D01*
X0288357Y0175238D02*
X0296200Y0175238D01*
X0296200Y0173639D02*
X0288500Y0173639D01*
X0288472Y0172041D02*
X0296200Y0172041D01*
X0296200Y0170442D02*
X0287810Y0170442D01*
X0286743Y0168844D02*
X0296200Y0168844D01*
X0296200Y0167245D02*
X0287525Y0167245D01*
X0288188Y0165647D02*
X0296200Y0165647D01*
X0296200Y0164048D02*
X0288500Y0164048D01*
X0288500Y0162450D02*
X0296200Y0162450D01*
X0296200Y0160851D02*
X0287980Y0160851D01*
X0287152Y0159253D02*
X0296200Y0159253D01*
X0296200Y0157654D02*
X0287245Y0157654D01*
X0288018Y0156056D02*
X0296200Y0156056D01*
X0296200Y0154457D02*
X0288500Y0154457D01*
X0288500Y0152859D02*
X0296200Y0152859D01*
X0296200Y0151260D02*
X0288149Y0151260D01*
X0287487Y0149662D02*
X0296200Y0149662D01*
X0296200Y0148063D02*
X0286836Y0148063D01*
X0287849Y0146465D02*
X0296200Y0146465D01*
X0296200Y0144866D02*
X0288500Y0144866D01*
X0288500Y0143268D02*
X0296200Y0143268D01*
X0296200Y0141669D02*
X0288318Y0141669D01*
X0287656Y0140070D02*
X0296200Y0140070D01*
X0296200Y0138472D02*
X0286427Y0138472D01*
X0287679Y0136873D02*
X0296200Y0136873D01*
X0296200Y0135275D02*
X0288342Y0135275D01*
X0288500Y0133676D02*
X0296200Y0133676D01*
X0296200Y0132078D02*
X0288488Y0132078D01*
X0287826Y0130479D02*
X0296200Y0130479D01*
X0296200Y0128881D02*
X0286780Y0128881D01*
X0287510Y0127282D02*
X0296200Y0127282D01*
X0296200Y0125684D02*
X0288172Y0125684D01*
X0288500Y0124085D02*
X0296200Y0124085D01*
X0296200Y0122487D02*
X0288500Y0122487D01*
X0287995Y0120888D02*
X0296200Y0120888D01*
X0296200Y0119290D02*
X0287189Y0119290D01*
X0285591Y0117691D02*
X0296200Y0117691D01*
X0296200Y0116093D02*
X0155000Y0116093D01*
X0155000Y0117691D02*
X0158985Y0117691D01*
X0159365Y0117311D02*
X0162048Y0116200D01*
X0164952Y0116200D01*
X0167635Y0117311D01*
X0169689Y0119365D01*
X0170800Y0122048D01*
X0170800Y0124952D01*
X0169689Y0127635D01*
X0168824Y0128500D01*
X0169689Y0129365D01*
X0170800Y0132048D01*
X0170800Y0134952D01*
X0169689Y0137635D01*
X0168824Y0138500D01*
X0169689Y0139365D01*
X0170800Y0142048D01*
X0170800Y0144952D01*
X0169689Y0147635D01*
X0168824Y0148500D01*
X0169689Y0149365D01*
X0170800Y0152048D01*
X0170800Y0154952D01*
X0169689Y0157635D01*
X0168824Y0158500D01*
X0169689Y0159365D01*
X0170800Y0162048D01*
X0170800Y0164952D01*
X0169689Y0167635D01*
X0168824Y0168500D01*
X0169689Y0169365D01*
X0170800Y0172048D01*
X0170800Y0174952D01*
X0169689Y0177635D01*
X0167635Y0179689D01*
X0164952Y0180800D01*
X0162048Y0180800D01*
X0159365Y0179689D01*
X0157311Y0177635D01*
X0156200Y0174952D01*
X0156200Y0172048D01*
X0157311Y0169365D01*
X0158176Y0168500D01*
X0157311Y0167635D01*
X0156200Y0164952D01*
X0156200Y0162048D01*
X0157311Y0159365D01*
X0158176Y0158500D01*
X0157311Y0157635D01*
X0156200Y0154952D01*
X0156200Y0152048D01*
X0157311Y0149365D01*
X0158176Y0148500D01*
X0157311Y0147635D01*
X0156200Y0144952D01*
X0156200Y0142048D01*
X0157311Y0139365D01*
X0158176Y0138500D01*
X0157311Y0137635D01*
X0156200Y0134952D01*
X0156200Y0132048D01*
X0157311Y0129365D01*
X0158176Y0128500D01*
X0157311Y0127635D01*
X0156200Y0124952D01*
X0156200Y0122048D01*
X0157311Y0119365D01*
X0159365Y0117311D01*
X0157386Y0119290D02*
X0155000Y0119290D01*
X0155000Y0120888D02*
X0156680Y0120888D01*
X0156200Y0122487D02*
X0155000Y0122487D01*
X0155000Y0124085D02*
X0156200Y0124085D01*
X0156503Y0125684D02*
X0155000Y0125684D01*
X0155000Y0127282D02*
X0157165Y0127282D01*
X0157795Y0128881D02*
X0155000Y0128881D01*
X0155000Y0130479D02*
X0156850Y0130479D01*
X0156200Y0132078D02*
X0155000Y0132078D01*
X0155000Y0133676D02*
X0156200Y0133676D01*
X0156334Y0135275D02*
X0155000Y0135275D01*
X0155000Y0136873D02*
X0156996Y0136873D01*
X0158148Y0138472D02*
X0155000Y0138472D01*
X0155000Y0140070D02*
X0157019Y0140070D01*
X0156357Y0141669D02*
X0155000Y0141669D01*
X0155000Y0143268D02*
X0156200Y0143268D01*
X0156200Y0144866D02*
X0155000Y0144866D01*
X0155000Y0146465D02*
X0156826Y0146465D01*
X0157739Y0148063D02*
X0155000Y0148063D01*
X0155000Y0149662D02*
X0157188Y0149662D01*
X0156526Y0151260D02*
X0155000Y0151260D01*
X0155000Y0152859D02*
X0156200Y0152859D01*
X0156200Y0154457D02*
X0155000Y0154457D01*
X0155000Y0156056D02*
X0156657Y0156056D01*
X0157330Y0157654D02*
X0155000Y0157654D01*
X0155000Y0159253D02*
X0157424Y0159253D01*
X0156696Y0160851D02*
X0155000Y0160851D01*
X0155000Y0162450D02*
X0156200Y0162450D01*
X0156200Y0164048D02*
X0155000Y0164048D01*
X0155000Y0165647D02*
X0156488Y0165647D01*
X0157150Y0167245D02*
X0155000Y0167245D01*
X0155000Y0168844D02*
X0157833Y0168844D01*
X0156865Y0170442D02*
X0155000Y0170442D01*
X0155000Y0172041D02*
X0156203Y0172041D01*
X0156200Y0173639D02*
X0155000Y0173639D01*
X0155000Y0175238D02*
X0156318Y0175238D01*
X0156980Y0176836D02*
X0155000Y0176836D01*
X0155000Y0178435D02*
X0158111Y0178435D01*
X0160197Y0180033D02*
X0155000Y0180033D01*
X0166803Y0180033D02*
X0272981Y0180033D01*
X0270535Y0178435D02*
X0168889Y0178435D01*
X0170020Y0176836D02*
X0269305Y0176836D01*
X0268643Y0175238D02*
X0170682Y0175238D01*
X0170800Y0173639D02*
X0268500Y0173639D01*
X0268528Y0172041D02*
X0170797Y0172041D01*
X0170135Y0170442D02*
X0269190Y0170442D01*
X0270257Y0168844D02*
X0169167Y0168844D01*
X0169850Y0167245D02*
X0269475Y0167245D01*
X0268812Y0165647D02*
X0170512Y0165647D01*
X0170800Y0164048D02*
X0268500Y0164048D01*
X0268500Y0162450D02*
X0170800Y0162450D01*
X0170304Y0160851D02*
X0269020Y0160851D01*
X0269848Y0159253D02*
X0169576Y0159253D01*
X0169670Y0157654D02*
X0269755Y0157654D01*
X0268982Y0156056D02*
X0170343Y0156056D01*
X0170800Y0154457D02*
X0268500Y0154457D01*
X0268500Y0152859D02*
X0170800Y0152859D01*
X0170474Y0151260D02*
X0268851Y0151260D01*
X0269513Y0149662D02*
X0169812Y0149662D01*
X0169261Y0148063D02*
X0270164Y0148063D01*
X0269151Y0146465D02*
X0170174Y0146465D01*
X0170800Y0144866D02*
X0268500Y0144866D01*
X0268500Y0143268D02*
X0170800Y0143268D01*
X0170643Y0141669D02*
X0268682Y0141669D01*
X0269344Y0140070D02*
X0169981Y0140070D01*
X0168852Y0138472D02*
X0270572Y0138472D01*
X0269321Y0136873D02*
X0170004Y0136873D01*
X0170666Y0135275D02*
X0268658Y0135275D01*
X0268500Y0133676D02*
X0170800Y0133676D01*
X0170800Y0132078D02*
X0268512Y0132078D01*
X0269174Y0130479D02*
X0170150Y0130479D01*
X0169205Y0128881D02*
X0270220Y0128881D01*
X0269490Y0127282D02*
X0169835Y0127282D01*
X0170497Y0125684D02*
X0268828Y0125684D01*
X0268500Y0124085D02*
X0170800Y0124085D01*
X0170800Y0122487D02*
X0268500Y0122487D01*
X0269005Y0120888D02*
X0170320Y0120888D01*
X0169614Y0119290D02*
X0269811Y0119290D01*
X0271409Y0117691D02*
X0168015Y0117691D01*
X0155000Y0114494D02*
X0296200Y0114494D01*
X0296200Y0112896D02*
X0155000Y0112896D01*
X0155000Y0111297D02*
X0296200Y0111297D01*
X0296200Y0109699D02*
X0181639Y0109699D01*
X0182530Y0108100D02*
X0296200Y0108100D01*
X0296200Y0106502D02*
X0182638Y0106502D01*
X0182638Y0104903D02*
X0296200Y0104903D01*
X0296200Y0103305D02*
X0182638Y0103305D01*
X0182638Y0101706D02*
X0296200Y0101706D01*
X0296200Y0100108D02*
X0182638Y0100108D01*
X0182368Y0098509D02*
X0296200Y0098509D01*
X0296200Y0096911D02*
X0182638Y0096911D01*
X0182638Y0095312D02*
X0296200Y0095312D01*
X0296200Y0093714D02*
X0182638Y0093714D01*
X0182638Y0092115D02*
X0296200Y0092115D01*
X0296200Y0090517D02*
X0182638Y0090517D01*
X0182537Y0088918D02*
X0271019Y0088918D01*
X0271535Y0089434D02*
X0269566Y0087465D01*
X0268500Y0084892D01*
X0268500Y0082108D01*
X0269566Y0079535D01*
X0270601Y0078500D01*
X0269566Y0077465D01*
X0268500Y0074892D01*
X0268500Y0072108D01*
X0269566Y0069535D01*
X0270601Y0068500D01*
X0269566Y0067465D01*
X0268500Y0064892D01*
X0268500Y0062108D01*
X0269566Y0059535D01*
X0270601Y0058500D01*
X0269566Y0057465D01*
X0268500Y0054892D01*
X0268500Y0052108D01*
X0269566Y0049535D01*
X0270601Y0048500D01*
X0269566Y0047465D01*
X0268500Y0044892D01*
X0268500Y0042108D01*
X0269566Y0039535D01*
X0270601Y0038500D01*
X0269566Y0037465D01*
X0268500Y0034892D01*
X0268500Y0032108D01*
X0269566Y0029535D01*
X0271535Y0027566D01*
X0272206Y0027288D01*
X0270857Y0025732D01*
X0270857Y0025732D01*
X0268729Y0021071D01*
X0268000Y0016000D01*
X0268000Y0016000D01*
X0268729Y0010929D01*
X0270857Y0006268D01*
X0271263Y0005800D01*
X0030737Y0005800D01*
X0031143Y0006268D01*
X0031143Y0006268D01*
X0033271Y0010929D01*
X0034000Y0016000D01*
X0033271Y0021071D01*
X0033271Y0021071D01*
X0031143Y0025732D01*
X0027787Y0029603D01*
X0023477Y0032373D01*
X0018562Y0033817D01*
X0013438Y0033817D01*
X0008523Y0032373D01*
X0008523Y0032373D01*
X0005800Y0030624D01*
X0005800Y0271376D01*
X0008523Y0269627D01*
X0013438Y0268183D01*
X0018562Y0268183D01*
X0023477Y0269627D01*
X0027787Y0272397D01*
X0031143Y0276268D01*
X0033271Y0280929D01*
X0034000Y0286000D01*
X0033271Y0291071D01*
X0033271Y0291071D01*
X0031143Y0295732D01*
X0030737Y0296200D01*
X0270930Y0296200D01*
X0268357Y0293232D01*
X0268357Y0293232D01*
X0266229Y0288571D01*
X0265500Y0283500D01*
X0265500Y0283500D01*
X0266229Y0278429D01*
X0268357Y0273768D01*
X0271713Y0269897D01*
X0276023Y0267127D01*
X0280938Y0265683D01*
X0286062Y0265683D01*
X0290977Y0267127D01*
X0290977Y0267127D01*
X0295287Y0269897D01*
X0296200Y0270950D01*
X0296200Y0030624D01*
X0293477Y0032373D01*
X0288562Y0033817D01*
X0288500Y0033817D01*
X0288500Y0034892D01*
X0287434Y0037465D01*
X0286399Y0038500D01*
X0287434Y0039535D01*
X0288500Y0042108D01*
X0288500Y0044892D01*
X0287434Y0047465D01*
X0286399Y0048500D01*
X0287434Y0049535D01*
X0288500Y0052108D01*
X0288500Y0054892D01*
X0287434Y0057465D01*
X0286399Y0058500D01*
X0287434Y0059535D01*
X0288500Y0062108D01*
X0288500Y0064892D01*
X0287434Y0067465D01*
X0286399Y0068500D01*
X0287434Y0069535D01*
X0288500Y0072108D01*
X0288500Y0074892D01*
X0287434Y0077465D01*
X0286399Y0078500D01*
X0287434Y0079535D01*
X0288500Y0082108D01*
X0288500Y0084892D01*
X0287434Y0087465D01*
X0285465Y0089434D01*
X0282892Y0090500D01*
X0274108Y0090500D01*
X0271535Y0089434D01*
X0269505Y0087320D02*
X0181658Y0087320D01*
X0170481Y0085721D02*
X0268843Y0085721D01*
X0268500Y0084123D02*
X0170800Y0084123D01*
X0170800Y0082524D02*
X0268500Y0082524D01*
X0268990Y0080926D02*
X0170335Y0080926D01*
X0169651Y0079327D02*
X0269773Y0079327D01*
X0269829Y0077729D02*
X0169595Y0077729D01*
X0170312Y0076130D02*
X0269013Y0076130D01*
X0268500Y0074532D02*
X0170800Y0074532D01*
X0170800Y0072933D02*
X0268500Y0072933D01*
X0268820Y0071334D02*
X0170504Y0071334D01*
X0169842Y0069736D02*
X0269482Y0069736D01*
X0270238Y0068137D02*
X0169186Y0068137D01*
X0170143Y0066539D02*
X0269182Y0066539D01*
X0268520Y0064940D02*
X0170800Y0064940D01*
X0170800Y0063342D02*
X0268500Y0063342D01*
X0268651Y0061743D02*
X0170674Y0061743D01*
X0170012Y0060145D02*
X0269313Y0060145D01*
X0270554Y0058546D02*
X0168870Y0058546D01*
X0169973Y0056948D02*
X0269351Y0056948D01*
X0268689Y0055349D02*
X0170635Y0055349D01*
X0170800Y0053751D02*
X0268500Y0053751D01*
X0268500Y0052152D02*
X0170800Y0052152D01*
X0170181Y0050554D02*
X0269144Y0050554D01*
X0270145Y0048955D02*
X0169279Y0048955D01*
X0169804Y0047357D02*
X0269521Y0047357D01*
X0268859Y0045758D02*
X0170466Y0045758D01*
X0170800Y0044160D02*
X0268500Y0044160D01*
X0268500Y0042561D02*
X0170800Y0042561D01*
X0170351Y0040963D02*
X0268974Y0040963D01*
X0269736Y0039364D02*
X0169688Y0039364D01*
X0168090Y0037766D02*
X0269866Y0037766D01*
X0269028Y0036167D02*
X0005800Y0036167D01*
X0005800Y0034569D02*
X0268500Y0034569D01*
X0268500Y0032970D02*
X0021445Y0032970D01*
X0023477Y0032373D02*
X0023477Y0032373D01*
X0025036Y0031372D02*
X0268805Y0031372D01*
X0269467Y0029773D02*
X0027523Y0029773D01*
X0027787Y0029603D02*
X0027787Y0029603D01*
X0029026Y0028175D02*
X0270926Y0028175D01*
X0271589Y0026576D02*
X0030411Y0026576D01*
X0031143Y0025732D02*
X0031143Y0025732D01*
X0031487Y0024978D02*
X0270513Y0024978D01*
X0269783Y0023379D02*
X0032217Y0023379D01*
X0032947Y0021781D02*
X0269053Y0021781D01*
X0268729Y0021071D02*
X0268729Y0021071D01*
X0268601Y0020182D02*
X0033399Y0020182D01*
X0033629Y0018584D02*
X0268371Y0018584D01*
X0268142Y0016985D02*
X0033858Y0016985D01*
X0033912Y0015387D02*
X0268088Y0015387D01*
X0268318Y0013788D02*
X0033682Y0013788D01*
X0033452Y0012190D02*
X0268548Y0012190D01*
X0268729Y0010929D02*
X0268729Y0010929D01*
X0268883Y0010591D02*
X0033117Y0010591D01*
X0033271Y0010929D02*
X0033271Y0010929D01*
X0032387Y0008993D02*
X0269613Y0008993D01*
X0270343Y0007394D02*
X0031657Y0007394D01*
X0010555Y0032970D02*
X0005800Y0032970D01*
X0005800Y0031372D02*
X0006964Y0031372D01*
X0005800Y0037766D02*
X0128910Y0037766D01*
X0127312Y0039364D02*
X0005800Y0039364D01*
X0005800Y0040963D02*
X0126649Y0040963D01*
X0126200Y0042561D02*
X0005800Y0042561D01*
X0005800Y0044160D02*
X0126200Y0044160D01*
X0126534Y0045758D02*
X0005800Y0045758D01*
X0005800Y0047357D02*
X0127196Y0047357D01*
X0127721Y0048955D02*
X0005800Y0048955D01*
X0005800Y0050554D02*
X0126819Y0050554D01*
X0126200Y0052152D02*
X0005800Y0052152D01*
X0005800Y0053751D02*
X0126200Y0053751D01*
X0126365Y0055349D02*
X0005800Y0055349D01*
X0005800Y0056948D02*
X0127027Y0056948D01*
X0128130Y0058546D02*
X0005800Y0058546D01*
X0005800Y0060145D02*
X0126988Y0060145D01*
X0126326Y0061743D02*
X0005800Y0061743D01*
X0005800Y0063342D02*
X0126200Y0063342D01*
X0126200Y0064940D02*
X0005800Y0064940D01*
X0005800Y0066539D02*
X0126857Y0066539D01*
X0127814Y0068137D02*
X0005800Y0068137D01*
X0005800Y0069736D02*
X0127158Y0069736D01*
X0126496Y0071334D02*
X0106369Y0071334D01*
X0108153Y0072933D02*
X0111039Y0072933D01*
X0111173Y0084123D02*
X0108130Y0084123D01*
X0106235Y0085721D02*
X0113367Y0085721D01*
X0114966Y0087320D02*
X0027495Y0087320D01*
X0027434Y0087465D02*
X0026399Y0088500D01*
X0027434Y0089535D01*
X0028500Y0092108D01*
X0028500Y0094892D01*
X0027434Y0097465D01*
X0026399Y0098500D01*
X0027434Y0099535D01*
X0028500Y0102108D01*
X0028500Y0104892D01*
X0027434Y0107465D01*
X0026399Y0108500D01*
X0027434Y0109535D01*
X0028500Y0112108D01*
X0028500Y0114892D01*
X0027434Y0117465D01*
X0026399Y0118500D01*
X0027434Y0119535D01*
X0028500Y0122108D01*
X0028500Y0124892D01*
X0027434Y0127465D01*
X0026399Y0128500D01*
X0027434Y0129535D01*
X0028500Y0132108D01*
X0028500Y0134892D01*
X0027434Y0137465D01*
X0026399Y0138500D01*
X0027434Y0139535D01*
X0028500Y0142108D01*
X0028500Y0144892D01*
X0027434Y0147465D01*
X0026399Y0148500D01*
X0027434Y0149535D01*
X0028500Y0152108D01*
X0028500Y0154892D01*
X0027434Y0157465D01*
X0025465Y0159434D01*
X0022892Y0160500D01*
X0014108Y0160500D01*
X0011535Y0159434D01*
X0009566Y0157465D01*
X0008500Y0154892D01*
X0008500Y0152108D01*
X0009566Y0149535D01*
X0010601Y0148500D01*
X0009566Y0147465D01*
X0008500Y0144892D01*
X0008500Y0142108D01*
X0009566Y0139535D01*
X0010601Y0138500D01*
X0009566Y0137465D01*
X0008500Y0134892D01*
X0008500Y0132108D01*
X0009566Y0129535D01*
X0010601Y0128500D01*
X0009566Y0127465D01*
X0008500Y0124892D01*
X0008500Y0122108D01*
X0009566Y0119535D01*
X0010601Y0118500D01*
X0009566Y0117465D01*
X0008500Y0114892D01*
X0008500Y0112108D01*
X0009566Y0109535D01*
X0010601Y0108500D01*
X0009566Y0107465D01*
X0008500Y0104892D01*
X0008500Y0102108D01*
X0009566Y0099535D01*
X0010601Y0098500D01*
X0009566Y0097465D01*
X0008500Y0094892D01*
X0008500Y0092108D01*
X0009566Y0089535D01*
X0010601Y0088500D01*
X0009566Y0087465D01*
X0008500Y0084892D01*
X0008500Y0082108D01*
X0009566Y0079535D01*
X0011535Y0077566D01*
X0014108Y0076500D01*
X0022892Y0076500D01*
X0025465Y0077566D01*
X0027434Y0079535D01*
X0028500Y0082108D01*
X0028500Y0084892D01*
X0027434Y0087465D01*
X0026818Y0088918D02*
X0115973Y0088918D01*
X0114129Y0090517D02*
X0027841Y0090517D01*
X0028500Y0092115D02*
X0095547Y0092115D01*
X0094548Y0093714D02*
X0028500Y0093714D01*
X0028326Y0095312D02*
X0094362Y0095312D01*
X0094362Y0096911D02*
X0027664Y0096911D01*
X0026409Y0098509D02*
X0094362Y0098509D01*
X0094362Y0100108D02*
X0027672Y0100108D01*
X0028334Y0101706D02*
X0094362Y0101706D01*
X0094555Y0103305D02*
X0028500Y0103305D01*
X0028495Y0104903D02*
X0094362Y0104903D01*
X0094362Y0106502D02*
X0027833Y0106502D01*
X0026799Y0108100D02*
X0094362Y0108100D01*
X0094362Y0109699D02*
X0027502Y0109699D01*
X0028164Y0111297D02*
X0094362Y0111297D01*
X0094386Y0112896D02*
X0028500Y0112896D01*
X0028500Y0114494D02*
X0095156Y0114494D01*
X0104400Y0116093D02*
X0028003Y0116093D01*
X0027208Y0117691D02*
X0105999Y0117691D01*
X0105490Y0117182D02*
X0105490Y0117182D01*
X0107993Y0119290D02*
X0027189Y0119290D01*
X0027995Y0120888D02*
X0126680Y0120888D01*
X0126200Y0122487D02*
X0028500Y0122487D01*
X0028500Y0124085D02*
X0126200Y0124085D01*
X0126503Y0125684D02*
X0028172Y0125684D01*
X0027510Y0127282D02*
X0127165Y0127282D01*
X0127795Y0128881D02*
X0026780Y0128881D01*
X0027826Y0130479D02*
X0126850Y0130479D01*
X0126200Y0132078D02*
X0028488Y0132078D01*
X0028500Y0133676D02*
X0126200Y0133676D01*
X0126334Y0135275D02*
X0028342Y0135275D01*
X0027679Y0136873D02*
X0126996Y0136873D01*
X0128148Y0138472D02*
X0026427Y0138472D01*
X0027656Y0140070D02*
X0127019Y0140070D01*
X0126357Y0141669D02*
X0028318Y0141669D01*
X0028500Y0143268D02*
X0126200Y0143268D01*
X0126200Y0144866D02*
X0028500Y0144866D01*
X0027849Y0146465D02*
X0126826Y0146465D01*
X0127739Y0148063D02*
X0026836Y0148063D01*
X0027487Y0149662D02*
X0127188Y0149662D01*
X0126526Y0151260D02*
X0028149Y0151260D01*
X0028500Y0152859D02*
X0126200Y0152859D01*
X0126200Y0154457D02*
X0028500Y0154457D01*
X0028018Y0156056D02*
X0126657Y0156056D01*
X0127330Y0157654D02*
X0027245Y0157654D01*
X0025647Y0159253D02*
X0127424Y0159253D01*
X0126696Y0160851D02*
X0005800Y0160851D01*
X0005800Y0159253D02*
X0011353Y0159253D01*
X0009755Y0157654D02*
X0005800Y0157654D01*
X0005800Y0156056D02*
X0008982Y0156056D01*
X0008500Y0154457D02*
X0005800Y0154457D01*
X0005800Y0152859D02*
X0008500Y0152859D01*
X0008851Y0151260D02*
X0005800Y0151260D01*
X0005800Y0149662D02*
X0009513Y0149662D01*
X0010164Y0148063D02*
X0005800Y0148063D01*
X0005800Y0146465D02*
X0009151Y0146465D01*
X0008500Y0144866D02*
X0005800Y0144866D01*
X0005800Y0143268D02*
X0008500Y0143268D01*
X0008682Y0141669D02*
X0005800Y0141669D01*
X0005800Y0140070D02*
X0009344Y0140070D01*
X0010572Y0138472D02*
X0005800Y0138472D01*
X0005800Y0136873D02*
X0009321Y0136873D01*
X0008658Y0135275D02*
X0005800Y0135275D01*
X0005800Y0133676D02*
X0008500Y0133676D01*
X0008512Y0132078D02*
X0005800Y0132078D01*
X0005800Y0130479D02*
X0009174Y0130479D01*
X0010220Y0128881D02*
X0005800Y0128881D01*
X0005800Y0127282D02*
X0009490Y0127282D01*
X0008828Y0125684D02*
X0005800Y0125684D01*
X0005800Y0124085D02*
X0008500Y0124085D01*
X0008500Y0122487D02*
X0005800Y0122487D01*
X0005800Y0120888D02*
X0009005Y0120888D01*
X0009811Y0119290D02*
X0005800Y0119290D01*
X0005800Y0117691D02*
X0009792Y0117691D01*
X0008997Y0116093D02*
X0005800Y0116093D01*
X0005800Y0114494D02*
X0008500Y0114494D01*
X0008500Y0112896D02*
X0005800Y0112896D01*
X0005800Y0111297D02*
X0008836Y0111297D01*
X0009498Y0109699D02*
X0005800Y0109699D01*
X0005800Y0108100D02*
X0010201Y0108100D01*
X0009167Y0106502D02*
X0005800Y0106502D01*
X0005800Y0104903D02*
X0008505Y0104903D01*
X0008500Y0103305D02*
X0005800Y0103305D01*
X0005800Y0101706D02*
X0008666Y0101706D01*
X0009328Y0100108D02*
X0005800Y0100108D01*
X0005800Y0098509D02*
X0010591Y0098509D01*
X0009336Y0096911D02*
X0005800Y0096911D01*
X0005800Y0095312D02*
X0008674Y0095312D01*
X0008500Y0093714D02*
X0005800Y0093714D01*
X0005800Y0092115D02*
X0008500Y0092115D01*
X0009159Y0090517D02*
X0005800Y0090517D01*
X0005800Y0088918D02*
X0010182Y0088918D01*
X0009505Y0087320D02*
X0005800Y0087320D01*
X0005800Y0085721D02*
X0008843Y0085721D01*
X0008500Y0084123D02*
X0005800Y0084123D01*
X0005800Y0082524D02*
X0008500Y0082524D01*
X0008990Y0080926D02*
X0005800Y0080926D01*
X0005800Y0079327D02*
X0009773Y0079327D01*
X0011372Y0077729D02*
X0005800Y0077729D01*
X0005800Y0076130D02*
X0094362Y0076130D01*
X0094362Y0074532D02*
X0005800Y0074532D01*
X0005800Y0072933D02*
X0094871Y0072933D01*
X0096654Y0071334D02*
X0005800Y0071334D01*
X0025628Y0077729D02*
X0094362Y0077729D01*
X0094362Y0079327D02*
X0027227Y0079327D01*
X0028010Y0080926D02*
X0094362Y0080926D01*
X0094362Y0082524D02*
X0028500Y0082524D01*
X0028500Y0084123D02*
X0094894Y0084123D01*
X0096789Y0085721D02*
X0028157Y0085721D01*
X0005800Y0162450D02*
X0126200Y0162450D01*
X0126200Y0164048D02*
X0118340Y0164048D01*
X0120246Y0165647D02*
X0126488Y0165647D01*
X0127150Y0167245D02*
X0121253Y0167245D01*
X0111460Y0164048D02*
X0005800Y0164048D01*
X0005800Y0165647D02*
X0109554Y0165647D01*
X0108547Y0167245D02*
X0005800Y0167245D01*
X0005800Y0168844D02*
X0107900Y0168844D01*
X0107900Y0170442D02*
X0005800Y0170442D01*
X0005800Y0172041D02*
X0107900Y0172041D01*
X0107900Y0173639D02*
X0058692Y0173639D01*
X0059282Y0174229D02*
X0059394Y0174500D01*
X0059695Y0174500D01*
X0061022Y0175050D01*
X0061275Y0175155D01*
X0062343Y0176222D01*
X0063535Y0177414D01*
X0063552Y0177432D01*
X0063552Y0177432D01*
X0063552Y0177432D01*
X0063818Y0178073D01*
X0064207Y0179012D01*
X0064207Y0182858D01*
X0063552Y0184438D01*
X0062343Y0185648D01*
X0062343Y0185648D01*
X0061275Y0186716D01*
X0059695Y0187370D01*
X0056310Y0187370D01*
X0055897Y0187783D01*
X0054829Y0188851D01*
X0054540Y0188971D01*
X0053249Y0189505D01*
X0049403Y0189505D01*
X0048103Y0188967D01*
X0046804Y0189505D01*
X0042958Y0189505D01*
X0041658Y0188967D01*
X0041649Y0188971D01*
X0040358Y0189505D01*
X0036512Y0189505D01*
X0034932Y0188851D01*
X0033722Y0187641D01*
X0032655Y0186574D01*
X0032000Y0184993D01*
X0032000Y0183283D01*
X0032530Y0182003D01*
X0032000Y0180723D01*
X0032000Y0179012D01*
X0032655Y0177432D01*
X0034932Y0175155D01*
X0036512Y0174500D01*
X0040358Y0174500D01*
X0041124Y0174817D01*
X0041890Y0174500D01*
X0047871Y0174500D01*
X0048637Y0174817D01*
X0049403Y0174500D01*
X0051879Y0174500D01*
X0051991Y0174229D01*
X0053201Y0173019D01*
X0054781Y0172365D01*
X0056492Y0172365D01*
X0058072Y0173019D01*
X0059282Y0174229D01*
X0061275Y0175155D02*
X0061275Y0175155D01*
X0061275Y0175155D01*
X0061358Y0175238D02*
X0107900Y0175238D01*
X0107900Y0176836D02*
X0062957Y0176836D01*
X0062343Y0176222D02*
X0062343Y0176222D01*
X0063968Y0178435D02*
X0108249Y0178435D01*
X0108911Y0180033D02*
X0064207Y0180033D01*
X0064207Y0181632D02*
X0110432Y0181632D01*
X0110800Y0183230D02*
X0064053Y0183230D01*
X0063162Y0184829D02*
X0110800Y0184829D01*
X0110800Y0186427D02*
X0061563Y0186427D01*
X0055897Y0187783D02*
X0055897Y0187783D01*
X0055654Y0188026D02*
X0110800Y0188026D01*
X0110800Y0189624D02*
X0005800Y0189624D01*
X0005800Y0188026D02*
X0034107Y0188026D01*
X0032594Y0186427D02*
X0005800Y0186427D01*
X0005800Y0184829D02*
X0032000Y0184829D01*
X0032022Y0183230D02*
X0005800Y0183230D01*
X0005800Y0181632D02*
X0032376Y0181632D01*
X0032000Y0180033D02*
X0005800Y0180033D01*
X0005800Y0178435D02*
X0032239Y0178435D01*
X0033250Y0176836D02*
X0005800Y0176836D01*
X0005800Y0175238D02*
X0034849Y0175238D01*
X0052581Y0173639D02*
X0005800Y0173639D01*
X0005800Y0191223D02*
X0109578Y0191223D01*
X0108557Y0192821D02*
X0005800Y0192821D01*
X0005800Y0194420D02*
X0107900Y0194420D01*
X0107900Y0196018D02*
X0005800Y0196018D01*
X0005800Y0197617D02*
X0107900Y0197617D01*
X0107900Y0199215D02*
X0005800Y0199215D01*
X0005800Y0200814D02*
X0107900Y0200814D01*
X0107900Y0202412D02*
X0005800Y0202412D01*
X0005800Y0204011D02*
X0108239Y0204011D01*
X0108901Y0205609D02*
X0005800Y0205609D01*
X0005800Y0207208D02*
X0110408Y0207208D01*
X0119392Y0207208D02*
X0155516Y0207208D01*
X0157114Y0208806D02*
X0005800Y0208806D01*
X0005800Y0210405D02*
X0158713Y0210405D01*
X0160311Y0212003D02*
X0148325Y0212003D01*
X0148317Y0212000D02*
X0150706Y0212990D01*
X0160034Y0222318D01*
X0161024Y0224707D01*
X0161024Y0227293D01*
X0161024Y0235895D01*
X0160492Y0237178D01*
X0160492Y0238548D01*
X0159883Y0240018D01*
X0158758Y0241143D01*
X0157288Y0241752D01*
X0151759Y0241752D01*
X0150289Y0241143D01*
X0149164Y0240018D01*
X0148555Y0238548D01*
X0148555Y0237178D01*
X0148024Y0235895D01*
X0148024Y0228692D01*
X0144331Y0225000D01*
X0127255Y0225000D01*
X0127421Y0225401D01*
X0127421Y0243922D01*
X0126812Y0245392D01*
X0125687Y0246517D01*
X0124217Y0247126D01*
X0112783Y0247126D01*
X0111313Y0246517D01*
X0110188Y0245392D01*
X0109579Y0243922D01*
X0109579Y0225401D01*
X0109745Y0225000D01*
X0076192Y0225000D01*
X0049839Y0251353D01*
X0047450Y0252343D01*
X0033496Y0252343D01*
X0031022Y0253368D01*
X0020978Y0253368D01*
X0018212Y0252222D01*
X0016096Y0250105D01*
X0014950Y0247339D01*
X0014950Y0244346D01*
X0016096Y0241580D01*
X0018212Y0239463D01*
X0020978Y0238318D01*
X0031022Y0238318D01*
X0033496Y0239343D01*
X0043465Y0239343D01*
X0067990Y0214818D01*
X0069818Y0212990D01*
X0072207Y0212000D01*
X0148317Y0212000D01*
X0151318Y0213602D02*
X0161910Y0213602D01*
X0163508Y0215201D02*
X0152917Y0215201D01*
X0154515Y0216799D02*
X0165107Y0216799D01*
X0165976Y0218398D02*
X0156114Y0218398D01*
X0157712Y0219996D02*
X0165976Y0219996D01*
X0165976Y0221595D02*
X0159311Y0221595D01*
X0160396Y0223193D02*
X0165976Y0223193D01*
X0165976Y0224792D02*
X0161024Y0224792D01*
X0161024Y0226390D02*
X0165976Y0226390D01*
X0165976Y0227989D02*
X0161024Y0227989D01*
X0161024Y0229587D02*
X0165976Y0229587D01*
X0165976Y0231186D02*
X0161024Y0231186D01*
X0161024Y0232784D02*
X0165976Y0232784D01*
X0165976Y0234383D02*
X0161024Y0234383D01*
X0160988Y0235981D02*
X0166012Y0235981D01*
X0166508Y0237580D02*
X0160492Y0237580D01*
X0160231Y0239178D02*
X0166769Y0239178D01*
X0167876Y0240777D02*
X0159124Y0240777D01*
X0149923Y0240777D02*
X0127421Y0240777D01*
X0127421Y0242375D02*
X0199579Y0242375D01*
X0199579Y0240777D02*
X0177077Y0240777D01*
X0178184Y0239178D02*
X0199579Y0239178D01*
X0199579Y0237580D02*
X0178445Y0237580D01*
X0178941Y0235981D02*
X0199579Y0235981D01*
X0199579Y0234383D02*
X0178976Y0234383D01*
X0178976Y0232784D02*
X0199579Y0232784D01*
X0199579Y0231186D02*
X0178976Y0231186D01*
X0178976Y0229587D02*
X0199579Y0229587D01*
X0199579Y0227989D02*
X0178976Y0227989D01*
X0178976Y0226390D02*
X0199579Y0226390D01*
X0199831Y0224792D02*
X0178976Y0224792D01*
X0178976Y0223193D02*
X0200926Y0223193D01*
X0202000Y0221595D02*
X0179598Y0221595D01*
X0176705Y0207208D02*
X0173900Y0207208D01*
X0153917Y0205609D02*
X0144105Y0205609D01*
X0134091Y0205609D02*
X0132909Y0205609D01*
X0122895Y0205609D02*
X0120899Y0205609D01*
X0127421Y0226390D02*
X0145721Y0226390D01*
X0147320Y0227989D02*
X0127421Y0227989D01*
X0127421Y0229587D02*
X0148024Y0229587D01*
X0148024Y0231186D02*
X0127421Y0231186D01*
X0127421Y0232784D02*
X0148024Y0232784D01*
X0148024Y0234383D02*
X0127421Y0234383D01*
X0127421Y0235981D02*
X0148059Y0235981D01*
X0148555Y0237580D02*
X0127421Y0237580D01*
X0127421Y0239178D02*
X0148816Y0239178D01*
X0127400Y0243974D02*
X0199600Y0243974D01*
X0200368Y0245572D02*
X0126632Y0245572D01*
X0110368Y0245572D02*
X0055620Y0245572D01*
X0057219Y0243974D02*
X0109600Y0243974D01*
X0109579Y0242375D02*
X0058817Y0242375D01*
X0060416Y0240777D02*
X0109579Y0240777D01*
X0109579Y0239178D02*
X0062014Y0239178D01*
X0063613Y0237580D02*
X0109579Y0237580D01*
X0109579Y0235981D02*
X0065211Y0235981D01*
X0066810Y0234383D02*
X0109579Y0234383D01*
X0109579Y0232784D02*
X0068408Y0232784D01*
X0070007Y0231186D02*
X0109579Y0231186D01*
X0109579Y0229587D02*
X0071605Y0229587D01*
X0073204Y0227989D02*
X0109579Y0227989D01*
X0109579Y0226390D02*
X0074802Y0226390D01*
X0066009Y0216799D02*
X0005800Y0216799D01*
X0005800Y0215201D02*
X0067607Y0215201D01*
X0069206Y0213602D02*
X0005800Y0213602D01*
X0005800Y0212003D02*
X0072199Y0212003D01*
X0064410Y0218398D02*
X0005800Y0218398D01*
X0005800Y0219996D02*
X0062812Y0219996D01*
X0061213Y0221595D02*
X0005800Y0221595D01*
X0005800Y0223193D02*
X0059615Y0223193D01*
X0058016Y0224792D02*
X0005800Y0224792D01*
X0005800Y0226390D02*
X0056418Y0226390D01*
X0054819Y0227989D02*
X0005800Y0227989D01*
X0005800Y0229587D02*
X0053220Y0229587D01*
X0051622Y0231186D02*
X0005800Y0231186D01*
X0005800Y0232784D02*
X0050023Y0232784D01*
X0048425Y0234383D02*
X0005800Y0234383D01*
X0005800Y0235981D02*
X0046826Y0235981D01*
X0045228Y0237580D02*
X0005800Y0237580D01*
X0005800Y0239178D02*
X0018900Y0239178D01*
X0016899Y0240777D02*
X0005800Y0240777D01*
X0005800Y0242375D02*
X0015766Y0242375D01*
X0015104Y0243974D02*
X0005800Y0243974D01*
X0005800Y0245572D02*
X0014950Y0245572D01*
X0014950Y0247171D02*
X0005800Y0247171D01*
X0005800Y0248769D02*
X0015542Y0248769D01*
X0016358Y0250368D02*
X0005800Y0250368D01*
X0005800Y0251966D02*
X0017957Y0251966D01*
X0005800Y0253565D02*
X0248534Y0253565D01*
X0246211Y0251966D02*
X0048359Y0251966D01*
X0050825Y0250368D02*
X0245563Y0250368D01*
X0245563Y0248769D02*
X0052423Y0248769D01*
X0054022Y0247171D02*
X0245563Y0247171D01*
X0245563Y0245572D02*
X0216632Y0245572D01*
X0217400Y0243974D02*
X0245563Y0243974D01*
X0236027Y0242375D02*
X0217421Y0242375D01*
X0217421Y0240777D02*
X0234013Y0240777D01*
X0233457Y0239178D02*
X0217421Y0239178D01*
X0217421Y0237580D02*
X0233457Y0237580D01*
X0233457Y0235981D02*
X0217421Y0235981D01*
X0217421Y0234383D02*
X0233457Y0234383D01*
X0233457Y0232784D02*
X0217421Y0232784D01*
X0217421Y0231186D02*
X0233605Y0231186D01*
X0234551Y0229587D02*
X0217421Y0229587D01*
X0217421Y0227989D02*
X0247000Y0227989D01*
X0247000Y0226390D02*
X0217421Y0226390D01*
X0217169Y0224792D02*
X0247000Y0224792D01*
X0246501Y0223193D02*
X0216074Y0223193D01*
X0215000Y0221595D02*
X0244902Y0221595D01*
X0258466Y0253565D02*
X0263713Y0253565D01*
X0273287Y0253565D02*
X0296200Y0253565D01*
X0296200Y0255163D02*
X0005800Y0255163D01*
X0005800Y0256762D02*
X0296200Y0256762D01*
X0296200Y0258360D02*
X0005800Y0258360D01*
X0005800Y0259959D02*
X0296200Y0259959D01*
X0296200Y0261557D02*
X0005800Y0261557D01*
X0005800Y0263156D02*
X0296200Y0263156D01*
X0296200Y0264754D02*
X0005800Y0264754D01*
X0005800Y0266353D02*
X0278658Y0266353D01*
X0276023Y0267127D02*
X0276023Y0267127D01*
X0274739Y0267951D02*
X0005800Y0267951D01*
X0005800Y0269550D02*
X0008784Y0269550D01*
X0008523Y0269627D02*
X0008523Y0269627D01*
X0006155Y0271148D02*
X0005800Y0271148D01*
X0023216Y0269550D02*
X0272252Y0269550D01*
X0271713Y0269897D02*
X0271713Y0269897D01*
X0270628Y0271148D02*
X0025845Y0271148D01*
X0027787Y0272397D02*
X0027787Y0272397D01*
X0028091Y0272747D02*
X0269243Y0272747D01*
X0268357Y0273768D02*
X0268357Y0273768D01*
X0268094Y0274345D02*
X0029476Y0274345D01*
X0030861Y0275944D02*
X0267364Y0275944D01*
X0266634Y0277542D02*
X0031724Y0277542D01*
X0032454Y0279141D02*
X0266127Y0279141D01*
X0266229Y0278429D02*
X0266229Y0278429D01*
X0265897Y0280739D02*
X0033184Y0280739D01*
X0033271Y0280929D02*
X0033271Y0280929D01*
X0033473Y0282338D02*
X0265667Y0282338D01*
X0265563Y0283937D02*
X0033703Y0283937D01*
X0033933Y0285535D02*
X0265793Y0285535D01*
X0266022Y0287134D02*
X0033837Y0287134D01*
X0033607Y0288732D02*
X0266303Y0288732D01*
X0266229Y0288571D02*
X0266229Y0288571D01*
X0267033Y0290331D02*
X0033377Y0290331D01*
X0032879Y0291929D02*
X0267763Y0291929D01*
X0268614Y0293528D02*
X0032149Y0293528D01*
X0031419Y0295126D02*
X0269999Y0295126D01*
X0294748Y0269550D02*
X0296200Y0269550D01*
X0295287Y0269897D02*
X0295287Y0269897D01*
X0295287Y0269897D01*
X0296200Y0267951D02*
X0292261Y0267951D01*
X0288342Y0266353D02*
X0296200Y0266353D01*
X0296200Y0251966D02*
X0275460Y0251966D01*
X0276049Y0250368D02*
X0296200Y0250368D01*
X0296200Y0248769D02*
X0276049Y0248769D01*
X0276049Y0247171D02*
X0296200Y0247171D01*
X0296200Y0245572D02*
X0276049Y0245572D01*
X0276049Y0243974D02*
X0296200Y0243974D01*
X0296200Y0242375D02*
X0275934Y0242375D01*
X0275034Y0240777D02*
X0296200Y0240777D01*
X0157000Y0096911D02*
X0139989Y0096911D01*
X0140651Y0095312D02*
X0156349Y0095312D01*
X0156200Y0093714D02*
X0140800Y0093714D01*
X0140800Y0092115D02*
X0156200Y0092115D01*
X0156834Y0090517D02*
X0140166Y0090517D01*
X0139242Y0088918D02*
X0157758Y0088918D01*
X0157181Y0087320D02*
X0139819Y0087320D01*
X0140481Y0085721D02*
X0156519Y0085721D01*
X0156200Y0084123D02*
X0140800Y0084123D01*
X0140800Y0082524D02*
X0156200Y0082524D01*
X0156665Y0080926D02*
X0140335Y0080926D01*
X0139651Y0079327D02*
X0157349Y0079327D01*
X0157405Y0077729D02*
X0139595Y0077729D01*
X0140312Y0076130D02*
X0156688Y0076130D01*
X0156200Y0074532D02*
X0140800Y0074532D01*
X0140800Y0072933D02*
X0156200Y0072933D01*
X0156496Y0071334D02*
X0140504Y0071334D01*
X0139842Y0069736D02*
X0157158Y0069736D01*
X0157814Y0068137D02*
X0139186Y0068137D01*
X0140143Y0066539D02*
X0156857Y0066539D01*
X0156200Y0064940D02*
X0140800Y0064940D01*
X0140800Y0063342D02*
X0156200Y0063342D01*
X0156326Y0061743D02*
X0140674Y0061743D01*
X0140012Y0060145D02*
X0156988Y0060145D01*
X0158130Y0058546D02*
X0138870Y0058546D01*
X0139973Y0056948D02*
X0157027Y0056948D01*
X0156365Y0055349D02*
X0140635Y0055349D01*
X0140800Y0053751D02*
X0156200Y0053751D01*
X0156200Y0052152D02*
X0140800Y0052152D01*
X0140181Y0050554D02*
X0156819Y0050554D01*
X0157721Y0048955D02*
X0139279Y0048955D01*
X0139804Y0047357D02*
X0157196Y0047357D01*
X0156534Y0045758D02*
X0140466Y0045758D01*
X0140800Y0044160D02*
X0156200Y0044160D01*
X0156200Y0042561D02*
X0140800Y0042561D01*
X0140351Y0040963D02*
X0156649Y0040963D01*
X0157312Y0039364D02*
X0139688Y0039364D01*
X0138090Y0037766D02*
X0158910Y0037766D01*
X0126200Y0072933D02*
X0120961Y0072933D01*
X0123000Y0074532D02*
X0126200Y0074532D01*
X0126688Y0076130D02*
X0123929Y0076130D01*
X0124400Y0077729D02*
X0127405Y0077729D01*
X0112531Y0092115D02*
X0107477Y0092115D01*
X0111596Y0104903D02*
X0132904Y0104903D01*
X0131306Y0106502D02*
X0113194Y0106502D01*
X0122163Y0103305D02*
X0134503Y0103305D01*
X0136101Y0101706D02*
X0123583Y0101706D01*
X0124245Y0100108D02*
X0130377Y0100108D01*
X0136623Y0100108D02*
X0137700Y0100108D01*
X0138815Y0098509D02*
X0139298Y0098509D01*
X0054829Y0188851D02*
X0054829Y0188851D01*
X0054829Y0188851D01*
X0043629Y0239178D02*
X0033100Y0239178D01*
X0031143Y0295732D02*
X0031143Y0295732D01*
X0285981Y0088918D02*
X0296200Y0088918D01*
X0296200Y0087320D02*
X0287495Y0087320D01*
X0288157Y0085721D02*
X0296200Y0085721D01*
X0296200Y0084123D02*
X0288500Y0084123D01*
X0288500Y0082524D02*
X0296200Y0082524D01*
X0296200Y0080926D02*
X0288010Y0080926D01*
X0287227Y0079327D02*
X0296200Y0079327D01*
X0296200Y0077729D02*
X0287171Y0077729D01*
X0287987Y0076130D02*
X0296200Y0076130D01*
X0296200Y0074532D02*
X0288500Y0074532D01*
X0288500Y0072933D02*
X0296200Y0072933D01*
X0296200Y0071334D02*
X0288180Y0071334D01*
X0287518Y0069736D02*
X0296200Y0069736D01*
X0296200Y0068137D02*
X0286762Y0068137D01*
X0287818Y0066539D02*
X0296200Y0066539D01*
X0296200Y0064940D02*
X0288480Y0064940D01*
X0288500Y0063342D02*
X0296200Y0063342D01*
X0296200Y0061743D02*
X0288349Y0061743D01*
X0287687Y0060145D02*
X0296200Y0060145D01*
X0296200Y0058546D02*
X0286446Y0058546D01*
X0287649Y0056948D02*
X0296200Y0056948D01*
X0296200Y0055349D02*
X0288311Y0055349D01*
X0288500Y0053751D02*
X0296200Y0053751D01*
X0296200Y0052152D02*
X0288500Y0052152D01*
X0287856Y0050554D02*
X0296200Y0050554D01*
X0296200Y0048955D02*
X0286855Y0048955D01*
X0287479Y0047357D02*
X0296200Y0047357D01*
X0296200Y0045758D02*
X0288141Y0045758D01*
X0288500Y0044160D02*
X0296200Y0044160D01*
X0296200Y0042561D02*
X0288500Y0042561D01*
X0288026Y0040963D02*
X0296200Y0040963D01*
X0296200Y0039364D02*
X0287264Y0039364D01*
X0287134Y0037766D02*
X0296200Y0037766D01*
X0296200Y0036167D02*
X0287972Y0036167D01*
X0288500Y0034569D02*
X0296200Y0034569D01*
X0296200Y0032970D02*
X0291445Y0032970D01*
X0293477Y0032373D02*
X0293477Y0032373D01*
X0295036Y0031372D02*
X0296200Y0031372D01*
X0270857Y0006268D02*
X0270857Y0006268D01*
D27*
X0133500Y0083500D02*
X0118500Y0083500D01*
X0116000Y0081000D01*
X0116000Y0078500D01*
X0101512Y0078500D01*
X0118500Y0093500D02*
X0116000Y0096000D01*
X0116000Y0098500D01*
X0101512Y0098500D01*
X0101512Y0108500D02*
X0106000Y0108500D01*
X0118500Y0093500D02*
X0133500Y0093500D01*
X0133500Y0173500D02*
X0115200Y0173500D01*
X0114900Y0173200D01*
X0116000Y0174300D01*
X0116000Y0198500D01*
X0127902Y0198500D01*
X0127602Y0198800D01*
X0114900Y0198800D01*
M02*
