G75*
%MOIN*%
%OFA0B0*%
%FSLAX25Y25*%
%IPPOS*%
%LPD*%
%AMOC8*
5,1,8,0,0,1.08239X$1,22.5*
%
%ADD10R,0.10643X0.17729*%
%ADD11R,0.07887X0.07099*%
%ADD12R,0.07099X0.07887*%
%ADD13R,0.22060X0.25209*%
%ADD14R,0.04737X0.07099*%
%ADD15R,0.07898X0.07099*%
%ADD16C,0.05200*%
%ADD17R,0.08674X0.07099*%
%ADD18R,0.07099X0.07898*%
%ADD19C,0.06800*%
%ADD20R,0.07400X0.07400*%
%ADD21C,0.07400*%
%ADD22C,0.07850*%
%ADD23C,0.11824*%
D10*
X0118500Y0234661D03*
X0118500Y0267339D03*
X0208500Y0267339D03*
X0208500Y0234661D03*
D11*
X0241000Y0235488D03*
X0241000Y0246512D03*
D12*
X0101512Y0108500D03*
X0101512Y0098500D03*
X0090488Y0098500D03*
X0090488Y0108500D03*
X0090488Y0078500D03*
X0101512Y0078500D03*
X0175488Y0093500D03*
X0186512Y0093500D03*
X0186512Y0103500D03*
X0175488Y0103500D03*
D13*
X0163500Y0263343D03*
D14*
X0154524Y0234602D03*
X0172476Y0234602D03*
D15*
X0268500Y0235402D03*
X0268500Y0246598D03*
D16*
X0118200Y0098500D02*
X0113800Y0098500D01*
X0113800Y0078500D02*
X0118200Y0078500D01*
D17*
X0253500Y0235488D03*
X0253500Y0246512D03*
D18*
X0139098Y0198500D03*
X0127902Y0198500D03*
D19*
X0114900Y0195800D02*
X0114900Y0201800D01*
X0097100Y0201800D02*
X0097100Y0195800D01*
X0097100Y0176200D02*
X0097100Y0170200D01*
X0114900Y0170200D02*
X0114900Y0176200D01*
X0021500Y0153500D02*
X0015500Y0153500D01*
X0015500Y0143500D02*
X0021500Y0143500D01*
X0021500Y0133500D02*
X0015500Y0133500D01*
X0015500Y0123500D02*
X0021500Y0123500D01*
X0021500Y0113500D02*
X0015500Y0113500D01*
X0015500Y0103500D02*
X0021500Y0103500D01*
X0021500Y0093500D02*
X0015500Y0093500D01*
X0015500Y0083500D02*
X0021500Y0083500D01*
X0275500Y0083500D02*
X0281500Y0083500D01*
X0281500Y0073500D02*
X0275500Y0073500D01*
X0275500Y0063500D02*
X0281500Y0063500D01*
X0281500Y0053500D02*
X0275500Y0053500D01*
X0275500Y0043500D02*
X0281500Y0043500D01*
X0281500Y0033500D02*
X0275500Y0033500D01*
X0275500Y0123500D02*
X0281500Y0123500D01*
X0281500Y0133500D02*
X0275500Y0133500D01*
X0275500Y0143500D02*
X0281500Y0143500D01*
X0281500Y0153500D02*
X0275500Y0153500D01*
X0275500Y0163500D02*
X0281500Y0163500D01*
X0281500Y0173500D02*
X0275500Y0173500D01*
D20*
X0133500Y0173500D03*
D21*
X0133500Y0163500D03*
X0133500Y0153500D03*
X0133500Y0143500D03*
X0133500Y0133500D03*
X0133500Y0123500D03*
X0133500Y0113500D03*
X0133500Y0103500D03*
X0133500Y0093500D03*
X0133500Y0083500D03*
X0133500Y0073500D03*
X0133500Y0063500D03*
X0133500Y0053500D03*
X0133500Y0043500D03*
X0163500Y0043500D03*
X0163500Y0053500D03*
X0163500Y0063500D03*
X0163500Y0073500D03*
X0163500Y0083500D03*
X0163500Y0093500D03*
X0163500Y0103500D03*
X0163500Y0113500D03*
X0163500Y0123500D03*
X0163500Y0133500D03*
X0163500Y0143500D03*
X0163500Y0153500D03*
X0163500Y0163500D03*
X0163500Y0173500D03*
D22*
X0029525Y0226157D02*
X0022475Y0226157D01*
X0022475Y0245843D02*
X0029525Y0245843D01*
D23*
X0016000Y0016000D03*
X0283500Y0283500D03*
X0286000Y0016000D03*
X0016000Y0286000D03*
M02*
