G75*
%MOIN*%
%OFA0B0*%
%FSLAX25Y25*%
%IPPOS*%
%LPD*%
%AMOC8*
5,1,8,0,0,1.08239X$1,22.5*
%
%ADD10OC8,0.06300*%
%ADD11C,0.06300*%
%ADD12C,0.08850*%
%ADD13C,0.07000*%
%ADD14C,0.05600*%
%ADD15OC8,0.05200*%
%ADD16C,0.07050*%
%ADD17C,0.01600*%
D10*
X0106000Y0076000D03*
X0101000Y0176000D03*
D11*
X0091000Y0176000D03*
X0096000Y0076000D03*
D12*
X0075425Y0101000D02*
X0066575Y0101000D01*
X0126575Y0101000D02*
X0135425Y0101000D01*
D13*
X0114400Y0125400D02*
X0114400Y0132400D01*
X0107700Y0136900D02*
X0107700Y0143900D01*
X0101200Y0132400D02*
X0101200Y0125400D01*
X0094300Y0136800D02*
X0094300Y0143800D01*
X0087600Y0132300D02*
X0087600Y0125300D01*
D14*
X0091157Y0041000D03*
X0110843Y0041000D03*
D15*
X0151000Y0081000D03*
X0191000Y0081000D03*
X0191000Y0141000D03*
X0151000Y0141000D03*
D16*
X0040843Y0142475D02*
X0040843Y0149525D01*
X0021157Y0149525D02*
X0021157Y0142475D01*
X0021157Y0104525D02*
X0021157Y0097475D01*
X0040843Y0097475D02*
X0040843Y0104525D01*
D17*
X0023477Y0032373D02*
X0027787Y0029603D01*
X0027787Y0029603D01*
X0031143Y0025732D01*
X0031143Y0025732D01*
X0033271Y0021071D01*
X0033271Y0021071D01*
X0034000Y0016000D01*
X0033271Y0010929D01*
X0033271Y0010929D01*
X0031143Y0006268D01*
X0031143Y0006268D01*
X0030910Y0006000D01*
X0171090Y0006000D01*
X0170857Y0006268D01*
X0170857Y0006268D01*
X0168729Y0010929D01*
X0168000Y0016000D01*
X0168729Y0021071D01*
X0170857Y0025732D01*
X0174212Y0029603D01*
X0174212Y0029603D01*
X0174213Y0029603D01*
X0178523Y0032373D01*
X0178523Y0032373D01*
X0183438Y0033817D01*
X0188562Y0033817D01*
X0193477Y0032373D01*
X0193477Y0032373D01*
X0196000Y0030752D01*
X0196000Y0076666D01*
X0193734Y0074400D01*
X0188266Y0074400D01*
X0184400Y0078266D01*
X0184400Y0083734D01*
X0188266Y0087600D01*
X0193734Y0087600D01*
X0196000Y0085334D01*
X0196000Y0136666D01*
X0193734Y0134400D01*
X0188266Y0134400D01*
X0184400Y0138266D01*
X0184400Y0143734D01*
X0188266Y0147600D01*
X0193734Y0147600D01*
X0196000Y0145334D01*
X0196000Y0171248D01*
X0193477Y0169627D01*
X0193477Y0169627D01*
X0188562Y0168183D01*
X0183438Y0168183D01*
X0178523Y0169627D01*
X0178523Y0169627D01*
X0174213Y0172397D01*
X0174212Y0172397D01*
X0170857Y0176268D01*
X0170857Y0176268D01*
X0168729Y0180929D01*
X0168729Y0180929D01*
X0168000Y0186000D01*
X0168000Y0186000D01*
X0168729Y0191071D01*
X0168729Y0191071D01*
X0170857Y0195732D01*
X0170857Y0195732D01*
X0171090Y0196000D01*
X0030910Y0196000D01*
X0031143Y0195732D01*
X0033271Y0191071D01*
X0034000Y0186000D01*
X0034000Y0186000D01*
X0033271Y0180929D01*
X0033271Y0180929D01*
X0031143Y0176268D01*
X0031143Y0176268D01*
X0027787Y0172397D01*
X0027787Y0172397D01*
X0027787Y0172397D01*
X0023477Y0169627D01*
X0023477Y0169627D01*
X0018562Y0168183D01*
X0013438Y0168183D01*
X0008523Y0169627D01*
X0008523Y0169627D01*
X0006000Y0171248D01*
X0006000Y0030752D01*
X0008523Y0032373D01*
X0008523Y0032373D01*
X0013438Y0033817D01*
X0018562Y0033817D01*
X0023477Y0032373D01*
X0023477Y0032373D01*
X0025036Y0031372D02*
X0176964Y0031372D01*
X0174477Y0029773D02*
X0027523Y0029773D01*
X0029026Y0028175D02*
X0172974Y0028175D01*
X0171589Y0026576D02*
X0030411Y0026576D01*
X0031487Y0024978D02*
X0170513Y0024978D01*
X0169783Y0023379D02*
X0032217Y0023379D01*
X0032947Y0021781D02*
X0169053Y0021781D01*
X0168601Y0020182D02*
X0033399Y0020182D01*
X0033629Y0018584D02*
X0168371Y0018584D01*
X0168142Y0016985D02*
X0033858Y0016985D01*
X0033912Y0015387D02*
X0168088Y0015387D01*
X0168318Y0013788D02*
X0033682Y0013788D01*
X0033452Y0012190D02*
X0168548Y0012190D01*
X0168883Y0010591D02*
X0033117Y0010591D01*
X0032387Y0008993D02*
X0169613Y0008993D01*
X0170343Y0007394D02*
X0031657Y0007394D01*
X0006964Y0031372D02*
X0006000Y0031372D01*
X0006000Y0032970D02*
X0010555Y0032970D01*
X0006000Y0034569D02*
X0088915Y0034569D01*
X0089805Y0034200D02*
X0092510Y0034200D01*
X0095009Y0035235D01*
X0096922Y0037148D01*
X0097957Y0039647D01*
X0097957Y0042353D01*
X0096922Y0044852D01*
X0095009Y0046765D01*
X0092510Y0047800D01*
X0089805Y0047800D01*
X0087306Y0046765D01*
X0085393Y0044852D01*
X0084357Y0042353D01*
X0084357Y0039647D01*
X0085393Y0037148D01*
X0087306Y0035235D01*
X0089805Y0034200D01*
X0093400Y0034569D02*
X0108600Y0034569D01*
X0109490Y0034200D02*
X0112195Y0034200D01*
X0114694Y0035235D01*
X0116607Y0037148D01*
X0117643Y0039647D01*
X0117643Y0042353D01*
X0116607Y0044852D01*
X0114694Y0046765D01*
X0112195Y0047800D01*
X0109490Y0047800D01*
X0106991Y0046765D01*
X0105078Y0044852D01*
X0104043Y0042353D01*
X0104043Y0039647D01*
X0105078Y0037148D01*
X0106991Y0035235D01*
X0109490Y0034200D01*
X0113085Y0034569D02*
X0196000Y0034569D01*
X0196000Y0036167D02*
X0115626Y0036167D01*
X0116863Y0037766D02*
X0196000Y0037766D01*
X0196000Y0039364D02*
X0117525Y0039364D01*
X0117643Y0040963D02*
X0196000Y0040963D01*
X0196000Y0042561D02*
X0117556Y0042561D01*
X0116894Y0044160D02*
X0196000Y0044160D01*
X0196000Y0045758D02*
X0115701Y0045758D01*
X0113265Y0047357D02*
X0196000Y0047357D01*
X0196000Y0048955D02*
X0006000Y0048955D01*
X0006000Y0047357D02*
X0088735Y0047357D01*
X0086299Y0045758D02*
X0006000Y0045758D01*
X0006000Y0044160D02*
X0085106Y0044160D01*
X0084444Y0042561D02*
X0006000Y0042561D01*
X0006000Y0040963D02*
X0084357Y0040963D01*
X0084475Y0039364D02*
X0006000Y0039364D01*
X0006000Y0037766D02*
X0085137Y0037766D01*
X0086374Y0036167D02*
X0006000Y0036167D01*
X0006000Y0050554D02*
X0196000Y0050554D01*
X0196000Y0052152D02*
X0006000Y0052152D01*
X0006000Y0053751D02*
X0196000Y0053751D01*
X0196000Y0055349D02*
X0006000Y0055349D01*
X0006000Y0056948D02*
X0196000Y0056948D01*
X0196000Y0058546D02*
X0006000Y0058546D01*
X0006000Y0060145D02*
X0196000Y0060145D01*
X0196000Y0061743D02*
X0006000Y0061743D01*
X0006000Y0063342D02*
X0196000Y0063342D01*
X0196000Y0064940D02*
X0006000Y0064940D01*
X0006000Y0066539D02*
X0196000Y0066539D01*
X0196000Y0068137D02*
X0006000Y0068137D01*
X0006000Y0069736D02*
X0092439Y0069736D01*
X0091950Y0069939D02*
X0094578Y0068850D01*
X0097422Y0068850D01*
X0100050Y0069939D01*
X0102061Y0071950D01*
X0103150Y0074578D01*
X0103150Y0077422D01*
X0102061Y0080050D01*
X0100050Y0082061D01*
X0097422Y0083150D01*
X0094578Y0083150D01*
X0091950Y0082061D01*
X0089939Y0080050D01*
X0088850Y0077422D01*
X0088850Y0074578D01*
X0089939Y0071950D01*
X0091950Y0069939D01*
X0090554Y0071334D02*
X0006000Y0071334D01*
X0006000Y0072933D02*
X0089531Y0072933D01*
X0088869Y0074532D02*
X0006000Y0074532D01*
X0006000Y0076130D02*
X0088850Y0076130D01*
X0088977Y0077729D02*
X0006000Y0077729D01*
X0006000Y0079327D02*
X0089639Y0079327D01*
X0090814Y0080926D02*
X0006000Y0080926D01*
X0006000Y0082524D02*
X0093067Y0082524D01*
X0098933Y0082524D02*
X0184400Y0082524D01*
X0184400Y0080926D02*
X0101186Y0080926D01*
X0102361Y0079327D02*
X0184400Y0079327D01*
X0184938Y0077729D02*
X0103023Y0077729D01*
X0103150Y0076130D02*
X0186536Y0076130D01*
X0188135Y0074532D02*
X0103131Y0074532D01*
X0102469Y0072933D02*
X0196000Y0072933D01*
X0196000Y0071334D02*
X0101446Y0071334D01*
X0099561Y0069736D02*
X0196000Y0069736D01*
X0196000Y0074532D02*
X0193865Y0074532D01*
X0195464Y0076130D02*
X0196000Y0076130D01*
X0196000Y0085721D02*
X0195613Y0085721D01*
X0196000Y0087320D02*
X0194014Y0087320D01*
X0196000Y0088918D02*
X0006000Y0088918D01*
X0006000Y0087320D02*
X0187986Y0087320D01*
X0186387Y0085721D02*
X0006000Y0085721D01*
X0006000Y0084123D02*
X0184789Y0084123D01*
X0196000Y0090517D02*
X0024022Y0090517D01*
X0022654Y0089950D02*
X0025420Y0091096D01*
X0027537Y0093212D01*
X0028682Y0095978D01*
X0028682Y0106022D01*
X0027537Y0108788D01*
X0025420Y0110904D01*
X0022654Y0112050D01*
X0019661Y0112050D01*
X0016895Y0110904D01*
X0014778Y0108788D01*
X0013632Y0106022D01*
X0013632Y0095978D01*
X0014778Y0093212D01*
X0016895Y0091096D01*
X0019661Y0089950D01*
X0022654Y0089950D01*
X0026440Y0092115D02*
X0196000Y0092115D01*
X0196000Y0093714D02*
X0079850Y0093714D01*
X0080197Y0093858D02*
X0082567Y0096228D01*
X0083850Y0099324D01*
X0083850Y0102676D01*
X0082567Y0105772D01*
X0080197Y0108142D01*
X0077101Y0109425D01*
X0064899Y0109425D01*
X0061803Y0108142D01*
X0059433Y0105772D01*
X0058150Y0102676D01*
X0058150Y0099324D01*
X0059433Y0096228D01*
X0061803Y0093858D01*
X0064899Y0092575D01*
X0077101Y0092575D01*
X0080197Y0093858D01*
X0081652Y0095312D02*
X0196000Y0095312D01*
X0196000Y0096911D02*
X0082850Y0096911D01*
X0083512Y0098509D02*
X0196000Y0098509D01*
X0196000Y0100108D02*
X0083850Y0100108D01*
X0083850Y0101706D02*
X0196000Y0101706D01*
X0196000Y0103305D02*
X0083590Y0103305D01*
X0082927Y0104903D02*
X0196000Y0104903D01*
X0196000Y0106502D02*
X0081838Y0106502D01*
X0080239Y0108100D02*
X0196000Y0108100D01*
X0196000Y0109699D02*
X0026626Y0109699D01*
X0027822Y0108100D02*
X0061761Y0108100D01*
X0060162Y0106502D02*
X0028484Y0106502D01*
X0028682Y0104903D02*
X0059073Y0104903D01*
X0058410Y0103305D02*
X0028682Y0103305D01*
X0028682Y0101706D02*
X0058150Y0101706D01*
X0058150Y0100108D02*
X0028682Y0100108D01*
X0028682Y0098509D02*
X0058488Y0098509D01*
X0059150Y0096911D02*
X0028682Y0096911D01*
X0028407Y0095312D02*
X0060348Y0095312D01*
X0062150Y0093714D02*
X0027744Y0093714D01*
X0018293Y0090517D02*
X0006000Y0090517D01*
X0006000Y0092115D02*
X0015875Y0092115D01*
X0014570Y0093714D02*
X0006000Y0093714D01*
X0006000Y0095312D02*
X0013908Y0095312D01*
X0013632Y0096911D02*
X0006000Y0096911D01*
X0006000Y0098509D02*
X0013632Y0098509D01*
X0013632Y0100108D02*
X0006000Y0100108D01*
X0006000Y0101706D02*
X0013632Y0101706D01*
X0013632Y0103305D02*
X0006000Y0103305D01*
X0006000Y0104903D02*
X0013632Y0104903D01*
X0013831Y0106502D02*
X0006000Y0106502D01*
X0006000Y0108100D02*
X0014493Y0108100D01*
X0015689Y0109699D02*
X0006000Y0109699D01*
X0006000Y0111297D02*
X0017843Y0111297D01*
X0024471Y0111297D02*
X0196000Y0111297D01*
X0196000Y0112896D02*
X0006000Y0112896D01*
X0006000Y0114494D02*
X0196000Y0114494D01*
X0196000Y0116093D02*
X0006000Y0116093D01*
X0006000Y0117691D02*
X0196000Y0117691D01*
X0196000Y0119290D02*
X0092196Y0119290D01*
X0091848Y0118942D02*
X0089092Y0117800D01*
X0086108Y0117800D01*
X0083352Y0118942D01*
X0081242Y0121052D01*
X0080100Y0123808D01*
X0080100Y0133792D01*
X0081242Y0136548D01*
X0083352Y0138658D01*
X0086108Y0139800D01*
X0086800Y0139800D01*
X0086800Y0145292D01*
X0087942Y0148048D01*
X0090052Y0150158D01*
X0092808Y0151300D01*
X0095792Y0151300D01*
X0098548Y0150158D01*
X0100658Y0148048D01*
X0100979Y0147273D01*
X0101342Y0148148D01*
X0103452Y0150258D01*
X0106208Y0151400D01*
X0109192Y0151400D01*
X0111948Y0150258D01*
X0114058Y0148148D01*
X0115200Y0145392D01*
X0115200Y0135408D01*
X0114058Y0132652D01*
X0111948Y0130542D01*
X0109192Y0129400D01*
X0106208Y0129400D01*
X0103452Y0130542D01*
X0101342Y0132652D01*
X0101021Y0133427D01*
X0100658Y0132552D01*
X0098548Y0130442D01*
X0095792Y0129300D01*
X0095100Y0129300D01*
X0095100Y0123808D01*
X0093958Y0121052D01*
X0091848Y0118942D01*
X0093795Y0120888D02*
X0196000Y0120888D01*
X0196000Y0122487D02*
X0094553Y0122487D01*
X0095100Y0124085D02*
X0196000Y0124085D01*
X0196000Y0125684D02*
X0095100Y0125684D01*
X0095100Y0127282D02*
X0196000Y0127282D01*
X0196000Y0128881D02*
X0095100Y0128881D01*
X0098586Y0130479D02*
X0103602Y0130479D01*
X0101915Y0132078D02*
X0100185Y0132078D01*
X0111798Y0130479D02*
X0196000Y0130479D01*
X0196000Y0132078D02*
X0113485Y0132078D01*
X0114483Y0133676D02*
X0196000Y0133676D01*
X0196000Y0135275D02*
X0194609Y0135275D01*
X0187391Y0135275D02*
X0154609Y0135275D01*
X0153734Y0134400D02*
X0157600Y0138266D01*
X0157600Y0143734D01*
X0153734Y0147600D01*
X0148266Y0147600D01*
X0144400Y0143734D01*
X0144400Y0138266D01*
X0148266Y0134400D01*
X0153734Y0134400D01*
X0156207Y0136873D02*
X0185793Y0136873D01*
X0184400Y0138472D02*
X0157600Y0138472D01*
X0157600Y0140070D02*
X0184400Y0140070D01*
X0184400Y0141669D02*
X0157600Y0141669D01*
X0157600Y0143268D02*
X0184400Y0143268D01*
X0185532Y0144866D02*
X0156468Y0144866D01*
X0154869Y0146465D02*
X0187131Y0146465D01*
X0194869Y0146465D02*
X0196000Y0146465D01*
X0196000Y0148063D02*
X0114094Y0148063D01*
X0114756Y0146465D02*
X0147131Y0146465D01*
X0145532Y0144866D02*
X0115200Y0144866D01*
X0115200Y0143268D02*
X0144400Y0143268D01*
X0144400Y0141669D02*
X0115200Y0141669D01*
X0115200Y0140070D02*
X0144400Y0140070D01*
X0144400Y0138472D02*
X0115200Y0138472D01*
X0115200Y0136873D02*
X0145793Y0136873D01*
X0147391Y0135275D02*
X0115145Y0135275D01*
X0101306Y0148063D02*
X0100644Y0148063D01*
X0099045Y0149662D02*
X0102855Y0149662D01*
X0105870Y0151260D02*
X0095888Y0151260D01*
X0092712Y0151260D02*
X0028584Y0151260D01*
X0028682Y0151022D02*
X0027537Y0153788D01*
X0025420Y0155904D01*
X0022654Y0157050D01*
X0019661Y0157050D01*
X0016895Y0155904D01*
X0014778Y0153788D01*
X0013632Y0151022D01*
X0013632Y0140978D01*
X0014778Y0138212D01*
X0016895Y0136096D01*
X0019661Y0134950D01*
X0022654Y0134950D01*
X0025420Y0136096D01*
X0027537Y0138212D01*
X0028682Y0140978D01*
X0028682Y0151022D01*
X0028682Y0149662D02*
X0089555Y0149662D01*
X0087956Y0148063D02*
X0028682Y0148063D01*
X0028682Y0146465D02*
X0087286Y0146465D01*
X0086800Y0144866D02*
X0028682Y0144866D01*
X0028682Y0143268D02*
X0086800Y0143268D01*
X0086800Y0141669D02*
X0028682Y0141669D01*
X0028306Y0140070D02*
X0086800Y0140070D01*
X0083165Y0138472D02*
X0027644Y0138472D01*
X0026198Y0136873D02*
X0081567Y0136873D01*
X0080714Y0135275D02*
X0023439Y0135275D01*
X0018876Y0135275D02*
X0006000Y0135275D01*
X0006000Y0136873D02*
X0016117Y0136873D01*
X0014671Y0138472D02*
X0006000Y0138472D01*
X0006000Y0140070D02*
X0014008Y0140070D01*
X0013632Y0141669D02*
X0006000Y0141669D01*
X0006000Y0143268D02*
X0013632Y0143268D01*
X0013632Y0144866D02*
X0006000Y0144866D01*
X0006000Y0146465D02*
X0013632Y0146465D01*
X0013632Y0148063D02*
X0006000Y0148063D01*
X0006000Y0149662D02*
X0013632Y0149662D01*
X0013731Y0151260D02*
X0006000Y0151260D01*
X0006000Y0152859D02*
X0014393Y0152859D01*
X0015448Y0154457D02*
X0006000Y0154457D01*
X0006000Y0156056D02*
X0017260Y0156056D01*
X0025055Y0156056D02*
X0196000Y0156056D01*
X0196000Y0157654D02*
X0006000Y0157654D01*
X0006000Y0159253D02*
X0196000Y0159253D01*
X0196000Y0160851D02*
X0006000Y0160851D01*
X0006000Y0162450D02*
X0196000Y0162450D01*
X0196000Y0164048D02*
X0006000Y0164048D01*
X0006000Y0165647D02*
X0196000Y0165647D01*
X0196000Y0167245D02*
X0006000Y0167245D01*
X0006000Y0168844D02*
X0011189Y0168844D01*
X0007253Y0170442D02*
X0006000Y0170442D01*
X0020811Y0168844D02*
X0181189Y0168844D01*
X0177253Y0170442D02*
X0095554Y0170442D01*
X0095050Y0169939D02*
X0097061Y0171950D01*
X0098150Y0174578D01*
X0098150Y0177422D01*
X0097061Y0180050D01*
X0095050Y0182061D01*
X0092422Y0183150D01*
X0089578Y0183150D01*
X0086950Y0182061D01*
X0084939Y0180050D01*
X0083850Y0177422D01*
X0083850Y0174578D01*
X0084939Y0171950D01*
X0086950Y0169939D01*
X0089578Y0168850D01*
X0092422Y0168850D01*
X0095050Y0169939D01*
X0097099Y0172041D02*
X0174766Y0172041D01*
X0173136Y0173639D02*
X0097761Y0173639D01*
X0098150Y0175238D02*
X0171751Y0175238D01*
X0170598Y0176836D02*
X0098150Y0176836D01*
X0097731Y0178435D02*
X0169868Y0178435D01*
X0169138Y0180033D02*
X0097068Y0180033D01*
X0095480Y0181632D02*
X0168628Y0181632D01*
X0168398Y0183230D02*
X0033602Y0183230D01*
X0033372Y0181632D02*
X0086520Y0181632D01*
X0084932Y0180033D02*
X0032862Y0180033D01*
X0032132Y0178435D02*
X0084269Y0178435D01*
X0083850Y0176836D02*
X0031402Y0176836D01*
X0030249Y0175238D02*
X0083850Y0175238D01*
X0084239Y0173639D02*
X0028864Y0173639D01*
X0027234Y0172041D02*
X0084901Y0172041D01*
X0086446Y0170442D02*
X0024747Y0170442D01*
X0033832Y0184829D02*
X0168168Y0184829D01*
X0168061Y0186427D02*
X0033939Y0186427D01*
X0033709Y0188026D02*
X0168291Y0188026D01*
X0168521Y0189624D02*
X0033479Y0189624D01*
X0033202Y0191223D02*
X0168798Y0191223D01*
X0169528Y0192821D02*
X0032472Y0192821D01*
X0031742Y0194420D02*
X0170258Y0194420D01*
X0194747Y0170442D02*
X0196000Y0170442D01*
X0196000Y0168844D02*
X0190811Y0168844D01*
X0196000Y0154457D02*
X0026867Y0154457D01*
X0027922Y0152859D02*
X0196000Y0152859D01*
X0196000Y0151260D02*
X0109530Y0151260D01*
X0112545Y0149662D02*
X0196000Y0149662D01*
X0108420Y0047357D02*
X0093580Y0047357D01*
X0096016Y0045758D02*
X0105984Y0045758D01*
X0104791Y0044160D02*
X0097209Y0044160D01*
X0097871Y0042561D02*
X0104129Y0042561D01*
X0104043Y0040963D02*
X0097957Y0040963D01*
X0097840Y0039364D02*
X0104160Y0039364D01*
X0104822Y0037766D02*
X0097178Y0037766D01*
X0095941Y0036167D02*
X0106059Y0036167D01*
X0180555Y0032970D02*
X0021445Y0032970D01*
X0006000Y0119290D02*
X0083004Y0119290D01*
X0081405Y0120888D02*
X0006000Y0120888D01*
X0006000Y0122487D02*
X0080647Y0122487D01*
X0080100Y0124085D02*
X0006000Y0124085D01*
X0006000Y0125684D02*
X0080100Y0125684D01*
X0080100Y0127282D02*
X0006000Y0127282D01*
X0006000Y0128881D02*
X0080100Y0128881D01*
X0080100Y0130479D02*
X0006000Y0130479D01*
X0006000Y0132078D02*
X0080100Y0132078D01*
X0080100Y0133676D02*
X0006000Y0133676D01*
X0191445Y0032970D02*
X0196000Y0032970D01*
X0196000Y0031372D02*
X0195036Y0031372D01*
M02*
