G75*
%MOIN*%
%OFA0B0*%
%FSLAX25Y25*%
%IPPOS*%
%LPD*%
%AMOC8*
5,1,8,0,0,1.08239X$1,22.5*
%
%ADD10C,0.00000*%
%ADD11OC8,0.06300*%
%ADD12C,0.06300*%
%ADD13C,0.08850*%
%ADD14C,0.07000*%
%ADD15C,0.05600*%
%ADD16OC8,0.05200*%
%ADD17C,0.07050*%
D10*
X0001000Y0001000D02*
X0001000Y0201000D01*
X0201000Y0201000D01*
X0201000Y0001000D01*
X0001000Y0001000D01*
X0010488Y0016000D02*
X0010490Y0016148D01*
X0010496Y0016296D01*
X0010506Y0016444D01*
X0010520Y0016591D01*
X0010538Y0016738D01*
X0010559Y0016884D01*
X0010585Y0017030D01*
X0010615Y0017175D01*
X0010648Y0017319D01*
X0010686Y0017462D01*
X0010727Y0017604D01*
X0010772Y0017745D01*
X0010820Y0017885D01*
X0010873Y0018024D01*
X0010929Y0018161D01*
X0010989Y0018296D01*
X0011052Y0018430D01*
X0011119Y0018562D01*
X0011190Y0018692D01*
X0011264Y0018820D01*
X0011341Y0018946D01*
X0011422Y0019070D01*
X0011506Y0019192D01*
X0011593Y0019311D01*
X0011684Y0019428D01*
X0011778Y0019543D01*
X0011874Y0019655D01*
X0011974Y0019765D01*
X0012076Y0019871D01*
X0012182Y0019975D01*
X0012290Y0020076D01*
X0012401Y0020174D01*
X0012514Y0020270D01*
X0012630Y0020362D01*
X0012748Y0020451D01*
X0012869Y0020536D01*
X0012992Y0020619D01*
X0013117Y0020698D01*
X0013244Y0020774D01*
X0013373Y0020846D01*
X0013504Y0020915D01*
X0013637Y0020980D01*
X0013772Y0021041D01*
X0013908Y0021099D01*
X0014045Y0021154D01*
X0014184Y0021204D01*
X0014325Y0021251D01*
X0014466Y0021294D01*
X0014609Y0021334D01*
X0014753Y0021369D01*
X0014897Y0021401D01*
X0015043Y0021428D01*
X0015189Y0021452D01*
X0015336Y0021472D01*
X0015483Y0021488D01*
X0015630Y0021500D01*
X0015778Y0021508D01*
X0015926Y0021512D01*
X0016074Y0021512D01*
X0016222Y0021508D01*
X0016370Y0021500D01*
X0016517Y0021488D01*
X0016664Y0021472D01*
X0016811Y0021452D01*
X0016957Y0021428D01*
X0017103Y0021401D01*
X0017247Y0021369D01*
X0017391Y0021334D01*
X0017534Y0021294D01*
X0017675Y0021251D01*
X0017816Y0021204D01*
X0017955Y0021154D01*
X0018092Y0021099D01*
X0018228Y0021041D01*
X0018363Y0020980D01*
X0018496Y0020915D01*
X0018627Y0020846D01*
X0018756Y0020774D01*
X0018883Y0020698D01*
X0019008Y0020619D01*
X0019131Y0020536D01*
X0019252Y0020451D01*
X0019370Y0020362D01*
X0019486Y0020270D01*
X0019599Y0020174D01*
X0019710Y0020076D01*
X0019818Y0019975D01*
X0019924Y0019871D01*
X0020026Y0019765D01*
X0020126Y0019655D01*
X0020222Y0019543D01*
X0020316Y0019428D01*
X0020407Y0019311D01*
X0020494Y0019192D01*
X0020578Y0019070D01*
X0020659Y0018946D01*
X0020736Y0018820D01*
X0020810Y0018692D01*
X0020881Y0018562D01*
X0020948Y0018430D01*
X0021011Y0018296D01*
X0021071Y0018161D01*
X0021127Y0018024D01*
X0021180Y0017885D01*
X0021228Y0017745D01*
X0021273Y0017604D01*
X0021314Y0017462D01*
X0021352Y0017319D01*
X0021385Y0017175D01*
X0021415Y0017030D01*
X0021441Y0016884D01*
X0021462Y0016738D01*
X0021480Y0016591D01*
X0021494Y0016444D01*
X0021504Y0016296D01*
X0021510Y0016148D01*
X0021512Y0016000D01*
X0021510Y0015852D01*
X0021504Y0015704D01*
X0021494Y0015556D01*
X0021480Y0015409D01*
X0021462Y0015262D01*
X0021441Y0015116D01*
X0021415Y0014970D01*
X0021385Y0014825D01*
X0021352Y0014681D01*
X0021314Y0014538D01*
X0021273Y0014396D01*
X0021228Y0014255D01*
X0021180Y0014115D01*
X0021127Y0013976D01*
X0021071Y0013839D01*
X0021011Y0013704D01*
X0020948Y0013570D01*
X0020881Y0013438D01*
X0020810Y0013308D01*
X0020736Y0013180D01*
X0020659Y0013054D01*
X0020578Y0012930D01*
X0020494Y0012808D01*
X0020407Y0012689D01*
X0020316Y0012572D01*
X0020222Y0012457D01*
X0020126Y0012345D01*
X0020026Y0012235D01*
X0019924Y0012129D01*
X0019818Y0012025D01*
X0019710Y0011924D01*
X0019599Y0011826D01*
X0019486Y0011730D01*
X0019370Y0011638D01*
X0019252Y0011549D01*
X0019131Y0011464D01*
X0019008Y0011381D01*
X0018883Y0011302D01*
X0018756Y0011226D01*
X0018627Y0011154D01*
X0018496Y0011085D01*
X0018363Y0011020D01*
X0018228Y0010959D01*
X0018092Y0010901D01*
X0017955Y0010846D01*
X0017816Y0010796D01*
X0017675Y0010749D01*
X0017534Y0010706D01*
X0017391Y0010666D01*
X0017247Y0010631D01*
X0017103Y0010599D01*
X0016957Y0010572D01*
X0016811Y0010548D01*
X0016664Y0010528D01*
X0016517Y0010512D01*
X0016370Y0010500D01*
X0016222Y0010492D01*
X0016074Y0010488D01*
X0015926Y0010488D01*
X0015778Y0010492D01*
X0015630Y0010500D01*
X0015483Y0010512D01*
X0015336Y0010528D01*
X0015189Y0010548D01*
X0015043Y0010572D01*
X0014897Y0010599D01*
X0014753Y0010631D01*
X0014609Y0010666D01*
X0014466Y0010706D01*
X0014325Y0010749D01*
X0014184Y0010796D01*
X0014045Y0010846D01*
X0013908Y0010901D01*
X0013772Y0010959D01*
X0013637Y0011020D01*
X0013504Y0011085D01*
X0013373Y0011154D01*
X0013244Y0011226D01*
X0013117Y0011302D01*
X0012992Y0011381D01*
X0012869Y0011464D01*
X0012748Y0011549D01*
X0012630Y0011638D01*
X0012514Y0011730D01*
X0012401Y0011826D01*
X0012290Y0011924D01*
X0012182Y0012025D01*
X0012076Y0012129D01*
X0011974Y0012235D01*
X0011874Y0012345D01*
X0011778Y0012457D01*
X0011684Y0012572D01*
X0011593Y0012689D01*
X0011506Y0012808D01*
X0011422Y0012930D01*
X0011341Y0013054D01*
X0011264Y0013180D01*
X0011190Y0013308D01*
X0011119Y0013438D01*
X0011052Y0013570D01*
X0010989Y0013704D01*
X0010929Y0013839D01*
X0010873Y0013976D01*
X0010820Y0014115D01*
X0010772Y0014255D01*
X0010727Y0014396D01*
X0010686Y0014538D01*
X0010648Y0014681D01*
X0010615Y0014825D01*
X0010585Y0014970D01*
X0010559Y0015116D01*
X0010538Y0015262D01*
X0010520Y0015409D01*
X0010506Y0015556D01*
X0010496Y0015704D01*
X0010490Y0015852D01*
X0010488Y0016000D01*
X0010488Y0186000D02*
X0010490Y0186148D01*
X0010496Y0186296D01*
X0010506Y0186444D01*
X0010520Y0186591D01*
X0010538Y0186738D01*
X0010559Y0186884D01*
X0010585Y0187030D01*
X0010615Y0187175D01*
X0010648Y0187319D01*
X0010686Y0187462D01*
X0010727Y0187604D01*
X0010772Y0187745D01*
X0010820Y0187885D01*
X0010873Y0188024D01*
X0010929Y0188161D01*
X0010989Y0188296D01*
X0011052Y0188430D01*
X0011119Y0188562D01*
X0011190Y0188692D01*
X0011264Y0188820D01*
X0011341Y0188946D01*
X0011422Y0189070D01*
X0011506Y0189192D01*
X0011593Y0189311D01*
X0011684Y0189428D01*
X0011778Y0189543D01*
X0011874Y0189655D01*
X0011974Y0189765D01*
X0012076Y0189871D01*
X0012182Y0189975D01*
X0012290Y0190076D01*
X0012401Y0190174D01*
X0012514Y0190270D01*
X0012630Y0190362D01*
X0012748Y0190451D01*
X0012869Y0190536D01*
X0012992Y0190619D01*
X0013117Y0190698D01*
X0013244Y0190774D01*
X0013373Y0190846D01*
X0013504Y0190915D01*
X0013637Y0190980D01*
X0013772Y0191041D01*
X0013908Y0191099D01*
X0014045Y0191154D01*
X0014184Y0191204D01*
X0014325Y0191251D01*
X0014466Y0191294D01*
X0014609Y0191334D01*
X0014753Y0191369D01*
X0014897Y0191401D01*
X0015043Y0191428D01*
X0015189Y0191452D01*
X0015336Y0191472D01*
X0015483Y0191488D01*
X0015630Y0191500D01*
X0015778Y0191508D01*
X0015926Y0191512D01*
X0016074Y0191512D01*
X0016222Y0191508D01*
X0016370Y0191500D01*
X0016517Y0191488D01*
X0016664Y0191472D01*
X0016811Y0191452D01*
X0016957Y0191428D01*
X0017103Y0191401D01*
X0017247Y0191369D01*
X0017391Y0191334D01*
X0017534Y0191294D01*
X0017675Y0191251D01*
X0017816Y0191204D01*
X0017955Y0191154D01*
X0018092Y0191099D01*
X0018228Y0191041D01*
X0018363Y0190980D01*
X0018496Y0190915D01*
X0018627Y0190846D01*
X0018756Y0190774D01*
X0018883Y0190698D01*
X0019008Y0190619D01*
X0019131Y0190536D01*
X0019252Y0190451D01*
X0019370Y0190362D01*
X0019486Y0190270D01*
X0019599Y0190174D01*
X0019710Y0190076D01*
X0019818Y0189975D01*
X0019924Y0189871D01*
X0020026Y0189765D01*
X0020126Y0189655D01*
X0020222Y0189543D01*
X0020316Y0189428D01*
X0020407Y0189311D01*
X0020494Y0189192D01*
X0020578Y0189070D01*
X0020659Y0188946D01*
X0020736Y0188820D01*
X0020810Y0188692D01*
X0020881Y0188562D01*
X0020948Y0188430D01*
X0021011Y0188296D01*
X0021071Y0188161D01*
X0021127Y0188024D01*
X0021180Y0187885D01*
X0021228Y0187745D01*
X0021273Y0187604D01*
X0021314Y0187462D01*
X0021352Y0187319D01*
X0021385Y0187175D01*
X0021415Y0187030D01*
X0021441Y0186884D01*
X0021462Y0186738D01*
X0021480Y0186591D01*
X0021494Y0186444D01*
X0021504Y0186296D01*
X0021510Y0186148D01*
X0021512Y0186000D01*
X0021510Y0185852D01*
X0021504Y0185704D01*
X0021494Y0185556D01*
X0021480Y0185409D01*
X0021462Y0185262D01*
X0021441Y0185116D01*
X0021415Y0184970D01*
X0021385Y0184825D01*
X0021352Y0184681D01*
X0021314Y0184538D01*
X0021273Y0184396D01*
X0021228Y0184255D01*
X0021180Y0184115D01*
X0021127Y0183976D01*
X0021071Y0183839D01*
X0021011Y0183704D01*
X0020948Y0183570D01*
X0020881Y0183438D01*
X0020810Y0183308D01*
X0020736Y0183180D01*
X0020659Y0183054D01*
X0020578Y0182930D01*
X0020494Y0182808D01*
X0020407Y0182689D01*
X0020316Y0182572D01*
X0020222Y0182457D01*
X0020126Y0182345D01*
X0020026Y0182235D01*
X0019924Y0182129D01*
X0019818Y0182025D01*
X0019710Y0181924D01*
X0019599Y0181826D01*
X0019486Y0181730D01*
X0019370Y0181638D01*
X0019252Y0181549D01*
X0019131Y0181464D01*
X0019008Y0181381D01*
X0018883Y0181302D01*
X0018756Y0181226D01*
X0018627Y0181154D01*
X0018496Y0181085D01*
X0018363Y0181020D01*
X0018228Y0180959D01*
X0018092Y0180901D01*
X0017955Y0180846D01*
X0017816Y0180796D01*
X0017675Y0180749D01*
X0017534Y0180706D01*
X0017391Y0180666D01*
X0017247Y0180631D01*
X0017103Y0180599D01*
X0016957Y0180572D01*
X0016811Y0180548D01*
X0016664Y0180528D01*
X0016517Y0180512D01*
X0016370Y0180500D01*
X0016222Y0180492D01*
X0016074Y0180488D01*
X0015926Y0180488D01*
X0015778Y0180492D01*
X0015630Y0180500D01*
X0015483Y0180512D01*
X0015336Y0180528D01*
X0015189Y0180548D01*
X0015043Y0180572D01*
X0014897Y0180599D01*
X0014753Y0180631D01*
X0014609Y0180666D01*
X0014466Y0180706D01*
X0014325Y0180749D01*
X0014184Y0180796D01*
X0014045Y0180846D01*
X0013908Y0180901D01*
X0013772Y0180959D01*
X0013637Y0181020D01*
X0013504Y0181085D01*
X0013373Y0181154D01*
X0013244Y0181226D01*
X0013117Y0181302D01*
X0012992Y0181381D01*
X0012869Y0181464D01*
X0012748Y0181549D01*
X0012630Y0181638D01*
X0012514Y0181730D01*
X0012401Y0181826D01*
X0012290Y0181924D01*
X0012182Y0182025D01*
X0012076Y0182129D01*
X0011974Y0182235D01*
X0011874Y0182345D01*
X0011778Y0182457D01*
X0011684Y0182572D01*
X0011593Y0182689D01*
X0011506Y0182808D01*
X0011422Y0182930D01*
X0011341Y0183054D01*
X0011264Y0183180D01*
X0011190Y0183308D01*
X0011119Y0183438D01*
X0011052Y0183570D01*
X0010989Y0183704D01*
X0010929Y0183839D01*
X0010873Y0183976D01*
X0010820Y0184115D01*
X0010772Y0184255D01*
X0010727Y0184396D01*
X0010686Y0184538D01*
X0010648Y0184681D01*
X0010615Y0184825D01*
X0010585Y0184970D01*
X0010559Y0185116D01*
X0010538Y0185262D01*
X0010520Y0185409D01*
X0010506Y0185556D01*
X0010496Y0185704D01*
X0010490Y0185852D01*
X0010488Y0186000D01*
X0180488Y0186000D02*
X0180490Y0186148D01*
X0180496Y0186296D01*
X0180506Y0186444D01*
X0180520Y0186591D01*
X0180538Y0186738D01*
X0180559Y0186884D01*
X0180585Y0187030D01*
X0180615Y0187175D01*
X0180648Y0187319D01*
X0180686Y0187462D01*
X0180727Y0187604D01*
X0180772Y0187745D01*
X0180820Y0187885D01*
X0180873Y0188024D01*
X0180929Y0188161D01*
X0180989Y0188296D01*
X0181052Y0188430D01*
X0181119Y0188562D01*
X0181190Y0188692D01*
X0181264Y0188820D01*
X0181341Y0188946D01*
X0181422Y0189070D01*
X0181506Y0189192D01*
X0181593Y0189311D01*
X0181684Y0189428D01*
X0181778Y0189543D01*
X0181874Y0189655D01*
X0181974Y0189765D01*
X0182076Y0189871D01*
X0182182Y0189975D01*
X0182290Y0190076D01*
X0182401Y0190174D01*
X0182514Y0190270D01*
X0182630Y0190362D01*
X0182748Y0190451D01*
X0182869Y0190536D01*
X0182992Y0190619D01*
X0183117Y0190698D01*
X0183244Y0190774D01*
X0183373Y0190846D01*
X0183504Y0190915D01*
X0183637Y0190980D01*
X0183772Y0191041D01*
X0183908Y0191099D01*
X0184045Y0191154D01*
X0184184Y0191204D01*
X0184325Y0191251D01*
X0184466Y0191294D01*
X0184609Y0191334D01*
X0184753Y0191369D01*
X0184897Y0191401D01*
X0185043Y0191428D01*
X0185189Y0191452D01*
X0185336Y0191472D01*
X0185483Y0191488D01*
X0185630Y0191500D01*
X0185778Y0191508D01*
X0185926Y0191512D01*
X0186074Y0191512D01*
X0186222Y0191508D01*
X0186370Y0191500D01*
X0186517Y0191488D01*
X0186664Y0191472D01*
X0186811Y0191452D01*
X0186957Y0191428D01*
X0187103Y0191401D01*
X0187247Y0191369D01*
X0187391Y0191334D01*
X0187534Y0191294D01*
X0187675Y0191251D01*
X0187816Y0191204D01*
X0187955Y0191154D01*
X0188092Y0191099D01*
X0188228Y0191041D01*
X0188363Y0190980D01*
X0188496Y0190915D01*
X0188627Y0190846D01*
X0188756Y0190774D01*
X0188883Y0190698D01*
X0189008Y0190619D01*
X0189131Y0190536D01*
X0189252Y0190451D01*
X0189370Y0190362D01*
X0189486Y0190270D01*
X0189599Y0190174D01*
X0189710Y0190076D01*
X0189818Y0189975D01*
X0189924Y0189871D01*
X0190026Y0189765D01*
X0190126Y0189655D01*
X0190222Y0189543D01*
X0190316Y0189428D01*
X0190407Y0189311D01*
X0190494Y0189192D01*
X0190578Y0189070D01*
X0190659Y0188946D01*
X0190736Y0188820D01*
X0190810Y0188692D01*
X0190881Y0188562D01*
X0190948Y0188430D01*
X0191011Y0188296D01*
X0191071Y0188161D01*
X0191127Y0188024D01*
X0191180Y0187885D01*
X0191228Y0187745D01*
X0191273Y0187604D01*
X0191314Y0187462D01*
X0191352Y0187319D01*
X0191385Y0187175D01*
X0191415Y0187030D01*
X0191441Y0186884D01*
X0191462Y0186738D01*
X0191480Y0186591D01*
X0191494Y0186444D01*
X0191504Y0186296D01*
X0191510Y0186148D01*
X0191512Y0186000D01*
X0191510Y0185852D01*
X0191504Y0185704D01*
X0191494Y0185556D01*
X0191480Y0185409D01*
X0191462Y0185262D01*
X0191441Y0185116D01*
X0191415Y0184970D01*
X0191385Y0184825D01*
X0191352Y0184681D01*
X0191314Y0184538D01*
X0191273Y0184396D01*
X0191228Y0184255D01*
X0191180Y0184115D01*
X0191127Y0183976D01*
X0191071Y0183839D01*
X0191011Y0183704D01*
X0190948Y0183570D01*
X0190881Y0183438D01*
X0190810Y0183308D01*
X0190736Y0183180D01*
X0190659Y0183054D01*
X0190578Y0182930D01*
X0190494Y0182808D01*
X0190407Y0182689D01*
X0190316Y0182572D01*
X0190222Y0182457D01*
X0190126Y0182345D01*
X0190026Y0182235D01*
X0189924Y0182129D01*
X0189818Y0182025D01*
X0189710Y0181924D01*
X0189599Y0181826D01*
X0189486Y0181730D01*
X0189370Y0181638D01*
X0189252Y0181549D01*
X0189131Y0181464D01*
X0189008Y0181381D01*
X0188883Y0181302D01*
X0188756Y0181226D01*
X0188627Y0181154D01*
X0188496Y0181085D01*
X0188363Y0181020D01*
X0188228Y0180959D01*
X0188092Y0180901D01*
X0187955Y0180846D01*
X0187816Y0180796D01*
X0187675Y0180749D01*
X0187534Y0180706D01*
X0187391Y0180666D01*
X0187247Y0180631D01*
X0187103Y0180599D01*
X0186957Y0180572D01*
X0186811Y0180548D01*
X0186664Y0180528D01*
X0186517Y0180512D01*
X0186370Y0180500D01*
X0186222Y0180492D01*
X0186074Y0180488D01*
X0185926Y0180488D01*
X0185778Y0180492D01*
X0185630Y0180500D01*
X0185483Y0180512D01*
X0185336Y0180528D01*
X0185189Y0180548D01*
X0185043Y0180572D01*
X0184897Y0180599D01*
X0184753Y0180631D01*
X0184609Y0180666D01*
X0184466Y0180706D01*
X0184325Y0180749D01*
X0184184Y0180796D01*
X0184045Y0180846D01*
X0183908Y0180901D01*
X0183772Y0180959D01*
X0183637Y0181020D01*
X0183504Y0181085D01*
X0183373Y0181154D01*
X0183244Y0181226D01*
X0183117Y0181302D01*
X0182992Y0181381D01*
X0182869Y0181464D01*
X0182748Y0181549D01*
X0182630Y0181638D01*
X0182514Y0181730D01*
X0182401Y0181826D01*
X0182290Y0181924D01*
X0182182Y0182025D01*
X0182076Y0182129D01*
X0181974Y0182235D01*
X0181874Y0182345D01*
X0181778Y0182457D01*
X0181684Y0182572D01*
X0181593Y0182689D01*
X0181506Y0182808D01*
X0181422Y0182930D01*
X0181341Y0183054D01*
X0181264Y0183180D01*
X0181190Y0183308D01*
X0181119Y0183438D01*
X0181052Y0183570D01*
X0180989Y0183704D01*
X0180929Y0183839D01*
X0180873Y0183976D01*
X0180820Y0184115D01*
X0180772Y0184255D01*
X0180727Y0184396D01*
X0180686Y0184538D01*
X0180648Y0184681D01*
X0180615Y0184825D01*
X0180585Y0184970D01*
X0180559Y0185116D01*
X0180538Y0185262D01*
X0180520Y0185409D01*
X0180506Y0185556D01*
X0180496Y0185704D01*
X0180490Y0185852D01*
X0180488Y0186000D01*
X0180488Y0016000D02*
X0180490Y0016148D01*
X0180496Y0016296D01*
X0180506Y0016444D01*
X0180520Y0016591D01*
X0180538Y0016738D01*
X0180559Y0016884D01*
X0180585Y0017030D01*
X0180615Y0017175D01*
X0180648Y0017319D01*
X0180686Y0017462D01*
X0180727Y0017604D01*
X0180772Y0017745D01*
X0180820Y0017885D01*
X0180873Y0018024D01*
X0180929Y0018161D01*
X0180989Y0018296D01*
X0181052Y0018430D01*
X0181119Y0018562D01*
X0181190Y0018692D01*
X0181264Y0018820D01*
X0181341Y0018946D01*
X0181422Y0019070D01*
X0181506Y0019192D01*
X0181593Y0019311D01*
X0181684Y0019428D01*
X0181778Y0019543D01*
X0181874Y0019655D01*
X0181974Y0019765D01*
X0182076Y0019871D01*
X0182182Y0019975D01*
X0182290Y0020076D01*
X0182401Y0020174D01*
X0182514Y0020270D01*
X0182630Y0020362D01*
X0182748Y0020451D01*
X0182869Y0020536D01*
X0182992Y0020619D01*
X0183117Y0020698D01*
X0183244Y0020774D01*
X0183373Y0020846D01*
X0183504Y0020915D01*
X0183637Y0020980D01*
X0183772Y0021041D01*
X0183908Y0021099D01*
X0184045Y0021154D01*
X0184184Y0021204D01*
X0184325Y0021251D01*
X0184466Y0021294D01*
X0184609Y0021334D01*
X0184753Y0021369D01*
X0184897Y0021401D01*
X0185043Y0021428D01*
X0185189Y0021452D01*
X0185336Y0021472D01*
X0185483Y0021488D01*
X0185630Y0021500D01*
X0185778Y0021508D01*
X0185926Y0021512D01*
X0186074Y0021512D01*
X0186222Y0021508D01*
X0186370Y0021500D01*
X0186517Y0021488D01*
X0186664Y0021472D01*
X0186811Y0021452D01*
X0186957Y0021428D01*
X0187103Y0021401D01*
X0187247Y0021369D01*
X0187391Y0021334D01*
X0187534Y0021294D01*
X0187675Y0021251D01*
X0187816Y0021204D01*
X0187955Y0021154D01*
X0188092Y0021099D01*
X0188228Y0021041D01*
X0188363Y0020980D01*
X0188496Y0020915D01*
X0188627Y0020846D01*
X0188756Y0020774D01*
X0188883Y0020698D01*
X0189008Y0020619D01*
X0189131Y0020536D01*
X0189252Y0020451D01*
X0189370Y0020362D01*
X0189486Y0020270D01*
X0189599Y0020174D01*
X0189710Y0020076D01*
X0189818Y0019975D01*
X0189924Y0019871D01*
X0190026Y0019765D01*
X0190126Y0019655D01*
X0190222Y0019543D01*
X0190316Y0019428D01*
X0190407Y0019311D01*
X0190494Y0019192D01*
X0190578Y0019070D01*
X0190659Y0018946D01*
X0190736Y0018820D01*
X0190810Y0018692D01*
X0190881Y0018562D01*
X0190948Y0018430D01*
X0191011Y0018296D01*
X0191071Y0018161D01*
X0191127Y0018024D01*
X0191180Y0017885D01*
X0191228Y0017745D01*
X0191273Y0017604D01*
X0191314Y0017462D01*
X0191352Y0017319D01*
X0191385Y0017175D01*
X0191415Y0017030D01*
X0191441Y0016884D01*
X0191462Y0016738D01*
X0191480Y0016591D01*
X0191494Y0016444D01*
X0191504Y0016296D01*
X0191510Y0016148D01*
X0191512Y0016000D01*
X0191510Y0015852D01*
X0191504Y0015704D01*
X0191494Y0015556D01*
X0191480Y0015409D01*
X0191462Y0015262D01*
X0191441Y0015116D01*
X0191415Y0014970D01*
X0191385Y0014825D01*
X0191352Y0014681D01*
X0191314Y0014538D01*
X0191273Y0014396D01*
X0191228Y0014255D01*
X0191180Y0014115D01*
X0191127Y0013976D01*
X0191071Y0013839D01*
X0191011Y0013704D01*
X0190948Y0013570D01*
X0190881Y0013438D01*
X0190810Y0013308D01*
X0190736Y0013180D01*
X0190659Y0013054D01*
X0190578Y0012930D01*
X0190494Y0012808D01*
X0190407Y0012689D01*
X0190316Y0012572D01*
X0190222Y0012457D01*
X0190126Y0012345D01*
X0190026Y0012235D01*
X0189924Y0012129D01*
X0189818Y0012025D01*
X0189710Y0011924D01*
X0189599Y0011826D01*
X0189486Y0011730D01*
X0189370Y0011638D01*
X0189252Y0011549D01*
X0189131Y0011464D01*
X0189008Y0011381D01*
X0188883Y0011302D01*
X0188756Y0011226D01*
X0188627Y0011154D01*
X0188496Y0011085D01*
X0188363Y0011020D01*
X0188228Y0010959D01*
X0188092Y0010901D01*
X0187955Y0010846D01*
X0187816Y0010796D01*
X0187675Y0010749D01*
X0187534Y0010706D01*
X0187391Y0010666D01*
X0187247Y0010631D01*
X0187103Y0010599D01*
X0186957Y0010572D01*
X0186811Y0010548D01*
X0186664Y0010528D01*
X0186517Y0010512D01*
X0186370Y0010500D01*
X0186222Y0010492D01*
X0186074Y0010488D01*
X0185926Y0010488D01*
X0185778Y0010492D01*
X0185630Y0010500D01*
X0185483Y0010512D01*
X0185336Y0010528D01*
X0185189Y0010548D01*
X0185043Y0010572D01*
X0184897Y0010599D01*
X0184753Y0010631D01*
X0184609Y0010666D01*
X0184466Y0010706D01*
X0184325Y0010749D01*
X0184184Y0010796D01*
X0184045Y0010846D01*
X0183908Y0010901D01*
X0183772Y0010959D01*
X0183637Y0011020D01*
X0183504Y0011085D01*
X0183373Y0011154D01*
X0183244Y0011226D01*
X0183117Y0011302D01*
X0182992Y0011381D01*
X0182869Y0011464D01*
X0182748Y0011549D01*
X0182630Y0011638D01*
X0182514Y0011730D01*
X0182401Y0011826D01*
X0182290Y0011924D01*
X0182182Y0012025D01*
X0182076Y0012129D01*
X0181974Y0012235D01*
X0181874Y0012345D01*
X0181778Y0012457D01*
X0181684Y0012572D01*
X0181593Y0012689D01*
X0181506Y0012808D01*
X0181422Y0012930D01*
X0181341Y0013054D01*
X0181264Y0013180D01*
X0181190Y0013308D01*
X0181119Y0013438D01*
X0181052Y0013570D01*
X0180989Y0013704D01*
X0180929Y0013839D01*
X0180873Y0013976D01*
X0180820Y0014115D01*
X0180772Y0014255D01*
X0180727Y0014396D01*
X0180686Y0014538D01*
X0180648Y0014681D01*
X0180615Y0014825D01*
X0180585Y0014970D01*
X0180559Y0015116D01*
X0180538Y0015262D01*
X0180520Y0015409D01*
X0180506Y0015556D01*
X0180496Y0015704D01*
X0180490Y0015852D01*
X0180488Y0016000D01*
D11*
X0106000Y0076000D03*
X0101000Y0176000D03*
D12*
X0091000Y0176000D03*
X0096000Y0076000D03*
D13*
X0075425Y0101000D02*
X0066575Y0101000D01*
X0126575Y0101000D02*
X0135425Y0101000D01*
D14*
X0114400Y0125400D02*
X0114400Y0132400D01*
X0107700Y0136900D02*
X0107700Y0143900D01*
X0101200Y0132400D02*
X0101200Y0125400D01*
X0094300Y0136800D02*
X0094300Y0143800D01*
X0087600Y0132300D02*
X0087600Y0125300D01*
D15*
X0091157Y0041000D03*
X0110843Y0041000D03*
D16*
X0151000Y0081000D03*
X0191000Y0081000D03*
X0191000Y0141000D03*
X0151000Y0141000D03*
D17*
X0040843Y0142475D02*
X0040843Y0149525D01*
X0021157Y0149525D02*
X0021157Y0142475D01*
X0021157Y0104525D02*
X0021157Y0097475D01*
X0040843Y0097475D02*
X0040843Y0104525D01*
M02*
