G75*
%MOIN*%
%OFA0B0*%
%FSLAX25Y25*%
%IPPOS*%
%LPD*%
%AMOC8*
5,1,8,0,0,1.08239X$1,22.5*
%
%ADD10C,0.00000*%
%ADD11R,0.09843X0.16929*%
%ADD12R,0.07087X0.06299*%
%ADD13R,0.06299X0.07087*%
%ADD14R,0.21260X0.24409*%
%ADD15R,0.03937X0.06299*%
%ADD16R,0.08000X0.02600*%
%ADD17R,0.06299X0.07098*%
%ADD18C,0.04400*%
%ADD19R,0.07874X0.06299*%
%ADD20C,0.06000*%
%ADD21R,0.05906X0.02165*%
%ADD22R,0.02165X0.05906*%
%ADD23C,0.07050*%
%ADD24R,0.02600X0.08000*%
%ADD25R,0.05906X0.05906*%
%ADD26R,0.07098X0.06299*%
%ADD27C,0.01600*%
%ADD28C,0.04356*%
%ADD29C,0.01000*%
%ADD30C,0.05600*%
%ADD31C,0.02400*%
%ADD32C,0.04000*%
%ADD33C,0.05000*%
%ADD34C,0.03200*%
%ADD35C,0.07000*%
D10*
X0001000Y0001000D02*
X0001000Y0201000D01*
X0501000Y0201000D01*
X0501000Y0001000D01*
X0001000Y0001000D01*
X0010488Y0016000D02*
X0010490Y0016148D01*
X0010496Y0016296D01*
X0010506Y0016444D01*
X0010520Y0016591D01*
X0010538Y0016738D01*
X0010559Y0016884D01*
X0010585Y0017030D01*
X0010615Y0017175D01*
X0010648Y0017319D01*
X0010686Y0017462D01*
X0010727Y0017604D01*
X0010772Y0017745D01*
X0010820Y0017885D01*
X0010873Y0018024D01*
X0010929Y0018161D01*
X0010989Y0018296D01*
X0011052Y0018430D01*
X0011119Y0018562D01*
X0011190Y0018692D01*
X0011264Y0018820D01*
X0011341Y0018946D01*
X0011422Y0019070D01*
X0011506Y0019192D01*
X0011593Y0019311D01*
X0011684Y0019428D01*
X0011778Y0019543D01*
X0011874Y0019655D01*
X0011974Y0019765D01*
X0012076Y0019871D01*
X0012182Y0019975D01*
X0012290Y0020076D01*
X0012401Y0020174D01*
X0012514Y0020270D01*
X0012630Y0020362D01*
X0012748Y0020451D01*
X0012869Y0020536D01*
X0012992Y0020619D01*
X0013117Y0020698D01*
X0013244Y0020774D01*
X0013373Y0020846D01*
X0013504Y0020915D01*
X0013637Y0020980D01*
X0013772Y0021041D01*
X0013908Y0021099D01*
X0014045Y0021154D01*
X0014184Y0021204D01*
X0014325Y0021251D01*
X0014466Y0021294D01*
X0014609Y0021334D01*
X0014753Y0021369D01*
X0014897Y0021401D01*
X0015043Y0021428D01*
X0015189Y0021452D01*
X0015336Y0021472D01*
X0015483Y0021488D01*
X0015630Y0021500D01*
X0015778Y0021508D01*
X0015926Y0021512D01*
X0016074Y0021512D01*
X0016222Y0021508D01*
X0016370Y0021500D01*
X0016517Y0021488D01*
X0016664Y0021472D01*
X0016811Y0021452D01*
X0016957Y0021428D01*
X0017103Y0021401D01*
X0017247Y0021369D01*
X0017391Y0021334D01*
X0017534Y0021294D01*
X0017675Y0021251D01*
X0017816Y0021204D01*
X0017955Y0021154D01*
X0018092Y0021099D01*
X0018228Y0021041D01*
X0018363Y0020980D01*
X0018496Y0020915D01*
X0018627Y0020846D01*
X0018756Y0020774D01*
X0018883Y0020698D01*
X0019008Y0020619D01*
X0019131Y0020536D01*
X0019252Y0020451D01*
X0019370Y0020362D01*
X0019486Y0020270D01*
X0019599Y0020174D01*
X0019710Y0020076D01*
X0019818Y0019975D01*
X0019924Y0019871D01*
X0020026Y0019765D01*
X0020126Y0019655D01*
X0020222Y0019543D01*
X0020316Y0019428D01*
X0020407Y0019311D01*
X0020494Y0019192D01*
X0020578Y0019070D01*
X0020659Y0018946D01*
X0020736Y0018820D01*
X0020810Y0018692D01*
X0020881Y0018562D01*
X0020948Y0018430D01*
X0021011Y0018296D01*
X0021071Y0018161D01*
X0021127Y0018024D01*
X0021180Y0017885D01*
X0021228Y0017745D01*
X0021273Y0017604D01*
X0021314Y0017462D01*
X0021352Y0017319D01*
X0021385Y0017175D01*
X0021415Y0017030D01*
X0021441Y0016884D01*
X0021462Y0016738D01*
X0021480Y0016591D01*
X0021494Y0016444D01*
X0021504Y0016296D01*
X0021510Y0016148D01*
X0021512Y0016000D01*
X0021510Y0015852D01*
X0021504Y0015704D01*
X0021494Y0015556D01*
X0021480Y0015409D01*
X0021462Y0015262D01*
X0021441Y0015116D01*
X0021415Y0014970D01*
X0021385Y0014825D01*
X0021352Y0014681D01*
X0021314Y0014538D01*
X0021273Y0014396D01*
X0021228Y0014255D01*
X0021180Y0014115D01*
X0021127Y0013976D01*
X0021071Y0013839D01*
X0021011Y0013704D01*
X0020948Y0013570D01*
X0020881Y0013438D01*
X0020810Y0013308D01*
X0020736Y0013180D01*
X0020659Y0013054D01*
X0020578Y0012930D01*
X0020494Y0012808D01*
X0020407Y0012689D01*
X0020316Y0012572D01*
X0020222Y0012457D01*
X0020126Y0012345D01*
X0020026Y0012235D01*
X0019924Y0012129D01*
X0019818Y0012025D01*
X0019710Y0011924D01*
X0019599Y0011826D01*
X0019486Y0011730D01*
X0019370Y0011638D01*
X0019252Y0011549D01*
X0019131Y0011464D01*
X0019008Y0011381D01*
X0018883Y0011302D01*
X0018756Y0011226D01*
X0018627Y0011154D01*
X0018496Y0011085D01*
X0018363Y0011020D01*
X0018228Y0010959D01*
X0018092Y0010901D01*
X0017955Y0010846D01*
X0017816Y0010796D01*
X0017675Y0010749D01*
X0017534Y0010706D01*
X0017391Y0010666D01*
X0017247Y0010631D01*
X0017103Y0010599D01*
X0016957Y0010572D01*
X0016811Y0010548D01*
X0016664Y0010528D01*
X0016517Y0010512D01*
X0016370Y0010500D01*
X0016222Y0010492D01*
X0016074Y0010488D01*
X0015926Y0010488D01*
X0015778Y0010492D01*
X0015630Y0010500D01*
X0015483Y0010512D01*
X0015336Y0010528D01*
X0015189Y0010548D01*
X0015043Y0010572D01*
X0014897Y0010599D01*
X0014753Y0010631D01*
X0014609Y0010666D01*
X0014466Y0010706D01*
X0014325Y0010749D01*
X0014184Y0010796D01*
X0014045Y0010846D01*
X0013908Y0010901D01*
X0013772Y0010959D01*
X0013637Y0011020D01*
X0013504Y0011085D01*
X0013373Y0011154D01*
X0013244Y0011226D01*
X0013117Y0011302D01*
X0012992Y0011381D01*
X0012869Y0011464D01*
X0012748Y0011549D01*
X0012630Y0011638D01*
X0012514Y0011730D01*
X0012401Y0011826D01*
X0012290Y0011924D01*
X0012182Y0012025D01*
X0012076Y0012129D01*
X0011974Y0012235D01*
X0011874Y0012345D01*
X0011778Y0012457D01*
X0011684Y0012572D01*
X0011593Y0012689D01*
X0011506Y0012808D01*
X0011422Y0012930D01*
X0011341Y0013054D01*
X0011264Y0013180D01*
X0011190Y0013308D01*
X0011119Y0013438D01*
X0011052Y0013570D01*
X0010989Y0013704D01*
X0010929Y0013839D01*
X0010873Y0013976D01*
X0010820Y0014115D01*
X0010772Y0014255D01*
X0010727Y0014396D01*
X0010686Y0014538D01*
X0010648Y0014681D01*
X0010615Y0014825D01*
X0010585Y0014970D01*
X0010559Y0015116D01*
X0010538Y0015262D01*
X0010520Y0015409D01*
X0010506Y0015556D01*
X0010496Y0015704D01*
X0010490Y0015852D01*
X0010488Y0016000D01*
X0012988Y0186000D02*
X0012990Y0186148D01*
X0012996Y0186296D01*
X0013006Y0186444D01*
X0013020Y0186591D01*
X0013038Y0186738D01*
X0013059Y0186884D01*
X0013085Y0187030D01*
X0013115Y0187175D01*
X0013148Y0187319D01*
X0013186Y0187462D01*
X0013227Y0187604D01*
X0013272Y0187745D01*
X0013320Y0187885D01*
X0013373Y0188024D01*
X0013429Y0188161D01*
X0013489Y0188296D01*
X0013552Y0188430D01*
X0013619Y0188562D01*
X0013690Y0188692D01*
X0013764Y0188820D01*
X0013841Y0188946D01*
X0013922Y0189070D01*
X0014006Y0189192D01*
X0014093Y0189311D01*
X0014184Y0189428D01*
X0014278Y0189543D01*
X0014374Y0189655D01*
X0014474Y0189765D01*
X0014576Y0189871D01*
X0014682Y0189975D01*
X0014790Y0190076D01*
X0014901Y0190174D01*
X0015014Y0190270D01*
X0015130Y0190362D01*
X0015248Y0190451D01*
X0015369Y0190536D01*
X0015492Y0190619D01*
X0015617Y0190698D01*
X0015744Y0190774D01*
X0015873Y0190846D01*
X0016004Y0190915D01*
X0016137Y0190980D01*
X0016272Y0191041D01*
X0016408Y0191099D01*
X0016545Y0191154D01*
X0016684Y0191204D01*
X0016825Y0191251D01*
X0016966Y0191294D01*
X0017109Y0191334D01*
X0017253Y0191369D01*
X0017397Y0191401D01*
X0017543Y0191428D01*
X0017689Y0191452D01*
X0017836Y0191472D01*
X0017983Y0191488D01*
X0018130Y0191500D01*
X0018278Y0191508D01*
X0018426Y0191512D01*
X0018574Y0191512D01*
X0018722Y0191508D01*
X0018870Y0191500D01*
X0019017Y0191488D01*
X0019164Y0191472D01*
X0019311Y0191452D01*
X0019457Y0191428D01*
X0019603Y0191401D01*
X0019747Y0191369D01*
X0019891Y0191334D01*
X0020034Y0191294D01*
X0020175Y0191251D01*
X0020316Y0191204D01*
X0020455Y0191154D01*
X0020592Y0191099D01*
X0020728Y0191041D01*
X0020863Y0190980D01*
X0020996Y0190915D01*
X0021127Y0190846D01*
X0021256Y0190774D01*
X0021383Y0190698D01*
X0021508Y0190619D01*
X0021631Y0190536D01*
X0021752Y0190451D01*
X0021870Y0190362D01*
X0021986Y0190270D01*
X0022099Y0190174D01*
X0022210Y0190076D01*
X0022318Y0189975D01*
X0022424Y0189871D01*
X0022526Y0189765D01*
X0022626Y0189655D01*
X0022722Y0189543D01*
X0022816Y0189428D01*
X0022907Y0189311D01*
X0022994Y0189192D01*
X0023078Y0189070D01*
X0023159Y0188946D01*
X0023236Y0188820D01*
X0023310Y0188692D01*
X0023381Y0188562D01*
X0023448Y0188430D01*
X0023511Y0188296D01*
X0023571Y0188161D01*
X0023627Y0188024D01*
X0023680Y0187885D01*
X0023728Y0187745D01*
X0023773Y0187604D01*
X0023814Y0187462D01*
X0023852Y0187319D01*
X0023885Y0187175D01*
X0023915Y0187030D01*
X0023941Y0186884D01*
X0023962Y0186738D01*
X0023980Y0186591D01*
X0023994Y0186444D01*
X0024004Y0186296D01*
X0024010Y0186148D01*
X0024012Y0186000D01*
X0024010Y0185852D01*
X0024004Y0185704D01*
X0023994Y0185556D01*
X0023980Y0185409D01*
X0023962Y0185262D01*
X0023941Y0185116D01*
X0023915Y0184970D01*
X0023885Y0184825D01*
X0023852Y0184681D01*
X0023814Y0184538D01*
X0023773Y0184396D01*
X0023728Y0184255D01*
X0023680Y0184115D01*
X0023627Y0183976D01*
X0023571Y0183839D01*
X0023511Y0183704D01*
X0023448Y0183570D01*
X0023381Y0183438D01*
X0023310Y0183308D01*
X0023236Y0183180D01*
X0023159Y0183054D01*
X0023078Y0182930D01*
X0022994Y0182808D01*
X0022907Y0182689D01*
X0022816Y0182572D01*
X0022722Y0182457D01*
X0022626Y0182345D01*
X0022526Y0182235D01*
X0022424Y0182129D01*
X0022318Y0182025D01*
X0022210Y0181924D01*
X0022099Y0181826D01*
X0021986Y0181730D01*
X0021870Y0181638D01*
X0021752Y0181549D01*
X0021631Y0181464D01*
X0021508Y0181381D01*
X0021383Y0181302D01*
X0021256Y0181226D01*
X0021127Y0181154D01*
X0020996Y0181085D01*
X0020863Y0181020D01*
X0020728Y0180959D01*
X0020592Y0180901D01*
X0020455Y0180846D01*
X0020316Y0180796D01*
X0020175Y0180749D01*
X0020034Y0180706D01*
X0019891Y0180666D01*
X0019747Y0180631D01*
X0019603Y0180599D01*
X0019457Y0180572D01*
X0019311Y0180548D01*
X0019164Y0180528D01*
X0019017Y0180512D01*
X0018870Y0180500D01*
X0018722Y0180492D01*
X0018574Y0180488D01*
X0018426Y0180488D01*
X0018278Y0180492D01*
X0018130Y0180500D01*
X0017983Y0180512D01*
X0017836Y0180528D01*
X0017689Y0180548D01*
X0017543Y0180572D01*
X0017397Y0180599D01*
X0017253Y0180631D01*
X0017109Y0180666D01*
X0016966Y0180706D01*
X0016825Y0180749D01*
X0016684Y0180796D01*
X0016545Y0180846D01*
X0016408Y0180901D01*
X0016272Y0180959D01*
X0016137Y0181020D01*
X0016004Y0181085D01*
X0015873Y0181154D01*
X0015744Y0181226D01*
X0015617Y0181302D01*
X0015492Y0181381D01*
X0015369Y0181464D01*
X0015248Y0181549D01*
X0015130Y0181638D01*
X0015014Y0181730D01*
X0014901Y0181826D01*
X0014790Y0181924D01*
X0014682Y0182025D01*
X0014576Y0182129D01*
X0014474Y0182235D01*
X0014374Y0182345D01*
X0014278Y0182457D01*
X0014184Y0182572D01*
X0014093Y0182689D01*
X0014006Y0182808D01*
X0013922Y0182930D01*
X0013841Y0183054D01*
X0013764Y0183180D01*
X0013690Y0183308D01*
X0013619Y0183438D01*
X0013552Y0183570D01*
X0013489Y0183704D01*
X0013429Y0183839D01*
X0013373Y0183976D01*
X0013320Y0184115D01*
X0013272Y0184255D01*
X0013227Y0184396D01*
X0013186Y0184538D01*
X0013148Y0184681D01*
X0013115Y0184825D01*
X0013085Y0184970D01*
X0013059Y0185116D01*
X0013038Y0185262D01*
X0013020Y0185409D01*
X0013006Y0185556D01*
X0012996Y0185704D01*
X0012990Y0185852D01*
X0012988Y0186000D01*
X0480488Y0186000D02*
X0480490Y0186148D01*
X0480496Y0186296D01*
X0480506Y0186444D01*
X0480520Y0186591D01*
X0480538Y0186738D01*
X0480559Y0186884D01*
X0480585Y0187030D01*
X0480615Y0187175D01*
X0480648Y0187319D01*
X0480686Y0187462D01*
X0480727Y0187604D01*
X0480772Y0187745D01*
X0480820Y0187885D01*
X0480873Y0188024D01*
X0480929Y0188161D01*
X0480989Y0188296D01*
X0481052Y0188430D01*
X0481119Y0188562D01*
X0481190Y0188692D01*
X0481264Y0188820D01*
X0481341Y0188946D01*
X0481422Y0189070D01*
X0481506Y0189192D01*
X0481593Y0189311D01*
X0481684Y0189428D01*
X0481778Y0189543D01*
X0481874Y0189655D01*
X0481974Y0189765D01*
X0482076Y0189871D01*
X0482182Y0189975D01*
X0482290Y0190076D01*
X0482401Y0190174D01*
X0482514Y0190270D01*
X0482630Y0190362D01*
X0482748Y0190451D01*
X0482869Y0190536D01*
X0482992Y0190619D01*
X0483117Y0190698D01*
X0483244Y0190774D01*
X0483373Y0190846D01*
X0483504Y0190915D01*
X0483637Y0190980D01*
X0483772Y0191041D01*
X0483908Y0191099D01*
X0484045Y0191154D01*
X0484184Y0191204D01*
X0484325Y0191251D01*
X0484466Y0191294D01*
X0484609Y0191334D01*
X0484753Y0191369D01*
X0484897Y0191401D01*
X0485043Y0191428D01*
X0485189Y0191452D01*
X0485336Y0191472D01*
X0485483Y0191488D01*
X0485630Y0191500D01*
X0485778Y0191508D01*
X0485926Y0191512D01*
X0486074Y0191512D01*
X0486222Y0191508D01*
X0486370Y0191500D01*
X0486517Y0191488D01*
X0486664Y0191472D01*
X0486811Y0191452D01*
X0486957Y0191428D01*
X0487103Y0191401D01*
X0487247Y0191369D01*
X0487391Y0191334D01*
X0487534Y0191294D01*
X0487675Y0191251D01*
X0487816Y0191204D01*
X0487955Y0191154D01*
X0488092Y0191099D01*
X0488228Y0191041D01*
X0488363Y0190980D01*
X0488496Y0190915D01*
X0488627Y0190846D01*
X0488756Y0190774D01*
X0488883Y0190698D01*
X0489008Y0190619D01*
X0489131Y0190536D01*
X0489252Y0190451D01*
X0489370Y0190362D01*
X0489486Y0190270D01*
X0489599Y0190174D01*
X0489710Y0190076D01*
X0489818Y0189975D01*
X0489924Y0189871D01*
X0490026Y0189765D01*
X0490126Y0189655D01*
X0490222Y0189543D01*
X0490316Y0189428D01*
X0490407Y0189311D01*
X0490494Y0189192D01*
X0490578Y0189070D01*
X0490659Y0188946D01*
X0490736Y0188820D01*
X0490810Y0188692D01*
X0490881Y0188562D01*
X0490948Y0188430D01*
X0491011Y0188296D01*
X0491071Y0188161D01*
X0491127Y0188024D01*
X0491180Y0187885D01*
X0491228Y0187745D01*
X0491273Y0187604D01*
X0491314Y0187462D01*
X0491352Y0187319D01*
X0491385Y0187175D01*
X0491415Y0187030D01*
X0491441Y0186884D01*
X0491462Y0186738D01*
X0491480Y0186591D01*
X0491494Y0186444D01*
X0491504Y0186296D01*
X0491510Y0186148D01*
X0491512Y0186000D01*
X0491510Y0185852D01*
X0491504Y0185704D01*
X0491494Y0185556D01*
X0491480Y0185409D01*
X0491462Y0185262D01*
X0491441Y0185116D01*
X0491415Y0184970D01*
X0491385Y0184825D01*
X0491352Y0184681D01*
X0491314Y0184538D01*
X0491273Y0184396D01*
X0491228Y0184255D01*
X0491180Y0184115D01*
X0491127Y0183976D01*
X0491071Y0183839D01*
X0491011Y0183704D01*
X0490948Y0183570D01*
X0490881Y0183438D01*
X0490810Y0183308D01*
X0490736Y0183180D01*
X0490659Y0183054D01*
X0490578Y0182930D01*
X0490494Y0182808D01*
X0490407Y0182689D01*
X0490316Y0182572D01*
X0490222Y0182457D01*
X0490126Y0182345D01*
X0490026Y0182235D01*
X0489924Y0182129D01*
X0489818Y0182025D01*
X0489710Y0181924D01*
X0489599Y0181826D01*
X0489486Y0181730D01*
X0489370Y0181638D01*
X0489252Y0181549D01*
X0489131Y0181464D01*
X0489008Y0181381D01*
X0488883Y0181302D01*
X0488756Y0181226D01*
X0488627Y0181154D01*
X0488496Y0181085D01*
X0488363Y0181020D01*
X0488228Y0180959D01*
X0488092Y0180901D01*
X0487955Y0180846D01*
X0487816Y0180796D01*
X0487675Y0180749D01*
X0487534Y0180706D01*
X0487391Y0180666D01*
X0487247Y0180631D01*
X0487103Y0180599D01*
X0486957Y0180572D01*
X0486811Y0180548D01*
X0486664Y0180528D01*
X0486517Y0180512D01*
X0486370Y0180500D01*
X0486222Y0180492D01*
X0486074Y0180488D01*
X0485926Y0180488D01*
X0485778Y0180492D01*
X0485630Y0180500D01*
X0485483Y0180512D01*
X0485336Y0180528D01*
X0485189Y0180548D01*
X0485043Y0180572D01*
X0484897Y0180599D01*
X0484753Y0180631D01*
X0484609Y0180666D01*
X0484466Y0180706D01*
X0484325Y0180749D01*
X0484184Y0180796D01*
X0484045Y0180846D01*
X0483908Y0180901D01*
X0483772Y0180959D01*
X0483637Y0181020D01*
X0483504Y0181085D01*
X0483373Y0181154D01*
X0483244Y0181226D01*
X0483117Y0181302D01*
X0482992Y0181381D01*
X0482869Y0181464D01*
X0482748Y0181549D01*
X0482630Y0181638D01*
X0482514Y0181730D01*
X0482401Y0181826D01*
X0482290Y0181924D01*
X0482182Y0182025D01*
X0482076Y0182129D01*
X0481974Y0182235D01*
X0481874Y0182345D01*
X0481778Y0182457D01*
X0481684Y0182572D01*
X0481593Y0182689D01*
X0481506Y0182808D01*
X0481422Y0182930D01*
X0481341Y0183054D01*
X0481264Y0183180D01*
X0481190Y0183308D01*
X0481119Y0183438D01*
X0481052Y0183570D01*
X0480989Y0183704D01*
X0480929Y0183839D01*
X0480873Y0183976D01*
X0480820Y0184115D01*
X0480772Y0184255D01*
X0480727Y0184396D01*
X0480686Y0184538D01*
X0480648Y0184681D01*
X0480615Y0184825D01*
X0480585Y0184970D01*
X0480559Y0185116D01*
X0480538Y0185262D01*
X0480520Y0185409D01*
X0480506Y0185556D01*
X0480496Y0185704D01*
X0480490Y0185852D01*
X0480488Y0186000D01*
X0480488Y0016000D02*
X0480490Y0016148D01*
X0480496Y0016296D01*
X0480506Y0016444D01*
X0480520Y0016591D01*
X0480538Y0016738D01*
X0480559Y0016884D01*
X0480585Y0017030D01*
X0480615Y0017175D01*
X0480648Y0017319D01*
X0480686Y0017462D01*
X0480727Y0017604D01*
X0480772Y0017745D01*
X0480820Y0017885D01*
X0480873Y0018024D01*
X0480929Y0018161D01*
X0480989Y0018296D01*
X0481052Y0018430D01*
X0481119Y0018562D01*
X0481190Y0018692D01*
X0481264Y0018820D01*
X0481341Y0018946D01*
X0481422Y0019070D01*
X0481506Y0019192D01*
X0481593Y0019311D01*
X0481684Y0019428D01*
X0481778Y0019543D01*
X0481874Y0019655D01*
X0481974Y0019765D01*
X0482076Y0019871D01*
X0482182Y0019975D01*
X0482290Y0020076D01*
X0482401Y0020174D01*
X0482514Y0020270D01*
X0482630Y0020362D01*
X0482748Y0020451D01*
X0482869Y0020536D01*
X0482992Y0020619D01*
X0483117Y0020698D01*
X0483244Y0020774D01*
X0483373Y0020846D01*
X0483504Y0020915D01*
X0483637Y0020980D01*
X0483772Y0021041D01*
X0483908Y0021099D01*
X0484045Y0021154D01*
X0484184Y0021204D01*
X0484325Y0021251D01*
X0484466Y0021294D01*
X0484609Y0021334D01*
X0484753Y0021369D01*
X0484897Y0021401D01*
X0485043Y0021428D01*
X0485189Y0021452D01*
X0485336Y0021472D01*
X0485483Y0021488D01*
X0485630Y0021500D01*
X0485778Y0021508D01*
X0485926Y0021512D01*
X0486074Y0021512D01*
X0486222Y0021508D01*
X0486370Y0021500D01*
X0486517Y0021488D01*
X0486664Y0021472D01*
X0486811Y0021452D01*
X0486957Y0021428D01*
X0487103Y0021401D01*
X0487247Y0021369D01*
X0487391Y0021334D01*
X0487534Y0021294D01*
X0487675Y0021251D01*
X0487816Y0021204D01*
X0487955Y0021154D01*
X0488092Y0021099D01*
X0488228Y0021041D01*
X0488363Y0020980D01*
X0488496Y0020915D01*
X0488627Y0020846D01*
X0488756Y0020774D01*
X0488883Y0020698D01*
X0489008Y0020619D01*
X0489131Y0020536D01*
X0489252Y0020451D01*
X0489370Y0020362D01*
X0489486Y0020270D01*
X0489599Y0020174D01*
X0489710Y0020076D01*
X0489818Y0019975D01*
X0489924Y0019871D01*
X0490026Y0019765D01*
X0490126Y0019655D01*
X0490222Y0019543D01*
X0490316Y0019428D01*
X0490407Y0019311D01*
X0490494Y0019192D01*
X0490578Y0019070D01*
X0490659Y0018946D01*
X0490736Y0018820D01*
X0490810Y0018692D01*
X0490881Y0018562D01*
X0490948Y0018430D01*
X0491011Y0018296D01*
X0491071Y0018161D01*
X0491127Y0018024D01*
X0491180Y0017885D01*
X0491228Y0017745D01*
X0491273Y0017604D01*
X0491314Y0017462D01*
X0491352Y0017319D01*
X0491385Y0017175D01*
X0491415Y0017030D01*
X0491441Y0016884D01*
X0491462Y0016738D01*
X0491480Y0016591D01*
X0491494Y0016444D01*
X0491504Y0016296D01*
X0491510Y0016148D01*
X0491512Y0016000D01*
X0491510Y0015852D01*
X0491504Y0015704D01*
X0491494Y0015556D01*
X0491480Y0015409D01*
X0491462Y0015262D01*
X0491441Y0015116D01*
X0491415Y0014970D01*
X0491385Y0014825D01*
X0491352Y0014681D01*
X0491314Y0014538D01*
X0491273Y0014396D01*
X0491228Y0014255D01*
X0491180Y0014115D01*
X0491127Y0013976D01*
X0491071Y0013839D01*
X0491011Y0013704D01*
X0490948Y0013570D01*
X0490881Y0013438D01*
X0490810Y0013308D01*
X0490736Y0013180D01*
X0490659Y0013054D01*
X0490578Y0012930D01*
X0490494Y0012808D01*
X0490407Y0012689D01*
X0490316Y0012572D01*
X0490222Y0012457D01*
X0490126Y0012345D01*
X0490026Y0012235D01*
X0489924Y0012129D01*
X0489818Y0012025D01*
X0489710Y0011924D01*
X0489599Y0011826D01*
X0489486Y0011730D01*
X0489370Y0011638D01*
X0489252Y0011549D01*
X0489131Y0011464D01*
X0489008Y0011381D01*
X0488883Y0011302D01*
X0488756Y0011226D01*
X0488627Y0011154D01*
X0488496Y0011085D01*
X0488363Y0011020D01*
X0488228Y0010959D01*
X0488092Y0010901D01*
X0487955Y0010846D01*
X0487816Y0010796D01*
X0487675Y0010749D01*
X0487534Y0010706D01*
X0487391Y0010666D01*
X0487247Y0010631D01*
X0487103Y0010599D01*
X0486957Y0010572D01*
X0486811Y0010548D01*
X0486664Y0010528D01*
X0486517Y0010512D01*
X0486370Y0010500D01*
X0486222Y0010492D01*
X0486074Y0010488D01*
X0485926Y0010488D01*
X0485778Y0010492D01*
X0485630Y0010500D01*
X0485483Y0010512D01*
X0485336Y0010528D01*
X0485189Y0010548D01*
X0485043Y0010572D01*
X0484897Y0010599D01*
X0484753Y0010631D01*
X0484609Y0010666D01*
X0484466Y0010706D01*
X0484325Y0010749D01*
X0484184Y0010796D01*
X0484045Y0010846D01*
X0483908Y0010901D01*
X0483772Y0010959D01*
X0483637Y0011020D01*
X0483504Y0011085D01*
X0483373Y0011154D01*
X0483244Y0011226D01*
X0483117Y0011302D01*
X0482992Y0011381D01*
X0482869Y0011464D01*
X0482748Y0011549D01*
X0482630Y0011638D01*
X0482514Y0011730D01*
X0482401Y0011826D01*
X0482290Y0011924D01*
X0482182Y0012025D01*
X0482076Y0012129D01*
X0481974Y0012235D01*
X0481874Y0012345D01*
X0481778Y0012457D01*
X0481684Y0012572D01*
X0481593Y0012689D01*
X0481506Y0012808D01*
X0481422Y0012930D01*
X0481341Y0013054D01*
X0481264Y0013180D01*
X0481190Y0013308D01*
X0481119Y0013438D01*
X0481052Y0013570D01*
X0480989Y0013704D01*
X0480929Y0013839D01*
X0480873Y0013976D01*
X0480820Y0014115D01*
X0480772Y0014255D01*
X0480727Y0014396D01*
X0480686Y0014538D01*
X0480648Y0014681D01*
X0480615Y0014825D01*
X0480585Y0014970D01*
X0480559Y0015116D01*
X0480538Y0015262D01*
X0480520Y0015409D01*
X0480506Y0015556D01*
X0480496Y0015704D01*
X0480490Y0015852D01*
X0480488Y0016000D01*
D11*
X0156000Y0127161D03*
X0156000Y0159839D03*
X0068500Y0159839D03*
X0068500Y0127161D03*
D12*
X0183500Y0135488D03*
X0183500Y0146512D03*
X0241000Y0177988D03*
X0241000Y0189012D03*
D13*
X0244012Y0161000D03*
X0232988Y0161000D03*
X0232988Y0141000D03*
X0244012Y0141000D03*
X0327988Y0153500D03*
X0339012Y0153500D03*
X0339012Y0163500D03*
X0327988Y0163500D03*
D14*
X0116000Y0158343D03*
D15*
X0107024Y0129602D03*
X0124976Y0129602D03*
D16*
X0436300Y0131100D03*
X0436300Y0126100D03*
X0436300Y0121100D03*
X0436300Y0116100D03*
X0436300Y0111100D03*
X0436300Y0106100D03*
X0436300Y0101100D03*
X0460500Y0101100D03*
X0460500Y0106100D03*
X0460500Y0111100D03*
X0460500Y0116100D03*
X0460500Y0121100D03*
X0460500Y0126100D03*
X0460500Y0131100D03*
D17*
X0334098Y0181000D03*
X0322902Y0181000D03*
X0196598Y0163500D03*
X0185402Y0163500D03*
D18*
X0256300Y0161000D02*
X0260700Y0161000D01*
X0260700Y0141000D02*
X0256300Y0141000D01*
D19*
X0198500Y0135488D03*
X0198500Y0146512D03*
D20*
X0357700Y0172100D02*
X0363700Y0172100D01*
X0383300Y0172100D02*
X0389300Y0172100D01*
X0389300Y0189900D02*
X0383300Y0189900D01*
X0363700Y0189900D02*
X0357700Y0189900D01*
D21*
X0310429Y0172024D03*
X0310429Y0168874D03*
X0310429Y0165724D03*
X0310429Y0162575D03*
X0310429Y0159425D03*
X0310429Y0156276D03*
X0310429Y0153126D03*
X0310429Y0149976D03*
X0276571Y0149976D03*
X0276571Y0153126D03*
X0276571Y0156276D03*
X0276571Y0159425D03*
X0276571Y0162575D03*
X0276571Y0165724D03*
X0276571Y0168874D03*
X0276571Y0172024D03*
D22*
X0282476Y0177929D03*
X0285626Y0177929D03*
X0288776Y0177929D03*
X0291925Y0177929D03*
X0295075Y0177929D03*
X0298224Y0177929D03*
X0301374Y0177929D03*
X0304524Y0177929D03*
X0304524Y0144071D03*
X0301374Y0144071D03*
X0298224Y0144071D03*
X0295075Y0144071D03*
X0291925Y0144071D03*
X0288776Y0144071D03*
X0285626Y0144071D03*
X0282476Y0144071D03*
D23*
X0029525Y0136157D02*
X0022475Y0136157D01*
X0022475Y0155843D02*
X0029525Y0155843D01*
D24*
X0056000Y0100600D03*
X0061000Y0100600D03*
X0066000Y0100600D03*
X0071000Y0100600D03*
X0076000Y0100600D03*
X0081000Y0100600D03*
X0086000Y0100600D03*
X0091000Y0100600D03*
X0126000Y0100600D03*
X0131000Y0100600D03*
X0136000Y0100600D03*
X0141000Y0100600D03*
X0146000Y0100600D03*
X0151000Y0100600D03*
X0156000Y0100600D03*
X0161000Y0100600D03*
X0198500Y0100600D03*
X0203500Y0100600D03*
X0208500Y0100600D03*
X0213500Y0100600D03*
X0218500Y0100600D03*
X0223500Y0100600D03*
X0228500Y0100600D03*
X0233500Y0100600D03*
X0273500Y0100600D03*
X0278500Y0100600D03*
X0283500Y0100600D03*
X0288500Y0100600D03*
X0293500Y0100600D03*
X0298500Y0100600D03*
X0303500Y0100600D03*
X0308500Y0100600D03*
X0308500Y0076400D03*
X0303500Y0076400D03*
X0298500Y0076400D03*
X0293500Y0076400D03*
X0288500Y0076400D03*
X0283500Y0076400D03*
X0278500Y0076400D03*
X0273500Y0076400D03*
X0233500Y0076400D03*
X0228500Y0076400D03*
X0223500Y0076400D03*
X0218500Y0076400D03*
X0213500Y0076400D03*
X0208500Y0076400D03*
X0203500Y0076400D03*
X0198500Y0076400D03*
X0161000Y0076400D03*
X0156000Y0076400D03*
X0151000Y0076400D03*
X0146000Y0076400D03*
X0141000Y0076400D03*
X0136000Y0076400D03*
X0131000Y0076400D03*
X0126000Y0076400D03*
X0091000Y0076400D03*
X0086000Y0076400D03*
X0081000Y0076400D03*
X0076000Y0076400D03*
X0071000Y0076400D03*
X0066000Y0076400D03*
X0061000Y0076400D03*
X0056000Y0076400D03*
D25*
X0056200Y0028990D03*
X0068700Y0028990D03*
X0081200Y0028990D03*
X0093700Y0028990D03*
X0106200Y0028990D03*
X0118700Y0028990D03*
X0131200Y0028990D03*
X0143700Y0028990D03*
X0156200Y0028990D03*
X0168700Y0028990D03*
X0181200Y0028990D03*
X0193700Y0028990D03*
X0206200Y0028990D03*
X0218700Y0028990D03*
X0231200Y0028990D03*
X0243700Y0028990D03*
X0256200Y0028990D03*
X0268700Y0028990D03*
X0281200Y0028990D03*
X0293700Y0028990D03*
X0306200Y0028990D03*
X0318700Y0028990D03*
X0331200Y0028990D03*
X0343700Y0028990D03*
X0356200Y0028990D03*
X0368700Y0028990D03*
X0381200Y0028990D03*
X0393700Y0028990D03*
X0406200Y0028990D03*
X0418700Y0028990D03*
X0431200Y0028990D03*
X0431200Y0015210D03*
X0418700Y0015210D03*
X0406200Y0015210D03*
X0393700Y0015210D03*
X0381200Y0015210D03*
X0368700Y0015210D03*
X0356200Y0015210D03*
X0343700Y0015210D03*
X0331200Y0015210D03*
X0318700Y0015210D03*
X0306200Y0015210D03*
X0293700Y0015210D03*
X0281200Y0015210D03*
X0268700Y0015210D03*
X0256200Y0015210D03*
X0243700Y0015210D03*
X0231200Y0015210D03*
X0218700Y0015210D03*
X0206200Y0015210D03*
X0193700Y0015210D03*
X0181200Y0015210D03*
X0168700Y0015210D03*
X0156200Y0015210D03*
X0143700Y0015210D03*
X0131200Y0015210D03*
X0118700Y0015210D03*
X0106200Y0015210D03*
X0093700Y0015210D03*
X0081200Y0015210D03*
X0068700Y0015210D03*
X0056200Y0015210D03*
X0043700Y0015210D03*
X0043700Y0028990D03*
D26*
X0445200Y0026898D03*
X0445200Y0015702D03*
D27*
X0438451Y0015387D02*
X0437353Y0015387D01*
X0437353Y0014700D02*
X0437353Y0018800D01*
X0436866Y0019976D01*
X0435965Y0020876D01*
X0434789Y0021363D01*
X0427611Y0021363D01*
X0426435Y0020876D01*
X0425534Y0019976D01*
X0425047Y0018800D01*
X0425047Y0014700D01*
X0424853Y0014700D01*
X0424853Y0018800D01*
X0424366Y0019976D01*
X0423465Y0020876D01*
X0422289Y0021363D01*
X0415111Y0021363D01*
X0413935Y0020876D01*
X0413034Y0019976D01*
X0412547Y0018800D01*
X0412547Y0014700D01*
X0412353Y0014700D01*
X0412353Y0018800D01*
X0411866Y0019976D01*
X0410965Y0020876D01*
X0409789Y0021363D01*
X0402611Y0021363D01*
X0401435Y0020876D01*
X0400534Y0019976D01*
X0400047Y0018800D01*
X0400047Y0014700D01*
X0399853Y0014700D01*
X0399853Y0018800D01*
X0399366Y0019976D01*
X0398465Y0020876D01*
X0397289Y0021363D01*
X0390111Y0021363D01*
X0388935Y0020876D01*
X0388034Y0019976D01*
X0387547Y0018800D01*
X0387547Y0014700D01*
X0387353Y0014700D01*
X0387353Y0018800D01*
X0386866Y0019976D01*
X0385965Y0020876D01*
X0384789Y0021363D01*
X0377611Y0021363D01*
X0376435Y0020876D01*
X0375534Y0019976D01*
X0375047Y0018800D01*
X0375047Y0014700D01*
X0374853Y0014700D01*
X0374853Y0018800D01*
X0374366Y0019976D01*
X0373465Y0020876D01*
X0372289Y0021363D01*
X0365111Y0021363D01*
X0363935Y0020876D01*
X0363034Y0019976D01*
X0362547Y0018800D01*
X0362547Y0014700D01*
X0362353Y0014700D01*
X0362353Y0018800D01*
X0361866Y0019976D01*
X0360965Y0020876D01*
X0359789Y0021363D01*
X0352611Y0021363D01*
X0351435Y0020876D01*
X0350534Y0019976D01*
X0350047Y0018800D01*
X0350047Y0014700D01*
X0349853Y0014700D01*
X0349853Y0018800D01*
X0349366Y0019976D01*
X0348465Y0020876D01*
X0347289Y0021363D01*
X0340111Y0021363D01*
X0338935Y0020876D01*
X0338034Y0019976D01*
X0337547Y0018800D01*
X0337547Y0014700D01*
X0337353Y0014700D01*
X0337353Y0018800D01*
X0336866Y0019976D01*
X0335965Y0020876D01*
X0334789Y0021363D01*
X0327611Y0021363D01*
X0326435Y0020876D01*
X0325534Y0019976D01*
X0325047Y0018800D01*
X0325047Y0014700D01*
X0324853Y0014700D01*
X0324853Y0018800D01*
X0324366Y0019976D01*
X0323465Y0020876D01*
X0322289Y0021363D01*
X0315111Y0021363D01*
X0313935Y0020876D01*
X0313034Y0019976D01*
X0312547Y0018800D01*
X0312547Y0014700D01*
X0312353Y0014700D01*
X0312353Y0018800D01*
X0311866Y0019976D01*
X0310965Y0020876D01*
X0309789Y0021363D01*
X0302611Y0021363D01*
X0301435Y0020876D01*
X0300534Y0019976D01*
X0300047Y0018800D01*
X0300047Y0014700D01*
X0299853Y0014700D01*
X0299853Y0018800D01*
X0299366Y0019976D01*
X0298465Y0020876D01*
X0297289Y0021363D01*
X0290111Y0021363D01*
X0288935Y0020876D01*
X0288034Y0019976D01*
X0287547Y0018800D01*
X0287547Y0014700D01*
X0287353Y0014700D01*
X0287353Y0018800D01*
X0286866Y0019976D01*
X0285965Y0020876D01*
X0284789Y0021363D01*
X0277611Y0021363D01*
X0276435Y0020876D01*
X0275534Y0019976D01*
X0275047Y0018800D01*
X0275047Y0014700D01*
X0274853Y0014700D01*
X0274853Y0018800D01*
X0274366Y0019976D01*
X0273465Y0020876D01*
X0272289Y0021363D01*
X0265111Y0021363D01*
X0263935Y0020876D01*
X0263034Y0019976D01*
X0262547Y0018800D01*
X0262547Y0014700D01*
X0262353Y0014700D01*
X0262353Y0018800D01*
X0261866Y0019976D01*
X0260965Y0020876D01*
X0259789Y0021363D01*
X0252611Y0021363D01*
X0251435Y0020876D01*
X0250534Y0019976D01*
X0250047Y0018800D01*
X0250047Y0014700D01*
X0249853Y0014700D01*
X0249853Y0018800D01*
X0249366Y0019976D01*
X0248465Y0020876D01*
X0247289Y0021363D01*
X0240111Y0021363D01*
X0238935Y0020876D01*
X0238034Y0019976D01*
X0237547Y0018800D01*
X0237547Y0014700D01*
X0237353Y0014700D01*
X0237353Y0018800D01*
X0236866Y0019976D01*
X0235965Y0020876D01*
X0234789Y0021363D01*
X0227611Y0021363D01*
X0226435Y0020876D01*
X0225534Y0019976D01*
X0225047Y0018800D01*
X0225047Y0014700D01*
X0224853Y0014700D01*
X0224853Y0018800D01*
X0224366Y0019976D01*
X0223465Y0020876D01*
X0222289Y0021363D01*
X0215111Y0021363D01*
X0213935Y0020876D01*
X0213034Y0019976D01*
X0212547Y0018800D01*
X0212547Y0014700D01*
X0212353Y0014700D01*
X0212353Y0018800D01*
X0211866Y0019976D01*
X0210965Y0020876D01*
X0209789Y0021363D01*
X0202611Y0021363D01*
X0201435Y0020876D01*
X0200534Y0019976D01*
X0200047Y0018800D01*
X0200047Y0014700D01*
X0199853Y0014700D01*
X0199853Y0018800D01*
X0199366Y0019976D01*
X0198465Y0020876D01*
X0197289Y0021363D01*
X0197227Y0021363D01*
X0197700Y0022504D01*
X0197700Y0023007D01*
X0198465Y0023324D01*
X0199366Y0024224D01*
X0199853Y0025400D01*
X0199853Y0032579D01*
X0199366Y0033755D01*
X0198465Y0034655D01*
X0197289Y0035143D01*
X0190111Y0035143D01*
X0188935Y0034655D01*
X0188034Y0033755D01*
X0187547Y0032579D01*
X0187547Y0026100D01*
X0187353Y0026100D01*
X0187353Y0032579D01*
X0186866Y0033755D01*
X0185965Y0034655D01*
X0185200Y0034972D01*
X0185200Y0042043D01*
X0185934Y0041309D01*
X0187404Y0040700D01*
X0199107Y0040700D01*
X0198722Y0039770D01*
X0198722Y0037630D01*
X0199541Y0035654D01*
X0200987Y0034208D01*
X0200534Y0033755D01*
X0200047Y0032579D01*
X0200047Y0025400D01*
X0200534Y0024224D01*
X0201435Y0023324D01*
X0202611Y0022837D01*
X0209789Y0022837D01*
X0210965Y0023324D01*
X0211866Y0024224D01*
X0212353Y0025400D01*
X0212353Y0032579D01*
X0211866Y0033755D01*
X0210965Y0034655D01*
X0210200Y0034972D01*
X0210200Y0037896D01*
X0209591Y0039366D01*
X0209478Y0039479D01*
X0209478Y0039770D01*
X0209093Y0040700D01*
X0213543Y0040700D01*
X0214700Y0039543D01*
X0214700Y0034972D01*
X0213935Y0034655D01*
X0213034Y0033755D01*
X0212547Y0032579D01*
X0212547Y0025400D01*
X0213034Y0024224D01*
X0213935Y0023324D01*
X0215111Y0022837D01*
X0222289Y0022837D01*
X0223465Y0023324D01*
X0224366Y0024224D01*
X0224853Y0025400D01*
X0224853Y0032579D01*
X0224366Y0033755D01*
X0223465Y0034655D01*
X0222700Y0034972D01*
X0222700Y0041996D01*
X0222091Y0043466D01*
X0221357Y0044200D01*
X0225643Y0044200D01*
X0227200Y0042643D01*
X0227200Y0034972D01*
X0226435Y0034655D01*
X0225534Y0033755D01*
X0225047Y0032579D01*
X0225047Y0025400D01*
X0225534Y0024224D01*
X0226435Y0023324D01*
X0227611Y0022837D01*
X0234789Y0022837D01*
X0235965Y0023324D01*
X0236866Y0024224D01*
X0237353Y0025400D01*
X0237353Y0032579D01*
X0236866Y0033755D01*
X0235965Y0034655D01*
X0235200Y0034972D01*
X0235200Y0045096D01*
X0234591Y0046566D01*
X0234257Y0046900D01*
X0236943Y0046900D01*
X0239700Y0044143D01*
X0239700Y0034972D01*
X0238935Y0034655D01*
X0238034Y0033755D01*
X0237547Y0032579D01*
X0237547Y0025400D01*
X0238034Y0024224D01*
X0238935Y0023324D01*
X0240111Y0022837D01*
X0247289Y0022837D01*
X0248465Y0023324D01*
X0249366Y0024224D01*
X0249853Y0025400D01*
X0249853Y0032579D01*
X0249366Y0033755D01*
X0248465Y0034655D01*
X0247700Y0034972D01*
X0247700Y0046596D01*
X0247091Y0048066D01*
X0245457Y0049700D01*
X0248643Y0049700D01*
X0252200Y0046143D01*
X0252200Y0034972D01*
X0251435Y0034655D01*
X0250534Y0033755D01*
X0250047Y0032579D01*
X0250047Y0025400D01*
X0250534Y0024224D01*
X0251435Y0023324D01*
X0252611Y0022837D01*
X0259789Y0022837D01*
X0260965Y0023324D01*
X0261866Y0024224D01*
X0262353Y0025400D01*
X0262353Y0032579D01*
X0261866Y0033755D01*
X0260965Y0034655D01*
X0260200Y0034972D01*
X0260200Y0048596D01*
X0259591Y0050066D01*
X0258466Y0051191D01*
X0257357Y0052300D01*
X0261343Y0052300D01*
X0264700Y0048943D01*
X0264700Y0034972D01*
X0263935Y0034655D01*
X0263034Y0033755D01*
X0262547Y0032579D01*
X0262547Y0025400D01*
X0263034Y0024224D01*
X0263935Y0023324D01*
X0265111Y0022837D01*
X0272289Y0022837D01*
X0273465Y0023324D01*
X0274366Y0024224D01*
X0274853Y0025400D01*
X0274853Y0032579D01*
X0274366Y0033755D01*
X0273465Y0034655D01*
X0272700Y0034972D01*
X0272700Y0048343D01*
X0277200Y0043843D01*
X0277200Y0034972D01*
X0276435Y0034655D01*
X0275534Y0033755D01*
X0275047Y0032579D01*
X0275047Y0025400D01*
X0275534Y0024224D01*
X0276435Y0023324D01*
X0277611Y0022837D01*
X0284789Y0022837D01*
X0285965Y0023324D01*
X0286866Y0024224D01*
X0287353Y0025400D01*
X0287353Y0032579D01*
X0286866Y0033755D01*
X0285965Y0034655D01*
X0285200Y0034972D01*
X0285200Y0042800D01*
X0292442Y0042800D01*
X0290654Y0042059D01*
X0289141Y0040546D01*
X0288322Y0038570D01*
X0288322Y0036430D01*
X0289039Y0034699D01*
X0288935Y0034655D01*
X0288034Y0033755D01*
X0287547Y0032579D01*
X0287547Y0025400D01*
X0288034Y0024224D01*
X0288935Y0023324D01*
X0290111Y0022837D01*
X0297289Y0022837D01*
X0298465Y0023324D01*
X0299366Y0024224D01*
X0299853Y0025400D01*
X0299853Y0032579D01*
X0299366Y0033755D01*
X0298465Y0034655D01*
X0298361Y0034699D01*
X0299078Y0036430D01*
X0299078Y0038570D01*
X0298259Y0040546D01*
X0296746Y0042059D01*
X0294958Y0042800D01*
X0304218Y0042800D01*
X0303154Y0042359D01*
X0301641Y0040846D01*
X0300822Y0038870D01*
X0300822Y0036730D01*
X0301641Y0034754D01*
X0301650Y0034745D01*
X0301435Y0034655D01*
X0300534Y0033755D01*
X0300047Y0032579D01*
X0300047Y0025400D01*
X0300534Y0024224D01*
X0301435Y0023324D01*
X0302611Y0022837D01*
X0309789Y0022837D01*
X0310965Y0023324D01*
X0311866Y0024224D01*
X0312353Y0025400D01*
X0312353Y0032579D01*
X0311866Y0033755D01*
X0310965Y0034655D01*
X0310750Y0034745D01*
X0310759Y0034754D01*
X0311578Y0036730D01*
X0311578Y0038870D01*
X0310759Y0040846D01*
X0309246Y0042359D01*
X0308182Y0042800D01*
X0313322Y0042800D01*
X0313322Y0041630D01*
X0314141Y0039654D01*
X0314700Y0039094D01*
X0314700Y0034972D01*
X0313935Y0034655D01*
X0313034Y0033755D01*
X0312547Y0032579D01*
X0312547Y0025400D01*
X0313034Y0024224D01*
X0313935Y0023324D01*
X0315111Y0022837D01*
X0322289Y0022837D01*
X0323465Y0023324D01*
X0324366Y0024224D01*
X0324853Y0025400D01*
X0324853Y0032579D01*
X0324366Y0033755D01*
X0323465Y0034655D01*
X0322700Y0034972D01*
X0322700Y0039094D01*
X0323259Y0039654D01*
X0324078Y0041630D01*
X0324078Y0042765D01*
X0327200Y0039643D01*
X0327200Y0034972D01*
X0326435Y0034655D01*
X0325534Y0033755D01*
X0325047Y0032579D01*
X0325047Y0025400D01*
X0325534Y0024224D01*
X0326435Y0023324D01*
X0327611Y0022837D01*
X0334789Y0022837D01*
X0335965Y0023324D01*
X0336866Y0024224D01*
X0337353Y0025400D01*
X0337353Y0032579D01*
X0336866Y0033755D01*
X0335965Y0034655D01*
X0335200Y0034972D01*
X0335200Y0042096D01*
X0334591Y0043566D01*
X0333466Y0044691D01*
X0332857Y0045300D01*
X0333743Y0045300D01*
X0339700Y0039343D01*
X0339700Y0034972D01*
X0338935Y0034655D01*
X0338034Y0033755D01*
X0337547Y0032579D01*
X0337547Y0025400D01*
X0338034Y0024224D01*
X0338935Y0023324D01*
X0340111Y0022837D01*
X0347289Y0022837D01*
X0348465Y0023324D01*
X0349366Y0024224D01*
X0349853Y0025400D01*
X0349853Y0032579D01*
X0349366Y0033755D01*
X0348465Y0034655D01*
X0347700Y0034972D01*
X0347700Y0041796D01*
X0347091Y0043266D01*
X0345966Y0044391D01*
X0342457Y0047900D01*
X0345543Y0047900D01*
X0352200Y0041243D01*
X0352200Y0034972D01*
X0351435Y0034655D01*
X0350534Y0033755D01*
X0350047Y0032579D01*
X0350047Y0025400D01*
X0350534Y0024224D01*
X0351435Y0023324D01*
X0352611Y0022837D01*
X0359789Y0022837D01*
X0360965Y0023324D01*
X0361866Y0024224D01*
X0362353Y0025400D01*
X0362353Y0032579D01*
X0361866Y0033755D01*
X0360965Y0034655D01*
X0360200Y0034972D01*
X0360200Y0043696D01*
X0359591Y0045166D01*
X0358466Y0046291D01*
X0354257Y0050500D01*
X0354743Y0050500D01*
X0364700Y0040543D01*
X0364700Y0034972D01*
X0363935Y0034655D01*
X0363034Y0033755D01*
X0362547Y0032579D01*
X0362547Y0025400D01*
X0363034Y0024224D01*
X0363935Y0023324D01*
X0365111Y0022837D01*
X0372289Y0022837D01*
X0373465Y0023324D01*
X0374366Y0024224D01*
X0374853Y0025400D01*
X0374853Y0032579D01*
X0374366Y0033755D01*
X0373465Y0034655D01*
X0372700Y0034972D01*
X0372700Y0042996D01*
X0372091Y0044466D01*
X0370966Y0045591D01*
X0358666Y0057891D01*
X0357196Y0058500D01*
X0309657Y0058500D01*
X0307500Y0060657D01*
X0307500Y0070575D01*
X0307513Y0070587D01*
X0308000Y0071763D01*
X0308000Y0081037D01*
X0307513Y0082213D01*
X0306925Y0082800D01*
X0360843Y0082800D01*
X0377200Y0066443D01*
X0377200Y0034972D01*
X0376435Y0034655D01*
X0375534Y0033755D01*
X0375047Y0032579D01*
X0375047Y0025400D01*
X0375534Y0024224D01*
X0376435Y0023324D01*
X0377611Y0022837D01*
X0384789Y0022837D01*
X0385965Y0023324D01*
X0386866Y0024224D01*
X0387353Y0025400D01*
X0387353Y0032579D01*
X0386866Y0033755D01*
X0385965Y0034655D01*
X0385200Y0034972D01*
X0385200Y0068896D01*
X0384591Y0070366D01*
X0383466Y0071491D01*
X0369257Y0085700D01*
X0416643Y0085700D01*
X0427100Y0075243D01*
X0427100Y0034931D01*
X0426435Y0034655D01*
X0425534Y0033755D01*
X0425047Y0032579D01*
X0425047Y0025400D01*
X0425534Y0024224D01*
X0426435Y0023324D01*
X0427611Y0022837D01*
X0434789Y0022837D01*
X0435965Y0023324D01*
X0436866Y0024224D01*
X0437353Y0025400D01*
X0437353Y0032579D01*
X0436866Y0033755D01*
X0435965Y0034655D01*
X0435100Y0035014D01*
X0435100Y0077696D01*
X0434491Y0079166D01*
X0433366Y0080291D01*
X0420657Y0093000D01*
X0448796Y0093000D01*
X0450266Y0093609D01*
X0453757Y0097100D01*
X0454675Y0097100D01*
X0454687Y0097087D01*
X0455863Y0096600D01*
X0465137Y0096600D01*
X0466313Y0097087D01*
X0467213Y0097987D01*
X0467700Y0099163D01*
X0467700Y0102100D01*
X0470896Y0102100D01*
X0472366Y0102709D01*
X0473491Y0103834D01*
X0476191Y0106534D01*
X0476800Y0108004D01*
X0476800Y0144196D01*
X0476191Y0145666D01*
X0475066Y0146791D01*
X0470766Y0151091D01*
X0469296Y0151700D01*
X0401104Y0151700D01*
X0399634Y0151091D01*
X0398509Y0149966D01*
X0393809Y0145266D01*
X0393200Y0143796D01*
X0393200Y0123000D01*
X0368578Y0123000D01*
X0368578Y0124870D01*
X0367759Y0126846D01*
X0366246Y0128359D01*
X0364270Y0129178D01*
X0362130Y0129178D01*
X0360154Y0128359D01*
X0358641Y0126846D01*
X0358290Y0126000D01*
X0216804Y0126000D01*
X0215334Y0125391D01*
X0214209Y0124266D01*
X0205109Y0115166D01*
X0205085Y0115109D01*
X0204180Y0117295D01*
X0202295Y0119180D01*
X0199833Y0120200D01*
X0197167Y0120200D01*
X0194705Y0119180D01*
X0193825Y0118300D01*
X0184125Y0118300D01*
X0184399Y0118413D01*
X0186087Y0120101D01*
X0188587Y0122601D01*
X0189500Y0124807D01*
X0189500Y0129788D01*
X0192588Y0129788D01*
X0192750Y0129626D01*
X0193926Y0129139D01*
X0203074Y0129139D01*
X0204250Y0129626D01*
X0204412Y0129788D01*
X0209122Y0129788D01*
X0211217Y0130656D01*
X0214229Y0133668D01*
X0215832Y0135271D01*
X0216700Y0137366D01*
X0216700Y0171139D01*
X0218361Y0172800D01*
X0234970Y0172800D01*
X0235644Y0172126D01*
X0236002Y0171977D01*
X0236592Y0170554D01*
X0239092Y0168054D01*
X0239644Y0167502D01*
X0239050Y0167256D01*
X0238149Y0166356D01*
X0237662Y0165180D01*
X0237662Y0156820D01*
X0238149Y0155644D01*
X0239050Y0154744D01*
X0240226Y0154257D01*
X0247798Y0154257D01*
X0248974Y0154744D01*
X0249874Y0155644D01*
X0250361Y0156820D01*
X0250361Y0157000D01*
X0252663Y0157000D01*
X0253241Y0156422D01*
X0254500Y0155901D01*
X0254500Y0155204D01*
X0255109Y0153734D01*
X0256234Y0152609D01*
X0257843Y0151000D01*
X0255109Y0148266D01*
X0254500Y0146796D01*
X0254500Y0146099D01*
X0253241Y0145578D01*
X0252663Y0145000D01*
X0250361Y0145000D01*
X0250361Y0145180D01*
X0249874Y0146356D01*
X0248974Y0147256D01*
X0247798Y0147743D01*
X0240226Y0147743D01*
X0239050Y0147256D01*
X0238149Y0146356D01*
X0237662Y0145180D01*
X0237662Y0136820D01*
X0238149Y0135644D01*
X0239050Y0134744D01*
X0240226Y0134257D01*
X0247798Y0134257D01*
X0248974Y0134744D01*
X0249874Y0135644D01*
X0250361Y0136820D01*
X0250361Y0137000D01*
X0252663Y0137000D01*
X0253241Y0136422D01*
X0255226Y0135600D01*
X0261774Y0135600D01*
X0263759Y0136422D01*
X0265278Y0137941D01*
X0266100Y0139926D01*
X0266100Y0142074D01*
X0265278Y0144059D01*
X0263759Y0145578D01*
X0263742Y0145585D01*
X0264133Y0145976D01*
X0272299Y0145976D01*
X0272982Y0145694D01*
X0278194Y0145694D01*
X0278194Y0140482D01*
X0278681Y0139305D01*
X0279581Y0138405D01*
X0280757Y0137918D01*
X0306243Y0137918D01*
X0307419Y0138405D01*
X0308319Y0139305D01*
X0308806Y0140482D01*
X0308806Y0145694D01*
X0314018Y0145694D01*
X0315195Y0146181D01*
X0316095Y0147081D01*
X0316582Y0148257D01*
X0316582Y0149126D01*
X0321719Y0149126D01*
X0322126Y0148144D01*
X0323026Y0147244D01*
X0324202Y0146757D01*
X0331774Y0146757D01*
X0332950Y0147244D01*
X0333851Y0148144D01*
X0334338Y0149320D01*
X0334338Y0157680D01*
X0333998Y0158500D01*
X0334338Y0159320D01*
X0334338Y0167680D01*
X0334045Y0168388D01*
X0337489Y0171833D01*
X0338098Y0173303D01*
X0338098Y0174339D01*
X0339061Y0174738D01*
X0339961Y0175638D01*
X0340448Y0176814D01*
X0340448Y0185186D01*
X0340152Y0185900D01*
X0352932Y0185900D01*
X0354188Y0184644D01*
X0356467Y0183700D01*
X0364933Y0183700D01*
X0367212Y0184644D01*
X0368468Y0185900D01*
X0378532Y0185900D01*
X0379788Y0184644D01*
X0382067Y0183700D01*
X0390533Y0183700D01*
X0392812Y0184644D01*
X0394556Y0186388D01*
X0395500Y0188667D01*
X0395500Y0191133D01*
X0394556Y0193412D01*
X0392812Y0195156D01*
X0390533Y0196100D01*
X0382067Y0196100D01*
X0379788Y0195156D01*
X0378532Y0193900D01*
X0368468Y0193900D01*
X0367212Y0195156D01*
X0364933Y0196100D01*
X0356467Y0196100D01*
X0354188Y0195156D01*
X0352932Y0193900D01*
X0296604Y0193900D01*
X0295134Y0193291D01*
X0289659Y0187816D01*
X0288534Y0186691D01*
X0287925Y0185221D01*
X0287925Y0184082D01*
X0280757Y0184082D01*
X0279581Y0183595D01*
X0278681Y0182695D01*
X0278194Y0181518D01*
X0278194Y0176306D01*
X0272982Y0176306D01*
X0272606Y0176151D01*
X0269178Y0179579D01*
X0269178Y0179670D01*
X0268359Y0181646D01*
X0266846Y0183159D01*
X0264870Y0183978D01*
X0262730Y0183978D01*
X0260754Y0183159D01*
X0259241Y0181646D01*
X0258422Y0179670D01*
X0258422Y0177530D01*
X0258973Y0176200D01*
X0247743Y0176200D01*
X0247743Y0181774D01*
X0247256Y0182950D01*
X0246356Y0183851D01*
X0245180Y0184338D01*
X0236820Y0184338D01*
X0236487Y0184200D01*
X0214866Y0184200D01*
X0212771Y0183332D01*
X0211168Y0181729D01*
X0211168Y0181729D01*
X0207771Y0178332D01*
X0206168Y0176729D01*
X0205300Y0174634D01*
X0205300Y0151112D01*
X0205150Y0151474D01*
X0204500Y0152124D01*
X0204500Y0162792D01*
X0203587Y0164997D01*
X0202948Y0165636D01*
X0202948Y0167686D01*
X0202461Y0168862D01*
X0201561Y0169762D01*
X0200385Y0170249D01*
X0192812Y0170249D01*
X0191636Y0169762D01*
X0190736Y0168862D01*
X0190249Y0167686D01*
X0190249Y0159314D01*
X0190736Y0158138D01*
X0191636Y0157238D01*
X0192500Y0156880D01*
X0192500Y0152124D01*
X0191850Y0151474D01*
X0191363Y0150298D01*
X0191363Y0142726D01*
X0191850Y0141550D01*
X0192212Y0141188D01*
X0189018Y0141188D01*
X0188856Y0141351D01*
X0187680Y0141838D01*
X0185085Y0141838D01*
X0184693Y0142000D01*
X0182307Y0142000D01*
X0181915Y0141838D01*
X0179320Y0141838D01*
X0178144Y0141351D01*
X0177244Y0140450D01*
X0176757Y0139274D01*
X0176757Y0131702D01*
X0177244Y0130526D01*
X0177500Y0130270D01*
X0177500Y0129500D01*
X0164121Y0129500D01*
X0164121Y0136263D01*
X0163634Y0137439D01*
X0162734Y0138339D01*
X0161558Y0138826D01*
X0150442Y0138826D01*
X0149266Y0138339D01*
X0148366Y0137439D01*
X0147879Y0136263D01*
X0147879Y0129500D01*
X0130985Y0129500D01*
X0130976Y0129509D01*
X0130976Y0130796D01*
X0130145Y0132803D01*
X0130145Y0133388D01*
X0129658Y0134565D01*
X0128758Y0135465D01*
X0127581Y0135952D01*
X0122371Y0135952D01*
X0121195Y0135465D01*
X0120295Y0134565D01*
X0119808Y0133388D01*
X0119808Y0132803D01*
X0118976Y0130796D01*
X0118976Y0125830D01*
X0119890Y0123625D01*
X0123413Y0120101D01*
X0125101Y0118413D01*
X0125375Y0118300D01*
X0106625Y0118300D01*
X0106899Y0118413D01*
X0110422Y0121937D01*
X0112110Y0123625D01*
X0113024Y0125830D01*
X0113024Y0130796D01*
X0112192Y0132803D01*
X0112192Y0133388D01*
X0111705Y0134565D01*
X0110805Y0135465D01*
X0109629Y0135952D01*
X0104419Y0135952D01*
X0103242Y0135465D01*
X0102342Y0134565D01*
X0101855Y0133388D01*
X0101855Y0132803D01*
X0101024Y0130796D01*
X0101024Y0129509D01*
X0101015Y0129500D01*
X0076621Y0129500D01*
X0076621Y0136263D01*
X0076134Y0137439D01*
X0075234Y0138339D01*
X0074058Y0138826D01*
X0062942Y0138826D01*
X0061766Y0138339D01*
X0060866Y0137439D01*
X0060379Y0136263D01*
X0060379Y0129500D01*
X0048485Y0129500D01*
X0036741Y0141244D01*
X0034536Y0142157D01*
X0032613Y0142157D01*
X0030863Y0142882D01*
X0021137Y0142882D01*
X0018666Y0141859D01*
X0016774Y0139967D01*
X0015750Y0137495D01*
X0015750Y0134820D01*
X0016774Y0132348D01*
X0018666Y0130456D01*
X0021137Y0129432D01*
X0030863Y0129432D01*
X0031371Y0129643D01*
X0040913Y0120101D01*
X0042601Y0118413D01*
X0044807Y0117500D01*
X0059012Y0117500D01*
X0051931Y0110419D01*
X0051200Y0108655D01*
X0051200Y0106745D01*
X0051600Y0105780D01*
X0051600Y0105478D01*
X0051500Y0105237D01*
X0051500Y0097900D01*
X0040606Y0097900D01*
X0040046Y0098459D01*
X0038070Y0099278D01*
X0035930Y0099278D01*
X0033954Y0098459D01*
X0032441Y0096946D01*
X0031622Y0094970D01*
X0031622Y0092830D01*
X0032441Y0090854D01*
X0033954Y0089341D01*
X0034357Y0089174D01*
X0034200Y0088796D01*
X0034200Y0024204D01*
X0034809Y0022734D01*
X0037209Y0020334D01*
X0037898Y0019645D01*
X0037547Y0018800D01*
X0037547Y0011621D01*
X0038034Y0010445D01*
X0038935Y0009545D01*
X0039193Y0009438D01*
X0039631Y0008381D01*
X0040831Y0007181D01*
X0042181Y0005831D01*
X0042255Y0005800D01*
X0029737Y0005800D01*
X0030211Y0006311D01*
X0032436Y0010930D01*
X0032436Y0010930D01*
X0033200Y0016000D01*
X0033200Y0016000D01*
X0032436Y0021070D01*
X0030211Y0025689D01*
X0026724Y0029447D01*
X0022284Y0032011D01*
X0022284Y0032011D01*
X0017285Y0033152D01*
X0012173Y0032769D01*
X0012173Y0032769D01*
X0007400Y0030896D01*
X0005800Y0029620D01*
X0005800Y0174435D01*
X0005891Y0174301D01*
X0005892Y0174301D01*
X0009900Y0171104D01*
X0014673Y0169231D01*
X0019785Y0168848D01*
X0019785Y0168848D01*
X0024784Y0169989D01*
X0029224Y0172552D01*
X0029224Y0172553D01*
X0032711Y0176311D01*
X0034936Y0180930D01*
X0034936Y0180930D01*
X0035700Y0186000D01*
X0034936Y0191070D01*
X0032711Y0195689D01*
X0032237Y0196200D01*
X0472370Y0196200D01*
X0470503Y0193463D01*
X0470503Y0193463D01*
X0468992Y0188564D01*
X0468992Y0183436D01*
X0470503Y0178537D01*
X0473391Y0174301D01*
X0473392Y0174301D01*
X0477400Y0171104D01*
X0482173Y0169231D01*
X0487285Y0168848D01*
X0492284Y0169989D01*
X0496200Y0172250D01*
X0496200Y0029750D01*
X0492284Y0032011D01*
X0492284Y0032011D01*
X0487285Y0033152D01*
X0482173Y0032769D01*
X0482173Y0032769D01*
X0477400Y0030896D01*
X0473392Y0027699D01*
X0473391Y0027699D01*
X0470503Y0023463D01*
X0470503Y0023463D01*
X0468992Y0018564D01*
X0468992Y0013436D01*
X0470503Y0008537D01*
X0472370Y0005800D01*
X0446645Y0005800D01*
X0446719Y0005831D01*
X0447819Y0006931D01*
X0449169Y0008281D01*
X0449660Y0009466D01*
X0450562Y0009839D01*
X0451462Y0010739D01*
X0451949Y0011915D01*
X0451949Y0019488D01*
X0451462Y0020664D01*
X0450562Y0021564D01*
X0449386Y0022051D01*
X0441014Y0022051D01*
X0439838Y0021564D01*
X0438938Y0020664D01*
X0438451Y0019488D01*
X0438451Y0014700D01*
X0437353Y0014700D01*
X0437353Y0016985D02*
X0438451Y0016985D01*
X0438451Y0018584D02*
X0437353Y0018584D01*
X0436659Y0020182D02*
X0438738Y0020182D01*
X0440361Y0021781D02*
X0197400Y0021781D01*
X0198520Y0023379D02*
X0201380Y0023379D01*
X0200222Y0024978D02*
X0199678Y0024978D01*
X0199853Y0026576D02*
X0200047Y0026576D01*
X0200047Y0028175D02*
X0199853Y0028175D01*
X0199853Y0029773D02*
X0200047Y0029773D01*
X0200047Y0031372D02*
X0199853Y0031372D01*
X0199691Y0032970D02*
X0200209Y0032970D01*
X0200626Y0034569D02*
X0198552Y0034569D01*
X0199328Y0036167D02*
X0185200Y0036167D01*
X0185200Y0037766D02*
X0198722Y0037766D01*
X0198722Y0039364D02*
X0185200Y0039364D01*
X0185200Y0040963D02*
X0186770Y0040963D01*
X0188200Y0044700D02*
X0215200Y0044700D01*
X0218700Y0041200D01*
X0218700Y0028990D01*
X0224853Y0029773D02*
X0225047Y0029773D01*
X0225047Y0028175D02*
X0224853Y0028175D01*
X0224853Y0026576D02*
X0225047Y0026576D01*
X0225222Y0024978D02*
X0224678Y0024978D01*
X0223520Y0023379D02*
X0226380Y0023379D01*
X0225741Y0020182D02*
X0224159Y0020182D01*
X0224853Y0018584D02*
X0225047Y0018584D01*
X0225047Y0016985D02*
X0224853Y0016985D01*
X0224853Y0015387D02*
X0225047Y0015387D01*
X0212547Y0015387D02*
X0212353Y0015387D01*
X0212353Y0016985D02*
X0212547Y0016985D01*
X0212547Y0018584D02*
X0212353Y0018584D01*
X0211659Y0020182D02*
X0213241Y0020182D01*
X0213880Y0023379D02*
X0211020Y0023379D01*
X0212178Y0024978D02*
X0212722Y0024978D01*
X0212547Y0026576D02*
X0212353Y0026576D01*
X0212353Y0028175D02*
X0212547Y0028175D01*
X0212547Y0029773D02*
X0212353Y0029773D01*
X0212353Y0031372D02*
X0212547Y0031372D01*
X0212709Y0032970D02*
X0212191Y0032970D01*
X0211052Y0034569D02*
X0213848Y0034569D01*
X0214700Y0036167D02*
X0210200Y0036167D01*
X0210200Y0037766D02*
X0214700Y0037766D01*
X0214700Y0039364D02*
X0209592Y0039364D01*
X0206200Y0037100D02*
X0204600Y0038700D01*
X0204100Y0038700D01*
X0206200Y0037100D02*
X0206200Y0028990D01*
X0193700Y0028990D02*
X0193700Y0023300D01*
X0192500Y0022100D01*
X0138900Y0022100D01*
X0137100Y0023900D01*
X0137100Y0033900D01*
X0139800Y0036600D01*
X0139800Y0052000D01*
X0126000Y0065800D01*
X0126000Y0076400D01*
X0131000Y0076400D02*
X0131000Y0065400D01*
X0143700Y0052700D01*
X0143700Y0028990D01*
X0131200Y0028990D02*
X0131200Y0035200D01*
X0120450Y0045950D01*
X0119100Y0047300D01*
X0119100Y0094600D01*
X0117700Y0096000D01*
X0106700Y0096000D01*
X0105300Y0094600D01*
X0092300Y0094600D01*
X0091000Y0095900D01*
X0091000Y0100600D01*
X0086000Y0100600D02*
X0086000Y0094200D01*
X0083100Y0091300D01*
X0041500Y0091300D01*
X0038200Y0088000D01*
X0038200Y0025000D01*
X0040600Y0022600D01*
X0079000Y0022600D01*
X0081200Y0024800D01*
X0081200Y0028990D01*
X0087353Y0029773D02*
X0087547Y0029773D01*
X0087547Y0028175D02*
X0087353Y0028175D01*
X0087353Y0026576D02*
X0087547Y0026576D01*
X0087547Y0025400D02*
X0088034Y0024224D01*
X0088935Y0023324D01*
X0090111Y0022837D01*
X0097289Y0022837D01*
X0098465Y0023324D01*
X0099366Y0024224D01*
X0099853Y0025400D01*
X0099853Y0032579D01*
X0099366Y0033755D01*
X0098465Y0034655D01*
X0097600Y0035014D01*
X0097600Y0054094D01*
X0098159Y0054654D01*
X0098978Y0056630D01*
X0098978Y0058770D01*
X0098159Y0060746D01*
X0096646Y0062259D01*
X0094670Y0063078D01*
X0092530Y0063078D01*
X0090554Y0062259D01*
X0090000Y0061706D01*
X0090000Y0070575D01*
X0090013Y0070587D01*
X0090500Y0071763D01*
X0090500Y0079300D01*
X0109800Y0079300D01*
X0109800Y0042204D01*
X0110409Y0040734D01*
X0111534Y0039609D01*
X0111534Y0039609D01*
X0114600Y0036543D01*
X0114600Y0034931D01*
X0113935Y0034655D01*
X0113034Y0033755D01*
X0112547Y0032579D01*
X0112547Y0025900D01*
X0112353Y0025900D01*
X0112353Y0032579D01*
X0111866Y0033755D01*
X0110965Y0034655D01*
X0109789Y0035143D01*
X0102611Y0035143D01*
X0101435Y0034655D01*
X0100534Y0033755D01*
X0100047Y0032579D01*
X0100047Y0025400D01*
X0100534Y0024224D01*
X0101435Y0023324D01*
X0102200Y0023007D01*
X0102200Y0021804D01*
X0102416Y0021282D01*
X0101435Y0020876D01*
X0100534Y0019976D01*
X0100047Y0018800D01*
X0100047Y0014700D01*
X0099853Y0014700D01*
X0099853Y0018800D01*
X0099366Y0019976D01*
X0098465Y0020876D01*
X0097289Y0021363D01*
X0090111Y0021363D01*
X0088935Y0020876D01*
X0088034Y0019976D01*
X0087547Y0018800D01*
X0087547Y0014700D01*
X0087353Y0014700D01*
X0087353Y0018800D01*
X0086866Y0019976D01*
X0085965Y0020876D01*
X0084789Y0021363D01*
X0083420Y0021363D01*
X0084591Y0022534D01*
X0084716Y0022837D01*
X0084789Y0022837D01*
X0085965Y0023324D01*
X0086866Y0024224D01*
X0087353Y0025400D01*
X0087353Y0032579D01*
X0086866Y0033755D01*
X0085965Y0034655D01*
X0084789Y0035143D01*
X0077611Y0035143D01*
X0076435Y0034655D01*
X0075534Y0033755D01*
X0075047Y0032579D01*
X0075047Y0026600D01*
X0074853Y0026600D01*
X0074853Y0032579D01*
X0074366Y0033755D01*
X0073465Y0034655D01*
X0072700Y0034972D01*
X0072700Y0041843D01*
X0088222Y0057365D01*
X0088222Y0056630D01*
X0089041Y0054654D01*
X0089600Y0054094D01*
X0089600Y0034931D01*
X0088935Y0034655D01*
X0088034Y0033755D01*
X0087547Y0032579D01*
X0087547Y0025400D01*
X0087722Y0024978D02*
X0087178Y0024978D01*
X0086020Y0023379D02*
X0088880Y0023379D01*
X0083837Y0021781D02*
X0102210Y0021781D01*
X0101380Y0023379D02*
X0098520Y0023379D01*
X0099678Y0024978D02*
X0100222Y0024978D01*
X0100047Y0026576D02*
X0099853Y0026576D01*
X0099853Y0028175D02*
X0100047Y0028175D01*
X0100047Y0029773D02*
X0099853Y0029773D01*
X0099853Y0031372D02*
X0100047Y0031372D01*
X0100209Y0032970D02*
X0099691Y0032970D01*
X0098552Y0034569D02*
X0101348Y0034569D01*
X0097600Y0036167D02*
X0114600Y0036167D01*
X0113848Y0034569D02*
X0111052Y0034569D01*
X0112191Y0032970D02*
X0112709Y0032970D01*
X0112547Y0031372D02*
X0112353Y0031372D01*
X0112353Y0029773D02*
X0112547Y0029773D01*
X0112547Y0028175D02*
X0112353Y0028175D01*
X0112353Y0026576D02*
X0112547Y0026576D01*
X0118600Y0029090D02*
X0118700Y0028990D01*
X0118600Y0029090D02*
X0118600Y0038200D01*
X0113800Y0043000D01*
X0113800Y0082000D01*
X0112500Y0083300D01*
X0081900Y0083300D01*
X0081000Y0082400D01*
X0081000Y0076400D01*
X0076000Y0076400D02*
X0076000Y0084600D01*
X0077400Y0086000D01*
X0113900Y0086000D01*
X0116400Y0083500D01*
X0116400Y0045100D01*
X0124000Y0037500D01*
X0124000Y0023600D01*
X0122300Y0021900D01*
X0106900Y0021900D01*
X0106200Y0022600D01*
X0106200Y0028990D01*
X0093700Y0028990D02*
X0093600Y0029090D01*
X0093600Y0057700D01*
X0098447Y0055349D02*
X0109800Y0055349D01*
X0109800Y0053751D02*
X0097600Y0053751D01*
X0097600Y0052152D02*
X0109800Y0052152D01*
X0109800Y0050554D02*
X0097600Y0050554D01*
X0097600Y0048955D02*
X0109800Y0048955D01*
X0109800Y0047357D02*
X0097600Y0047357D01*
X0097600Y0045758D02*
X0109800Y0045758D01*
X0109800Y0044160D02*
X0097600Y0044160D01*
X0097600Y0042561D02*
X0109800Y0042561D01*
X0110314Y0040963D02*
X0097600Y0040963D01*
X0097600Y0039364D02*
X0111779Y0039364D01*
X0113377Y0037766D02*
X0097600Y0037766D01*
X0089600Y0037766D02*
X0072700Y0037766D01*
X0072700Y0039364D02*
X0089600Y0039364D01*
X0089600Y0040963D02*
X0072700Y0040963D01*
X0073418Y0042561D02*
X0089600Y0042561D01*
X0089600Y0044160D02*
X0075017Y0044160D01*
X0076615Y0045758D02*
X0089600Y0045758D01*
X0089600Y0047357D02*
X0078214Y0047357D01*
X0079812Y0048955D02*
X0089600Y0048955D01*
X0089600Y0050554D02*
X0081411Y0050554D01*
X0083009Y0052152D02*
X0089600Y0052152D01*
X0089600Y0053751D02*
X0084608Y0053751D01*
X0086206Y0055349D02*
X0088753Y0055349D01*
X0088222Y0056948D02*
X0087805Y0056948D01*
X0086000Y0060800D02*
X0086000Y0076400D01*
X0090500Y0076130D02*
X0109800Y0076130D01*
X0109800Y0074532D02*
X0090500Y0074532D01*
X0090500Y0072933D02*
X0109800Y0072933D01*
X0109800Y0071334D02*
X0090322Y0071334D01*
X0090000Y0069736D02*
X0109800Y0069736D01*
X0109800Y0068137D02*
X0090000Y0068137D01*
X0090000Y0066539D02*
X0109800Y0066539D01*
X0109800Y0064940D02*
X0090000Y0064940D01*
X0090000Y0063342D02*
X0109800Y0063342D01*
X0109800Y0061743D02*
X0097162Y0061743D01*
X0098408Y0060145D02*
X0109800Y0060145D01*
X0109800Y0058546D02*
X0098978Y0058546D01*
X0098978Y0056948D02*
X0109800Y0056948D01*
X0090038Y0061743D02*
X0090000Y0061743D01*
X0086000Y0060800D02*
X0068700Y0043500D01*
X0068700Y0028990D01*
X0074853Y0029773D02*
X0075047Y0029773D01*
X0075047Y0028175D02*
X0074853Y0028175D01*
X0074853Y0031372D02*
X0075047Y0031372D01*
X0075209Y0032970D02*
X0074691Y0032970D01*
X0073552Y0034569D02*
X0076348Y0034569D01*
X0072700Y0036167D02*
X0089600Y0036167D01*
X0088848Y0034569D02*
X0086052Y0034569D01*
X0087191Y0032970D02*
X0087709Y0032970D01*
X0087547Y0031372D02*
X0087353Y0031372D01*
X0086659Y0020182D02*
X0088241Y0020182D01*
X0087547Y0018584D02*
X0087353Y0018584D01*
X0087353Y0016985D02*
X0087547Y0016985D01*
X0087547Y0015387D02*
X0087353Y0015387D01*
X0099853Y0015387D02*
X0100047Y0015387D01*
X0100047Y0016985D02*
X0099853Y0016985D01*
X0099853Y0018584D02*
X0100047Y0018584D01*
X0100741Y0020182D02*
X0099159Y0020182D01*
X0056200Y0028990D02*
X0056200Y0049000D01*
X0071000Y0063800D01*
X0071000Y0076400D01*
X0066000Y0076400D02*
X0066000Y0087100D01*
X0067500Y0088600D01*
X0107300Y0088600D01*
X0110200Y0091500D01*
X0126200Y0091500D02*
X0129100Y0091500D01*
X0131000Y0093400D01*
X0131000Y0100600D01*
X0136000Y0100600D02*
X0136000Y0107700D01*
X0141000Y0100600D02*
X0141000Y0095600D01*
X0142200Y0094400D01*
X0150000Y0094400D01*
X0151000Y0095400D01*
X0151000Y0100600D01*
X0151000Y0108900D01*
X0156000Y0100600D02*
X0156000Y0094700D01*
X0157500Y0093200D01*
X0176400Y0093200D01*
X0178500Y0093200D01*
X0189200Y0093200D02*
X0189200Y0098000D01*
X0186600Y0100600D01*
X0161000Y0100600D01*
X0137600Y0085300D02*
X0201100Y0085300D01*
X0203500Y0087700D01*
X0203500Y0100600D01*
X0208500Y0100600D02*
X0208500Y0112900D01*
X0217600Y0122000D01*
X0361400Y0122000D01*
X0363200Y0123800D01*
X0368241Y0125684D02*
X0393200Y0125684D01*
X0393200Y0127282D02*
X0367323Y0127282D01*
X0364987Y0128881D02*
X0393200Y0128881D01*
X0393200Y0130479D02*
X0210791Y0130479D01*
X0212639Y0132078D02*
X0393200Y0132078D01*
X0393200Y0133676D02*
X0214237Y0133676D01*
X0215834Y0135275D02*
X0238518Y0135275D01*
X0237662Y0136873D02*
X0216496Y0136873D01*
X0216700Y0138472D02*
X0237662Y0138472D01*
X0237662Y0140070D02*
X0216700Y0140070D01*
X0216700Y0141669D02*
X0237662Y0141669D01*
X0237662Y0143268D02*
X0216700Y0143268D01*
X0216700Y0144866D02*
X0237662Y0144866D01*
X0238258Y0146465D02*
X0216700Y0146465D01*
X0216700Y0148063D02*
X0255025Y0148063D01*
X0254500Y0146465D02*
X0249766Y0146465D01*
X0256505Y0149662D02*
X0216700Y0149662D01*
X0216700Y0151260D02*
X0257583Y0151260D01*
X0255985Y0152859D02*
X0216700Y0152859D01*
X0216700Y0154457D02*
X0239742Y0154457D01*
X0237979Y0156056D02*
X0216700Y0156056D01*
X0216700Y0157654D02*
X0237662Y0157654D01*
X0237662Y0159253D02*
X0216700Y0159253D01*
X0216700Y0160851D02*
X0237662Y0160851D01*
X0237662Y0162450D02*
X0216700Y0162450D01*
X0216700Y0164048D02*
X0237662Y0164048D01*
X0237856Y0165647D02*
X0216700Y0165647D01*
X0216700Y0167245D02*
X0239039Y0167245D01*
X0238302Y0168844D02*
X0216700Y0168844D01*
X0216700Y0170442D02*
X0236704Y0170442D01*
X0235849Y0172041D02*
X0217602Y0172041D01*
X0206275Y0176836D02*
X0032964Y0176836D01*
X0032711Y0176311D02*
X0032711Y0176311D01*
X0031716Y0175238D02*
X0205550Y0175238D01*
X0205300Y0173639D02*
X0030232Y0173639D01*
X0029224Y0172552D02*
X0029224Y0172552D01*
X0028338Y0172041D02*
X0205300Y0172041D01*
X0205300Y0170442D02*
X0025569Y0170442D01*
X0024784Y0169989D02*
X0024784Y0169989D01*
X0014673Y0169231D02*
X0014673Y0169231D01*
X0011587Y0170442D02*
X0005800Y0170442D01*
X0005800Y0168844D02*
X0190728Y0168844D01*
X0190249Y0167245D02*
X0005800Y0167245D01*
X0005800Y0165647D02*
X0190249Y0165647D01*
X0190249Y0164048D02*
X0005800Y0164048D01*
X0005800Y0162450D02*
X0190249Y0162450D01*
X0190249Y0160851D02*
X0005800Y0160851D01*
X0005800Y0159253D02*
X0190274Y0159253D01*
X0191220Y0157654D02*
X0005800Y0157654D01*
X0005800Y0156056D02*
X0192500Y0156056D01*
X0192500Y0154457D02*
X0005800Y0154457D01*
X0005800Y0152859D02*
X0192500Y0152859D01*
X0191762Y0151260D02*
X0005800Y0151260D01*
X0005800Y0149662D02*
X0191363Y0149662D01*
X0191363Y0148063D02*
X0005800Y0148063D01*
X0005800Y0146465D02*
X0191363Y0146465D01*
X0191363Y0144866D02*
X0005800Y0144866D01*
X0005800Y0143268D02*
X0191363Y0143268D01*
X0191801Y0141669D02*
X0188087Y0141669D01*
X0178913Y0141669D02*
X0035715Y0141669D01*
X0037915Y0140070D02*
X0177086Y0140070D01*
X0176757Y0138472D02*
X0162412Y0138472D01*
X0163868Y0136873D02*
X0176757Y0136873D01*
X0176757Y0135275D02*
X0164121Y0135275D01*
X0164121Y0133676D02*
X0176757Y0133676D01*
X0176757Y0132078D02*
X0164121Y0132078D01*
X0164121Y0130479D02*
X0177290Y0130479D01*
X0189500Y0128881D02*
X0361413Y0128881D01*
X0359077Y0127282D02*
X0189500Y0127282D01*
X0189500Y0125684D02*
X0216041Y0125684D01*
X0214029Y0124085D02*
X0189201Y0124085D01*
X0188472Y0122487D02*
X0212430Y0122487D01*
X0210831Y0120888D02*
X0186874Y0120888D01*
X0185275Y0119290D02*
X0194970Y0119290D01*
X0202030Y0119290D02*
X0209233Y0119290D01*
X0207634Y0117691D02*
X0203784Y0117691D01*
X0204678Y0116093D02*
X0206036Y0116093D01*
X0218100Y0116800D02*
X0218100Y0110900D01*
X0217400Y0110200D01*
X0214600Y0110200D01*
X0213400Y0109000D01*
X0213400Y0100700D01*
X0213500Y0100600D01*
X0223000Y0099400D02*
X0223000Y0109000D01*
X0221800Y0110200D01*
X0217400Y0110200D01*
X0222100Y0114200D02*
X0222100Y0115000D01*
X0235500Y0115000D01*
X0235500Y0112467D01*
X0236520Y0110005D01*
X0238405Y0108120D01*
X0240867Y0107100D01*
X0243533Y0107100D01*
X0245995Y0108120D01*
X0246875Y0109000D01*
X0269100Y0109000D01*
X0269100Y0105478D01*
X0269000Y0105237D01*
X0269000Y0095963D01*
X0269487Y0094787D01*
X0270387Y0093887D01*
X0271563Y0093400D01*
X0273122Y0093400D01*
X0273122Y0092130D01*
X0273941Y0090154D01*
X0275454Y0088641D01*
X0277430Y0087822D01*
X0279570Y0087822D01*
X0281546Y0088641D01*
X0283059Y0090154D01*
X0283878Y0092130D01*
X0283878Y0093400D01*
X0285437Y0093400D01*
X0286613Y0093887D01*
X0287513Y0094787D01*
X0288000Y0095963D01*
X0288000Y0105237D01*
X0287822Y0105665D01*
X0288157Y0106000D01*
X0289316Y0106000D01*
X0289000Y0105237D01*
X0289000Y0095963D01*
X0289487Y0094787D01*
X0290387Y0093887D01*
X0291563Y0093400D01*
X0293222Y0093400D01*
X0293222Y0091530D01*
X0294041Y0089554D01*
X0295554Y0088041D01*
X0297530Y0087222D01*
X0299670Y0087222D01*
X0299695Y0087233D01*
X0300109Y0086234D01*
X0301809Y0084534D01*
X0302743Y0083600D01*
X0301563Y0083600D01*
X0301000Y0083367D01*
X0300437Y0083600D01*
X0296563Y0083600D01*
X0296000Y0083367D01*
X0295437Y0083600D01*
X0291563Y0083600D01*
X0291000Y0083367D01*
X0290437Y0083600D01*
X0286563Y0083600D01*
X0286000Y0083367D01*
X0285437Y0083600D01*
X0281563Y0083600D01*
X0281000Y0083367D01*
X0280437Y0083600D01*
X0276563Y0083600D01*
X0276000Y0083367D01*
X0275437Y0083600D01*
X0271563Y0083600D01*
X0270700Y0083242D01*
X0270700Y0087796D01*
X0270091Y0089266D01*
X0268966Y0090391D01*
X0268966Y0090391D01*
X0264466Y0094891D01*
X0262996Y0095500D01*
X0237808Y0095500D01*
X0238000Y0095963D01*
X0238000Y0105237D01*
X0237513Y0106413D01*
X0236613Y0107313D01*
X0235437Y0107800D01*
X0231563Y0107800D01*
X0231000Y0107567D01*
X0230437Y0107800D01*
X0227000Y0107800D01*
X0227000Y0109796D01*
X0226391Y0111266D01*
X0225191Y0112466D01*
X0224066Y0113591D01*
X0222596Y0114200D01*
X0222100Y0114200D01*
X0222100Y0114494D02*
X0235500Y0114494D01*
X0235500Y0112896D02*
X0224761Y0112896D01*
X0226360Y0111297D02*
X0235985Y0111297D01*
X0236826Y0109699D02*
X0227000Y0109699D01*
X0227000Y0108100D02*
X0238452Y0108100D01*
X0237424Y0106502D02*
X0269100Y0106502D01*
X0269100Y0108100D02*
X0245948Y0108100D01*
X0238000Y0104903D02*
X0269000Y0104903D01*
X0269000Y0103305D02*
X0238000Y0103305D01*
X0238000Y0101706D02*
X0269000Y0101706D01*
X0269000Y0100108D02*
X0238000Y0100108D01*
X0238000Y0098509D02*
X0269000Y0098509D01*
X0269000Y0096911D02*
X0238000Y0096911D01*
X0233500Y0100600D02*
X0233500Y0092800D01*
X0234800Y0091500D01*
X0262200Y0091500D01*
X0266700Y0087000D01*
X0266700Y0063600D01*
X0283500Y0046800D01*
X0325700Y0046800D01*
X0331200Y0041300D01*
X0331200Y0028990D01*
X0325047Y0029773D02*
X0324853Y0029773D01*
X0324853Y0028175D02*
X0325047Y0028175D01*
X0325047Y0026576D02*
X0324853Y0026576D01*
X0324678Y0024978D02*
X0325222Y0024978D01*
X0326380Y0023379D02*
X0323520Y0023379D01*
X0324159Y0020182D02*
X0325741Y0020182D01*
X0325047Y0018584D02*
X0324853Y0018584D01*
X0324853Y0016985D02*
X0325047Y0016985D01*
X0325047Y0015387D02*
X0324853Y0015387D01*
X0312547Y0015387D02*
X0312353Y0015387D01*
X0312353Y0016985D02*
X0312547Y0016985D01*
X0312547Y0018584D02*
X0312353Y0018584D01*
X0311659Y0020182D02*
X0313241Y0020182D01*
X0313880Y0023379D02*
X0311020Y0023379D01*
X0312178Y0024978D02*
X0312722Y0024978D01*
X0312547Y0026576D02*
X0312353Y0026576D01*
X0312353Y0028175D02*
X0312547Y0028175D01*
X0312547Y0029773D02*
X0312353Y0029773D01*
X0312353Y0031372D02*
X0312547Y0031372D01*
X0312709Y0032970D02*
X0312191Y0032970D01*
X0311052Y0034569D02*
X0313848Y0034569D01*
X0314700Y0036167D02*
X0311345Y0036167D01*
X0311578Y0037766D02*
X0314700Y0037766D01*
X0314430Y0039364D02*
X0311373Y0039364D01*
X0310643Y0040963D02*
X0313599Y0040963D01*
X0313322Y0042561D02*
X0308758Y0042561D01*
X0303642Y0042561D02*
X0295534Y0042561D01*
X0297843Y0040963D02*
X0301757Y0040963D01*
X0301027Y0039364D02*
X0298749Y0039364D01*
X0299078Y0037766D02*
X0300822Y0037766D01*
X0301055Y0036167D02*
X0298969Y0036167D01*
X0298552Y0034569D02*
X0301348Y0034569D01*
X0300209Y0032970D02*
X0299691Y0032970D01*
X0299853Y0031372D02*
X0300047Y0031372D01*
X0300047Y0029773D02*
X0299853Y0029773D01*
X0299853Y0028175D02*
X0300047Y0028175D01*
X0300047Y0026576D02*
X0299853Y0026576D01*
X0299678Y0024978D02*
X0300222Y0024978D01*
X0301380Y0023379D02*
X0298520Y0023379D01*
X0299159Y0020182D02*
X0300741Y0020182D01*
X0300047Y0018584D02*
X0299853Y0018584D01*
X0299853Y0016985D02*
X0300047Y0016985D01*
X0300047Y0015387D02*
X0299853Y0015387D01*
X0287547Y0015387D02*
X0287353Y0015387D01*
X0287353Y0016985D02*
X0287547Y0016985D01*
X0287547Y0018584D02*
X0287353Y0018584D01*
X0286659Y0020182D02*
X0288241Y0020182D01*
X0288880Y0023379D02*
X0286020Y0023379D01*
X0287178Y0024978D02*
X0287722Y0024978D01*
X0287547Y0026576D02*
X0287353Y0026576D01*
X0287353Y0028175D02*
X0287547Y0028175D01*
X0287547Y0029773D02*
X0287353Y0029773D01*
X0287353Y0031372D02*
X0287547Y0031372D01*
X0287709Y0032970D02*
X0287191Y0032970D01*
X0286052Y0034569D02*
X0288848Y0034569D01*
X0288431Y0036167D02*
X0285200Y0036167D01*
X0285200Y0037766D02*
X0288322Y0037766D01*
X0288651Y0039364D02*
X0285200Y0039364D01*
X0285200Y0040963D02*
X0289557Y0040963D01*
X0291866Y0042561D02*
X0285200Y0042561D01*
X0277200Y0042561D02*
X0272700Y0042561D01*
X0272700Y0040963D02*
X0277200Y0040963D01*
X0277200Y0039364D02*
X0272700Y0039364D01*
X0272700Y0037766D02*
X0277200Y0037766D01*
X0277200Y0036167D02*
X0272700Y0036167D01*
X0273552Y0034569D02*
X0276348Y0034569D01*
X0275209Y0032970D02*
X0274691Y0032970D01*
X0274853Y0031372D02*
X0275047Y0031372D01*
X0275047Y0029773D02*
X0274853Y0029773D01*
X0274853Y0028175D02*
X0275047Y0028175D01*
X0275047Y0026576D02*
X0274853Y0026576D01*
X0274678Y0024978D02*
X0275222Y0024978D01*
X0276380Y0023379D02*
X0273520Y0023379D01*
X0274159Y0020182D02*
X0275741Y0020182D01*
X0275047Y0018584D02*
X0274853Y0018584D01*
X0274853Y0016985D02*
X0275047Y0016985D01*
X0275047Y0015387D02*
X0274853Y0015387D01*
X0262547Y0015387D02*
X0262353Y0015387D01*
X0262353Y0016985D02*
X0262547Y0016985D01*
X0262547Y0018584D02*
X0262353Y0018584D01*
X0261659Y0020182D02*
X0263241Y0020182D01*
X0263880Y0023379D02*
X0261020Y0023379D01*
X0262178Y0024978D02*
X0262722Y0024978D01*
X0262547Y0026576D02*
X0262353Y0026576D01*
X0262353Y0028175D02*
X0262547Y0028175D01*
X0262547Y0029773D02*
X0262353Y0029773D01*
X0262353Y0031372D02*
X0262547Y0031372D01*
X0262709Y0032970D02*
X0262191Y0032970D01*
X0261052Y0034569D02*
X0263848Y0034569D01*
X0264700Y0036167D02*
X0260200Y0036167D01*
X0260200Y0037766D02*
X0264700Y0037766D01*
X0264700Y0039364D02*
X0260200Y0039364D01*
X0260200Y0040963D02*
X0264700Y0040963D01*
X0264700Y0042561D02*
X0260200Y0042561D01*
X0260200Y0044160D02*
X0264700Y0044160D01*
X0264700Y0045758D02*
X0260200Y0045758D01*
X0260200Y0047357D02*
X0264700Y0047357D01*
X0264688Y0048955D02*
X0260051Y0048955D01*
X0259103Y0050554D02*
X0263089Y0050554D01*
X0261491Y0052152D02*
X0257504Y0052152D01*
X0256200Y0047800D02*
X0256200Y0028990D01*
X0250047Y0029773D02*
X0249853Y0029773D01*
X0249853Y0028175D02*
X0250047Y0028175D01*
X0250047Y0026576D02*
X0249853Y0026576D01*
X0249678Y0024978D02*
X0250222Y0024978D01*
X0251380Y0023379D02*
X0248520Y0023379D01*
X0249159Y0020182D02*
X0250741Y0020182D01*
X0250047Y0018584D02*
X0249853Y0018584D01*
X0249853Y0016985D02*
X0250047Y0016985D01*
X0250047Y0015387D02*
X0249853Y0015387D01*
X0237547Y0015387D02*
X0237353Y0015387D01*
X0237353Y0016985D02*
X0237547Y0016985D01*
X0237547Y0018584D02*
X0237353Y0018584D01*
X0236659Y0020182D02*
X0238241Y0020182D01*
X0238880Y0023379D02*
X0236020Y0023379D01*
X0237178Y0024978D02*
X0237722Y0024978D01*
X0237547Y0026576D02*
X0237353Y0026576D01*
X0237353Y0028175D02*
X0237547Y0028175D01*
X0237547Y0029773D02*
X0237353Y0029773D01*
X0237353Y0031372D02*
X0237547Y0031372D01*
X0237709Y0032970D02*
X0237191Y0032970D01*
X0236052Y0034569D02*
X0238848Y0034569D01*
X0239700Y0036167D02*
X0235200Y0036167D01*
X0235200Y0037766D02*
X0239700Y0037766D01*
X0239700Y0039364D02*
X0235200Y0039364D01*
X0235200Y0040963D02*
X0239700Y0040963D01*
X0239700Y0042561D02*
X0235200Y0042561D01*
X0235200Y0044160D02*
X0239683Y0044160D01*
X0238085Y0045758D02*
X0234926Y0045758D01*
X0231200Y0044300D02*
X0227300Y0048200D01*
X0191700Y0048200D01*
X0189200Y0050700D01*
X0189200Y0077000D01*
X0181200Y0077500D02*
X0181200Y0028990D01*
X0187353Y0029773D02*
X0187547Y0029773D01*
X0187547Y0028175D02*
X0187353Y0028175D01*
X0187353Y0026576D02*
X0187547Y0026576D01*
X0187547Y0031372D02*
X0187353Y0031372D01*
X0187191Y0032970D02*
X0187709Y0032970D01*
X0188848Y0034569D02*
X0186052Y0034569D01*
X0177200Y0034972D02*
X0176435Y0034655D01*
X0175534Y0033755D01*
X0175047Y0032579D01*
X0175047Y0026100D01*
X0174853Y0026100D01*
X0174853Y0032579D01*
X0174366Y0033755D01*
X0173465Y0034655D01*
X0172700Y0034972D01*
X0172700Y0046496D01*
X0172091Y0047966D01*
X0170966Y0049091D01*
X0160000Y0060057D01*
X0160000Y0070575D01*
X0160013Y0070587D01*
X0160500Y0071763D01*
X0160500Y0078900D01*
X0175959Y0078900D01*
X0175822Y0078570D01*
X0175822Y0076430D01*
X0176641Y0074454D01*
X0177200Y0073894D01*
X0177200Y0034972D01*
X0176348Y0034569D02*
X0173552Y0034569D01*
X0172700Y0036167D02*
X0177200Y0036167D01*
X0177200Y0037766D02*
X0172700Y0037766D01*
X0172700Y0039364D02*
X0177200Y0039364D01*
X0177200Y0040963D02*
X0172700Y0040963D01*
X0172700Y0042561D02*
X0177200Y0042561D01*
X0177200Y0044160D02*
X0172700Y0044160D01*
X0172700Y0045758D02*
X0177200Y0045758D01*
X0177200Y0047357D02*
X0172343Y0047357D01*
X0171102Y0048955D02*
X0177200Y0048955D01*
X0177200Y0050554D02*
X0169503Y0050554D01*
X0167904Y0052152D02*
X0177200Y0052152D01*
X0177200Y0053751D02*
X0166306Y0053751D01*
X0164707Y0055349D02*
X0177200Y0055349D01*
X0177200Y0056948D02*
X0163109Y0056948D01*
X0161510Y0058546D02*
X0177200Y0058546D01*
X0177200Y0060145D02*
X0160000Y0060145D01*
X0160000Y0061743D02*
X0177200Y0061743D01*
X0177200Y0063342D02*
X0160000Y0063342D01*
X0160000Y0064940D02*
X0177200Y0064940D01*
X0177200Y0066539D02*
X0160000Y0066539D01*
X0160000Y0068137D02*
X0177200Y0068137D01*
X0177200Y0069736D02*
X0160000Y0069736D01*
X0160322Y0071334D02*
X0177200Y0071334D01*
X0177200Y0072933D02*
X0160500Y0072933D01*
X0161000Y0072400D02*
X0165500Y0067900D01*
X0161000Y0072400D02*
X0161000Y0076400D01*
X0160500Y0076130D02*
X0175946Y0076130D01*
X0175822Y0077729D02*
X0160500Y0077729D01*
X0156000Y0076400D02*
X0156000Y0058400D01*
X0168700Y0045700D01*
X0168700Y0028990D01*
X0174853Y0029773D02*
X0175047Y0029773D01*
X0175047Y0028175D02*
X0174853Y0028175D01*
X0174853Y0026576D02*
X0175047Y0026576D01*
X0175047Y0031372D02*
X0174853Y0031372D01*
X0174691Y0032970D02*
X0175209Y0032970D01*
X0162000Y0038700D02*
X0162000Y0045700D01*
X0146000Y0061700D01*
X0146000Y0076400D01*
X0141000Y0076400D02*
X0141000Y0062600D01*
X0156200Y0047400D01*
X0156200Y0028990D01*
X0185100Y0047800D02*
X0188200Y0044700D01*
X0185100Y0047800D02*
X0185100Y0081500D01*
X0183700Y0082900D01*
X0152300Y0082900D01*
X0151000Y0081600D01*
X0151000Y0076400D01*
X0160500Y0074532D02*
X0176609Y0074532D01*
X0198500Y0076400D02*
X0198500Y0056000D01*
X0203500Y0054900D02*
X0203500Y0076400D01*
X0208500Y0076400D02*
X0208500Y0089100D01*
X0211000Y0091600D01*
X0223300Y0091600D01*
X0228500Y0091300D02*
X0230800Y0089000D01*
X0260200Y0089000D01*
X0264000Y0085200D01*
X0264000Y0062700D01*
X0281200Y0045500D01*
X0281200Y0028990D01*
X0293700Y0028990D02*
X0293700Y0037500D01*
X0306200Y0037800D02*
X0306200Y0028990D01*
X0318700Y0028990D02*
X0318700Y0042700D01*
X0324078Y0042561D02*
X0324282Y0042561D01*
X0323801Y0040963D02*
X0325880Y0040963D01*
X0327200Y0039364D02*
X0322970Y0039364D01*
X0322700Y0037766D02*
X0327200Y0037766D01*
X0327200Y0036167D02*
X0322700Y0036167D01*
X0323552Y0034569D02*
X0326348Y0034569D01*
X0325209Y0032970D02*
X0324691Y0032970D01*
X0324853Y0031372D02*
X0325047Y0031372D01*
X0335200Y0036167D02*
X0339700Y0036167D01*
X0339700Y0037766D02*
X0335200Y0037766D01*
X0335200Y0039364D02*
X0339679Y0039364D01*
X0338080Y0040963D02*
X0335200Y0040963D01*
X0335007Y0042561D02*
X0336482Y0042561D01*
X0334883Y0044160D02*
X0333997Y0044160D01*
X0335400Y0049300D02*
X0343700Y0041000D01*
X0343700Y0028990D01*
X0349853Y0029773D02*
X0350047Y0029773D01*
X0350047Y0028175D02*
X0349853Y0028175D01*
X0349853Y0026576D02*
X0350047Y0026576D01*
X0350222Y0024978D02*
X0349678Y0024978D01*
X0348520Y0023379D02*
X0351380Y0023379D01*
X0350741Y0020182D02*
X0349159Y0020182D01*
X0349853Y0018584D02*
X0350047Y0018584D01*
X0350047Y0016985D02*
X0349853Y0016985D01*
X0349853Y0015387D02*
X0350047Y0015387D01*
X0337547Y0015387D02*
X0337353Y0015387D01*
X0337353Y0016985D02*
X0337547Y0016985D01*
X0337547Y0018584D02*
X0337353Y0018584D01*
X0336659Y0020182D02*
X0338241Y0020182D01*
X0338880Y0023379D02*
X0336020Y0023379D01*
X0337178Y0024978D02*
X0337722Y0024978D01*
X0337547Y0026576D02*
X0337353Y0026576D01*
X0337353Y0028175D02*
X0337547Y0028175D01*
X0337547Y0029773D02*
X0337353Y0029773D01*
X0337353Y0031372D02*
X0337547Y0031372D01*
X0337709Y0032970D02*
X0337191Y0032970D01*
X0336052Y0034569D02*
X0338848Y0034569D01*
X0347700Y0036167D02*
X0352200Y0036167D01*
X0352200Y0037766D02*
X0347700Y0037766D01*
X0347700Y0039364D02*
X0352200Y0039364D01*
X0352200Y0040963D02*
X0347700Y0040963D01*
X0347383Y0042561D02*
X0350882Y0042561D01*
X0349283Y0044160D02*
X0346197Y0044160D01*
X0347685Y0045758D02*
X0344599Y0045758D01*
X0346086Y0047357D02*
X0343000Y0047357D01*
X0347200Y0051900D02*
X0356200Y0042900D01*
X0356200Y0028990D01*
X0350047Y0031372D02*
X0349853Y0031372D01*
X0349691Y0032970D02*
X0350209Y0032970D01*
X0351348Y0034569D02*
X0348552Y0034569D01*
X0360200Y0036167D02*
X0364700Y0036167D01*
X0364700Y0037766D02*
X0360200Y0037766D01*
X0360200Y0039364D02*
X0364700Y0039364D01*
X0364280Y0040963D02*
X0360200Y0040963D01*
X0360200Y0042561D02*
X0362682Y0042561D01*
X0361083Y0044160D02*
X0360008Y0044160D01*
X0359485Y0045758D02*
X0358999Y0045758D01*
X0357886Y0047357D02*
X0357400Y0047357D01*
X0356288Y0048955D02*
X0355802Y0048955D01*
X0347200Y0051900D02*
X0291700Y0051900D01*
X0288500Y0055100D01*
X0288500Y0076400D01*
X0293500Y0076400D02*
X0293500Y0059200D01*
X0303500Y0059000D02*
X0308000Y0054500D01*
X0356400Y0054500D01*
X0368700Y0042200D01*
X0368700Y0028990D01*
X0374853Y0029773D02*
X0375047Y0029773D01*
X0375047Y0028175D02*
X0374853Y0028175D01*
X0374853Y0026576D02*
X0375047Y0026576D01*
X0375222Y0024978D02*
X0374678Y0024978D01*
X0373520Y0023379D02*
X0376380Y0023379D01*
X0375741Y0020182D02*
X0374159Y0020182D01*
X0374853Y0018584D02*
X0375047Y0018584D01*
X0375047Y0016985D02*
X0374853Y0016985D01*
X0374853Y0015387D02*
X0375047Y0015387D01*
X0362547Y0015387D02*
X0362353Y0015387D01*
X0362353Y0016985D02*
X0362547Y0016985D01*
X0362547Y0018584D02*
X0362353Y0018584D01*
X0361659Y0020182D02*
X0363241Y0020182D01*
X0363880Y0023379D02*
X0361020Y0023379D01*
X0362178Y0024978D02*
X0362722Y0024978D01*
X0362547Y0026576D02*
X0362353Y0026576D01*
X0362353Y0028175D02*
X0362547Y0028175D01*
X0362547Y0029773D02*
X0362353Y0029773D01*
X0362353Y0031372D02*
X0362547Y0031372D01*
X0362709Y0032970D02*
X0362191Y0032970D01*
X0361052Y0034569D02*
X0363848Y0034569D01*
X0372700Y0036167D02*
X0377200Y0036167D01*
X0377200Y0037766D02*
X0372700Y0037766D01*
X0372700Y0039364D02*
X0377200Y0039364D01*
X0377200Y0040963D02*
X0372700Y0040963D01*
X0372700Y0042561D02*
X0377200Y0042561D01*
X0377200Y0044160D02*
X0372218Y0044160D01*
X0370799Y0045758D02*
X0377200Y0045758D01*
X0377200Y0047357D02*
X0369200Y0047357D01*
X0367602Y0048955D02*
X0377200Y0048955D01*
X0377200Y0050554D02*
X0366003Y0050554D01*
X0364404Y0052152D02*
X0377200Y0052152D01*
X0377200Y0053751D02*
X0362806Y0053751D01*
X0361207Y0055349D02*
X0377200Y0055349D01*
X0377200Y0056948D02*
X0359609Y0056948D01*
X0377200Y0058546D02*
X0309610Y0058546D01*
X0308012Y0060145D02*
X0377200Y0060145D01*
X0377200Y0061743D02*
X0307500Y0061743D01*
X0307500Y0063342D02*
X0377200Y0063342D01*
X0377200Y0064940D02*
X0307500Y0064940D01*
X0307500Y0066539D02*
X0377104Y0066539D01*
X0375506Y0068137D02*
X0307500Y0068137D01*
X0307500Y0069736D02*
X0373907Y0069736D01*
X0372309Y0071334D02*
X0307822Y0071334D01*
X0308000Y0072933D02*
X0370710Y0072933D01*
X0369112Y0074532D02*
X0308000Y0074532D01*
X0308000Y0076130D02*
X0367513Y0076130D01*
X0365915Y0077729D02*
X0308000Y0077729D01*
X0308000Y0079327D02*
X0364316Y0079327D01*
X0362718Y0080926D02*
X0308000Y0080926D01*
X0307201Y0082524D02*
X0361119Y0082524D01*
X0362500Y0086800D02*
X0381200Y0068100D01*
X0381200Y0028990D01*
X0375047Y0031372D02*
X0374853Y0031372D01*
X0374691Y0032970D02*
X0375209Y0032970D01*
X0376348Y0034569D02*
X0373552Y0034569D01*
X0385200Y0036167D02*
X0389700Y0036167D01*
X0389700Y0034972D02*
X0388935Y0034655D01*
X0388034Y0033755D01*
X0387547Y0032579D01*
X0387547Y0025400D01*
X0388034Y0024224D01*
X0388935Y0023324D01*
X0390111Y0022837D01*
X0397289Y0022837D01*
X0398465Y0023324D01*
X0399366Y0024224D01*
X0399853Y0025400D01*
X0399853Y0032579D01*
X0399366Y0033755D01*
X0398465Y0034655D01*
X0397700Y0034972D01*
X0397700Y0050096D01*
X0397091Y0051566D01*
X0396178Y0052479D01*
X0396178Y0053270D01*
X0395359Y0055246D01*
X0393846Y0056759D01*
X0391870Y0057578D01*
X0389730Y0057578D01*
X0387754Y0056759D01*
X0386241Y0055246D01*
X0385422Y0053270D01*
X0385422Y0051130D01*
X0386241Y0049154D01*
X0387754Y0047641D01*
X0389700Y0046835D01*
X0389700Y0034972D01*
X0388848Y0034569D02*
X0386052Y0034569D01*
X0387191Y0032970D02*
X0387709Y0032970D01*
X0387547Y0031372D02*
X0387353Y0031372D01*
X0387353Y0029773D02*
X0387547Y0029773D01*
X0387547Y0028175D02*
X0387353Y0028175D01*
X0387353Y0026576D02*
X0387547Y0026576D01*
X0387722Y0024978D02*
X0387178Y0024978D01*
X0386020Y0023379D02*
X0388880Y0023379D01*
X0388241Y0020182D02*
X0386659Y0020182D01*
X0387353Y0018584D02*
X0387547Y0018584D01*
X0387547Y0016985D02*
X0387353Y0016985D01*
X0387353Y0015387D02*
X0387547Y0015387D01*
X0399853Y0015387D02*
X0400047Y0015387D01*
X0400047Y0016985D02*
X0399853Y0016985D01*
X0399853Y0018584D02*
X0400047Y0018584D01*
X0400741Y0020182D02*
X0399159Y0020182D01*
X0398520Y0023379D02*
X0401380Y0023379D01*
X0401435Y0023324D02*
X0402611Y0022837D01*
X0409789Y0022837D01*
X0410965Y0023324D01*
X0411866Y0024224D01*
X0412353Y0025400D01*
X0412353Y0032579D01*
X0411866Y0033755D01*
X0410965Y0034655D01*
X0410100Y0035014D01*
X0410100Y0049594D01*
X0410659Y0050154D01*
X0411478Y0052130D01*
X0411478Y0054270D01*
X0410659Y0056246D01*
X0409146Y0057759D01*
X0407170Y0058578D01*
X0405030Y0058578D01*
X0403054Y0057759D01*
X0401541Y0056246D01*
X0400722Y0054270D01*
X0400722Y0052130D01*
X0401541Y0050154D01*
X0402100Y0049594D01*
X0402100Y0034931D01*
X0401435Y0034655D01*
X0400534Y0033755D01*
X0400047Y0032579D01*
X0400047Y0025400D01*
X0400534Y0024224D01*
X0401435Y0023324D01*
X0400222Y0024978D02*
X0399678Y0024978D01*
X0399853Y0026576D02*
X0400047Y0026576D01*
X0400047Y0028175D02*
X0399853Y0028175D01*
X0399853Y0029773D02*
X0400047Y0029773D01*
X0400047Y0031372D02*
X0399853Y0031372D01*
X0399691Y0032970D02*
X0400209Y0032970D01*
X0401348Y0034569D02*
X0398552Y0034569D01*
X0397700Y0036167D02*
X0402100Y0036167D01*
X0402100Y0037766D02*
X0397700Y0037766D01*
X0397700Y0039364D02*
X0402100Y0039364D01*
X0402100Y0040963D02*
X0397700Y0040963D01*
X0397700Y0042561D02*
X0402100Y0042561D01*
X0402100Y0044160D02*
X0397700Y0044160D01*
X0397700Y0045758D02*
X0402100Y0045758D01*
X0402100Y0047357D02*
X0397700Y0047357D01*
X0397700Y0048955D02*
X0402100Y0048955D01*
X0401375Y0050554D02*
X0397510Y0050554D01*
X0396504Y0052152D02*
X0400722Y0052152D01*
X0400722Y0053751D02*
X0395979Y0053751D01*
X0395256Y0055349D02*
X0401169Y0055349D01*
X0402242Y0056948D02*
X0393391Y0056948D01*
X0388209Y0056948D02*
X0385200Y0056948D01*
X0385200Y0058546D02*
X0404954Y0058546D01*
X0407246Y0058546D02*
X0415341Y0058546D01*
X0415754Y0058959D02*
X0414241Y0057446D01*
X0413422Y0055470D01*
X0413422Y0053330D01*
X0414241Y0051354D01*
X0414800Y0050794D01*
X0414800Y0035014D01*
X0413935Y0034655D01*
X0413034Y0033755D01*
X0412547Y0032579D01*
X0412547Y0025400D01*
X0413034Y0024224D01*
X0413935Y0023324D01*
X0415111Y0022837D01*
X0422289Y0022837D01*
X0423465Y0023324D01*
X0424366Y0024224D01*
X0424853Y0025400D01*
X0424853Y0032579D01*
X0424366Y0033755D01*
X0423465Y0034655D01*
X0422800Y0034931D01*
X0422800Y0050794D01*
X0423359Y0051354D01*
X0424178Y0053330D01*
X0424178Y0055470D01*
X0423359Y0057446D01*
X0421846Y0058959D01*
X0419870Y0059778D01*
X0417730Y0059778D01*
X0415754Y0058959D01*
X0414034Y0056948D02*
X0409958Y0056948D01*
X0411031Y0055349D02*
X0413422Y0055349D01*
X0413422Y0053751D02*
X0411478Y0053751D01*
X0411478Y0052152D02*
X0413910Y0052152D01*
X0414800Y0050554D02*
X0410825Y0050554D01*
X0410100Y0048955D02*
X0414800Y0048955D01*
X0414800Y0047357D02*
X0410100Y0047357D01*
X0410100Y0045758D02*
X0414800Y0045758D01*
X0414800Y0044160D02*
X0410100Y0044160D01*
X0410100Y0042561D02*
X0414800Y0042561D01*
X0414800Y0040963D02*
X0410100Y0040963D01*
X0410100Y0039364D02*
X0414800Y0039364D01*
X0414800Y0037766D02*
X0410100Y0037766D01*
X0410100Y0036167D02*
X0414800Y0036167D01*
X0413848Y0034569D02*
X0411052Y0034569D01*
X0412191Y0032970D02*
X0412709Y0032970D01*
X0412547Y0031372D02*
X0412353Y0031372D01*
X0412353Y0029773D02*
X0412547Y0029773D01*
X0412547Y0028175D02*
X0412353Y0028175D01*
X0412353Y0026576D02*
X0412547Y0026576D01*
X0412722Y0024978D02*
X0412178Y0024978D01*
X0411020Y0023379D02*
X0413880Y0023379D01*
X0413241Y0020182D02*
X0411659Y0020182D01*
X0412353Y0018584D02*
X0412547Y0018584D01*
X0412547Y0016985D02*
X0412353Y0016985D01*
X0412353Y0015387D02*
X0412547Y0015387D01*
X0424853Y0015387D02*
X0425047Y0015387D01*
X0425047Y0016985D02*
X0424853Y0016985D01*
X0424853Y0018584D02*
X0425047Y0018584D01*
X0425741Y0020182D02*
X0424159Y0020182D01*
X0423520Y0023379D02*
X0426380Y0023379D01*
X0425222Y0024978D02*
X0424678Y0024978D01*
X0424853Y0026576D02*
X0425047Y0026576D01*
X0425047Y0028175D02*
X0424853Y0028175D01*
X0424853Y0029773D02*
X0425047Y0029773D01*
X0425047Y0031372D02*
X0424853Y0031372D01*
X0424691Y0032970D02*
X0425209Y0032970D01*
X0426348Y0034569D02*
X0423552Y0034569D01*
X0422800Y0036167D02*
X0427100Y0036167D01*
X0427100Y0037766D02*
X0422800Y0037766D01*
X0422800Y0039364D02*
X0427100Y0039364D01*
X0427100Y0040963D02*
X0422800Y0040963D01*
X0422800Y0042561D02*
X0427100Y0042561D01*
X0427100Y0044160D02*
X0422800Y0044160D01*
X0422800Y0045758D02*
X0427100Y0045758D01*
X0427100Y0047357D02*
X0422800Y0047357D01*
X0422800Y0048955D02*
X0427100Y0048955D01*
X0427100Y0050554D02*
X0422800Y0050554D01*
X0423690Y0052152D02*
X0427100Y0052152D01*
X0427100Y0053751D02*
X0424178Y0053751D01*
X0424178Y0055349D02*
X0427100Y0055349D01*
X0427100Y0056948D02*
X0423566Y0056948D01*
X0422259Y0058546D02*
X0427100Y0058546D01*
X0427100Y0060145D02*
X0385200Y0060145D01*
X0385200Y0061743D02*
X0427100Y0061743D01*
X0427100Y0063342D02*
X0385200Y0063342D01*
X0385200Y0064940D02*
X0427100Y0064940D01*
X0427100Y0066539D02*
X0385200Y0066539D01*
X0385200Y0068137D02*
X0427100Y0068137D01*
X0427100Y0069736D02*
X0384852Y0069736D01*
X0383622Y0071334D02*
X0427100Y0071334D01*
X0427100Y0072933D02*
X0382024Y0072933D01*
X0380425Y0074532D02*
X0427100Y0074532D01*
X0426213Y0076130D02*
X0378827Y0076130D01*
X0377228Y0077729D02*
X0424615Y0077729D01*
X0423016Y0079327D02*
X0375630Y0079327D01*
X0374031Y0080926D02*
X0421418Y0080926D01*
X0419819Y0082524D02*
X0372433Y0082524D01*
X0370834Y0084123D02*
X0418221Y0084123D01*
X0426337Y0087320D02*
X0496200Y0087320D01*
X0496200Y0088918D02*
X0424739Y0088918D01*
X0423140Y0090517D02*
X0496200Y0090517D01*
X0496200Y0092115D02*
X0421542Y0092115D01*
X0418300Y0089700D02*
X0431100Y0076900D01*
X0431100Y0029090D01*
X0431200Y0028990D01*
X0437353Y0029773D02*
X0475993Y0029773D01*
X0477400Y0030896D02*
X0477400Y0030896D01*
X0478613Y0031372D02*
X0437353Y0031372D01*
X0437191Y0032970D02*
X0484861Y0032970D01*
X0487285Y0033152D02*
X0487285Y0033152D01*
X0488081Y0032970D02*
X0496200Y0032970D01*
X0496200Y0031372D02*
X0493391Y0031372D01*
X0496160Y0029773D02*
X0496200Y0029773D01*
X0496200Y0034569D02*
X0436052Y0034569D01*
X0435100Y0036167D02*
X0496200Y0036167D01*
X0496200Y0037766D02*
X0435100Y0037766D01*
X0435100Y0039364D02*
X0496200Y0039364D01*
X0496200Y0040963D02*
X0435100Y0040963D01*
X0435100Y0042561D02*
X0496200Y0042561D01*
X0496200Y0044160D02*
X0435100Y0044160D01*
X0435100Y0045758D02*
X0496200Y0045758D01*
X0496200Y0047357D02*
X0435100Y0047357D01*
X0435100Y0048955D02*
X0496200Y0048955D01*
X0496200Y0050554D02*
X0435100Y0050554D01*
X0435100Y0052152D02*
X0496200Y0052152D01*
X0496200Y0053751D02*
X0435100Y0053751D01*
X0435100Y0055349D02*
X0496200Y0055349D01*
X0496200Y0056948D02*
X0435100Y0056948D01*
X0435100Y0058546D02*
X0496200Y0058546D01*
X0496200Y0060145D02*
X0435100Y0060145D01*
X0435100Y0061743D02*
X0496200Y0061743D01*
X0496200Y0063342D02*
X0435100Y0063342D01*
X0435100Y0064940D02*
X0496200Y0064940D01*
X0496200Y0066539D02*
X0435100Y0066539D01*
X0435100Y0068137D02*
X0496200Y0068137D01*
X0496200Y0069736D02*
X0435100Y0069736D01*
X0435100Y0071334D02*
X0496200Y0071334D01*
X0496200Y0072933D02*
X0435100Y0072933D01*
X0435100Y0074532D02*
X0496200Y0074532D01*
X0496200Y0076130D02*
X0435100Y0076130D01*
X0435086Y0077729D02*
X0496200Y0077729D01*
X0496200Y0079327D02*
X0434330Y0079327D01*
X0432731Y0080926D02*
X0496200Y0080926D01*
X0496200Y0082524D02*
X0431133Y0082524D01*
X0429534Y0084123D02*
X0496200Y0084123D01*
X0496200Y0085721D02*
X0427936Y0085721D01*
X0418300Y0089700D02*
X0310600Y0089700D01*
X0308500Y0091800D01*
X0308500Y0100600D01*
X0303500Y0100600D02*
X0303500Y0088500D01*
X0305200Y0086800D01*
X0362500Y0086800D01*
X0395100Y0110000D02*
X0408100Y0097000D01*
X0448000Y0097000D01*
X0452100Y0101100D01*
X0460500Y0101100D01*
X0460500Y0106100D02*
X0470100Y0106100D01*
X0472800Y0108800D01*
X0472800Y0143400D01*
X0468500Y0147700D01*
X0401900Y0147700D01*
X0397200Y0143000D01*
X0397200Y0121300D01*
X0394900Y0119000D01*
X0220300Y0119000D01*
X0218100Y0116800D01*
X0223500Y0104700D02*
X0223500Y0100600D01*
X0223500Y0099900D01*
X0223000Y0099400D01*
X0228500Y0100600D02*
X0228500Y0091300D01*
X0226724Y0087419D02*
X0227409Y0086734D01*
X0228534Y0085609D01*
X0230004Y0085000D01*
X0258543Y0085000D01*
X0260000Y0083543D01*
X0260000Y0061904D01*
X0260609Y0060434D01*
X0260743Y0060300D01*
X0232500Y0060300D01*
X0232500Y0070575D01*
X0232513Y0070587D01*
X0233000Y0071763D01*
X0233000Y0081037D01*
X0232513Y0082213D01*
X0231613Y0083113D01*
X0230437Y0083600D01*
X0226563Y0083600D01*
X0226000Y0083367D01*
X0225437Y0083600D01*
X0221563Y0083600D01*
X0221000Y0083367D01*
X0220437Y0083600D01*
X0216563Y0083600D01*
X0216000Y0083367D01*
X0215437Y0083600D01*
X0212500Y0083600D01*
X0212500Y0087443D01*
X0212657Y0087600D01*
X0219694Y0087600D01*
X0220254Y0087041D01*
X0222230Y0086222D01*
X0224370Y0086222D01*
X0226346Y0087041D01*
X0226724Y0087419D01*
X0226625Y0087320D02*
X0226824Y0087320D01*
X0228422Y0085721D02*
X0212500Y0085721D01*
X0212500Y0084123D02*
X0259421Y0084123D01*
X0260000Y0082524D02*
X0232201Y0082524D01*
X0233000Y0080926D02*
X0260000Y0080926D01*
X0260000Y0079327D02*
X0233000Y0079327D01*
X0233000Y0077729D02*
X0260000Y0077729D01*
X0260000Y0076130D02*
X0233000Y0076130D01*
X0233500Y0076400D02*
X0233600Y0076400D01*
X0244700Y0065300D01*
X0232500Y0064940D02*
X0260000Y0064940D01*
X0260000Y0063342D02*
X0232500Y0063342D01*
X0232500Y0061743D02*
X0260067Y0061743D01*
X0260000Y0066539D02*
X0232500Y0066539D01*
X0232500Y0068137D02*
X0260000Y0068137D01*
X0260000Y0069736D02*
X0232500Y0069736D01*
X0232822Y0071334D02*
X0260000Y0071334D01*
X0260000Y0072933D02*
X0233000Y0072933D01*
X0233000Y0074532D02*
X0260000Y0074532D01*
X0273500Y0076400D02*
X0273500Y0064800D01*
X0278500Y0055700D02*
X0284900Y0049300D01*
X0335400Y0049300D01*
X0303500Y0059000D02*
X0303500Y0076400D01*
X0298500Y0076400D02*
X0298500Y0064500D01*
X0278500Y0055700D02*
X0278500Y0076400D01*
X0270700Y0084123D02*
X0302221Y0084123D01*
X0300622Y0085721D02*
X0270700Y0085721D01*
X0270700Y0087320D02*
X0297295Y0087320D01*
X0294676Y0088918D02*
X0281824Y0088918D01*
X0283210Y0090517D02*
X0293642Y0090517D01*
X0293222Y0092115D02*
X0283872Y0092115D01*
X0286194Y0093714D02*
X0290806Y0093714D01*
X0289270Y0095312D02*
X0287730Y0095312D01*
X0288000Y0096911D02*
X0289000Y0096911D01*
X0289000Y0098509D02*
X0288000Y0098509D01*
X0288000Y0100108D02*
X0289000Y0100108D01*
X0288500Y0100600D02*
X0288500Y0086600D01*
X0288400Y0086500D01*
X0298600Y0092600D02*
X0298600Y0100500D01*
X0298500Y0100600D01*
X0289000Y0101706D02*
X0288000Y0101706D01*
X0288000Y0103305D02*
X0289000Y0103305D01*
X0289000Y0104903D02*
X0288000Y0104903D01*
X0283500Y0107000D02*
X0286500Y0110000D01*
X0395100Y0110000D01*
X0408700Y0106100D02*
X0436300Y0106100D01*
X0430487Y0102087D02*
X0430475Y0102100D01*
X0412306Y0102100D01*
X0411746Y0101541D01*
X0410441Y0101000D01*
X0446343Y0101000D01*
X0448709Y0103366D01*
X0449834Y0104491D01*
X0451304Y0105100D01*
X0453300Y0105100D01*
X0453300Y0107100D01*
X0443500Y0107100D01*
X0443500Y0104163D01*
X0443013Y0102987D01*
X0442113Y0102087D01*
X0440937Y0101600D01*
X0431663Y0101600D01*
X0430487Y0102087D01*
X0431407Y0101706D02*
X0411912Y0101706D01*
X0436300Y0101100D02*
X0444200Y0101100D01*
X0446300Y0103200D01*
X0447049Y0101706D02*
X0441193Y0101706D01*
X0443144Y0103305D02*
X0448648Y0103305D01*
X0450829Y0104903D02*
X0443500Y0104903D01*
X0443500Y0106502D02*
X0453300Y0106502D01*
X0449500Y0111100D02*
X0448500Y0112100D01*
X0448500Y0124300D01*
X0446700Y0126100D01*
X0436300Y0126100D01*
X0426400Y0126100D01*
X0436200Y0121000D02*
X0414300Y0121000D01*
X0408700Y0116100D02*
X0436300Y0116100D01*
X0436300Y0111100D02*
X0449500Y0111100D01*
X0460500Y0111100D01*
X0474560Y0104903D02*
X0496200Y0104903D01*
X0496200Y0103305D02*
X0472962Y0103305D01*
X0467700Y0101706D02*
X0496200Y0101706D01*
X0496200Y0100108D02*
X0467700Y0100108D01*
X0467429Y0098509D02*
X0496200Y0098509D01*
X0496200Y0096911D02*
X0465887Y0096911D01*
X0455113Y0096911D02*
X0453568Y0096911D01*
X0451969Y0095312D02*
X0496200Y0095312D01*
X0496200Y0093714D02*
X0450371Y0093714D01*
X0476159Y0106502D02*
X0496200Y0106502D01*
X0496200Y0108100D02*
X0476800Y0108100D01*
X0476800Y0109699D02*
X0496200Y0109699D01*
X0496200Y0111297D02*
X0476800Y0111297D01*
X0476800Y0112896D02*
X0496200Y0112896D01*
X0496200Y0114494D02*
X0476800Y0114494D01*
X0476800Y0116093D02*
X0496200Y0116093D01*
X0496200Y0117691D02*
X0476800Y0117691D01*
X0476800Y0119290D02*
X0496200Y0119290D01*
X0496200Y0120888D02*
X0476800Y0120888D01*
X0476800Y0122487D02*
X0496200Y0122487D01*
X0496200Y0124085D02*
X0476800Y0124085D01*
X0476800Y0125684D02*
X0496200Y0125684D01*
X0496200Y0127282D02*
X0476800Y0127282D01*
X0476800Y0128881D02*
X0496200Y0128881D01*
X0496200Y0130479D02*
X0476800Y0130479D01*
X0476800Y0132078D02*
X0496200Y0132078D01*
X0496200Y0133676D02*
X0476800Y0133676D01*
X0476800Y0135275D02*
X0496200Y0135275D01*
X0496200Y0136873D02*
X0476800Y0136873D01*
X0476800Y0138472D02*
X0496200Y0138472D01*
X0496200Y0140070D02*
X0476800Y0140070D01*
X0476800Y0141669D02*
X0496200Y0141669D01*
X0496200Y0143268D02*
X0476800Y0143268D01*
X0476522Y0144866D02*
X0496200Y0144866D01*
X0496200Y0146465D02*
X0475392Y0146465D01*
X0473794Y0148063D02*
X0496200Y0148063D01*
X0496200Y0149662D02*
X0472195Y0149662D01*
X0470358Y0151260D02*
X0496200Y0151260D01*
X0496200Y0152859D02*
X0334338Y0152859D01*
X0334338Y0154457D02*
X0496200Y0154457D01*
X0496200Y0156056D02*
X0334338Y0156056D01*
X0334338Y0157654D02*
X0496200Y0157654D01*
X0496200Y0159253D02*
X0334310Y0159253D01*
X0334338Y0160851D02*
X0496200Y0160851D01*
X0496200Y0162450D02*
X0334338Y0162450D01*
X0334338Y0164048D02*
X0496200Y0164048D01*
X0496200Y0165647D02*
X0334338Y0165647D01*
X0334338Y0167245D02*
X0496200Y0167245D01*
X0496200Y0168844D02*
X0334501Y0168844D01*
X0336099Y0170442D02*
X0479087Y0170442D01*
X0476226Y0172041D02*
X0337576Y0172041D01*
X0338098Y0173639D02*
X0474221Y0173639D01*
X0472753Y0175238D02*
X0339560Y0175238D01*
X0340448Y0176836D02*
X0471663Y0176836D01*
X0470573Y0178435D02*
X0340448Y0178435D01*
X0340448Y0180033D02*
X0470042Y0180033D01*
X0470503Y0178537D02*
X0470503Y0178537D01*
X0469549Y0181632D02*
X0340448Y0181632D01*
X0340448Y0183230D02*
X0469056Y0183230D01*
X0468992Y0184829D02*
X0392997Y0184829D01*
X0394572Y0186427D02*
X0468992Y0186427D01*
X0468992Y0188026D02*
X0395235Y0188026D01*
X0395500Y0189624D02*
X0469319Y0189624D01*
X0469812Y0191223D02*
X0395463Y0191223D01*
X0394801Y0192821D02*
X0470305Y0192821D01*
X0471156Y0194420D02*
X0393548Y0194420D01*
X0390730Y0196018D02*
X0472246Y0196018D01*
X0495838Y0172041D02*
X0496200Y0172041D01*
X0496200Y0170442D02*
X0493069Y0170442D01*
X0492284Y0169989D02*
X0492284Y0169989D01*
X0487285Y0168848D02*
X0487285Y0168848D01*
X0436300Y0131100D02*
X0417400Y0131100D01*
X0436200Y0121000D02*
X0436300Y0121100D01*
X0408700Y0116100D02*
X0408600Y0116200D01*
X0393200Y0124085D02*
X0368578Y0124085D01*
X0393200Y0135275D02*
X0249505Y0135275D01*
X0250361Y0136873D02*
X0252790Y0136873D01*
X0258500Y0141000D02*
X0244012Y0141000D01*
X0258500Y0141000D02*
X0258500Y0146000D01*
X0262476Y0149976D01*
X0276571Y0149976D01*
X0276571Y0153126D02*
X0261374Y0153126D01*
X0258500Y0156000D01*
X0258500Y0161000D01*
X0244012Y0161000D01*
X0250045Y0156056D02*
X0254126Y0156056D01*
X0254810Y0154457D02*
X0248282Y0154457D01*
X0264471Y0144866D02*
X0278194Y0144866D01*
X0278194Y0143268D02*
X0265606Y0143268D01*
X0266100Y0141669D02*
X0278194Y0141669D01*
X0278364Y0140070D02*
X0266100Y0140070D01*
X0265498Y0138472D02*
X0279514Y0138472D01*
X0264210Y0136873D02*
X0393200Y0136873D01*
X0393200Y0138472D02*
X0307486Y0138472D01*
X0308636Y0140070D02*
X0393200Y0140070D01*
X0393200Y0141669D02*
X0308806Y0141669D01*
X0308806Y0143268D02*
X0393200Y0143268D01*
X0393643Y0144866D02*
X0308806Y0144866D01*
X0315478Y0146465D02*
X0395008Y0146465D01*
X0396606Y0148063D02*
X0333770Y0148063D01*
X0334338Y0149662D02*
X0398205Y0149662D01*
X0400042Y0151260D02*
X0334338Y0151260D01*
X0327988Y0153500D02*
X0327614Y0153126D01*
X0310429Y0153126D01*
X0291650Y0153126D01*
X0288500Y0156276D01*
X0288776Y0156276D01*
X0291925Y0159425D01*
X0310429Y0159425D01*
X0316925Y0159425D01*
X0321000Y0163500D01*
X0327988Y0163500D01*
X0327988Y0167988D01*
X0334098Y0174098D01*
X0334098Y0181000D01*
X0340448Y0184829D02*
X0354003Y0184829D01*
X0360700Y0189900D02*
X0323500Y0189900D01*
X0322902Y0189302D01*
X0322902Y0181000D01*
X0304276Y0171776D02*
X0304276Y0164005D01*
X0304517Y0163425D01*
X0291130Y0163425D01*
X0289659Y0162816D01*
X0287119Y0160276D01*
X0282483Y0160276D01*
X0282724Y0160856D01*
X0282724Y0164294D01*
X0282236Y0165470D01*
X0281982Y0165724D01*
X0282236Y0165979D01*
X0282724Y0167155D01*
X0282724Y0170304D01*
X0282724Y0171776D01*
X0304276Y0171776D01*
X0304276Y0170442D02*
X0282724Y0170442D01*
X0282724Y0168844D02*
X0304276Y0168844D01*
X0304276Y0167245D02*
X0282724Y0167245D01*
X0283500Y0166000D02*
X0283500Y0161000D01*
X0281925Y0159425D01*
X0276571Y0159425D01*
X0282722Y0160851D02*
X0287694Y0160851D01*
X0288500Y0161000D02*
X0286000Y0161000D01*
X0286000Y0163500D01*
X0282724Y0164048D02*
X0304276Y0164048D01*
X0304276Y0165647D02*
X0282060Y0165647D01*
X0283224Y0165724D02*
X0283500Y0166000D01*
X0276846Y0166000D01*
X0276571Y0165724D01*
X0283224Y0165724D01*
X0283500Y0166000D02*
X0288500Y0166000D01*
X0291925Y0162575D01*
X0310429Y0162575D01*
X0290075Y0162575D01*
X0288500Y0161000D01*
X0289293Y0162450D02*
X0282724Y0162450D01*
X0286000Y0168500D02*
X0276000Y0178500D01*
X0276000Y0186000D01*
X0273500Y0188500D01*
X0279217Y0183230D02*
X0266675Y0183230D01*
X0268365Y0181632D02*
X0278241Y0181632D01*
X0278194Y0180033D02*
X0269027Y0180033D01*
X0270322Y0178435D02*
X0278194Y0178435D01*
X0278194Y0176836D02*
X0271921Y0176836D01*
X0271076Y0172024D02*
X0276571Y0172024D01*
X0276547Y0172000D01*
X0271076Y0172024D02*
X0264500Y0178600D01*
X0263800Y0178600D01*
X0258422Y0178435D02*
X0247743Y0178435D01*
X0247743Y0180033D02*
X0258573Y0180033D01*
X0259235Y0181632D02*
X0247743Y0181632D01*
X0246976Y0183230D02*
X0260925Y0183230D01*
X0258710Y0176836D02*
X0247743Y0176836D01*
X0212669Y0183230D02*
X0035283Y0183230D01*
X0035042Y0181632D02*
X0211071Y0181632D01*
X0209472Y0180033D02*
X0034504Y0180033D01*
X0033734Y0178435D02*
X0207874Y0178435D01*
X0207771Y0178332D02*
X0207771Y0178332D01*
X0205300Y0168844D02*
X0202468Y0168844D01*
X0202948Y0167245D02*
X0205300Y0167245D01*
X0205300Y0165647D02*
X0202948Y0165647D01*
X0203980Y0164048D02*
X0205300Y0164048D01*
X0205300Y0162450D02*
X0204500Y0162450D01*
X0204500Y0160851D02*
X0205300Y0160851D01*
X0205300Y0159253D02*
X0204500Y0159253D01*
X0204500Y0157654D02*
X0205300Y0157654D01*
X0205300Y0156056D02*
X0204500Y0156056D01*
X0204500Y0154457D02*
X0205300Y0154457D01*
X0205300Y0152859D02*
X0204500Y0152859D01*
X0205238Y0151260D02*
X0205300Y0151260D01*
X0149588Y0138472D02*
X0074912Y0138472D01*
X0076368Y0136873D02*
X0148132Y0136873D01*
X0147879Y0135275D02*
X0128947Y0135275D01*
X0130026Y0133676D02*
X0147879Y0133676D01*
X0147879Y0132078D02*
X0130445Y0132078D01*
X0130976Y0130479D02*
X0147879Y0130479D01*
X0124225Y0119290D02*
X0107775Y0119290D01*
X0109374Y0120888D02*
X0122626Y0120888D01*
X0121028Y0122487D02*
X0110972Y0122487D01*
X0112301Y0124085D02*
X0119699Y0124085D01*
X0119037Y0125684D02*
X0112963Y0125684D01*
X0113024Y0127282D02*
X0118976Y0127282D01*
X0118976Y0128881D02*
X0113024Y0128881D01*
X0113024Y0130479D02*
X0118976Y0130479D01*
X0119507Y0132078D02*
X0112493Y0132078D01*
X0112073Y0133676D02*
X0119927Y0133676D01*
X0121005Y0135275D02*
X0110995Y0135275D01*
X0103053Y0135275D02*
X0076621Y0135275D01*
X0076621Y0133676D02*
X0101974Y0133676D01*
X0101555Y0132078D02*
X0076621Y0132078D01*
X0076621Y0130479D02*
X0101024Y0130479D01*
X0068500Y0127161D02*
X0068500Y0124600D01*
X0067400Y0123500D01*
X0060379Y0130479D02*
X0047506Y0130479D01*
X0045907Y0132078D02*
X0060379Y0132078D01*
X0060379Y0133676D02*
X0044309Y0133676D01*
X0042710Y0135275D02*
X0060379Y0135275D01*
X0060632Y0136873D02*
X0041112Y0136873D01*
X0039513Y0138472D02*
X0062088Y0138472D01*
X0035331Y0125684D02*
X0005800Y0125684D01*
X0005800Y0127282D02*
X0033732Y0127282D01*
X0032134Y0128881D02*
X0005800Y0128881D01*
X0005800Y0130479D02*
X0018642Y0130479D01*
X0017044Y0132078D02*
X0005800Y0132078D01*
X0005800Y0133676D02*
X0016224Y0133676D01*
X0015750Y0135275D02*
X0005800Y0135275D01*
X0005800Y0136873D02*
X0015750Y0136873D01*
X0016155Y0138472D02*
X0005800Y0138472D01*
X0005800Y0140070D02*
X0016877Y0140070D01*
X0018476Y0141669D02*
X0005800Y0141669D01*
X0005800Y0124085D02*
X0036929Y0124085D01*
X0038528Y0122487D02*
X0005800Y0122487D01*
X0005800Y0120888D02*
X0040126Y0120888D01*
X0041725Y0119290D02*
X0005800Y0119290D01*
X0005800Y0117691D02*
X0044345Y0117691D01*
X0054408Y0112896D02*
X0005800Y0112896D01*
X0005800Y0114494D02*
X0056006Y0114494D01*
X0057605Y0116093D02*
X0005800Y0116093D01*
X0005800Y0111297D02*
X0052809Y0111297D01*
X0051632Y0109699D02*
X0005800Y0109699D01*
X0005800Y0108100D02*
X0051200Y0108100D01*
X0051301Y0106502D02*
X0005800Y0106502D01*
X0005800Y0104903D02*
X0051500Y0104903D01*
X0051500Y0103305D02*
X0005800Y0103305D01*
X0005800Y0101706D02*
X0051500Y0101706D01*
X0051500Y0100108D02*
X0005800Y0100108D01*
X0005800Y0098509D02*
X0034074Y0098509D01*
X0032426Y0096911D02*
X0005800Y0096911D01*
X0005800Y0095312D02*
X0031764Y0095312D01*
X0031622Y0093714D02*
X0005800Y0093714D01*
X0005800Y0092115D02*
X0031918Y0092115D01*
X0032778Y0090517D02*
X0005800Y0090517D01*
X0005800Y0088918D02*
X0034251Y0088918D01*
X0034200Y0087320D02*
X0005800Y0087320D01*
X0005800Y0085721D02*
X0034200Y0085721D01*
X0034200Y0084123D02*
X0005800Y0084123D01*
X0005800Y0082524D02*
X0034200Y0082524D01*
X0034200Y0080926D02*
X0005800Y0080926D01*
X0005800Y0079327D02*
X0034200Y0079327D01*
X0034200Y0077729D02*
X0005800Y0077729D01*
X0005800Y0076130D02*
X0034200Y0076130D01*
X0034200Y0074532D02*
X0005800Y0074532D01*
X0005800Y0072933D02*
X0034200Y0072933D01*
X0034200Y0071334D02*
X0005800Y0071334D01*
X0005800Y0069736D02*
X0034200Y0069736D01*
X0034200Y0068137D02*
X0005800Y0068137D01*
X0005800Y0066539D02*
X0034200Y0066539D01*
X0034200Y0064940D02*
X0005800Y0064940D01*
X0005800Y0063342D02*
X0034200Y0063342D01*
X0034200Y0061743D02*
X0005800Y0061743D01*
X0005800Y0060145D02*
X0034200Y0060145D01*
X0034200Y0058546D02*
X0005800Y0058546D01*
X0005800Y0056948D02*
X0034200Y0056948D01*
X0034200Y0055349D02*
X0005800Y0055349D01*
X0005800Y0053751D02*
X0034200Y0053751D01*
X0034200Y0052152D02*
X0005800Y0052152D01*
X0005800Y0050554D02*
X0034200Y0050554D01*
X0034200Y0048955D02*
X0005800Y0048955D01*
X0005800Y0047357D02*
X0034200Y0047357D01*
X0034200Y0045758D02*
X0005800Y0045758D01*
X0005800Y0044160D02*
X0034200Y0044160D01*
X0034200Y0042561D02*
X0005800Y0042561D01*
X0005800Y0040963D02*
X0034200Y0040963D01*
X0034200Y0039364D02*
X0005800Y0039364D01*
X0005800Y0037766D02*
X0034200Y0037766D01*
X0034200Y0036167D02*
X0005800Y0036167D01*
X0005800Y0034569D02*
X0034200Y0034569D01*
X0034200Y0032970D02*
X0018081Y0032970D01*
X0017285Y0033152D02*
X0017285Y0033152D01*
X0014861Y0032970D02*
X0005800Y0032970D01*
X0005800Y0031372D02*
X0008613Y0031372D01*
X0007400Y0030896D02*
X0007400Y0030896D01*
X0005993Y0029773D02*
X0005800Y0029773D01*
X0023391Y0031372D02*
X0034200Y0031372D01*
X0034200Y0029773D02*
X0026160Y0029773D01*
X0026724Y0029447D02*
X0026724Y0029447D01*
X0027905Y0028175D02*
X0034200Y0028175D01*
X0034200Y0026576D02*
X0029388Y0026576D01*
X0030554Y0024978D02*
X0034200Y0024978D01*
X0034542Y0023379D02*
X0031324Y0023379D01*
X0032094Y0021781D02*
X0035762Y0021781D01*
X0037361Y0020182D02*
X0032570Y0020182D01*
X0032811Y0018584D02*
X0037547Y0018584D01*
X0037547Y0016985D02*
X0033052Y0016985D01*
X0033108Y0015387D02*
X0037547Y0015387D01*
X0037547Y0013788D02*
X0032867Y0013788D01*
X0032626Y0012190D02*
X0037547Y0012190D01*
X0037974Y0010591D02*
X0032273Y0010591D01*
X0031503Y0008993D02*
X0039377Y0008993D01*
X0040618Y0007394D02*
X0030733Y0007394D01*
X0030211Y0006311D02*
X0030211Y0006311D01*
X0043700Y0028990D02*
X0043700Y0079700D01*
X0046600Y0082600D01*
X0059800Y0082600D01*
X0061000Y0081400D01*
X0061000Y0076400D01*
X0056000Y0076400D02*
X0056000Y0065300D01*
X0090500Y0077729D02*
X0109800Y0077729D01*
X0136000Y0076400D02*
X0136000Y0083700D01*
X0137600Y0085300D01*
X0081000Y0094800D02*
X0081000Y0100600D01*
X0081000Y0107500D01*
X0082400Y0108900D01*
X0113300Y0108900D01*
X0081000Y0094800D02*
X0080300Y0094100D01*
X0072000Y0094100D01*
X0071000Y0095100D01*
X0071000Y0100600D01*
X0066000Y0100600D02*
X0066000Y0108100D01*
X0061000Y0100600D02*
X0061000Y0095700D01*
X0059200Y0093900D01*
X0037000Y0093900D01*
X0039926Y0098509D02*
X0051500Y0098509D01*
X0203500Y0054900D02*
X0207500Y0050900D01*
X0238600Y0050900D01*
X0243700Y0045800D01*
X0243700Y0028990D01*
X0249853Y0031372D02*
X0250047Y0031372D01*
X0250209Y0032970D02*
X0249691Y0032970D01*
X0248552Y0034569D02*
X0251348Y0034569D01*
X0252200Y0036167D02*
X0247700Y0036167D01*
X0247700Y0037766D02*
X0252200Y0037766D01*
X0252200Y0039364D02*
X0247700Y0039364D01*
X0247700Y0040963D02*
X0252200Y0040963D01*
X0252200Y0042561D02*
X0247700Y0042561D01*
X0247700Y0044160D02*
X0252200Y0044160D01*
X0252200Y0045758D02*
X0247700Y0045758D01*
X0247385Y0047357D02*
X0250986Y0047357D01*
X0249388Y0048955D02*
X0246202Y0048955D01*
X0250300Y0053700D02*
X0256200Y0047800D01*
X0263000Y0056300D02*
X0268700Y0050600D01*
X0268700Y0028990D01*
X0272700Y0044160D02*
X0276883Y0044160D01*
X0275285Y0045758D02*
X0272700Y0045758D01*
X0272700Y0047357D02*
X0273686Y0047357D01*
X0263000Y0056300D02*
X0230300Y0056300D01*
X0228500Y0058100D01*
X0228500Y0076400D01*
X0223500Y0076400D02*
X0223500Y0064300D01*
X0218500Y0058000D02*
X0218500Y0076400D01*
X0213500Y0076400D02*
X0213500Y0056300D01*
X0216100Y0053700D01*
X0250300Y0053700D01*
X0231200Y0044300D02*
X0231200Y0028990D01*
X0225047Y0031372D02*
X0224853Y0031372D01*
X0224691Y0032970D02*
X0225209Y0032970D01*
X0226348Y0034569D02*
X0223552Y0034569D01*
X0222700Y0036167D02*
X0227200Y0036167D01*
X0227200Y0037766D02*
X0222700Y0037766D01*
X0222700Y0039364D02*
X0227200Y0039364D01*
X0227200Y0040963D02*
X0222700Y0040963D01*
X0222466Y0042561D02*
X0227200Y0042561D01*
X0225683Y0044160D02*
X0221397Y0044160D01*
X0200741Y0020182D02*
X0199159Y0020182D01*
X0199853Y0018584D02*
X0200047Y0018584D01*
X0200047Y0016985D02*
X0199853Y0016985D01*
X0199853Y0015387D02*
X0200047Y0015387D01*
X0212500Y0087320D02*
X0219975Y0087320D01*
X0263449Y0095312D02*
X0269270Y0095312D01*
X0270806Y0093714D02*
X0265643Y0093714D01*
X0267242Y0092115D02*
X0273128Y0092115D01*
X0273790Y0090517D02*
X0268840Y0090517D01*
X0270235Y0088918D02*
X0275176Y0088918D01*
X0278500Y0093200D02*
X0278500Y0100600D01*
X0283500Y0100600D02*
X0283500Y0107000D01*
X0316501Y0148063D02*
X0322207Y0148063D01*
X0288500Y0156276D02*
X0276571Y0156276D01*
X0291925Y0177929D02*
X0291925Y0184425D01*
X0297400Y0189900D01*
X0323500Y0189900D01*
X0294665Y0192821D02*
X0034092Y0192821D01*
X0034862Y0191223D02*
X0293066Y0191223D01*
X0291467Y0189624D02*
X0035154Y0189624D01*
X0034936Y0191070D02*
X0034936Y0191070D01*
X0035395Y0188026D02*
X0289869Y0188026D01*
X0288425Y0186427D02*
X0035636Y0186427D01*
X0035523Y0184829D02*
X0287925Y0184829D01*
X0353452Y0194420D02*
X0033323Y0194420D01*
X0032711Y0195689D02*
X0032711Y0195689D01*
X0032406Y0196018D02*
X0356270Y0196018D01*
X0360700Y0189900D02*
X0386300Y0189900D01*
X0379052Y0194420D02*
X0367948Y0194420D01*
X0365130Y0196018D02*
X0381870Y0196018D01*
X0379603Y0184829D02*
X0367397Y0184829D01*
X0385200Y0055349D02*
X0386344Y0055349D01*
X0385621Y0053751D02*
X0385200Y0053751D01*
X0385200Y0052152D02*
X0385422Y0052152D01*
X0385200Y0050554D02*
X0385661Y0050554D01*
X0385200Y0048955D02*
X0386439Y0048955D01*
X0385200Y0047357D02*
X0388439Y0047357D01*
X0389700Y0045758D02*
X0385200Y0045758D01*
X0385200Y0044160D02*
X0389700Y0044160D01*
X0389700Y0042561D02*
X0385200Y0042561D01*
X0385200Y0040963D02*
X0389700Y0040963D01*
X0389700Y0039364D02*
X0385200Y0039364D01*
X0385200Y0037766D02*
X0389700Y0037766D01*
X0393700Y0028990D02*
X0393700Y0049300D01*
X0390800Y0052200D01*
X0406100Y0053200D02*
X0406100Y0029090D01*
X0406200Y0028990D01*
X0418700Y0028990D02*
X0418800Y0029090D01*
X0418800Y0054400D01*
X0437353Y0028175D02*
X0473988Y0028175D01*
X0473391Y0027699D02*
X0473391Y0027699D01*
X0472626Y0026576D02*
X0437353Y0026576D01*
X0437178Y0024978D02*
X0471536Y0024978D01*
X0470478Y0023379D02*
X0436020Y0023379D01*
X0450039Y0021781D02*
X0469984Y0021781D01*
X0469491Y0020182D02*
X0451662Y0020182D01*
X0451949Y0018584D02*
X0468998Y0018584D01*
X0468992Y0016985D02*
X0451949Y0016985D01*
X0451949Y0015387D02*
X0468992Y0015387D01*
X0468992Y0013788D02*
X0451949Y0013788D01*
X0451949Y0012190D02*
X0469377Y0012190D01*
X0469870Y0010591D02*
X0451314Y0010591D01*
X0449464Y0008993D02*
X0470363Y0008993D01*
X0470503Y0008537D02*
X0470503Y0008537D01*
X0471283Y0007394D02*
X0448282Y0007394D01*
X0009900Y0171104D02*
X0009900Y0171104D01*
X0008726Y0172041D02*
X0005800Y0172041D01*
X0005800Y0173639D02*
X0006721Y0173639D01*
X0005891Y0174301D02*
X0005891Y0174301D01*
D28*
X0113300Y0108900D03*
X0136000Y0107700D03*
X0151000Y0108900D03*
X0178500Y0093200D03*
X0189200Y0093200D03*
X0223300Y0091600D03*
X0189200Y0077000D03*
X0181200Y0077500D03*
X0165500Y0067900D03*
X0198500Y0056000D03*
X0218500Y0058000D03*
X0223500Y0064300D03*
X0244700Y0065300D03*
X0273500Y0064800D03*
X0293500Y0059200D03*
X0298500Y0064500D03*
X0288400Y0086500D03*
X0298600Y0092600D03*
X0278500Y0093200D03*
X0363200Y0123800D03*
X0408600Y0116200D03*
X0414300Y0121000D03*
X0426400Y0126100D03*
X0417400Y0131100D03*
X0408700Y0106100D03*
X0446300Y0103200D03*
X0418800Y0054400D03*
X0406100Y0053200D03*
X0390800Y0052200D03*
X0318700Y0042700D03*
X0306200Y0037800D03*
X0293700Y0037500D03*
X0204100Y0038700D03*
X0162000Y0038700D03*
X0103800Y0066200D03*
X0093600Y0057700D03*
X0056000Y0065300D03*
X0110200Y0091500D03*
X0126200Y0091500D03*
X0066000Y0108100D03*
X0037000Y0093900D03*
X0263800Y0178600D03*
D29*
X0103800Y0066200D02*
X0093600Y0076400D01*
X0091000Y0076400D01*
D30*
X0103500Y0123500D02*
X0067400Y0123500D01*
X0046000Y0123500D01*
X0033343Y0136157D01*
X0026000Y0136157D01*
X0103500Y0123500D02*
X0107024Y0127024D01*
X0107024Y0129602D01*
X0124976Y0129602D02*
X0124976Y0127024D01*
X0128500Y0123500D01*
X0152339Y0123500D01*
X0154169Y0125331D01*
X0156000Y0123500D01*
X0181000Y0123500D01*
X0183500Y0126000D01*
X0183500Y0135488D01*
X0183500Y0136000D01*
X0198500Y0146512D02*
X0198500Y0161598D01*
X0196598Y0163500D01*
X0156000Y0127161D02*
X0154169Y0125331D01*
D31*
X0156000Y0123500D02*
X0128500Y0123500D01*
X0126000Y0113500D02*
X0126000Y0100600D01*
X0056000Y0100600D02*
X0056000Y0107700D01*
X0198500Y0113500D02*
X0198500Y0100600D01*
X0273500Y0100600D02*
X0273500Y0113500D01*
X0276571Y0156276D02*
X0268224Y0156276D01*
X0266000Y0158500D01*
X0266000Y0163500D01*
X0266925Y0162575D01*
X0276571Y0162575D01*
X0266000Y0163500D02*
X0266000Y0168500D01*
X0264750Y0169750D01*
D32*
X0263500Y0171000D01*
X0243500Y0171000D01*
X0241000Y0173500D01*
X0241000Y0177988D01*
D33*
X0240488Y0178500D01*
X0216000Y0178500D01*
X0211000Y0173500D01*
X0211000Y0138500D01*
X0207988Y0135488D01*
X0198500Y0135488D01*
X0183500Y0135488D01*
D34*
X0156000Y0123500D02*
X0156000Y0113500D01*
X0198500Y0113500D01*
X0156000Y0113500D02*
X0126000Y0113500D01*
X0061800Y0113500D01*
X0056000Y0107700D01*
X0242200Y0113800D02*
X0275500Y0113800D01*
X0275800Y0113500D01*
X0397100Y0113500D01*
X0397400Y0113800D01*
X0400900Y0117300D01*
X0400900Y0140400D01*
X0404400Y0143900D01*
X0465300Y0143900D01*
X0467800Y0141400D01*
X0467800Y0133700D01*
X0465200Y0131100D01*
X0460500Y0131100D01*
X0275800Y0113500D02*
X0273500Y0113500D01*
X0268700Y0015210D02*
X0268700Y0010100D01*
X0268500Y0009900D01*
X0281500Y0009900D01*
X0281200Y0010200D01*
X0281200Y0015210D01*
X0293700Y0015210D02*
X0293700Y0010000D01*
X0293600Y0009900D01*
X0305800Y0009900D01*
X0306200Y0010300D01*
X0306200Y0015210D01*
X0305800Y0009900D02*
X0318700Y0009900D01*
X0318700Y0015210D01*
X0331200Y0015210D02*
X0331200Y0010100D01*
X0331400Y0009900D01*
X0343000Y0009900D01*
X0343700Y0010600D01*
X0343700Y0015210D01*
X0356200Y0015210D02*
X0356200Y0010000D01*
X0356100Y0009900D01*
X0368600Y0009900D01*
X0368700Y0010000D01*
X0368700Y0015210D01*
X0381200Y0015210D02*
X0381200Y0009900D01*
X0394100Y0009900D01*
X0393700Y0010300D01*
X0393700Y0015210D01*
X0406200Y0015210D02*
X0406200Y0010400D01*
X0406700Y0009900D01*
X0418300Y0009900D01*
X0418700Y0010300D01*
X0418700Y0015210D01*
X0431200Y0015210D02*
X0431200Y0010400D01*
X0430700Y0009900D01*
X0444000Y0009900D01*
X0445100Y0011000D01*
X0445100Y0015602D01*
X0445200Y0015702D01*
X0430700Y0009900D02*
X0418300Y0009900D01*
X0406700Y0009900D02*
X0394100Y0009900D01*
X0381200Y0009900D02*
X0368600Y0009900D01*
X0356100Y0009900D02*
X0343000Y0009900D01*
X0331400Y0009900D02*
X0318700Y0009900D01*
X0293600Y0009900D02*
X0281500Y0009900D01*
X0268500Y0009900D02*
X0256700Y0009900D01*
X0256200Y0010400D01*
X0256200Y0015210D01*
X0256700Y0009900D02*
X0244000Y0009900D01*
X0243700Y0010200D01*
X0243700Y0015210D01*
X0231200Y0015210D02*
X0231200Y0010300D01*
X0231600Y0009900D01*
X0244000Y0009900D01*
X0231600Y0009900D02*
X0218700Y0009900D01*
X0218700Y0015210D01*
X0206200Y0015210D02*
X0206200Y0010000D01*
X0206100Y0009900D01*
X0218700Y0009900D01*
X0206100Y0009900D02*
X0194400Y0009900D01*
X0193700Y0010600D01*
X0193700Y0015210D01*
X0181200Y0015210D02*
X0181200Y0009900D01*
X0194400Y0009900D01*
X0181200Y0009900D02*
X0168300Y0009900D01*
X0168700Y0010300D01*
X0168700Y0015210D01*
X0156200Y0015210D02*
X0156200Y0010500D01*
X0155600Y0009900D01*
X0168300Y0009900D01*
X0155600Y0009900D02*
X0142800Y0009900D01*
X0143700Y0010800D01*
X0143700Y0015210D01*
X0131200Y0015210D02*
X0131200Y0010300D01*
X0131600Y0009900D01*
X0142800Y0009900D01*
X0131600Y0009900D02*
X0118900Y0009900D01*
X0118700Y0010100D01*
X0118700Y0015210D01*
X0106200Y0015210D02*
X0106200Y0010000D01*
X0106100Y0009900D01*
X0118900Y0009900D01*
X0106100Y0009900D02*
X0093100Y0009900D01*
X0093700Y0010500D01*
X0093700Y0015210D01*
X0081200Y0015210D02*
X0081200Y0011200D01*
X0079900Y0009900D01*
X0093100Y0009900D01*
X0079900Y0009900D02*
X0069500Y0009900D01*
X0068700Y0010700D01*
X0068700Y0015210D01*
X0056200Y0015210D02*
X0056200Y0010600D01*
X0056900Y0009900D01*
X0069500Y0009900D01*
X0056900Y0009900D02*
X0044900Y0009900D01*
X0043700Y0011100D01*
X0043700Y0015210D01*
D35*
X0198500Y0113500D03*
X0242200Y0113800D03*
M02*
