G75*
%MOIN*%
%OFA0B0*%
%FSLAX25Y25*%
%IPPOS*%
%LPD*%
%AMOC8*
5,1,8,0,0,1.08239X$1,22.5*
%
%ADD10R,0.09843X0.16929*%
%ADD11R,0.07087X0.06299*%
%ADD12R,0.06299X0.07087*%
%ADD13R,0.21260X0.24409*%
%ADD14R,0.03937X0.06299*%
%ADD15R,0.08000X0.02600*%
%ADD16R,0.06299X0.07098*%
%ADD17R,0.07874X0.06299*%
%ADD18R,0.05906X0.02165*%
%ADD19R,0.02165X0.05906*%
%ADD20R,0.02600X0.08000*%
%ADD21R,0.05906X0.05906*%
%ADD22R,0.07098X0.06299*%
D10*
X0068500Y0127161D03*
X0068500Y0159839D03*
X0156000Y0159839D03*
X0156000Y0127161D03*
D11*
X0183500Y0135488D03*
X0183500Y0146512D03*
X0241000Y0177988D03*
X0241000Y0189012D03*
D12*
X0244012Y0161000D03*
X0232988Y0161000D03*
X0232988Y0141000D03*
X0244012Y0141000D03*
X0327988Y0153500D03*
X0339012Y0153500D03*
X0339012Y0163500D03*
X0327988Y0163500D03*
D13*
X0116000Y0158343D03*
D14*
X0107024Y0129602D03*
X0124976Y0129602D03*
D15*
X0436300Y0131100D03*
X0436300Y0126100D03*
X0436300Y0121100D03*
X0436300Y0116100D03*
X0436300Y0111100D03*
X0436300Y0106100D03*
X0436300Y0101100D03*
X0460500Y0101100D03*
X0460500Y0106100D03*
X0460500Y0111100D03*
X0460500Y0116100D03*
X0460500Y0121100D03*
X0460500Y0126100D03*
X0460500Y0131100D03*
D16*
X0334098Y0181000D03*
X0322902Y0181000D03*
X0196598Y0163500D03*
X0185402Y0163500D03*
D17*
X0198500Y0146512D03*
X0198500Y0135488D03*
D18*
X0276571Y0149976D03*
X0276571Y0153126D03*
X0276571Y0156276D03*
X0276571Y0159425D03*
X0276571Y0162575D03*
X0276571Y0165724D03*
X0276571Y0168874D03*
X0276571Y0172024D03*
X0310429Y0172024D03*
X0310429Y0168874D03*
X0310429Y0165724D03*
X0310429Y0162575D03*
X0310429Y0159425D03*
X0310429Y0156276D03*
X0310429Y0153126D03*
X0310429Y0149976D03*
D19*
X0304524Y0144071D03*
X0301374Y0144071D03*
X0298224Y0144071D03*
X0295075Y0144071D03*
X0291925Y0144071D03*
X0288776Y0144071D03*
X0285626Y0144071D03*
X0282476Y0144071D03*
X0282476Y0177929D03*
X0285626Y0177929D03*
X0288776Y0177929D03*
X0291925Y0177929D03*
X0295075Y0177929D03*
X0298224Y0177929D03*
X0301374Y0177929D03*
X0304524Y0177929D03*
D20*
X0303500Y0100600D03*
X0298500Y0100600D03*
X0293500Y0100600D03*
X0288500Y0100600D03*
X0283500Y0100600D03*
X0278500Y0100600D03*
X0273500Y0100600D03*
X0308500Y0100600D03*
X0308500Y0076400D03*
X0303500Y0076400D03*
X0298500Y0076400D03*
X0293500Y0076400D03*
X0288500Y0076400D03*
X0283500Y0076400D03*
X0278500Y0076400D03*
X0273500Y0076400D03*
X0233500Y0076400D03*
X0228500Y0076400D03*
X0223500Y0076400D03*
X0218500Y0076400D03*
X0213500Y0076400D03*
X0208500Y0076400D03*
X0203500Y0076400D03*
X0198500Y0076400D03*
X0161000Y0076400D03*
X0156000Y0076400D03*
X0151000Y0076400D03*
X0146000Y0076400D03*
X0141000Y0076400D03*
X0136000Y0076400D03*
X0131000Y0076400D03*
X0126000Y0076400D03*
X0091000Y0076400D03*
X0086000Y0076400D03*
X0081000Y0076400D03*
X0076000Y0076400D03*
X0071000Y0076400D03*
X0066000Y0076400D03*
X0061000Y0076400D03*
X0056000Y0076400D03*
X0056000Y0100600D03*
X0061000Y0100600D03*
X0066000Y0100600D03*
X0071000Y0100600D03*
X0076000Y0100600D03*
X0081000Y0100600D03*
X0086000Y0100600D03*
X0091000Y0100600D03*
X0126000Y0100600D03*
X0131000Y0100600D03*
X0136000Y0100600D03*
X0141000Y0100600D03*
X0146000Y0100600D03*
X0151000Y0100600D03*
X0156000Y0100600D03*
X0161000Y0100600D03*
X0198500Y0100600D03*
X0203500Y0100600D03*
X0208500Y0100600D03*
X0213500Y0100600D03*
X0218500Y0100600D03*
X0223500Y0100600D03*
X0228500Y0100600D03*
X0233500Y0100600D03*
D21*
X0043700Y0015210D03*
X0056200Y0015210D03*
X0068700Y0015210D03*
X0081200Y0015210D03*
X0093700Y0015210D03*
X0106200Y0015210D03*
X0118700Y0015210D03*
X0131200Y0015210D03*
X0143700Y0015210D03*
X0156200Y0015210D03*
X0168700Y0015210D03*
X0181200Y0015210D03*
X0193700Y0015210D03*
X0206200Y0015210D03*
X0218700Y0015210D03*
X0231200Y0015210D03*
X0243700Y0015210D03*
X0256200Y0015210D03*
X0268700Y0015210D03*
X0281200Y0015210D03*
X0293700Y0015210D03*
X0306200Y0015210D03*
X0318700Y0015210D03*
X0331200Y0015210D03*
X0343700Y0015210D03*
X0356200Y0015210D03*
X0368700Y0015210D03*
X0381200Y0015210D03*
X0393700Y0015210D03*
X0406200Y0015210D03*
X0418700Y0015210D03*
X0431200Y0015210D03*
X0431200Y0028990D03*
X0418700Y0028990D03*
X0406200Y0028990D03*
X0393700Y0028990D03*
X0381200Y0028990D03*
X0368700Y0028990D03*
X0356200Y0028990D03*
X0343700Y0028990D03*
X0331200Y0028990D03*
X0318700Y0028990D03*
X0306200Y0028990D03*
X0293700Y0028990D03*
X0281200Y0028990D03*
X0268700Y0028990D03*
X0256200Y0028990D03*
X0243700Y0028990D03*
X0231200Y0028990D03*
X0218700Y0028990D03*
X0206200Y0028990D03*
X0193700Y0028990D03*
X0181200Y0028990D03*
X0168700Y0028990D03*
X0156200Y0028990D03*
X0143700Y0028990D03*
X0131200Y0028990D03*
X0118700Y0028990D03*
X0106200Y0028990D03*
X0093700Y0028990D03*
X0081200Y0028990D03*
X0068700Y0028990D03*
X0056200Y0028990D03*
X0043700Y0028990D03*
D22*
X0445200Y0026898D03*
X0445200Y0015702D03*
M02*
