G75*
%MOIN*%
%OFA0B0*%
%FSLAX25Y25*%
%IPPOS*%
%LPD*%
%AMOC8*
5,1,8,0,0,1.08239X$1,22.5*
%
%ADD10C,0.05200*%
%ADD11C,0.06800*%
%ADD12C,0.07850*%
%ADD13C,0.11824*%
%ADD14C,0.05156*%
%ADD15C,0.07800*%
D10*
X0256300Y0141000D02*
X0260700Y0141000D01*
X0260700Y0161000D02*
X0256300Y0161000D01*
D11*
X0357700Y0172100D02*
X0363700Y0172100D01*
X0383300Y0172100D02*
X0389300Y0172100D01*
X0389300Y0189900D02*
X0383300Y0189900D01*
X0363700Y0189900D02*
X0357700Y0189900D01*
D12*
X0029525Y0155843D02*
X0022475Y0155843D01*
X0022475Y0136157D02*
X0029525Y0136157D01*
D13*
X0016000Y0016000D03*
X0018500Y0186000D03*
X0486000Y0186000D03*
X0486000Y0016000D03*
D14*
X0418800Y0054400D03*
X0406100Y0053200D03*
X0390800Y0052200D03*
X0318700Y0042700D03*
X0306200Y0037800D03*
X0293700Y0037500D03*
X0293500Y0059200D03*
X0298500Y0064500D03*
X0273500Y0064800D03*
X0244700Y0065300D03*
X0223500Y0064300D03*
X0218500Y0058000D03*
X0198500Y0056000D03*
X0165500Y0067900D03*
X0181200Y0077500D03*
X0189200Y0077000D03*
X0223300Y0091600D03*
X0189200Y0093200D03*
X0178500Y0093200D03*
X0151000Y0108900D03*
X0136000Y0107700D03*
X0113300Y0108900D03*
X0110200Y0091500D03*
X0126200Y0091500D03*
X0103800Y0066200D03*
X0093600Y0057700D03*
X0056000Y0065300D03*
X0037000Y0093900D03*
X0066000Y0108100D03*
X0162000Y0038700D03*
X0204100Y0038700D03*
X0288400Y0086500D03*
X0298600Y0092600D03*
X0278500Y0093200D03*
X0363200Y0123800D03*
X0408600Y0116200D03*
X0414300Y0121000D03*
X0426400Y0126100D03*
X0417400Y0131100D03*
X0408700Y0106100D03*
X0446300Y0103200D03*
X0263800Y0178600D03*
D15*
X0242200Y0113800D03*
X0198500Y0113500D03*
M02*
