G75*
%MOIN*%
%OFA0B0*%
%FSLAX25Y25*%
%IPPOS*%
%LPD*%
%AMOC8*
5,1,8,0,0,1.08239X$1,22.5*
%
%ADD10C,0.00600*%
%ADD11R,0.22000X0.03000*%
%ADD12R,0.05000X0.03500*%
%ADD13C,0.00500*%
%ADD14C,0.03200*%
%ADD15R,0.03500X0.10250*%
%ADD16R,0.03500X0.10250*%
%ADD17C,0.00800*%
%ADD18R,0.03400X0.02400*%
D10*
X0006500Y0016000D02*
X0006503Y0016282D01*
X0006514Y0016564D01*
X0006531Y0016846D01*
X0006555Y0017127D01*
X0006586Y0017408D01*
X0006624Y0017687D01*
X0006669Y0017966D01*
X0006721Y0018244D01*
X0006779Y0018520D01*
X0006845Y0018794D01*
X0006917Y0019067D01*
X0006995Y0019338D01*
X0007080Y0019607D01*
X0007172Y0019874D01*
X0007271Y0020139D01*
X0007375Y0020401D01*
X0007487Y0020660D01*
X0007604Y0020917D01*
X0007728Y0021171D01*
X0007858Y0021421D01*
X0007994Y0021668D01*
X0008136Y0021912D01*
X0008284Y0022152D01*
X0008438Y0022389D01*
X0008598Y0022622D01*
X0008763Y0022851D01*
X0008934Y0023075D01*
X0009110Y0023296D01*
X0009292Y0023511D01*
X0009479Y0023723D01*
X0009671Y0023930D01*
X0009868Y0024132D01*
X0010070Y0024329D01*
X0010277Y0024521D01*
X0010489Y0024708D01*
X0010704Y0024890D01*
X0010925Y0025066D01*
X0011149Y0025237D01*
X0011378Y0025402D01*
X0011611Y0025562D01*
X0011848Y0025716D01*
X0012088Y0025864D01*
X0012332Y0026006D01*
X0012579Y0026142D01*
X0012829Y0026272D01*
X0013083Y0026396D01*
X0013340Y0026513D01*
X0013599Y0026625D01*
X0013861Y0026729D01*
X0014126Y0026828D01*
X0014393Y0026920D01*
X0014662Y0027005D01*
X0014933Y0027083D01*
X0015206Y0027155D01*
X0015480Y0027221D01*
X0015756Y0027279D01*
X0016034Y0027331D01*
X0016313Y0027376D01*
X0016592Y0027414D01*
X0016873Y0027445D01*
X0017154Y0027469D01*
X0017436Y0027486D01*
X0017718Y0027497D01*
X0018000Y0027500D01*
X0018282Y0027497D01*
X0018564Y0027486D01*
X0018846Y0027469D01*
X0019127Y0027445D01*
X0019408Y0027414D01*
X0019687Y0027376D01*
X0019966Y0027331D01*
X0020244Y0027279D01*
X0020520Y0027221D01*
X0020794Y0027155D01*
X0021067Y0027083D01*
X0021338Y0027005D01*
X0021607Y0026920D01*
X0021874Y0026828D01*
X0022139Y0026729D01*
X0022401Y0026625D01*
X0022660Y0026513D01*
X0022917Y0026396D01*
X0023171Y0026272D01*
X0023421Y0026142D01*
X0023668Y0026006D01*
X0023912Y0025864D01*
X0024152Y0025716D01*
X0024389Y0025562D01*
X0024622Y0025402D01*
X0024851Y0025237D01*
X0025075Y0025066D01*
X0025296Y0024890D01*
X0025511Y0024708D01*
X0025723Y0024521D01*
X0025930Y0024329D01*
X0026132Y0024132D01*
X0026329Y0023930D01*
X0026521Y0023723D01*
X0026708Y0023511D01*
X0026890Y0023296D01*
X0027066Y0023075D01*
X0027237Y0022851D01*
X0027402Y0022622D01*
X0027562Y0022389D01*
X0027716Y0022152D01*
X0027864Y0021912D01*
X0028006Y0021668D01*
X0028142Y0021421D01*
X0028272Y0021171D01*
X0028396Y0020917D01*
X0028513Y0020660D01*
X0028625Y0020401D01*
X0028729Y0020139D01*
X0028828Y0019874D01*
X0028920Y0019607D01*
X0029005Y0019338D01*
X0029083Y0019067D01*
X0029155Y0018794D01*
X0029221Y0018520D01*
X0029279Y0018244D01*
X0029331Y0017966D01*
X0029376Y0017687D01*
X0029414Y0017408D01*
X0029445Y0017127D01*
X0029469Y0016846D01*
X0029486Y0016564D01*
X0029497Y0016282D01*
X0029500Y0016000D01*
X0029497Y0015718D01*
X0029486Y0015436D01*
X0029469Y0015154D01*
X0029445Y0014873D01*
X0029414Y0014592D01*
X0029376Y0014313D01*
X0029331Y0014034D01*
X0029279Y0013756D01*
X0029221Y0013480D01*
X0029155Y0013206D01*
X0029083Y0012933D01*
X0029005Y0012662D01*
X0028920Y0012393D01*
X0028828Y0012126D01*
X0028729Y0011861D01*
X0028625Y0011599D01*
X0028513Y0011340D01*
X0028396Y0011083D01*
X0028272Y0010829D01*
X0028142Y0010579D01*
X0028006Y0010332D01*
X0027864Y0010088D01*
X0027716Y0009848D01*
X0027562Y0009611D01*
X0027402Y0009378D01*
X0027237Y0009149D01*
X0027066Y0008925D01*
X0026890Y0008704D01*
X0026708Y0008489D01*
X0026521Y0008277D01*
X0026329Y0008070D01*
X0026132Y0007868D01*
X0025930Y0007671D01*
X0025723Y0007479D01*
X0025511Y0007292D01*
X0025296Y0007110D01*
X0025075Y0006934D01*
X0024851Y0006763D01*
X0024622Y0006598D01*
X0024389Y0006438D01*
X0024152Y0006284D01*
X0023912Y0006136D01*
X0023668Y0005994D01*
X0023421Y0005858D01*
X0023171Y0005728D01*
X0022917Y0005604D01*
X0022660Y0005487D01*
X0022401Y0005375D01*
X0022139Y0005271D01*
X0021874Y0005172D01*
X0021607Y0005080D01*
X0021338Y0004995D01*
X0021067Y0004917D01*
X0020794Y0004845D01*
X0020520Y0004779D01*
X0020244Y0004721D01*
X0019966Y0004669D01*
X0019687Y0004624D01*
X0019408Y0004586D01*
X0019127Y0004555D01*
X0018846Y0004531D01*
X0018564Y0004514D01*
X0018282Y0004503D01*
X0018000Y0004500D01*
X0017718Y0004503D01*
X0017436Y0004514D01*
X0017154Y0004531D01*
X0016873Y0004555D01*
X0016592Y0004586D01*
X0016313Y0004624D01*
X0016034Y0004669D01*
X0015756Y0004721D01*
X0015480Y0004779D01*
X0015206Y0004845D01*
X0014933Y0004917D01*
X0014662Y0004995D01*
X0014393Y0005080D01*
X0014126Y0005172D01*
X0013861Y0005271D01*
X0013599Y0005375D01*
X0013340Y0005487D01*
X0013083Y0005604D01*
X0012829Y0005728D01*
X0012579Y0005858D01*
X0012332Y0005994D01*
X0012088Y0006136D01*
X0011848Y0006284D01*
X0011611Y0006438D01*
X0011378Y0006598D01*
X0011149Y0006763D01*
X0010925Y0006934D01*
X0010704Y0007110D01*
X0010489Y0007292D01*
X0010277Y0007479D01*
X0010070Y0007671D01*
X0009868Y0007868D01*
X0009671Y0008070D01*
X0009479Y0008277D01*
X0009292Y0008489D01*
X0009110Y0008704D01*
X0008934Y0008925D01*
X0008763Y0009149D01*
X0008598Y0009378D01*
X0008438Y0009611D01*
X0008284Y0009848D01*
X0008136Y0010088D01*
X0007994Y0010332D01*
X0007858Y0010579D01*
X0007728Y0010829D01*
X0007604Y0011083D01*
X0007487Y0011340D01*
X0007375Y0011599D01*
X0007271Y0011861D01*
X0007172Y0012126D01*
X0007080Y0012393D01*
X0006995Y0012662D01*
X0006917Y0012933D01*
X0006845Y0013206D01*
X0006779Y0013480D01*
X0006721Y0013756D01*
X0006669Y0014034D01*
X0006624Y0014313D01*
X0006586Y0014592D01*
X0006555Y0014873D01*
X0006531Y0015154D01*
X0006514Y0015436D01*
X0006503Y0015718D01*
X0006500Y0016000D01*
X0011500Y0051343D02*
X0020902Y0051343D01*
X0046902Y0051343D01*
X0046902Y0090642D01*
X0047701Y0090642D01*
X0047701Y0051343D01*
X0046902Y0051343D01*
X0039700Y0061143D02*
X0039702Y0061232D01*
X0039708Y0061321D01*
X0039718Y0061410D01*
X0039732Y0061498D01*
X0039749Y0061585D01*
X0039771Y0061671D01*
X0039797Y0061757D01*
X0039826Y0061841D01*
X0039859Y0061924D01*
X0039895Y0062005D01*
X0039936Y0062085D01*
X0039979Y0062162D01*
X0040026Y0062238D01*
X0040077Y0062311D01*
X0040130Y0062382D01*
X0040187Y0062451D01*
X0040247Y0062517D01*
X0040310Y0062581D01*
X0040375Y0062641D01*
X0040443Y0062699D01*
X0040514Y0062753D01*
X0040587Y0062804D01*
X0040662Y0062852D01*
X0040739Y0062897D01*
X0040818Y0062938D01*
X0040899Y0062975D01*
X0040981Y0063009D01*
X0041065Y0063040D01*
X0041150Y0063066D01*
X0041236Y0063089D01*
X0041323Y0063107D01*
X0041411Y0063122D01*
X0041500Y0063133D01*
X0041589Y0063140D01*
X0041678Y0063143D01*
X0041767Y0063142D01*
X0041856Y0063137D01*
X0041944Y0063128D01*
X0042033Y0063115D01*
X0042120Y0063098D01*
X0042207Y0063078D01*
X0042293Y0063053D01*
X0042377Y0063025D01*
X0042460Y0062993D01*
X0042542Y0062957D01*
X0042622Y0062918D01*
X0042700Y0062875D01*
X0042776Y0062829D01*
X0042850Y0062779D01*
X0042922Y0062726D01*
X0042991Y0062670D01*
X0043058Y0062611D01*
X0043122Y0062549D01*
X0043183Y0062485D01*
X0043242Y0062417D01*
X0043297Y0062347D01*
X0043349Y0062275D01*
X0043398Y0062200D01*
X0043443Y0062124D01*
X0043485Y0062045D01*
X0043523Y0061965D01*
X0043558Y0061883D01*
X0043589Y0061799D01*
X0043617Y0061714D01*
X0043640Y0061628D01*
X0043660Y0061541D01*
X0043676Y0061454D01*
X0043688Y0061365D01*
X0043696Y0061277D01*
X0043700Y0061188D01*
X0043700Y0061098D01*
X0043696Y0061009D01*
X0043688Y0060921D01*
X0043676Y0060832D01*
X0043660Y0060745D01*
X0043640Y0060658D01*
X0043617Y0060572D01*
X0043589Y0060487D01*
X0043558Y0060403D01*
X0043523Y0060321D01*
X0043485Y0060241D01*
X0043443Y0060162D01*
X0043398Y0060086D01*
X0043349Y0060011D01*
X0043297Y0059939D01*
X0043242Y0059869D01*
X0043183Y0059801D01*
X0043122Y0059737D01*
X0043058Y0059675D01*
X0042991Y0059616D01*
X0042922Y0059560D01*
X0042850Y0059507D01*
X0042776Y0059457D01*
X0042700Y0059411D01*
X0042622Y0059368D01*
X0042542Y0059329D01*
X0042460Y0059293D01*
X0042377Y0059261D01*
X0042293Y0059233D01*
X0042207Y0059208D01*
X0042120Y0059188D01*
X0042033Y0059171D01*
X0041944Y0059158D01*
X0041856Y0059149D01*
X0041767Y0059144D01*
X0041678Y0059143D01*
X0041589Y0059146D01*
X0041500Y0059153D01*
X0041411Y0059164D01*
X0041323Y0059179D01*
X0041236Y0059197D01*
X0041150Y0059220D01*
X0041065Y0059246D01*
X0040981Y0059277D01*
X0040899Y0059311D01*
X0040818Y0059348D01*
X0040739Y0059389D01*
X0040662Y0059434D01*
X0040587Y0059482D01*
X0040514Y0059533D01*
X0040443Y0059587D01*
X0040375Y0059645D01*
X0040310Y0059705D01*
X0040247Y0059769D01*
X0040187Y0059835D01*
X0040130Y0059904D01*
X0040077Y0059975D01*
X0040026Y0060048D01*
X0039979Y0060124D01*
X0039936Y0060201D01*
X0039895Y0060281D01*
X0039859Y0060362D01*
X0039826Y0060445D01*
X0039797Y0060529D01*
X0039771Y0060615D01*
X0039749Y0060701D01*
X0039732Y0060788D01*
X0039718Y0060876D01*
X0039708Y0060965D01*
X0039702Y0061054D01*
X0039700Y0061143D01*
X0020902Y0064642D02*
X0020902Y0077343D01*
X0020902Y0084343D02*
X0020902Y0090642D01*
X0046902Y0090642D01*
X0039700Y0080843D02*
X0039702Y0080932D01*
X0039708Y0081021D01*
X0039718Y0081110D01*
X0039732Y0081198D01*
X0039749Y0081285D01*
X0039771Y0081371D01*
X0039797Y0081457D01*
X0039826Y0081541D01*
X0039859Y0081624D01*
X0039895Y0081705D01*
X0039936Y0081785D01*
X0039979Y0081862D01*
X0040026Y0081938D01*
X0040077Y0082011D01*
X0040130Y0082082D01*
X0040187Y0082151D01*
X0040247Y0082217D01*
X0040310Y0082281D01*
X0040375Y0082341D01*
X0040443Y0082399D01*
X0040514Y0082453D01*
X0040587Y0082504D01*
X0040662Y0082552D01*
X0040739Y0082597D01*
X0040818Y0082638D01*
X0040899Y0082675D01*
X0040981Y0082709D01*
X0041065Y0082740D01*
X0041150Y0082766D01*
X0041236Y0082789D01*
X0041323Y0082807D01*
X0041411Y0082822D01*
X0041500Y0082833D01*
X0041589Y0082840D01*
X0041678Y0082843D01*
X0041767Y0082842D01*
X0041856Y0082837D01*
X0041944Y0082828D01*
X0042033Y0082815D01*
X0042120Y0082798D01*
X0042207Y0082778D01*
X0042293Y0082753D01*
X0042377Y0082725D01*
X0042460Y0082693D01*
X0042542Y0082657D01*
X0042622Y0082618D01*
X0042700Y0082575D01*
X0042776Y0082529D01*
X0042850Y0082479D01*
X0042922Y0082426D01*
X0042991Y0082370D01*
X0043058Y0082311D01*
X0043122Y0082249D01*
X0043183Y0082185D01*
X0043242Y0082117D01*
X0043297Y0082047D01*
X0043349Y0081975D01*
X0043398Y0081900D01*
X0043443Y0081824D01*
X0043485Y0081745D01*
X0043523Y0081665D01*
X0043558Y0081583D01*
X0043589Y0081499D01*
X0043617Y0081414D01*
X0043640Y0081328D01*
X0043660Y0081241D01*
X0043676Y0081154D01*
X0043688Y0081065D01*
X0043696Y0080977D01*
X0043700Y0080888D01*
X0043700Y0080798D01*
X0043696Y0080709D01*
X0043688Y0080621D01*
X0043676Y0080532D01*
X0043660Y0080445D01*
X0043640Y0080358D01*
X0043617Y0080272D01*
X0043589Y0080187D01*
X0043558Y0080103D01*
X0043523Y0080021D01*
X0043485Y0079941D01*
X0043443Y0079862D01*
X0043398Y0079786D01*
X0043349Y0079711D01*
X0043297Y0079639D01*
X0043242Y0079569D01*
X0043183Y0079501D01*
X0043122Y0079437D01*
X0043058Y0079375D01*
X0042991Y0079316D01*
X0042922Y0079260D01*
X0042850Y0079207D01*
X0042776Y0079157D01*
X0042700Y0079111D01*
X0042622Y0079068D01*
X0042542Y0079029D01*
X0042460Y0078993D01*
X0042377Y0078961D01*
X0042293Y0078933D01*
X0042207Y0078908D01*
X0042120Y0078888D01*
X0042033Y0078871D01*
X0041944Y0078858D01*
X0041856Y0078849D01*
X0041767Y0078844D01*
X0041678Y0078843D01*
X0041589Y0078846D01*
X0041500Y0078853D01*
X0041411Y0078864D01*
X0041323Y0078879D01*
X0041236Y0078897D01*
X0041150Y0078920D01*
X0041065Y0078946D01*
X0040981Y0078977D01*
X0040899Y0079011D01*
X0040818Y0079048D01*
X0040739Y0079089D01*
X0040662Y0079134D01*
X0040587Y0079182D01*
X0040514Y0079233D01*
X0040443Y0079287D01*
X0040375Y0079345D01*
X0040310Y0079405D01*
X0040247Y0079469D01*
X0040187Y0079535D01*
X0040130Y0079604D01*
X0040077Y0079675D01*
X0040026Y0079748D01*
X0039979Y0079824D01*
X0039936Y0079901D01*
X0039895Y0079981D01*
X0039859Y0080062D01*
X0039826Y0080145D01*
X0039797Y0080229D01*
X0039771Y0080315D01*
X0039749Y0080401D01*
X0039732Y0080488D01*
X0039718Y0080576D01*
X0039708Y0080665D01*
X0039702Y0080754D01*
X0039700Y0080843D01*
X0020902Y0090642D02*
X0011500Y0090642D01*
X0011500Y0051343D01*
X0020902Y0051343D02*
X0020902Y0057642D01*
X0043000Y0106000D02*
X0043003Y0106245D01*
X0043012Y0106491D01*
X0043027Y0106736D01*
X0043048Y0106980D01*
X0043075Y0107224D01*
X0043108Y0107467D01*
X0043147Y0107710D01*
X0043192Y0107951D01*
X0043243Y0108191D01*
X0043300Y0108430D01*
X0043362Y0108667D01*
X0043431Y0108903D01*
X0043505Y0109137D01*
X0043585Y0109369D01*
X0043670Y0109599D01*
X0043761Y0109827D01*
X0043858Y0110052D01*
X0043960Y0110276D01*
X0044068Y0110496D01*
X0044181Y0110714D01*
X0044299Y0110929D01*
X0044423Y0111141D01*
X0044551Y0111350D01*
X0044685Y0111556D01*
X0044824Y0111758D01*
X0044968Y0111957D01*
X0045117Y0112152D01*
X0045270Y0112344D01*
X0045428Y0112532D01*
X0045590Y0112716D01*
X0045758Y0112895D01*
X0045929Y0113071D01*
X0046105Y0113242D01*
X0046284Y0113410D01*
X0046468Y0113572D01*
X0046656Y0113730D01*
X0046848Y0113883D01*
X0047043Y0114032D01*
X0047242Y0114176D01*
X0047444Y0114315D01*
X0047650Y0114449D01*
X0047859Y0114577D01*
X0048071Y0114701D01*
X0048286Y0114819D01*
X0048504Y0114932D01*
X0048724Y0115040D01*
X0048948Y0115142D01*
X0049173Y0115239D01*
X0049401Y0115330D01*
X0049631Y0115415D01*
X0049863Y0115495D01*
X0050097Y0115569D01*
X0050333Y0115638D01*
X0050570Y0115700D01*
X0050809Y0115757D01*
X0051049Y0115808D01*
X0051290Y0115853D01*
X0051533Y0115892D01*
X0051776Y0115925D01*
X0052020Y0115952D01*
X0052264Y0115973D01*
X0052509Y0115988D01*
X0052755Y0115997D01*
X0053000Y0116000D01*
X0053245Y0115997D01*
X0053491Y0115988D01*
X0053736Y0115973D01*
X0053980Y0115952D01*
X0054224Y0115925D01*
X0054467Y0115892D01*
X0054710Y0115853D01*
X0054951Y0115808D01*
X0055191Y0115757D01*
X0055430Y0115700D01*
X0055667Y0115638D01*
X0055903Y0115569D01*
X0056137Y0115495D01*
X0056369Y0115415D01*
X0056599Y0115330D01*
X0056827Y0115239D01*
X0057052Y0115142D01*
X0057276Y0115040D01*
X0057496Y0114932D01*
X0057714Y0114819D01*
X0057929Y0114701D01*
X0058141Y0114577D01*
X0058350Y0114449D01*
X0058556Y0114315D01*
X0058758Y0114176D01*
X0058957Y0114032D01*
X0059152Y0113883D01*
X0059344Y0113730D01*
X0059532Y0113572D01*
X0059716Y0113410D01*
X0059895Y0113242D01*
X0060071Y0113071D01*
X0060242Y0112895D01*
X0060410Y0112716D01*
X0060572Y0112532D01*
X0060730Y0112344D01*
X0060883Y0112152D01*
X0061032Y0111957D01*
X0061176Y0111758D01*
X0061315Y0111556D01*
X0061449Y0111350D01*
X0061577Y0111141D01*
X0061701Y0110929D01*
X0061819Y0110714D01*
X0061932Y0110496D01*
X0062040Y0110276D01*
X0062142Y0110052D01*
X0062239Y0109827D01*
X0062330Y0109599D01*
X0062415Y0109369D01*
X0062495Y0109137D01*
X0062569Y0108903D01*
X0062638Y0108667D01*
X0062700Y0108430D01*
X0062757Y0108191D01*
X0062808Y0107951D01*
X0062853Y0107710D01*
X0062892Y0107467D01*
X0062925Y0107224D01*
X0062952Y0106980D01*
X0062973Y0106736D01*
X0062988Y0106491D01*
X0062997Y0106245D01*
X0063000Y0106000D01*
X0062997Y0105755D01*
X0062988Y0105509D01*
X0062973Y0105264D01*
X0062952Y0105020D01*
X0062925Y0104776D01*
X0062892Y0104533D01*
X0062853Y0104290D01*
X0062808Y0104049D01*
X0062757Y0103809D01*
X0062700Y0103570D01*
X0062638Y0103333D01*
X0062569Y0103097D01*
X0062495Y0102863D01*
X0062415Y0102631D01*
X0062330Y0102401D01*
X0062239Y0102173D01*
X0062142Y0101948D01*
X0062040Y0101724D01*
X0061932Y0101504D01*
X0061819Y0101286D01*
X0061701Y0101071D01*
X0061577Y0100859D01*
X0061449Y0100650D01*
X0061315Y0100444D01*
X0061176Y0100242D01*
X0061032Y0100043D01*
X0060883Y0099848D01*
X0060730Y0099656D01*
X0060572Y0099468D01*
X0060410Y0099284D01*
X0060242Y0099105D01*
X0060071Y0098929D01*
X0059895Y0098758D01*
X0059716Y0098590D01*
X0059532Y0098428D01*
X0059344Y0098270D01*
X0059152Y0098117D01*
X0058957Y0097968D01*
X0058758Y0097824D01*
X0058556Y0097685D01*
X0058350Y0097551D01*
X0058141Y0097423D01*
X0057929Y0097299D01*
X0057714Y0097181D01*
X0057496Y0097068D01*
X0057276Y0096960D01*
X0057052Y0096858D01*
X0056827Y0096761D01*
X0056599Y0096670D01*
X0056369Y0096585D01*
X0056137Y0096505D01*
X0055903Y0096431D01*
X0055667Y0096362D01*
X0055430Y0096300D01*
X0055191Y0096243D01*
X0054951Y0096192D01*
X0054710Y0096147D01*
X0054467Y0096108D01*
X0054224Y0096075D01*
X0053980Y0096048D01*
X0053736Y0096027D01*
X0053491Y0096012D01*
X0053245Y0096003D01*
X0053000Y0096000D01*
X0052755Y0096003D01*
X0052509Y0096012D01*
X0052264Y0096027D01*
X0052020Y0096048D01*
X0051776Y0096075D01*
X0051533Y0096108D01*
X0051290Y0096147D01*
X0051049Y0096192D01*
X0050809Y0096243D01*
X0050570Y0096300D01*
X0050333Y0096362D01*
X0050097Y0096431D01*
X0049863Y0096505D01*
X0049631Y0096585D01*
X0049401Y0096670D01*
X0049173Y0096761D01*
X0048948Y0096858D01*
X0048724Y0096960D01*
X0048504Y0097068D01*
X0048286Y0097181D01*
X0048071Y0097299D01*
X0047859Y0097423D01*
X0047650Y0097551D01*
X0047444Y0097685D01*
X0047242Y0097824D01*
X0047043Y0097968D01*
X0046848Y0098117D01*
X0046656Y0098270D01*
X0046468Y0098428D01*
X0046284Y0098590D01*
X0046105Y0098758D01*
X0045929Y0098929D01*
X0045758Y0099105D01*
X0045590Y0099284D01*
X0045428Y0099468D01*
X0045270Y0099656D01*
X0045117Y0099848D01*
X0044968Y0100043D01*
X0044824Y0100242D01*
X0044685Y0100444D01*
X0044551Y0100650D01*
X0044423Y0100859D01*
X0044299Y0101071D01*
X0044181Y0101286D01*
X0044068Y0101504D01*
X0043960Y0101724D01*
X0043858Y0101948D01*
X0043761Y0102173D01*
X0043670Y0102401D01*
X0043585Y0102631D01*
X0043505Y0102863D01*
X0043431Y0103097D01*
X0043362Y0103333D01*
X0043300Y0103570D01*
X0043243Y0103809D01*
X0043192Y0104049D01*
X0043147Y0104290D01*
X0043108Y0104533D01*
X0043075Y0104776D01*
X0043048Y0105020D01*
X0043027Y0105264D01*
X0043012Y0105509D01*
X0043003Y0105755D01*
X0043000Y0106000D01*
X0047500Y0110000D02*
X0047500Y0111000D01*
X0047500Y0112000D01*
X0047500Y0111000D02*
X0046500Y0111000D01*
X0047500Y0111000D02*
X0048500Y0111000D01*
X0047701Y0121343D02*
X0046902Y0121343D01*
X0020902Y0121343D01*
X0011500Y0121343D01*
X0011500Y0160642D01*
X0020902Y0160642D01*
X0046902Y0160642D01*
X0047701Y0160642D01*
X0047701Y0121343D01*
X0046902Y0121343D02*
X0046902Y0160642D01*
X0039700Y0150843D02*
X0039702Y0150932D01*
X0039708Y0151021D01*
X0039718Y0151110D01*
X0039732Y0151198D01*
X0039749Y0151285D01*
X0039771Y0151371D01*
X0039797Y0151457D01*
X0039826Y0151541D01*
X0039859Y0151624D01*
X0039895Y0151705D01*
X0039936Y0151785D01*
X0039979Y0151862D01*
X0040026Y0151938D01*
X0040077Y0152011D01*
X0040130Y0152082D01*
X0040187Y0152151D01*
X0040247Y0152217D01*
X0040310Y0152281D01*
X0040375Y0152341D01*
X0040443Y0152399D01*
X0040514Y0152453D01*
X0040587Y0152504D01*
X0040662Y0152552D01*
X0040739Y0152597D01*
X0040818Y0152638D01*
X0040899Y0152675D01*
X0040981Y0152709D01*
X0041065Y0152740D01*
X0041150Y0152766D01*
X0041236Y0152789D01*
X0041323Y0152807D01*
X0041411Y0152822D01*
X0041500Y0152833D01*
X0041589Y0152840D01*
X0041678Y0152843D01*
X0041767Y0152842D01*
X0041856Y0152837D01*
X0041944Y0152828D01*
X0042033Y0152815D01*
X0042120Y0152798D01*
X0042207Y0152778D01*
X0042293Y0152753D01*
X0042377Y0152725D01*
X0042460Y0152693D01*
X0042542Y0152657D01*
X0042622Y0152618D01*
X0042700Y0152575D01*
X0042776Y0152529D01*
X0042850Y0152479D01*
X0042922Y0152426D01*
X0042991Y0152370D01*
X0043058Y0152311D01*
X0043122Y0152249D01*
X0043183Y0152185D01*
X0043242Y0152117D01*
X0043297Y0152047D01*
X0043349Y0151975D01*
X0043398Y0151900D01*
X0043443Y0151824D01*
X0043485Y0151745D01*
X0043523Y0151665D01*
X0043558Y0151583D01*
X0043589Y0151499D01*
X0043617Y0151414D01*
X0043640Y0151328D01*
X0043660Y0151241D01*
X0043676Y0151154D01*
X0043688Y0151065D01*
X0043696Y0150977D01*
X0043700Y0150888D01*
X0043700Y0150798D01*
X0043696Y0150709D01*
X0043688Y0150621D01*
X0043676Y0150532D01*
X0043660Y0150445D01*
X0043640Y0150358D01*
X0043617Y0150272D01*
X0043589Y0150187D01*
X0043558Y0150103D01*
X0043523Y0150021D01*
X0043485Y0149941D01*
X0043443Y0149862D01*
X0043398Y0149786D01*
X0043349Y0149711D01*
X0043297Y0149639D01*
X0043242Y0149569D01*
X0043183Y0149501D01*
X0043122Y0149437D01*
X0043058Y0149375D01*
X0042991Y0149316D01*
X0042922Y0149260D01*
X0042850Y0149207D01*
X0042776Y0149157D01*
X0042700Y0149111D01*
X0042622Y0149068D01*
X0042542Y0149029D01*
X0042460Y0148993D01*
X0042377Y0148961D01*
X0042293Y0148933D01*
X0042207Y0148908D01*
X0042120Y0148888D01*
X0042033Y0148871D01*
X0041944Y0148858D01*
X0041856Y0148849D01*
X0041767Y0148844D01*
X0041678Y0148843D01*
X0041589Y0148846D01*
X0041500Y0148853D01*
X0041411Y0148864D01*
X0041323Y0148879D01*
X0041236Y0148897D01*
X0041150Y0148920D01*
X0041065Y0148946D01*
X0040981Y0148977D01*
X0040899Y0149011D01*
X0040818Y0149048D01*
X0040739Y0149089D01*
X0040662Y0149134D01*
X0040587Y0149182D01*
X0040514Y0149233D01*
X0040443Y0149287D01*
X0040375Y0149345D01*
X0040310Y0149405D01*
X0040247Y0149469D01*
X0040187Y0149535D01*
X0040130Y0149604D01*
X0040077Y0149675D01*
X0040026Y0149748D01*
X0039979Y0149824D01*
X0039936Y0149901D01*
X0039895Y0149981D01*
X0039859Y0150062D01*
X0039826Y0150145D01*
X0039797Y0150229D01*
X0039771Y0150315D01*
X0039749Y0150401D01*
X0039732Y0150488D01*
X0039718Y0150576D01*
X0039708Y0150665D01*
X0039702Y0150754D01*
X0039700Y0150843D01*
X0020902Y0154343D02*
X0020902Y0160642D01*
X0020902Y0147343D02*
X0020902Y0134642D01*
X0020902Y0127642D02*
X0020902Y0121343D01*
X0039700Y0131143D02*
X0039702Y0131232D01*
X0039708Y0131321D01*
X0039718Y0131410D01*
X0039732Y0131498D01*
X0039749Y0131585D01*
X0039771Y0131671D01*
X0039797Y0131757D01*
X0039826Y0131841D01*
X0039859Y0131924D01*
X0039895Y0132005D01*
X0039936Y0132085D01*
X0039979Y0132162D01*
X0040026Y0132238D01*
X0040077Y0132311D01*
X0040130Y0132382D01*
X0040187Y0132451D01*
X0040247Y0132517D01*
X0040310Y0132581D01*
X0040375Y0132641D01*
X0040443Y0132699D01*
X0040514Y0132753D01*
X0040587Y0132804D01*
X0040662Y0132852D01*
X0040739Y0132897D01*
X0040818Y0132938D01*
X0040899Y0132975D01*
X0040981Y0133009D01*
X0041065Y0133040D01*
X0041150Y0133066D01*
X0041236Y0133089D01*
X0041323Y0133107D01*
X0041411Y0133122D01*
X0041500Y0133133D01*
X0041589Y0133140D01*
X0041678Y0133143D01*
X0041767Y0133142D01*
X0041856Y0133137D01*
X0041944Y0133128D01*
X0042033Y0133115D01*
X0042120Y0133098D01*
X0042207Y0133078D01*
X0042293Y0133053D01*
X0042377Y0133025D01*
X0042460Y0132993D01*
X0042542Y0132957D01*
X0042622Y0132918D01*
X0042700Y0132875D01*
X0042776Y0132829D01*
X0042850Y0132779D01*
X0042922Y0132726D01*
X0042991Y0132670D01*
X0043058Y0132611D01*
X0043122Y0132549D01*
X0043183Y0132485D01*
X0043242Y0132417D01*
X0043297Y0132347D01*
X0043349Y0132275D01*
X0043398Y0132200D01*
X0043443Y0132124D01*
X0043485Y0132045D01*
X0043523Y0131965D01*
X0043558Y0131883D01*
X0043589Y0131799D01*
X0043617Y0131714D01*
X0043640Y0131628D01*
X0043660Y0131541D01*
X0043676Y0131454D01*
X0043688Y0131365D01*
X0043696Y0131277D01*
X0043700Y0131188D01*
X0043700Y0131098D01*
X0043696Y0131009D01*
X0043688Y0130921D01*
X0043676Y0130832D01*
X0043660Y0130745D01*
X0043640Y0130658D01*
X0043617Y0130572D01*
X0043589Y0130487D01*
X0043558Y0130403D01*
X0043523Y0130321D01*
X0043485Y0130241D01*
X0043443Y0130162D01*
X0043398Y0130086D01*
X0043349Y0130011D01*
X0043297Y0129939D01*
X0043242Y0129869D01*
X0043183Y0129801D01*
X0043122Y0129737D01*
X0043058Y0129675D01*
X0042991Y0129616D01*
X0042922Y0129560D01*
X0042850Y0129507D01*
X0042776Y0129457D01*
X0042700Y0129411D01*
X0042622Y0129368D01*
X0042542Y0129329D01*
X0042460Y0129293D01*
X0042377Y0129261D01*
X0042293Y0129233D01*
X0042207Y0129208D01*
X0042120Y0129188D01*
X0042033Y0129171D01*
X0041944Y0129158D01*
X0041856Y0129149D01*
X0041767Y0129144D01*
X0041678Y0129143D01*
X0041589Y0129146D01*
X0041500Y0129153D01*
X0041411Y0129164D01*
X0041323Y0129179D01*
X0041236Y0129197D01*
X0041150Y0129220D01*
X0041065Y0129246D01*
X0040981Y0129277D01*
X0040899Y0129311D01*
X0040818Y0129348D01*
X0040739Y0129389D01*
X0040662Y0129434D01*
X0040587Y0129482D01*
X0040514Y0129533D01*
X0040443Y0129587D01*
X0040375Y0129645D01*
X0040310Y0129705D01*
X0040247Y0129769D01*
X0040187Y0129835D01*
X0040130Y0129904D01*
X0040077Y0129975D01*
X0040026Y0130048D01*
X0039979Y0130124D01*
X0039936Y0130201D01*
X0039895Y0130281D01*
X0039859Y0130362D01*
X0039826Y0130445D01*
X0039797Y0130529D01*
X0039771Y0130615D01*
X0039749Y0130701D01*
X0039732Y0130788D01*
X0039718Y0130876D01*
X0039708Y0130965D01*
X0039702Y0131054D01*
X0039700Y0131143D01*
X0077000Y0116000D02*
X0077000Y0076000D01*
X0099000Y0076000D01*
X0099000Y0116000D01*
X0077000Y0116000D01*
X0088000Y0101000D02*
X0088000Y0096000D01*
X0085700Y0096000D01*
X0088000Y0096000D02*
X0088000Y0087000D01*
X0085700Y0091500D02*
X0088000Y0096000D01*
X0090300Y0091500D01*
X0085700Y0091500D01*
X0088000Y0096000D02*
X0090300Y0096000D01*
X0141500Y0126000D02*
X0142500Y0126000D01*
X0142500Y0127000D01*
X0142500Y0126000D02*
X0143500Y0126000D01*
X0142500Y0126000D02*
X0142500Y0125000D01*
X0138000Y0121000D02*
X0138003Y0121245D01*
X0138012Y0121491D01*
X0138027Y0121736D01*
X0138048Y0121980D01*
X0138075Y0122224D01*
X0138108Y0122467D01*
X0138147Y0122710D01*
X0138192Y0122951D01*
X0138243Y0123191D01*
X0138300Y0123430D01*
X0138362Y0123667D01*
X0138431Y0123903D01*
X0138505Y0124137D01*
X0138585Y0124369D01*
X0138670Y0124599D01*
X0138761Y0124827D01*
X0138858Y0125052D01*
X0138960Y0125276D01*
X0139068Y0125496D01*
X0139181Y0125714D01*
X0139299Y0125929D01*
X0139423Y0126141D01*
X0139551Y0126350D01*
X0139685Y0126556D01*
X0139824Y0126758D01*
X0139968Y0126957D01*
X0140117Y0127152D01*
X0140270Y0127344D01*
X0140428Y0127532D01*
X0140590Y0127716D01*
X0140758Y0127895D01*
X0140929Y0128071D01*
X0141105Y0128242D01*
X0141284Y0128410D01*
X0141468Y0128572D01*
X0141656Y0128730D01*
X0141848Y0128883D01*
X0142043Y0129032D01*
X0142242Y0129176D01*
X0142444Y0129315D01*
X0142650Y0129449D01*
X0142859Y0129577D01*
X0143071Y0129701D01*
X0143286Y0129819D01*
X0143504Y0129932D01*
X0143724Y0130040D01*
X0143948Y0130142D01*
X0144173Y0130239D01*
X0144401Y0130330D01*
X0144631Y0130415D01*
X0144863Y0130495D01*
X0145097Y0130569D01*
X0145333Y0130638D01*
X0145570Y0130700D01*
X0145809Y0130757D01*
X0146049Y0130808D01*
X0146290Y0130853D01*
X0146533Y0130892D01*
X0146776Y0130925D01*
X0147020Y0130952D01*
X0147264Y0130973D01*
X0147509Y0130988D01*
X0147755Y0130997D01*
X0148000Y0131000D01*
X0148245Y0130997D01*
X0148491Y0130988D01*
X0148736Y0130973D01*
X0148980Y0130952D01*
X0149224Y0130925D01*
X0149467Y0130892D01*
X0149710Y0130853D01*
X0149951Y0130808D01*
X0150191Y0130757D01*
X0150430Y0130700D01*
X0150667Y0130638D01*
X0150903Y0130569D01*
X0151137Y0130495D01*
X0151369Y0130415D01*
X0151599Y0130330D01*
X0151827Y0130239D01*
X0152052Y0130142D01*
X0152276Y0130040D01*
X0152496Y0129932D01*
X0152714Y0129819D01*
X0152929Y0129701D01*
X0153141Y0129577D01*
X0153350Y0129449D01*
X0153556Y0129315D01*
X0153758Y0129176D01*
X0153957Y0129032D01*
X0154152Y0128883D01*
X0154344Y0128730D01*
X0154532Y0128572D01*
X0154716Y0128410D01*
X0154895Y0128242D01*
X0155071Y0128071D01*
X0155242Y0127895D01*
X0155410Y0127716D01*
X0155572Y0127532D01*
X0155730Y0127344D01*
X0155883Y0127152D01*
X0156032Y0126957D01*
X0156176Y0126758D01*
X0156315Y0126556D01*
X0156449Y0126350D01*
X0156577Y0126141D01*
X0156701Y0125929D01*
X0156819Y0125714D01*
X0156932Y0125496D01*
X0157040Y0125276D01*
X0157142Y0125052D01*
X0157239Y0124827D01*
X0157330Y0124599D01*
X0157415Y0124369D01*
X0157495Y0124137D01*
X0157569Y0123903D01*
X0157638Y0123667D01*
X0157700Y0123430D01*
X0157757Y0123191D01*
X0157808Y0122951D01*
X0157853Y0122710D01*
X0157892Y0122467D01*
X0157925Y0122224D01*
X0157952Y0121980D01*
X0157973Y0121736D01*
X0157988Y0121491D01*
X0157997Y0121245D01*
X0158000Y0121000D01*
X0157997Y0120755D01*
X0157988Y0120509D01*
X0157973Y0120264D01*
X0157952Y0120020D01*
X0157925Y0119776D01*
X0157892Y0119533D01*
X0157853Y0119290D01*
X0157808Y0119049D01*
X0157757Y0118809D01*
X0157700Y0118570D01*
X0157638Y0118333D01*
X0157569Y0118097D01*
X0157495Y0117863D01*
X0157415Y0117631D01*
X0157330Y0117401D01*
X0157239Y0117173D01*
X0157142Y0116948D01*
X0157040Y0116724D01*
X0156932Y0116504D01*
X0156819Y0116286D01*
X0156701Y0116071D01*
X0156577Y0115859D01*
X0156449Y0115650D01*
X0156315Y0115444D01*
X0156176Y0115242D01*
X0156032Y0115043D01*
X0155883Y0114848D01*
X0155730Y0114656D01*
X0155572Y0114468D01*
X0155410Y0114284D01*
X0155242Y0114105D01*
X0155071Y0113929D01*
X0154895Y0113758D01*
X0154716Y0113590D01*
X0154532Y0113428D01*
X0154344Y0113270D01*
X0154152Y0113117D01*
X0153957Y0112968D01*
X0153758Y0112824D01*
X0153556Y0112685D01*
X0153350Y0112551D01*
X0153141Y0112423D01*
X0152929Y0112299D01*
X0152714Y0112181D01*
X0152496Y0112068D01*
X0152276Y0111960D01*
X0152052Y0111858D01*
X0151827Y0111761D01*
X0151599Y0111670D01*
X0151369Y0111585D01*
X0151137Y0111505D01*
X0150903Y0111431D01*
X0150667Y0111362D01*
X0150430Y0111300D01*
X0150191Y0111243D01*
X0149951Y0111192D01*
X0149710Y0111147D01*
X0149467Y0111108D01*
X0149224Y0111075D01*
X0148980Y0111048D01*
X0148736Y0111027D01*
X0148491Y0111012D01*
X0148245Y0111003D01*
X0148000Y0111000D01*
X0147755Y0111003D01*
X0147509Y0111012D01*
X0147264Y0111027D01*
X0147020Y0111048D01*
X0146776Y0111075D01*
X0146533Y0111108D01*
X0146290Y0111147D01*
X0146049Y0111192D01*
X0145809Y0111243D01*
X0145570Y0111300D01*
X0145333Y0111362D01*
X0145097Y0111431D01*
X0144863Y0111505D01*
X0144631Y0111585D01*
X0144401Y0111670D01*
X0144173Y0111761D01*
X0143948Y0111858D01*
X0143724Y0111960D01*
X0143504Y0112068D01*
X0143286Y0112181D01*
X0143071Y0112299D01*
X0142859Y0112423D01*
X0142650Y0112551D01*
X0142444Y0112685D01*
X0142242Y0112824D01*
X0142043Y0112968D01*
X0141848Y0113117D01*
X0141656Y0113270D01*
X0141468Y0113428D01*
X0141284Y0113590D01*
X0141105Y0113758D01*
X0140929Y0113929D01*
X0140758Y0114105D01*
X0140590Y0114284D01*
X0140428Y0114468D01*
X0140270Y0114656D01*
X0140117Y0114848D01*
X0139968Y0115043D01*
X0139824Y0115242D01*
X0139685Y0115444D01*
X0139551Y0115650D01*
X0139423Y0115859D01*
X0139299Y0116071D01*
X0139181Y0116286D01*
X0139068Y0116504D01*
X0138960Y0116724D01*
X0138858Y0116948D01*
X0138761Y0117173D01*
X0138670Y0117401D01*
X0138585Y0117631D01*
X0138505Y0117863D01*
X0138431Y0118097D01*
X0138362Y0118333D01*
X0138300Y0118570D01*
X0138243Y0118809D01*
X0138192Y0119049D01*
X0138147Y0119290D01*
X0138108Y0119533D01*
X0138075Y0119776D01*
X0138048Y0120020D01*
X0138027Y0120264D01*
X0138012Y0120509D01*
X0138003Y0120755D01*
X0138000Y0121000D01*
X0160500Y0137500D02*
X0160500Y0144500D01*
X0160502Y0144560D01*
X0160507Y0144621D01*
X0160516Y0144680D01*
X0160529Y0144739D01*
X0160545Y0144798D01*
X0160565Y0144855D01*
X0160588Y0144910D01*
X0160615Y0144965D01*
X0160644Y0145017D01*
X0160677Y0145068D01*
X0160713Y0145117D01*
X0160751Y0145163D01*
X0160793Y0145207D01*
X0160837Y0145249D01*
X0160883Y0145287D01*
X0160932Y0145323D01*
X0160983Y0145356D01*
X0161035Y0145385D01*
X0161090Y0145412D01*
X0161145Y0145435D01*
X0161202Y0145455D01*
X0161261Y0145471D01*
X0161320Y0145484D01*
X0161379Y0145493D01*
X0161440Y0145498D01*
X0161500Y0145500D01*
X0163000Y0145500D01*
X0163500Y0145000D01*
X0182500Y0145000D01*
X0183000Y0145500D01*
X0184500Y0145500D01*
X0184560Y0145498D01*
X0184621Y0145493D01*
X0184680Y0145484D01*
X0184739Y0145471D01*
X0184798Y0145455D01*
X0184855Y0145435D01*
X0184910Y0145412D01*
X0184965Y0145385D01*
X0185017Y0145356D01*
X0185068Y0145323D01*
X0185117Y0145287D01*
X0185163Y0145249D01*
X0185207Y0145207D01*
X0185249Y0145163D01*
X0185287Y0145117D01*
X0185323Y0145068D01*
X0185356Y0145017D01*
X0185385Y0144965D01*
X0185412Y0144910D01*
X0185435Y0144855D01*
X0185455Y0144798D01*
X0185471Y0144739D01*
X0185484Y0144680D01*
X0185493Y0144621D01*
X0185498Y0144560D01*
X0185500Y0144500D01*
X0185500Y0137500D01*
X0185498Y0137440D01*
X0185493Y0137379D01*
X0185484Y0137320D01*
X0185471Y0137261D01*
X0185455Y0137202D01*
X0185435Y0137145D01*
X0185412Y0137090D01*
X0185385Y0137035D01*
X0185356Y0136983D01*
X0185323Y0136932D01*
X0185287Y0136883D01*
X0185249Y0136837D01*
X0185207Y0136793D01*
X0185163Y0136751D01*
X0185117Y0136713D01*
X0185068Y0136677D01*
X0185017Y0136644D01*
X0184965Y0136615D01*
X0184910Y0136588D01*
X0184855Y0136565D01*
X0184798Y0136545D01*
X0184739Y0136529D01*
X0184680Y0136516D01*
X0184621Y0136507D01*
X0184560Y0136502D01*
X0184500Y0136500D01*
X0183000Y0136500D01*
X0182500Y0137000D01*
X0163500Y0137000D01*
X0163000Y0136500D01*
X0161500Y0136500D01*
X0161440Y0136502D01*
X0161379Y0136507D01*
X0161320Y0136516D01*
X0161261Y0136529D01*
X0161202Y0136545D01*
X0161145Y0136565D01*
X0161090Y0136588D01*
X0161035Y0136615D01*
X0160983Y0136644D01*
X0160932Y0136677D01*
X0160883Y0136713D01*
X0160837Y0136751D01*
X0160793Y0136793D01*
X0160751Y0136837D01*
X0160713Y0136883D01*
X0160677Y0136932D01*
X0160644Y0136983D01*
X0160615Y0137035D01*
X0160588Y0137090D01*
X0160565Y0137145D01*
X0160545Y0137202D01*
X0160529Y0137261D01*
X0160516Y0137320D01*
X0160507Y0137379D01*
X0160502Y0137440D01*
X0160500Y0137500D01*
X0176500Y0186000D02*
X0176503Y0186282D01*
X0176514Y0186564D01*
X0176531Y0186846D01*
X0176555Y0187127D01*
X0176586Y0187408D01*
X0176624Y0187687D01*
X0176669Y0187966D01*
X0176721Y0188244D01*
X0176779Y0188520D01*
X0176845Y0188794D01*
X0176917Y0189067D01*
X0176995Y0189338D01*
X0177080Y0189607D01*
X0177172Y0189874D01*
X0177271Y0190139D01*
X0177375Y0190401D01*
X0177487Y0190660D01*
X0177604Y0190917D01*
X0177728Y0191171D01*
X0177858Y0191421D01*
X0177994Y0191668D01*
X0178136Y0191912D01*
X0178284Y0192152D01*
X0178438Y0192389D01*
X0178598Y0192622D01*
X0178763Y0192851D01*
X0178934Y0193075D01*
X0179110Y0193296D01*
X0179292Y0193511D01*
X0179479Y0193723D01*
X0179671Y0193930D01*
X0179868Y0194132D01*
X0180070Y0194329D01*
X0180277Y0194521D01*
X0180489Y0194708D01*
X0180704Y0194890D01*
X0180925Y0195066D01*
X0181149Y0195237D01*
X0181378Y0195402D01*
X0181611Y0195562D01*
X0181848Y0195716D01*
X0182088Y0195864D01*
X0182332Y0196006D01*
X0182579Y0196142D01*
X0182829Y0196272D01*
X0183083Y0196396D01*
X0183340Y0196513D01*
X0183599Y0196625D01*
X0183861Y0196729D01*
X0184126Y0196828D01*
X0184393Y0196920D01*
X0184662Y0197005D01*
X0184933Y0197083D01*
X0185206Y0197155D01*
X0185480Y0197221D01*
X0185756Y0197279D01*
X0186034Y0197331D01*
X0186313Y0197376D01*
X0186592Y0197414D01*
X0186873Y0197445D01*
X0187154Y0197469D01*
X0187436Y0197486D01*
X0187718Y0197497D01*
X0188000Y0197500D01*
X0188282Y0197497D01*
X0188564Y0197486D01*
X0188846Y0197469D01*
X0189127Y0197445D01*
X0189408Y0197414D01*
X0189687Y0197376D01*
X0189966Y0197331D01*
X0190244Y0197279D01*
X0190520Y0197221D01*
X0190794Y0197155D01*
X0191067Y0197083D01*
X0191338Y0197005D01*
X0191607Y0196920D01*
X0191874Y0196828D01*
X0192139Y0196729D01*
X0192401Y0196625D01*
X0192660Y0196513D01*
X0192917Y0196396D01*
X0193171Y0196272D01*
X0193421Y0196142D01*
X0193668Y0196006D01*
X0193912Y0195864D01*
X0194152Y0195716D01*
X0194389Y0195562D01*
X0194622Y0195402D01*
X0194851Y0195237D01*
X0195075Y0195066D01*
X0195296Y0194890D01*
X0195511Y0194708D01*
X0195723Y0194521D01*
X0195930Y0194329D01*
X0196132Y0194132D01*
X0196329Y0193930D01*
X0196521Y0193723D01*
X0196708Y0193511D01*
X0196890Y0193296D01*
X0197066Y0193075D01*
X0197237Y0192851D01*
X0197402Y0192622D01*
X0197562Y0192389D01*
X0197716Y0192152D01*
X0197864Y0191912D01*
X0198006Y0191668D01*
X0198142Y0191421D01*
X0198272Y0191171D01*
X0198396Y0190917D01*
X0198513Y0190660D01*
X0198625Y0190401D01*
X0198729Y0190139D01*
X0198828Y0189874D01*
X0198920Y0189607D01*
X0199005Y0189338D01*
X0199083Y0189067D01*
X0199155Y0188794D01*
X0199221Y0188520D01*
X0199279Y0188244D01*
X0199331Y0187966D01*
X0199376Y0187687D01*
X0199414Y0187408D01*
X0199445Y0187127D01*
X0199469Y0186846D01*
X0199486Y0186564D01*
X0199497Y0186282D01*
X0199500Y0186000D01*
X0199497Y0185718D01*
X0199486Y0185436D01*
X0199469Y0185154D01*
X0199445Y0184873D01*
X0199414Y0184592D01*
X0199376Y0184313D01*
X0199331Y0184034D01*
X0199279Y0183756D01*
X0199221Y0183480D01*
X0199155Y0183206D01*
X0199083Y0182933D01*
X0199005Y0182662D01*
X0198920Y0182393D01*
X0198828Y0182126D01*
X0198729Y0181861D01*
X0198625Y0181599D01*
X0198513Y0181340D01*
X0198396Y0181083D01*
X0198272Y0180829D01*
X0198142Y0180579D01*
X0198006Y0180332D01*
X0197864Y0180088D01*
X0197716Y0179848D01*
X0197562Y0179611D01*
X0197402Y0179378D01*
X0197237Y0179149D01*
X0197066Y0178925D01*
X0196890Y0178704D01*
X0196708Y0178489D01*
X0196521Y0178277D01*
X0196329Y0178070D01*
X0196132Y0177868D01*
X0195930Y0177671D01*
X0195723Y0177479D01*
X0195511Y0177292D01*
X0195296Y0177110D01*
X0195075Y0176934D01*
X0194851Y0176763D01*
X0194622Y0176598D01*
X0194389Y0176438D01*
X0194152Y0176284D01*
X0193912Y0176136D01*
X0193668Y0175994D01*
X0193421Y0175858D01*
X0193171Y0175728D01*
X0192917Y0175604D01*
X0192660Y0175487D01*
X0192401Y0175375D01*
X0192139Y0175271D01*
X0191874Y0175172D01*
X0191607Y0175080D01*
X0191338Y0174995D01*
X0191067Y0174917D01*
X0190794Y0174845D01*
X0190520Y0174779D01*
X0190244Y0174721D01*
X0189966Y0174669D01*
X0189687Y0174624D01*
X0189408Y0174586D01*
X0189127Y0174555D01*
X0188846Y0174531D01*
X0188564Y0174514D01*
X0188282Y0174503D01*
X0188000Y0174500D01*
X0187718Y0174503D01*
X0187436Y0174514D01*
X0187154Y0174531D01*
X0186873Y0174555D01*
X0186592Y0174586D01*
X0186313Y0174624D01*
X0186034Y0174669D01*
X0185756Y0174721D01*
X0185480Y0174779D01*
X0185206Y0174845D01*
X0184933Y0174917D01*
X0184662Y0174995D01*
X0184393Y0175080D01*
X0184126Y0175172D01*
X0183861Y0175271D01*
X0183599Y0175375D01*
X0183340Y0175487D01*
X0183083Y0175604D01*
X0182829Y0175728D01*
X0182579Y0175858D01*
X0182332Y0175994D01*
X0182088Y0176136D01*
X0181848Y0176284D01*
X0181611Y0176438D01*
X0181378Y0176598D01*
X0181149Y0176763D01*
X0180925Y0176934D01*
X0180704Y0177110D01*
X0180489Y0177292D01*
X0180277Y0177479D01*
X0180070Y0177671D01*
X0179868Y0177868D01*
X0179671Y0178070D01*
X0179479Y0178277D01*
X0179292Y0178489D01*
X0179110Y0178704D01*
X0178934Y0178925D01*
X0178763Y0179149D01*
X0178598Y0179378D01*
X0178438Y0179611D01*
X0178284Y0179848D01*
X0178136Y0180088D01*
X0177994Y0180332D01*
X0177858Y0180579D01*
X0177728Y0180829D01*
X0177604Y0181083D01*
X0177487Y0181340D01*
X0177375Y0181599D01*
X0177271Y0181861D01*
X0177172Y0182126D01*
X0177080Y0182393D01*
X0176995Y0182662D01*
X0176917Y0182933D01*
X0176845Y0183206D01*
X0176779Y0183480D01*
X0176721Y0183756D01*
X0176669Y0184034D01*
X0176624Y0184313D01*
X0176586Y0184592D01*
X0176555Y0184873D01*
X0176531Y0185154D01*
X0176514Y0185436D01*
X0176503Y0185718D01*
X0176500Y0186000D01*
X0183000Y0085500D02*
X0184500Y0085500D01*
X0184560Y0085498D01*
X0184621Y0085493D01*
X0184680Y0085484D01*
X0184739Y0085471D01*
X0184798Y0085455D01*
X0184855Y0085435D01*
X0184910Y0085412D01*
X0184965Y0085385D01*
X0185017Y0085356D01*
X0185068Y0085323D01*
X0185117Y0085287D01*
X0185163Y0085249D01*
X0185207Y0085207D01*
X0185249Y0085163D01*
X0185287Y0085117D01*
X0185323Y0085068D01*
X0185356Y0085017D01*
X0185385Y0084965D01*
X0185412Y0084910D01*
X0185435Y0084855D01*
X0185455Y0084798D01*
X0185471Y0084739D01*
X0185484Y0084680D01*
X0185493Y0084621D01*
X0185498Y0084560D01*
X0185500Y0084500D01*
X0185500Y0077500D01*
X0185498Y0077440D01*
X0185493Y0077379D01*
X0185484Y0077320D01*
X0185471Y0077261D01*
X0185455Y0077202D01*
X0185435Y0077145D01*
X0185412Y0077090D01*
X0185385Y0077035D01*
X0185356Y0076983D01*
X0185323Y0076932D01*
X0185287Y0076883D01*
X0185249Y0076837D01*
X0185207Y0076793D01*
X0185163Y0076751D01*
X0185117Y0076713D01*
X0185068Y0076677D01*
X0185017Y0076644D01*
X0184965Y0076615D01*
X0184910Y0076588D01*
X0184855Y0076565D01*
X0184798Y0076545D01*
X0184739Y0076529D01*
X0184680Y0076516D01*
X0184621Y0076507D01*
X0184560Y0076502D01*
X0184500Y0076500D01*
X0183000Y0076500D01*
X0182500Y0077000D01*
X0163500Y0077000D01*
X0163000Y0076500D01*
X0161500Y0076500D01*
X0161440Y0076502D01*
X0161379Y0076507D01*
X0161320Y0076516D01*
X0161261Y0076529D01*
X0161202Y0076545D01*
X0161145Y0076565D01*
X0161090Y0076588D01*
X0161035Y0076615D01*
X0160983Y0076644D01*
X0160932Y0076677D01*
X0160883Y0076713D01*
X0160837Y0076751D01*
X0160793Y0076793D01*
X0160751Y0076837D01*
X0160713Y0076883D01*
X0160677Y0076932D01*
X0160644Y0076983D01*
X0160615Y0077035D01*
X0160588Y0077090D01*
X0160565Y0077145D01*
X0160545Y0077202D01*
X0160529Y0077261D01*
X0160516Y0077320D01*
X0160507Y0077379D01*
X0160502Y0077440D01*
X0160500Y0077500D01*
X0160500Y0084500D01*
X0160502Y0084560D01*
X0160507Y0084621D01*
X0160516Y0084680D01*
X0160529Y0084739D01*
X0160545Y0084798D01*
X0160565Y0084855D01*
X0160588Y0084910D01*
X0160615Y0084965D01*
X0160644Y0085017D01*
X0160677Y0085068D01*
X0160713Y0085117D01*
X0160751Y0085163D01*
X0160793Y0085207D01*
X0160837Y0085249D01*
X0160883Y0085287D01*
X0160932Y0085323D01*
X0160983Y0085356D01*
X0161035Y0085385D01*
X0161090Y0085412D01*
X0161145Y0085435D01*
X0161202Y0085455D01*
X0161261Y0085471D01*
X0161320Y0085484D01*
X0161379Y0085493D01*
X0161440Y0085498D01*
X0161500Y0085500D01*
X0163000Y0085500D01*
X0163500Y0085000D01*
X0182500Y0085000D01*
X0183000Y0085500D01*
X0176500Y0016000D02*
X0176503Y0016282D01*
X0176514Y0016564D01*
X0176531Y0016846D01*
X0176555Y0017127D01*
X0176586Y0017408D01*
X0176624Y0017687D01*
X0176669Y0017966D01*
X0176721Y0018244D01*
X0176779Y0018520D01*
X0176845Y0018794D01*
X0176917Y0019067D01*
X0176995Y0019338D01*
X0177080Y0019607D01*
X0177172Y0019874D01*
X0177271Y0020139D01*
X0177375Y0020401D01*
X0177487Y0020660D01*
X0177604Y0020917D01*
X0177728Y0021171D01*
X0177858Y0021421D01*
X0177994Y0021668D01*
X0178136Y0021912D01*
X0178284Y0022152D01*
X0178438Y0022389D01*
X0178598Y0022622D01*
X0178763Y0022851D01*
X0178934Y0023075D01*
X0179110Y0023296D01*
X0179292Y0023511D01*
X0179479Y0023723D01*
X0179671Y0023930D01*
X0179868Y0024132D01*
X0180070Y0024329D01*
X0180277Y0024521D01*
X0180489Y0024708D01*
X0180704Y0024890D01*
X0180925Y0025066D01*
X0181149Y0025237D01*
X0181378Y0025402D01*
X0181611Y0025562D01*
X0181848Y0025716D01*
X0182088Y0025864D01*
X0182332Y0026006D01*
X0182579Y0026142D01*
X0182829Y0026272D01*
X0183083Y0026396D01*
X0183340Y0026513D01*
X0183599Y0026625D01*
X0183861Y0026729D01*
X0184126Y0026828D01*
X0184393Y0026920D01*
X0184662Y0027005D01*
X0184933Y0027083D01*
X0185206Y0027155D01*
X0185480Y0027221D01*
X0185756Y0027279D01*
X0186034Y0027331D01*
X0186313Y0027376D01*
X0186592Y0027414D01*
X0186873Y0027445D01*
X0187154Y0027469D01*
X0187436Y0027486D01*
X0187718Y0027497D01*
X0188000Y0027500D01*
X0188282Y0027497D01*
X0188564Y0027486D01*
X0188846Y0027469D01*
X0189127Y0027445D01*
X0189408Y0027414D01*
X0189687Y0027376D01*
X0189966Y0027331D01*
X0190244Y0027279D01*
X0190520Y0027221D01*
X0190794Y0027155D01*
X0191067Y0027083D01*
X0191338Y0027005D01*
X0191607Y0026920D01*
X0191874Y0026828D01*
X0192139Y0026729D01*
X0192401Y0026625D01*
X0192660Y0026513D01*
X0192917Y0026396D01*
X0193171Y0026272D01*
X0193421Y0026142D01*
X0193668Y0026006D01*
X0193912Y0025864D01*
X0194152Y0025716D01*
X0194389Y0025562D01*
X0194622Y0025402D01*
X0194851Y0025237D01*
X0195075Y0025066D01*
X0195296Y0024890D01*
X0195511Y0024708D01*
X0195723Y0024521D01*
X0195930Y0024329D01*
X0196132Y0024132D01*
X0196329Y0023930D01*
X0196521Y0023723D01*
X0196708Y0023511D01*
X0196890Y0023296D01*
X0197066Y0023075D01*
X0197237Y0022851D01*
X0197402Y0022622D01*
X0197562Y0022389D01*
X0197716Y0022152D01*
X0197864Y0021912D01*
X0198006Y0021668D01*
X0198142Y0021421D01*
X0198272Y0021171D01*
X0198396Y0020917D01*
X0198513Y0020660D01*
X0198625Y0020401D01*
X0198729Y0020139D01*
X0198828Y0019874D01*
X0198920Y0019607D01*
X0199005Y0019338D01*
X0199083Y0019067D01*
X0199155Y0018794D01*
X0199221Y0018520D01*
X0199279Y0018244D01*
X0199331Y0017966D01*
X0199376Y0017687D01*
X0199414Y0017408D01*
X0199445Y0017127D01*
X0199469Y0016846D01*
X0199486Y0016564D01*
X0199497Y0016282D01*
X0199500Y0016000D01*
X0199497Y0015718D01*
X0199486Y0015436D01*
X0199469Y0015154D01*
X0199445Y0014873D01*
X0199414Y0014592D01*
X0199376Y0014313D01*
X0199331Y0014034D01*
X0199279Y0013756D01*
X0199221Y0013480D01*
X0199155Y0013206D01*
X0199083Y0012933D01*
X0199005Y0012662D01*
X0198920Y0012393D01*
X0198828Y0012126D01*
X0198729Y0011861D01*
X0198625Y0011599D01*
X0198513Y0011340D01*
X0198396Y0011083D01*
X0198272Y0010829D01*
X0198142Y0010579D01*
X0198006Y0010332D01*
X0197864Y0010088D01*
X0197716Y0009848D01*
X0197562Y0009611D01*
X0197402Y0009378D01*
X0197237Y0009149D01*
X0197066Y0008925D01*
X0196890Y0008704D01*
X0196708Y0008489D01*
X0196521Y0008277D01*
X0196329Y0008070D01*
X0196132Y0007868D01*
X0195930Y0007671D01*
X0195723Y0007479D01*
X0195511Y0007292D01*
X0195296Y0007110D01*
X0195075Y0006934D01*
X0194851Y0006763D01*
X0194622Y0006598D01*
X0194389Y0006438D01*
X0194152Y0006284D01*
X0193912Y0006136D01*
X0193668Y0005994D01*
X0193421Y0005858D01*
X0193171Y0005728D01*
X0192917Y0005604D01*
X0192660Y0005487D01*
X0192401Y0005375D01*
X0192139Y0005271D01*
X0191874Y0005172D01*
X0191607Y0005080D01*
X0191338Y0004995D01*
X0191067Y0004917D01*
X0190794Y0004845D01*
X0190520Y0004779D01*
X0190244Y0004721D01*
X0189966Y0004669D01*
X0189687Y0004624D01*
X0189408Y0004586D01*
X0189127Y0004555D01*
X0188846Y0004531D01*
X0188564Y0004514D01*
X0188282Y0004503D01*
X0188000Y0004500D01*
X0187718Y0004503D01*
X0187436Y0004514D01*
X0187154Y0004531D01*
X0186873Y0004555D01*
X0186592Y0004586D01*
X0186313Y0004624D01*
X0186034Y0004669D01*
X0185756Y0004721D01*
X0185480Y0004779D01*
X0185206Y0004845D01*
X0184933Y0004917D01*
X0184662Y0004995D01*
X0184393Y0005080D01*
X0184126Y0005172D01*
X0183861Y0005271D01*
X0183599Y0005375D01*
X0183340Y0005487D01*
X0183083Y0005604D01*
X0182829Y0005728D01*
X0182579Y0005858D01*
X0182332Y0005994D01*
X0182088Y0006136D01*
X0181848Y0006284D01*
X0181611Y0006438D01*
X0181378Y0006598D01*
X0181149Y0006763D01*
X0180925Y0006934D01*
X0180704Y0007110D01*
X0180489Y0007292D01*
X0180277Y0007479D01*
X0180070Y0007671D01*
X0179868Y0007868D01*
X0179671Y0008070D01*
X0179479Y0008277D01*
X0179292Y0008489D01*
X0179110Y0008704D01*
X0178934Y0008925D01*
X0178763Y0009149D01*
X0178598Y0009378D01*
X0178438Y0009611D01*
X0178284Y0009848D01*
X0178136Y0010088D01*
X0177994Y0010332D01*
X0177858Y0010579D01*
X0177728Y0010829D01*
X0177604Y0011083D01*
X0177487Y0011340D01*
X0177375Y0011599D01*
X0177271Y0011861D01*
X0177172Y0012126D01*
X0177080Y0012393D01*
X0176995Y0012662D01*
X0176917Y0012933D01*
X0176845Y0013206D01*
X0176779Y0013480D01*
X0176721Y0013756D01*
X0176669Y0014034D01*
X0176624Y0014313D01*
X0176586Y0014592D01*
X0176555Y0014873D01*
X0176531Y0015154D01*
X0176514Y0015436D01*
X0176503Y0015718D01*
X0176500Y0016000D01*
X0006500Y0186000D02*
X0006503Y0186282D01*
X0006514Y0186564D01*
X0006531Y0186846D01*
X0006555Y0187127D01*
X0006586Y0187408D01*
X0006624Y0187687D01*
X0006669Y0187966D01*
X0006721Y0188244D01*
X0006779Y0188520D01*
X0006845Y0188794D01*
X0006917Y0189067D01*
X0006995Y0189338D01*
X0007080Y0189607D01*
X0007172Y0189874D01*
X0007271Y0190139D01*
X0007375Y0190401D01*
X0007487Y0190660D01*
X0007604Y0190917D01*
X0007728Y0191171D01*
X0007858Y0191421D01*
X0007994Y0191668D01*
X0008136Y0191912D01*
X0008284Y0192152D01*
X0008438Y0192389D01*
X0008598Y0192622D01*
X0008763Y0192851D01*
X0008934Y0193075D01*
X0009110Y0193296D01*
X0009292Y0193511D01*
X0009479Y0193723D01*
X0009671Y0193930D01*
X0009868Y0194132D01*
X0010070Y0194329D01*
X0010277Y0194521D01*
X0010489Y0194708D01*
X0010704Y0194890D01*
X0010925Y0195066D01*
X0011149Y0195237D01*
X0011378Y0195402D01*
X0011611Y0195562D01*
X0011848Y0195716D01*
X0012088Y0195864D01*
X0012332Y0196006D01*
X0012579Y0196142D01*
X0012829Y0196272D01*
X0013083Y0196396D01*
X0013340Y0196513D01*
X0013599Y0196625D01*
X0013861Y0196729D01*
X0014126Y0196828D01*
X0014393Y0196920D01*
X0014662Y0197005D01*
X0014933Y0197083D01*
X0015206Y0197155D01*
X0015480Y0197221D01*
X0015756Y0197279D01*
X0016034Y0197331D01*
X0016313Y0197376D01*
X0016592Y0197414D01*
X0016873Y0197445D01*
X0017154Y0197469D01*
X0017436Y0197486D01*
X0017718Y0197497D01*
X0018000Y0197500D01*
X0018282Y0197497D01*
X0018564Y0197486D01*
X0018846Y0197469D01*
X0019127Y0197445D01*
X0019408Y0197414D01*
X0019687Y0197376D01*
X0019966Y0197331D01*
X0020244Y0197279D01*
X0020520Y0197221D01*
X0020794Y0197155D01*
X0021067Y0197083D01*
X0021338Y0197005D01*
X0021607Y0196920D01*
X0021874Y0196828D01*
X0022139Y0196729D01*
X0022401Y0196625D01*
X0022660Y0196513D01*
X0022917Y0196396D01*
X0023171Y0196272D01*
X0023421Y0196142D01*
X0023668Y0196006D01*
X0023912Y0195864D01*
X0024152Y0195716D01*
X0024389Y0195562D01*
X0024622Y0195402D01*
X0024851Y0195237D01*
X0025075Y0195066D01*
X0025296Y0194890D01*
X0025511Y0194708D01*
X0025723Y0194521D01*
X0025930Y0194329D01*
X0026132Y0194132D01*
X0026329Y0193930D01*
X0026521Y0193723D01*
X0026708Y0193511D01*
X0026890Y0193296D01*
X0027066Y0193075D01*
X0027237Y0192851D01*
X0027402Y0192622D01*
X0027562Y0192389D01*
X0027716Y0192152D01*
X0027864Y0191912D01*
X0028006Y0191668D01*
X0028142Y0191421D01*
X0028272Y0191171D01*
X0028396Y0190917D01*
X0028513Y0190660D01*
X0028625Y0190401D01*
X0028729Y0190139D01*
X0028828Y0189874D01*
X0028920Y0189607D01*
X0029005Y0189338D01*
X0029083Y0189067D01*
X0029155Y0188794D01*
X0029221Y0188520D01*
X0029279Y0188244D01*
X0029331Y0187966D01*
X0029376Y0187687D01*
X0029414Y0187408D01*
X0029445Y0187127D01*
X0029469Y0186846D01*
X0029486Y0186564D01*
X0029497Y0186282D01*
X0029500Y0186000D01*
X0029497Y0185718D01*
X0029486Y0185436D01*
X0029469Y0185154D01*
X0029445Y0184873D01*
X0029414Y0184592D01*
X0029376Y0184313D01*
X0029331Y0184034D01*
X0029279Y0183756D01*
X0029221Y0183480D01*
X0029155Y0183206D01*
X0029083Y0182933D01*
X0029005Y0182662D01*
X0028920Y0182393D01*
X0028828Y0182126D01*
X0028729Y0181861D01*
X0028625Y0181599D01*
X0028513Y0181340D01*
X0028396Y0181083D01*
X0028272Y0180829D01*
X0028142Y0180579D01*
X0028006Y0180332D01*
X0027864Y0180088D01*
X0027716Y0179848D01*
X0027562Y0179611D01*
X0027402Y0179378D01*
X0027237Y0179149D01*
X0027066Y0178925D01*
X0026890Y0178704D01*
X0026708Y0178489D01*
X0026521Y0178277D01*
X0026329Y0178070D01*
X0026132Y0177868D01*
X0025930Y0177671D01*
X0025723Y0177479D01*
X0025511Y0177292D01*
X0025296Y0177110D01*
X0025075Y0176934D01*
X0024851Y0176763D01*
X0024622Y0176598D01*
X0024389Y0176438D01*
X0024152Y0176284D01*
X0023912Y0176136D01*
X0023668Y0175994D01*
X0023421Y0175858D01*
X0023171Y0175728D01*
X0022917Y0175604D01*
X0022660Y0175487D01*
X0022401Y0175375D01*
X0022139Y0175271D01*
X0021874Y0175172D01*
X0021607Y0175080D01*
X0021338Y0174995D01*
X0021067Y0174917D01*
X0020794Y0174845D01*
X0020520Y0174779D01*
X0020244Y0174721D01*
X0019966Y0174669D01*
X0019687Y0174624D01*
X0019408Y0174586D01*
X0019127Y0174555D01*
X0018846Y0174531D01*
X0018564Y0174514D01*
X0018282Y0174503D01*
X0018000Y0174500D01*
X0017718Y0174503D01*
X0017436Y0174514D01*
X0017154Y0174531D01*
X0016873Y0174555D01*
X0016592Y0174586D01*
X0016313Y0174624D01*
X0016034Y0174669D01*
X0015756Y0174721D01*
X0015480Y0174779D01*
X0015206Y0174845D01*
X0014933Y0174917D01*
X0014662Y0174995D01*
X0014393Y0175080D01*
X0014126Y0175172D01*
X0013861Y0175271D01*
X0013599Y0175375D01*
X0013340Y0175487D01*
X0013083Y0175604D01*
X0012829Y0175728D01*
X0012579Y0175858D01*
X0012332Y0175994D01*
X0012088Y0176136D01*
X0011848Y0176284D01*
X0011611Y0176438D01*
X0011378Y0176598D01*
X0011149Y0176763D01*
X0010925Y0176934D01*
X0010704Y0177110D01*
X0010489Y0177292D01*
X0010277Y0177479D01*
X0010070Y0177671D01*
X0009868Y0177868D01*
X0009671Y0178070D01*
X0009479Y0178277D01*
X0009292Y0178489D01*
X0009110Y0178704D01*
X0008934Y0178925D01*
X0008763Y0179149D01*
X0008598Y0179378D01*
X0008438Y0179611D01*
X0008284Y0179848D01*
X0008136Y0180088D01*
X0007994Y0180332D01*
X0007858Y0180579D01*
X0007728Y0180829D01*
X0007604Y0181083D01*
X0007487Y0181340D01*
X0007375Y0181599D01*
X0007271Y0181861D01*
X0007172Y0182126D01*
X0007080Y0182393D01*
X0006995Y0182662D01*
X0006917Y0182933D01*
X0006845Y0183206D01*
X0006779Y0183480D01*
X0006721Y0183756D01*
X0006669Y0184034D01*
X0006624Y0184313D01*
X0006586Y0184592D01*
X0006555Y0184873D01*
X0006531Y0185154D01*
X0006514Y0185436D01*
X0006503Y0185718D01*
X0006500Y0186000D01*
D11*
X0088000Y0111000D03*
D12*
X0088000Y0117750D03*
X0088000Y0074250D03*
D13*
X0040250Y0067991D02*
X0040250Y0064989D01*
X0037247Y0067991D01*
X0036497Y0067991D01*
X0035746Y0067241D01*
X0035746Y0065739D01*
X0036497Y0064989D01*
X0037247Y0084489D02*
X0035746Y0085990D01*
X0040250Y0085990D01*
X0040250Y0084489D02*
X0040250Y0087491D01*
X0040250Y0134989D02*
X0037247Y0137991D01*
X0036497Y0137991D01*
X0035746Y0137241D01*
X0035746Y0135739D01*
X0036497Y0134989D01*
X0040250Y0134989D02*
X0040250Y0137991D01*
X0040250Y0154489D02*
X0040250Y0157491D01*
X0040250Y0155990D02*
X0035746Y0155990D01*
X0037247Y0154489D01*
X0094000Y0175600D02*
X0093000Y0178600D01*
X0093000Y0188600D01*
X0133000Y0188600D01*
X0133000Y0193600D01*
X0093000Y0193600D01*
X0093000Y0188600D01*
X0094000Y0175600D02*
X0102700Y0175600D01*
X0109900Y0175600D02*
X0116100Y0175600D01*
X0123300Y0175600D02*
X0132000Y0175600D01*
X0133000Y0178600D01*
X0133000Y0188600D01*
D14*
X0096800Y0179600D02*
X0096802Y0179628D01*
X0096808Y0179655D01*
X0096817Y0179681D01*
X0096830Y0179706D01*
X0096847Y0179729D01*
X0096866Y0179749D01*
X0096888Y0179766D01*
X0096912Y0179780D01*
X0096938Y0179790D01*
X0096965Y0179797D01*
X0096993Y0179800D01*
X0097021Y0179799D01*
X0097048Y0179794D01*
X0097075Y0179785D01*
X0097100Y0179773D01*
X0097123Y0179758D01*
X0097144Y0179739D01*
X0097162Y0179718D01*
X0097177Y0179694D01*
X0097188Y0179668D01*
X0097196Y0179642D01*
X0097200Y0179614D01*
X0097200Y0179586D01*
X0097196Y0179558D01*
X0097188Y0179532D01*
X0097177Y0179506D01*
X0097162Y0179482D01*
X0097144Y0179461D01*
X0097123Y0179442D01*
X0097100Y0179427D01*
X0097075Y0179415D01*
X0097048Y0179406D01*
X0097021Y0179401D01*
X0096993Y0179400D01*
X0096965Y0179403D01*
X0096938Y0179410D01*
X0096912Y0179420D01*
X0096888Y0179434D01*
X0096866Y0179451D01*
X0096847Y0179471D01*
X0096830Y0179494D01*
X0096817Y0179519D01*
X0096808Y0179545D01*
X0096802Y0179572D01*
X0096800Y0179600D01*
D15*
X0099600Y0170675D03*
D16*
X0113000Y0170675D03*
X0126400Y0170675D03*
D17*
X0012094Y0016000D02*
X0012096Y0016153D01*
X0012102Y0016307D01*
X0012112Y0016460D01*
X0012126Y0016612D01*
X0012144Y0016765D01*
X0012166Y0016916D01*
X0012191Y0017067D01*
X0012221Y0017218D01*
X0012255Y0017368D01*
X0012292Y0017516D01*
X0012333Y0017664D01*
X0012378Y0017810D01*
X0012427Y0017956D01*
X0012480Y0018100D01*
X0012536Y0018242D01*
X0012596Y0018383D01*
X0012660Y0018523D01*
X0012727Y0018661D01*
X0012798Y0018797D01*
X0012873Y0018931D01*
X0012950Y0019063D01*
X0013032Y0019193D01*
X0013116Y0019321D01*
X0013204Y0019447D01*
X0013295Y0019570D01*
X0013389Y0019691D01*
X0013487Y0019809D01*
X0013587Y0019925D01*
X0013691Y0020038D01*
X0013797Y0020149D01*
X0013906Y0020257D01*
X0014018Y0020362D01*
X0014132Y0020463D01*
X0014250Y0020562D01*
X0014369Y0020658D01*
X0014491Y0020751D01*
X0014616Y0020840D01*
X0014743Y0020927D01*
X0014872Y0021009D01*
X0015003Y0021089D01*
X0015136Y0021165D01*
X0015271Y0021238D01*
X0015408Y0021307D01*
X0015547Y0021372D01*
X0015687Y0021434D01*
X0015829Y0021492D01*
X0015972Y0021547D01*
X0016117Y0021598D01*
X0016263Y0021645D01*
X0016410Y0021688D01*
X0016558Y0021727D01*
X0016707Y0021763D01*
X0016857Y0021794D01*
X0017008Y0021822D01*
X0017159Y0021846D01*
X0017312Y0021866D01*
X0017464Y0021882D01*
X0017617Y0021894D01*
X0017770Y0021902D01*
X0017923Y0021906D01*
X0018077Y0021906D01*
X0018230Y0021902D01*
X0018383Y0021894D01*
X0018536Y0021882D01*
X0018688Y0021866D01*
X0018841Y0021846D01*
X0018992Y0021822D01*
X0019143Y0021794D01*
X0019293Y0021763D01*
X0019442Y0021727D01*
X0019590Y0021688D01*
X0019737Y0021645D01*
X0019883Y0021598D01*
X0020028Y0021547D01*
X0020171Y0021492D01*
X0020313Y0021434D01*
X0020453Y0021372D01*
X0020592Y0021307D01*
X0020729Y0021238D01*
X0020864Y0021165D01*
X0020997Y0021089D01*
X0021128Y0021009D01*
X0021257Y0020927D01*
X0021384Y0020840D01*
X0021509Y0020751D01*
X0021631Y0020658D01*
X0021750Y0020562D01*
X0021868Y0020463D01*
X0021982Y0020362D01*
X0022094Y0020257D01*
X0022203Y0020149D01*
X0022309Y0020038D01*
X0022413Y0019925D01*
X0022513Y0019809D01*
X0022611Y0019691D01*
X0022705Y0019570D01*
X0022796Y0019447D01*
X0022884Y0019321D01*
X0022968Y0019193D01*
X0023050Y0019063D01*
X0023127Y0018931D01*
X0023202Y0018797D01*
X0023273Y0018661D01*
X0023340Y0018523D01*
X0023404Y0018383D01*
X0023464Y0018242D01*
X0023520Y0018100D01*
X0023573Y0017956D01*
X0023622Y0017810D01*
X0023667Y0017664D01*
X0023708Y0017516D01*
X0023745Y0017368D01*
X0023779Y0017218D01*
X0023809Y0017067D01*
X0023834Y0016916D01*
X0023856Y0016765D01*
X0023874Y0016612D01*
X0023888Y0016460D01*
X0023898Y0016307D01*
X0023904Y0016153D01*
X0023906Y0016000D01*
X0023904Y0015847D01*
X0023898Y0015693D01*
X0023888Y0015540D01*
X0023874Y0015388D01*
X0023856Y0015235D01*
X0023834Y0015084D01*
X0023809Y0014933D01*
X0023779Y0014782D01*
X0023745Y0014632D01*
X0023708Y0014484D01*
X0023667Y0014336D01*
X0023622Y0014190D01*
X0023573Y0014044D01*
X0023520Y0013900D01*
X0023464Y0013758D01*
X0023404Y0013617D01*
X0023340Y0013477D01*
X0023273Y0013339D01*
X0023202Y0013203D01*
X0023127Y0013069D01*
X0023050Y0012937D01*
X0022968Y0012807D01*
X0022884Y0012679D01*
X0022796Y0012553D01*
X0022705Y0012430D01*
X0022611Y0012309D01*
X0022513Y0012191D01*
X0022413Y0012075D01*
X0022309Y0011962D01*
X0022203Y0011851D01*
X0022094Y0011743D01*
X0021982Y0011638D01*
X0021868Y0011537D01*
X0021750Y0011438D01*
X0021631Y0011342D01*
X0021509Y0011249D01*
X0021384Y0011160D01*
X0021257Y0011073D01*
X0021128Y0010991D01*
X0020997Y0010911D01*
X0020864Y0010835D01*
X0020729Y0010762D01*
X0020592Y0010693D01*
X0020453Y0010628D01*
X0020313Y0010566D01*
X0020171Y0010508D01*
X0020028Y0010453D01*
X0019883Y0010402D01*
X0019737Y0010355D01*
X0019590Y0010312D01*
X0019442Y0010273D01*
X0019293Y0010237D01*
X0019143Y0010206D01*
X0018992Y0010178D01*
X0018841Y0010154D01*
X0018688Y0010134D01*
X0018536Y0010118D01*
X0018383Y0010106D01*
X0018230Y0010098D01*
X0018077Y0010094D01*
X0017923Y0010094D01*
X0017770Y0010098D01*
X0017617Y0010106D01*
X0017464Y0010118D01*
X0017312Y0010134D01*
X0017159Y0010154D01*
X0017008Y0010178D01*
X0016857Y0010206D01*
X0016707Y0010237D01*
X0016558Y0010273D01*
X0016410Y0010312D01*
X0016263Y0010355D01*
X0016117Y0010402D01*
X0015972Y0010453D01*
X0015829Y0010508D01*
X0015687Y0010566D01*
X0015547Y0010628D01*
X0015408Y0010693D01*
X0015271Y0010762D01*
X0015136Y0010835D01*
X0015003Y0010911D01*
X0014872Y0010991D01*
X0014743Y0011073D01*
X0014616Y0011160D01*
X0014491Y0011249D01*
X0014369Y0011342D01*
X0014250Y0011438D01*
X0014132Y0011537D01*
X0014018Y0011638D01*
X0013906Y0011743D01*
X0013797Y0011851D01*
X0013691Y0011962D01*
X0013587Y0012075D01*
X0013487Y0012191D01*
X0013389Y0012309D01*
X0013295Y0012430D01*
X0013204Y0012553D01*
X0013116Y0012679D01*
X0013032Y0012807D01*
X0012950Y0012937D01*
X0012873Y0013069D01*
X0012798Y0013203D01*
X0012727Y0013339D01*
X0012660Y0013477D01*
X0012596Y0013617D01*
X0012536Y0013758D01*
X0012480Y0013900D01*
X0012427Y0014044D01*
X0012378Y0014190D01*
X0012333Y0014336D01*
X0012292Y0014484D01*
X0012255Y0014632D01*
X0012221Y0014782D01*
X0012191Y0014933D01*
X0012166Y0015084D01*
X0012144Y0015235D01*
X0012126Y0015388D01*
X0012112Y0015540D01*
X0012102Y0015693D01*
X0012096Y0015847D01*
X0012094Y0016000D01*
X0100677Y0131000D02*
X0100682Y0131425D01*
X0100698Y0131850D01*
X0100724Y0132274D01*
X0100760Y0132698D01*
X0100807Y0133121D01*
X0100864Y0133542D01*
X0100932Y0133962D01*
X0101010Y0134380D01*
X0101098Y0134795D01*
X0101196Y0135209D01*
X0101305Y0135620D01*
X0101423Y0136029D01*
X0101551Y0136434D01*
X0101690Y0136836D01*
X0101838Y0137234D01*
X0101996Y0137629D01*
X0102163Y0138020D01*
X0102340Y0138407D01*
X0102527Y0138789D01*
X0102722Y0139166D01*
X0102927Y0139538D01*
X0103142Y0139906D01*
X0103365Y0140268D01*
X0103596Y0140624D01*
X0103837Y0140975D01*
X0104086Y0141319D01*
X0104343Y0141658D01*
X0104609Y0141990D01*
X0104883Y0142315D01*
X0105165Y0142633D01*
X0105454Y0142945D01*
X0105751Y0143249D01*
X0106055Y0143546D01*
X0106367Y0143835D01*
X0106685Y0144117D01*
X0107010Y0144391D01*
X0107342Y0144657D01*
X0107681Y0144914D01*
X0108025Y0145163D01*
X0108376Y0145404D01*
X0108732Y0145635D01*
X0109094Y0145858D01*
X0109462Y0146073D01*
X0109834Y0146278D01*
X0110211Y0146473D01*
X0110593Y0146660D01*
X0110980Y0146837D01*
X0111371Y0147004D01*
X0111766Y0147162D01*
X0112164Y0147310D01*
X0112566Y0147449D01*
X0112971Y0147577D01*
X0113380Y0147695D01*
X0113791Y0147804D01*
X0114205Y0147902D01*
X0114620Y0147990D01*
X0115038Y0148068D01*
X0115458Y0148136D01*
X0115879Y0148193D01*
X0116302Y0148240D01*
X0116726Y0148276D01*
X0117150Y0148302D01*
X0117575Y0148318D01*
X0118000Y0148323D01*
X0118425Y0148318D01*
X0118850Y0148302D01*
X0119274Y0148276D01*
X0119698Y0148240D01*
X0120121Y0148193D01*
X0120542Y0148136D01*
X0120962Y0148068D01*
X0121380Y0147990D01*
X0121795Y0147902D01*
X0122209Y0147804D01*
X0122620Y0147695D01*
X0123029Y0147577D01*
X0123434Y0147449D01*
X0123836Y0147310D01*
X0124234Y0147162D01*
X0124629Y0147004D01*
X0125020Y0146837D01*
X0125407Y0146660D01*
X0125789Y0146473D01*
X0126166Y0146278D01*
X0126538Y0146073D01*
X0126906Y0145858D01*
X0127268Y0145635D01*
X0127624Y0145404D01*
X0127975Y0145163D01*
X0128319Y0144914D01*
X0128658Y0144657D01*
X0128990Y0144391D01*
X0129315Y0144117D01*
X0129633Y0143835D01*
X0129945Y0143546D01*
X0130249Y0143249D01*
X0130546Y0142945D01*
X0130835Y0142633D01*
X0131117Y0142315D01*
X0131391Y0141990D01*
X0131657Y0141658D01*
X0131914Y0141319D01*
X0132163Y0140975D01*
X0132404Y0140624D01*
X0132635Y0140268D01*
X0132858Y0139906D01*
X0133073Y0139538D01*
X0133278Y0139166D01*
X0133473Y0138789D01*
X0133660Y0138407D01*
X0133837Y0138020D01*
X0134004Y0137629D01*
X0134162Y0137234D01*
X0134310Y0136836D01*
X0134449Y0136434D01*
X0134577Y0136029D01*
X0134695Y0135620D01*
X0134804Y0135209D01*
X0134902Y0134795D01*
X0134990Y0134380D01*
X0135068Y0133962D01*
X0135136Y0133542D01*
X0135193Y0133121D01*
X0135240Y0132698D01*
X0135276Y0132274D01*
X0135302Y0131850D01*
X0135318Y0131425D01*
X0135323Y0131000D01*
X0135318Y0130575D01*
X0135302Y0130150D01*
X0135276Y0129726D01*
X0135240Y0129302D01*
X0135193Y0128879D01*
X0135136Y0128458D01*
X0135068Y0128038D01*
X0134990Y0127620D01*
X0134902Y0127205D01*
X0134804Y0126791D01*
X0134695Y0126380D01*
X0134577Y0125971D01*
X0134449Y0125566D01*
X0134310Y0125164D01*
X0134162Y0124766D01*
X0134004Y0124371D01*
X0133837Y0123980D01*
X0133660Y0123593D01*
X0133473Y0123211D01*
X0133278Y0122834D01*
X0133073Y0122462D01*
X0132858Y0122094D01*
X0132635Y0121732D01*
X0132404Y0121376D01*
X0132163Y0121025D01*
X0131914Y0120681D01*
X0131657Y0120342D01*
X0131391Y0120010D01*
X0131117Y0119685D01*
X0130835Y0119367D01*
X0130546Y0119055D01*
X0130249Y0118751D01*
X0129945Y0118454D01*
X0129633Y0118165D01*
X0129315Y0117883D01*
X0128990Y0117609D01*
X0128658Y0117343D01*
X0128319Y0117086D01*
X0127975Y0116837D01*
X0127624Y0116596D01*
X0127268Y0116365D01*
X0126906Y0116142D01*
X0126538Y0115927D01*
X0126166Y0115722D01*
X0125789Y0115527D01*
X0125407Y0115340D01*
X0125020Y0115163D01*
X0124629Y0114996D01*
X0124234Y0114838D01*
X0123836Y0114690D01*
X0123434Y0114551D01*
X0123029Y0114423D01*
X0122620Y0114305D01*
X0122209Y0114196D01*
X0121795Y0114098D01*
X0121380Y0114010D01*
X0120962Y0113932D01*
X0120542Y0113864D01*
X0120121Y0113807D01*
X0119698Y0113760D01*
X0119274Y0113724D01*
X0118850Y0113698D01*
X0118425Y0113682D01*
X0118000Y0113677D01*
X0117575Y0113682D01*
X0117150Y0113698D01*
X0116726Y0113724D01*
X0116302Y0113760D01*
X0115879Y0113807D01*
X0115458Y0113864D01*
X0115038Y0113932D01*
X0114620Y0114010D01*
X0114205Y0114098D01*
X0113791Y0114196D01*
X0113380Y0114305D01*
X0112971Y0114423D01*
X0112566Y0114551D01*
X0112164Y0114690D01*
X0111766Y0114838D01*
X0111371Y0114996D01*
X0110980Y0115163D01*
X0110593Y0115340D01*
X0110211Y0115527D01*
X0109834Y0115722D01*
X0109462Y0115927D01*
X0109094Y0116142D01*
X0108732Y0116365D01*
X0108376Y0116596D01*
X0108025Y0116837D01*
X0107681Y0117086D01*
X0107342Y0117343D01*
X0107010Y0117609D01*
X0106685Y0117883D01*
X0106367Y0118165D01*
X0106055Y0118454D01*
X0105751Y0118751D01*
X0105454Y0119055D01*
X0105165Y0119367D01*
X0104883Y0119685D01*
X0104609Y0120010D01*
X0104343Y0120342D01*
X0104086Y0120681D01*
X0103837Y0121025D01*
X0103596Y0121376D01*
X0103365Y0121732D01*
X0103142Y0122094D01*
X0102927Y0122462D01*
X0102722Y0122834D01*
X0102527Y0123211D01*
X0102340Y0123593D01*
X0102163Y0123980D01*
X0101996Y0124371D01*
X0101838Y0124766D01*
X0101690Y0125164D01*
X0101551Y0125566D01*
X0101423Y0125971D01*
X0101305Y0126380D01*
X0101196Y0126791D01*
X0101098Y0127205D01*
X0101010Y0127620D01*
X0100932Y0128038D01*
X0100864Y0128458D01*
X0100807Y0128879D01*
X0100760Y0129302D01*
X0100724Y0129726D01*
X0100698Y0130150D01*
X0100682Y0130575D01*
X0100677Y0131000D01*
X0012094Y0186000D02*
X0012096Y0186153D01*
X0012102Y0186307D01*
X0012112Y0186460D01*
X0012126Y0186612D01*
X0012144Y0186765D01*
X0012166Y0186916D01*
X0012191Y0187067D01*
X0012221Y0187218D01*
X0012255Y0187368D01*
X0012292Y0187516D01*
X0012333Y0187664D01*
X0012378Y0187810D01*
X0012427Y0187956D01*
X0012480Y0188100D01*
X0012536Y0188242D01*
X0012596Y0188383D01*
X0012660Y0188523D01*
X0012727Y0188661D01*
X0012798Y0188797D01*
X0012873Y0188931D01*
X0012950Y0189063D01*
X0013032Y0189193D01*
X0013116Y0189321D01*
X0013204Y0189447D01*
X0013295Y0189570D01*
X0013389Y0189691D01*
X0013487Y0189809D01*
X0013587Y0189925D01*
X0013691Y0190038D01*
X0013797Y0190149D01*
X0013906Y0190257D01*
X0014018Y0190362D01*
X0014132Y0190463D01*
X0014250Y0190562D01*
X0014369Y0190658D01*
X0014491Y0190751D01*
X0014616Y0190840D01*
X0014743Y0190927D01*
X0014872Y0191009D01*
X0015003Y0191089D01*
X0015136Y0191165D01*
X0015271Y0191238D01*
X0015408Y0191307D01*
X0015547Y0191372D01*
X0015687Y0191434D01*
X0015829Y0191492D01*
X0015972Y0191547D01*
X0016117Y0191598D01*
X0016263Y0191645D01*
X0016410Y0191688D01*
X0016558Y0191727D01*
X0016707Y0191763D01*
X0016857Y0191794D01*
X0017008Y0191822D01*
X0017159Y0191846D01*
X0017312Y0191866D01*
X0017464Y0191882D01*
X0017617Y0191894D01*
X0017770Y0191902D01*
X0017923Y0191906D01*
X0018077Y0191906D01*
X0018230Y0191902D01*
X0018383Y0191894D01*
X0018536Y0191882D01*
X0018688Y0191866D01*
X0018841Y0191846D01*
X0018992Y0191822D01*
X0019143Y0191794D01*
X0019293Y0191763D01*
X0019442Y0191727D01*
X0019590Y0191688D01*
X0019737Y0191645D01*
X0019883Y0191598D01*
X0020028Y0191547D01*
X0020171Y0191492D01*
X0020313Y0191434D01*
X0020453Y0191372D01*
X0020592Y0191307D01*
X0020729Y0191238D01*
X0020864Y0191165D01*
X0020997Y0191089D01*
X0021128Y0191009D01*
X0021257Y0190927D01*
X0021384Y0190840D01*
X0021509Y0190751D01*
X0021631Y0190658D01*
X0021750Y0190562D01*
X0021868Y0190463D01*
X0021982Y0190362D01*
X0022094Y0190257D01*
X0022203Y0190149D01*
X0022309Y0190038D01*
X0022413Y0189925D01*
X0022513Y0189809D01*
X0022611Y0189691D01*
X0022705Y0189570D01*
X0022796Y0189447D01*
X0022884Y0189321D01*
X0022968Y0189193D01*
X0023050Y0189063D01*
X0023127Y0188931D01*
X0023202Y0188797D01*
X0023273Y0188661D01*
X0023340Y0188523D01*
X0023404Y0188383D01*
X0023464Y0188242D01*
X0023520Y0188100D01*
X0023573Y0187956D01*
X0023622Y0187810D01*
X0023667Y0187664D01*
X0023708Y0187516D01*
X0023745Y0187368D01*
X0023779Y0187218D01*
X0023809Y0187067D01*
X0023834Y0186916D01*
X0023856Y0186765D01*
X0023874Y0186612D01*
X0023888Y0186460D01*
X0023898Y0186307D01*
X0023904Y0186153D01*
X0023906Y0186000D01*
X0023904Y0185847D01*
X0023898Y0185693D01*
X0023888Y0185540D01*
X0023874Y0185388D01*
X0023856Y0185235D01*
X0023834Y0185084D01*
X0023809Y0184933D01*
X0023779Y0184782D01*
X0023745Y0184632D01*
X0023708Y0184484D01*
X0023667Y0184336D01*
X0023622Y0184190D01*
X0023573Y0184044D01*
X0023520Y0183900D01*
X0023464Y0183758D01*
X0023404Y0183617D01*
X0023340Y0183477D01*
X0023273Y0183339D01*
X0023202Y0183203D01*
X0023127Y0183069D01*
X0023050Y0182937D01*
X0022968Y0182807D01*
X0022884Y0182679D01*
X0022796Y0182553D01*
X0022705Y0182430D01*
X0022611Y0182309D01*
X0022513Y0182191D01*
X0022413Y0182075D01*
X0022309Y0181962D01*
X0022203Y0181851D01*
X0022094Y0181743D01*
X0021982Y0181638D01*
X0021868Y0181537D01*
X0021750Y0181438D01*
X0021631Y0181342D01*
X0021509Y0181249D01*
X0021384Y0181160D01*
X0021257Y0181073D01*
X0021128Y0180991D01*
X0020997Y0180911D01*
X0020864Y0180835D01*
X0020729Y0180762D01*
X0020592Y0180693D01*
X0020453Y0180628D01*
X0020313Y0180566D01*
X0020171Y0180508D01*
X0020028Y0180453D01*
X0019883Y0180402D01*
X0019737Y0180355D01*
X0019590Y0180312D01*
X0019442Y0180273D01*
X0019293Y0180237D01*
X0019143Y0180206D01*
X0018992Y0180178D01*
X0018841Y0180154D01*
X0018688Y0180134D01*
X0018536Y0180118D01*
X0018383Y0180106D01*
X0018230Y0180098D01*
X0018077Y0180094D01*
X0017923Y0180094D01*
X0017770Y0180098D01*
X0017617Y0180106D01*
X0017464Y0180118D01*
X0017312Y0180134D01*
X0017159Y0180154D01*
X0017008Y0180178D01*
X0016857Y0180206D01*
X0016707Y0180237D01*
X0016558Y0180273D01*
X0016410Y0180312D01*
X0016263Y0180355D01*
X0016117Y0180402D01*
X0015972Y0180453D01*
X0015829Y0180508D01*
X0015687Y0180566D01*
X0015547Y0180628D01*
X0015408Y0180693D01*
X0015271Y0180762D01*
X0015136Y0180835D01*
X0015003Y0180911D01*
X0014872Y0180991D01*
X0014743Y0181073D01*
X0014616Y0181160D01*
X0014491Y0181249D01*
X0014369Y0181342D01*
X0014250Y0181438D01*
X0014132Y0181537D01*
X0014018Y0181638D01*
X0013906Y0181743D01*
X0013797Y0181851D01*
X0013691Y0181962D01*
X0013587Y0182075D01*
X0013487Y0182191D01*
X0013389Y0182309D01*
X0013295Y0182430D01*
X0013204Y0182553D01*
X0013116Y0182679D01*
X0013032Y0182807D01*
X0012950Y0182937D01*
X0012873Y0183069D01*
X0012798Y0183203D01*
X0012727Y0183339D01*
X0012660Y0183477D01*
X0012596Y0183617D01*
X0012536Y0183758D01*
X0012480Y0183900D01*
X0012427Y0184044D01*
X0012378Y0184190D01*
X0012333Y0184336D01*
X0012292Y0184484D01*
X0012255Y0184632D01*
X0012221Y0184782D01*
X0012191Y0184933D01*
X0012166Y0185084D01*
X0012144Y0185235D01*
X0012126Y0185388D01*
X0012112Y0185540D01*
X0012102Y0185693D01*
X0012096Y0185847D01*
X0012094Y0186000D01*
X0182094Y0186000D02*
X0182096Y0186153D01*
X0182102Y0186307D01*
X0182112Y0186460D01*
X0182126Y0186612D01*
X0182144Y0186765D01*
X0182166Y0186916D01*
X0182191Y0187067D01*
X0182221Y0187218D01*
X0182255Y0187368D01*
X0182292Y0187516D01*
X0182333Y0187664D01*
X0182378Y0187810D01*
X0182427Y0187956D01*
X0182480Y0188100D01*
X0182536Y0188242D01*
X0182596Y0188383D01*
X0182660Y0188523D01*
X0182727Y0188661D01*
X0182798Y0188797D01*
X0182873Y0188931D01*
X0182950Y0189063D01*
X0183032Y0189193D01*
X0183116Y0189321D01*
X0183204Y0189447D01*
X0183295Y0189570D01*
X0183389Y0189691D01*
X0183487Y0189809D01*
X0183587Y0189925D01*
X0183691Y0190038D01*
X0183797Y0190149D01*
X0183906Y0190257D01*
X0184018Y0190362D01*
X0184132Y0190463D01*
X0184250Y0190562D01*
X0184369Y0190658D01*
X0184491Y0190751D01*
X0184616Y0190840D01*
X0184743Y0190927D01*
X0184872Y0191009D01*
X0185003Y0191089D01*
X0185136Y0191165D01*
X0185271Y0191238D01*
X0185408Y0191307D01*
X0185547Y0191372D01*
X0185687Y0191434D01*
X0185829Y0191492D01*
X0185972Y0191547D01*
X0186117Y0191598D01*
X0186263Y0191645D01*
X0186410Y0191688D01*
X0186558Y0191727D01*
X0186707Y0191763D01*
X0186857Y0191794D01*
X0187008Y0191822D01*
X0187159Y0191846D01*
X0187312Y0191866D01*
X0187464Y0191882D01*
X0187617Y0191894D01*
X0187770Y0191902D01*
X0187923Y0191906D01*
X0188077Y0191906D01*
X0188230Y0191902D01*
X0188383Y0191894D01*
X0188536Y0191882D01*
X0188688Y0191866D01*
X0188841Y0191846D01*
X0188992Y0191822D01*
X0189143Y0191794D01*
X0189293Y0191763D01*
X0189442Y0191727D01*
X0189590Y0191688D01*
X0189737Y0191645D01*
X0189883Y0191598D01*
X0190028Y0191547D01*
X0190171Y0191492D01*
X0190313Y0191434D01*
X0190453Y0191372D01*
X0190592Y0191307D01*
X0190729Y0191238D01*
X0190864Y0191165D01*
X0190997Y0191089D01*
X0191128Y0191009D01*
X0191257Y0190927D01*
X0191384Y0190840D01*
X0191509Y0190751D01*
X0191631Y0190658D01*
X0191750Y0190562D01*
X0191868Y0190463D01*
X0191982Y0190362D01*
X0192094Y0190257D01*
X0192203Y0190149D01*
X0192309Y0190038D01*
X0192413Y0189925D01*
X0192513Y0189809D01*
X0192611Y0189691D01*
X0192705Y0189570D01*
X0192796Y0189447D01*
X0192884Y0189321D01*
X0192968Y0189193D01*
X0193050Y0189063D01*
X0193127Y0188931D01*
X0193202Y0188797D01*
X0193273Y0188661D01*
X0193340Y0188523D01*
X0193404Y0188383D01*
X0193464Y0188242D01*
X0193520Y0188100D01*
X0193573Y0187956D01*
X0193622Y0187810D01*
X0193667Y0187664D01*
X0193708Y0187516D01*
X0193745Y0187368D01*
X0193779Y0187218D01*
X0193809Y0187067D01*
X0193834Y0186916D01*
X0193856Y0186765D01*
X0193874Y0186612D01*
X0193888Y0186460D01*
X0193898Y0186307D01*
X0193904Y0186153D01*
X0193906Y0186000D01*
X0193904Y0185847D01*
X0193898Y0185693D01*
X0193888Y0185540D01*
X0193874Y0185388D01*
X0193856Y0185235D01*
X0193834Y0185084D01*
X0193809Y0184933D01*
X0193779Y0184782D01*
X0193745Y0184632D01*
X0193708Y0184484D01*
X0193667Y0184336D01*
X0193622Y0184190D01*
X0193573Y0184044D01*
X0193520Y0183900D01*
X0193464Y0183758D01*
X0193404Y0183617D01*
X0193340Y0183477D01*
X0193273Y0183339D01*
X0193202Y0183203D01*
X0193127Y0183069D01*
X0193050Y0182937D01*
X0192968Y0182807D01*
X0192884Y0182679D01*
X0192796Y0182553D01*
X0192705Y0182430D01*
X0192611Y0182309D01*
X0192513Y0182191D01*
X0192413Y0182075D01*
X0192309Y0181962D01*
X0192203Y0181851D01*
X0192094Y0181743D01*
X0191982Y0181638D01*
X0191868Y0181537D01*
X0191750Y0181438D01*
X0191631Y0181342D01*
X0191509Y0181249D01*
X0191384Y0181160D01*
X0191257Y0181073D01*
X0191128Y0180991D01*
X0190997Y0180911D01*
X0190864Y0180835D01*
X0190729Y0180762D01*
X0190592Y0180693D01*
X0190453Y0180628D01*
X0190313Y0180566D01*
X0190171Y0180508D01*
X0190028Y0180453D01*
X0189883Y0180402D01*
X0189737Y0180355D01*
X0189590Y0180312D01*
X0189442Y0180273D01*
X0189293Y0180237D01*
X0189143Y0180206D01*
X0188992Y0180178D01*
X0188841Y0180154D01*
X0188688Y0180134D01*
X0188536Y0180118D01*
X0188383Y0180106D01*
X0188230Y0180098D01*
X0188077Y0180094D01*
X0187923Y0180094D01*
X0187770Y0180098D01*
X0187617Y0180106D01*
X0187464Y0180118D01*
X0187312Y0180134D01*
X0187159Y0180154D01*
X0187008Y0180178D01*
X0186857Y0180206D01*
X0186707Y0180237D01*
X0186558Y0180273D01*
X0186410Y0180312D01*
X0186263Y0180355D01*
X0186117Y0180402D01*
X0185972Y0180453D01*
X0185829Y0180508D01*
X0185687Y0180566D01*
X0185547Y0180628D01*
X0185408Y0180693D01*
X0185271Y0180762D01*
X0185136Y0180835D01*
X0185003Y0180911D01*
X0184872Y0180991D01*
X0184743Y0181073D01*
X0184616Y0181160D01*
X0184491Y0181249D01*
X0184369Y0181342D01*
X0184250Y0181438D01*
X0184132Y0181537D01*
X0184018Y0181638D01*
X0183906Y0181743D01*
X0183797Y0181851D01*
X0183691Y0181962D01*
X0183587Y0182075D01*
X0183487Y0182191D01*
X0183389Y0182309D01*
X0183295Y0182430D01*
X0183204Y0182553D01*
X0183116Y0182679D01*
X0183032Y0182807D01*
X0182950Y0182937D01*
X0182873Y0183069D01*
X0182798Y0183203D01*
X0182727Y0183339D01*
X0182660Y0183477D01*
X0182596Y0183617D01*
X0182536Y0183758D01*
X0182480Y0183900D01*
X0182427Y0184044D01*
X0182378Y0184190D01*
X0182333Y0184336D01*
X0182292Y0184484D01*
X0182255Y0184632D01*
X0182221Y0184782D01*
X0182191Y0184933D01*
X0182166Y0185084D01*
X0182144Y0185235D01*
X0182126Y0185388D01*
X0182112Y0185540D01*
X0182102Y0185693D01*
X0182096Y0185847D01*
X0182094Y0186000D01*
X0182094Y0016000D02*
X0182096Y0016153D01*
X0182102Y0016307D01*
X0182112Y0016460D01*
X0182126Y0016612D01*
X0182144Y0016765D01*
X0182166Y0016916D01*
X0182191Y0017067D01*
X0182221Y0017218D01*
X0182255Y0017368D01*
X0182292Y0017516D01*
X0182333Y0017664D01*
X0182378Y0017810D01*
X0182427Y0017956D01*
X0182480Y0018100D01*
X0182536Y0018242D01*
X0182596Y0018383D01*
X0182660Y0018523D01*
X0182727Y0018661D01*
X0182798Y0018797D01*
X0182873Y0018931D01*
X0182950Y0019063D01*
X0183032Y0019193D01*
X0183116Y0019321D01*
X0183204Y0019447D01*
X0183295Y0019570D01*
X0183389Y0019691D01*
X0183487Y0019809D01*
X0183587Y0019925D01*
X0183691Y0020038D01*
X0183797Y0020149D01*
X0183906Y0020257D01*
X0184018Y0020362D01*
X0184132Y0020463D01*
X0184250Y0020562D01*
X0184369Y0020658D01*
X0184491Y0020751D01*
X0184616Y0020840D01*
X0184743Y0020927D01*
X0184872Y0021009D01*
X0185003Y0021089D01*
X0185136Y0021165D01*
X0185271Y0021238D01*
X0185408Y0021307D01*
X0185547Y0021372D01*
X0185687Y0021434D01*
X0185829Y0021492D01*
X0185972Y0021547D01*
X0186117Y0021598D01*
X0186263Y0021645D01*
X0186410Y0021688D01*
X0186558Y0021727D01*
X0186707Y0021763D01*
X0186857Y0021794D01*
X0187008Y0021822D01*
X0187159Y0021846D01*
X0187312Y0021866D01*
X0187464Y0021882D01*
X0187617Y0021894D01*
X0187770Y0021902D01*
X0187923Y0021906D01*
X0188077Y0021906D01*
X0188230Y0021902D01*
X0188383Y0021894D01*
X0188536Y0021882D01*
X0188688Y0021866D01*
X0188841Y0021846D01*
X0188992Y0021822D01*
X0189143Y0021794D01*
X0189293Y0021763D01*
X0189442Y0021727D01*
X0189590Y0021688D01*
X0189737Y0021645D01*
X0189883Y0021598D01*
X0190028Y0021547D01*
X0190171Y0021492D01*
X0190313Y0021434D01*
X0190453Y0021372D01*
X0190592Y0021307D01*
X0190729Y0021238D01*
X0190864Y0021165D01*
X0190997Y0021089D01*
X0191128Y0021009D01*
X0191257Y0020927D01*
X0191384Y0020840D01*
X0191509Y0020751D01*
X0191631Y0020658D01*
X0191750Y0020562D01*
X0191868Y0020463D01*
X0191982Y0020362D01*
X0192094Y0020257D01*
X0192203Y0020149D01*
X0192309Y0020038D01*
X0192413Y0019925D01*
X0192513Y0019809D01*
X0192611Y0019691D01*
X0192705Y0019570D01*
X0192796Y0019447D01*
X0192884Y0019321D01*
X0192968Y0019193D01*
X0193050Y0019063D01*
X0193127Y0018931D01*
X0193202Y0018797D01*
X0193273Y0018661D01*
X0193340Y0018523D01*
X0193404Y0018383D01*
X0193464Y0018242D01*
X0193520Y0018100D01*
X0193573Y0017956D01*
X0193622Y0017810D01*
X0193667Y0017664D01*
X0193708Y0017516D01*
X0193745Y0017368D01*
X0193779Y0017218D01*
X0193809Y0017067D01*
X0193834Y0016916D01*
X0193856Y0016765D01*
X0193874Y0016612D01*
X0193888Y0016460D01*
X0193898Y0016307D01*
X0193904Y0016153D01*
X0193906Y0016000D01*
X0193904Y0015847D01*
X0193898Y0015693D01*
X0193888Y0015540D01*
X0193874Y0015388D01*
X0193856Y0015235D01*
X0193834Y0015084D01*
X0193809Y0014933D01*
X0193779Y0014782D01*
X0193745Y0014632D01*
X0193708Y0014484D01*
X0193667Y0014336D01*
X0193622Y0014190D01*
X0193573Y0014044D01*
X0193520Y0013900D01*
X0193464Y0013758D01*
X0193404Y0013617D01*
X0193340Y0013477D01*
X0193273Y0013339D01*
X0193202Y0013203D01*
X0193127Y0013069D01*
X0193050Y0012937D01*
X0192968Y0012807D01*
X0192884Y0012679D01*
X0192796Y0012553D01*
X0192705Y0012430D01*
X0192611Y0012309D01*
X0192513Y0012191D01*
X0192413Y0012075D01*
X0192309Y0011962D01*
X0192203Y0011851D01*
X0192094Y0011743D01*
X0191982Y0011638D01*
X0191868Y0011537D01*
X0191750Y0011438D01*
X0191631Y0011342D01*
X0191509Y0011249D01*
X0191384Y0011160D01*
X0191257Y0011073D01*
X0191128Y0010991D01*
X0190997Y0010911D01*
X0190864Y0010835D01*
X0190729Y0010762D01*
X0190592Y0010693D01*
X0190453Y0010628D01*
X0190313Y0010566D01*
X0190171Y0010508D01*
X0190028Y0010453D01*
X0189883Y0010402D01*
X0189737Y0010355D01*
X0189590Y0010312D01*
X0189442Y0010273D01*
X0189293Y0010237D01*
X0189143Y0010206D01*
X0188992Y0010178D01*
X0188841Y0010154D01*
X0188688Y0010134D01*
X0188536Y0010118D01*
X0188383Y0010106D01*
X0188230Y0010098D01*
X0188077Y0010094D01*
X0187923Y0010094D01*
X0187770Y0010098D01*
X0187617Y0010106D01*
X0187464Y0010118D01*
X0187312Y0010134D01*
X0187159Y0010154D01*
X0187008Y0010178D01*
X0186857Y0010206D01*
X0186707Y0010237D01*
X0186558Y0010273D01*
X0186410Y0010312D01*
X0186263Y0010355D01*
X0186117Y0010402D01*
X0185972Y0010453D01*
X0185829Y0010508D01*
X0185687Y0010566D01*
X0185547Y0010628D01*
X0185408Y0010693D01*
X0185271Y0010762D01*
X0185136Y0010835D01*
X0185003Y0010911D01*
X0184872Y0010991D01*
X0184743Y0011073D01*
X0184616Y0011160D01*
X0184491Y0011249D01*
X0184369Y0011342D01*
X0184250Y0011438D01*
X0184132Y0011537D01*
X0184018Y0011638D01*
X0183906Y0011743D01*
X0183797Y0011851D01*
X0183691Y0011962D01*
X0183587Y0012075D01*
X0183487Y0012191D01*
X0183389Y0012309D01*
X0183295Y0012430D01*
X0183204Y0012553D01*
X0183116Y0012679D01*
X0183032Y0012807D01*
X0182950Y0012937D01*
X0182873Y0013069D01*
X0182798Y0013203D01*
X0182727Y0013339D01*
X0182660Y0013477D01*
X0182596Y0013617D01*
X0182536Y0013758D01*
X0182480Y0013900D01*
X0182427Y0014044D01*
X0182378Y0014190D01*
X0182333Y0014336D01*
X0182292Y0014484D01*
X0182255Y0014632D01*
X0182221Y0014782D01*
X0182191Y0014933D01*
X0182166Y0015084D01*
X0182144Y0015235D01*
X0182126Y0015388D01*
X0182112Y0015540D01*
X0182102Y0015693D01*
X0182096Y0015847D01*
X0182094Y0016000D01*
D18*
X0187200Y0081000D03*
X0158800Y0081000D03*
X0158800Y0141000D03*
X0187200Y0141000D03*
M02*
