%
M48
M72
T01C0.03200
T02C0.03543
T03C0.04000
T04C0.04700
T05C0.05900
T06C0.11024
%
T01
X48000Y106000
X58000Y106000
X143000Y121000
X153000Y121000
X153000Y141000
X193000Y141000
X193000Y81000
X153000Y81000
T02
X127843Y131000
X108157Y131000
T03
X113200Y163900
X119700Y175400
X126400Y163900
X106300Y175300
X99600Y163800
T04
X28000Y150843
X28000Y131157
X28000Y80843
X28000Y61157
T05
X88000Y66000
X88000Y126000
T06
X18000Y16000
X188000Y16000
X188000Y186000
X18000Y186000
M30
